%TF.GenerationSoftware,KiCad,Pcbnew,9.0.4*%
%TF.CreationDate,2025-12-09T22:45:37+01:00*%
%TF.ProjectId,VFO BFO Si5351,56464f20-4246-44f2-9053-69353335312e,rev?*%
%TF.SameCoordinates,Original*%
%TF.FileFunction,Legend,Top*%
%TF.FilePolarity,Positive*%
%FSLAX46Y46*%
G04 Gerber Fmt 4.6, Leading zero omitted, Abs format (unit mm)*
G04 Created by KiCad (PCBNEW 9.0.4) date 2025-12-09 22:45:37*
%MOMM*%
%LPD*%
G01*
G04 APERTURE LIST*
%ADD10C,0.225000*%
%ADD11C,0.200000*%
%ADD12C,0.250000*%
%ADD13C,0.150000*%
%ADD14C,0.100000*%
%ADD15C,0.120000*%
%ADD16C,0.000000*%
%ADD17C,0.127000*%
G04 APERTURE END LIST*
D10*
X99919142Y-110720617D02*
X99404856Y-110720617D01*
X99661999Y-110720617D02*
X99661999Y-109520617D01*
X99661999Y-109520617D02*
X99576285Y-109692046D01*
X99576285Y-109692046D02*
X99490570Y-109806332D01*
X99490570Y-109806332D02*
X99404856Y-109863475D01*
X100261999Y-109634903D02*
X100304856Y-109577760D01*
X100304856Y-109577760D02*
X100390571Y-109520617D01*
X100390571Y-109520617D02*
X100604856Y-109520617D01*
X100604856Y-109520617D02*
X100690571Y-109577760D01*
X100690571Y-109577760D02*
X100733428Y-109634903D01*
X100733428Y-109634903D02*
X100776285Y-109749189D01*
X100776285Y-109749189D02*
X100776285Y-109863475D01*
X100776285Y-109863475D02*
X100733428Y-110034903D01*
X100733428Y-110034903D02*
X100219142Y-110720617D01*
X100219142Y-110720617D02*
X100776285Y-110720617D01*
X101161999Y-110263475D02*
X101847714Y-110263475D01*
X102233428Y-109634903D02*
X102276285Y-109577760D01*
X102276285Y-109577760D02*
X102362000Y-109520617D01*
X102362000Y-109520617D02*
X102576285Y-109520617D01*
X102576285Y-109520617D02*
X102662000Y-109577760D01*
X102662000Y-109577760D02*
X102704857Y-109634903D01*
X102704857Y-109634903D02*
X102747714Y-109749189D01*
X102747714Y-109749189D02*
X102747714Y-109863475D01*
X102747714Y-109863475D02*
X102704857Y-110034903D01*
X102704857Y-110034903D02*
X102190571Y-110720617D01*
X102190571Y-110720617D02*
X102747714Y-110720617D01*
X103304857Y-109520617D02*
X103390571Y-109520617D01*
X103390571Y-109520617D02*
X103476285Y-109577760D01*
X103476285Y-109577760D02*
X103519143Y-109634903D01*
X103519143Y-109634903D02*
X103562000Y-109749189D01*
X103562000Y-109749189D02*
X103604857Y-109977760D01*
X103604857Y-109977760D02*
X103604857Y-110263475D01*
X103604857Y-110263475D02*
X103562000Y-110492046D01*
X103562000Y-110492046D02*
X103519143Y-110606332D01*
X103519143Y-110606332D02*
X103476285Y-110663475D01*
X103476285Y-110663475D02*
X103390571Y-110720617D01*
X103390571Y-110720617D02*
X103304857Y-110720617D01*
X103304857Y-110720617D02*
X103219143Y-110663475D01*
X103219143Y-110663475D02*
X103176285Y-110606332D01*
X103176285Y-110606332D02*
X103133428Y-110492046D01*
X103133428Y-110492046D02*
X103090571Y-110263475D01*
X103090571Y-110263475D02*
X103090571Y-109977760D01*
X103090571Y-109977760D02*
X103133428Y-109749189D01*
X103133428Y-109749189D02*
X103176285Y-109634903D01*
X103176285Y-109634903D02*
X103219143Y-109577760D01*
X103219143Y-109577760D02*
X103304857Y-109520617D01*
X103947714Y-109634903D02*
X103990571Y-109577760D01*
X103990571Y-109577760D02*
X104076286Y-109520617D01*
X104076286Y-109520617D02*
X104290571Y-109520617D01*
X104290571Y-109520617D02*
X104376286Y-109577760D01*
X104376286Y-109577760D02*
X104419143Y-109634903D01*
X104419143Y-109634903D02*
X104462000Y-109749189D01*
X104462000Y-109749189D02*
X104462000Y-109863475D01*
X104462000Y-109863475D02*
X104419143Y-110034903D01*
X104419143Y-110034903D02*
X103904857Y-110720617D01*
X103904857Y-110720617D02*
X104462000Y-110720617D01*
X105276286Y-109520617D02*
X104847714Y-109520617D01*
X104847714Y-109520617D02*
X104804857Y-110092046D01*
X104804857Y-110092046D02*
X104847714Y-110034903D01*
X104847714Y-110034903D02*
X104933429Y-109977760D01*
X104933429Y-109977760D02*
X105147714Y-109977760D01*
X105147714Y-109977760D02*
X105233429Y-110034903D01*
X105233429Y-110034903D02*
X105276286Y-110092046D01*
X105276286Y-110092046D02*
X105319143Y-110206332D01*
X105319143Y-110206332D02*
X105319143Y-110492046D01*
X105319143Y-110492046D02*
X105276286Y-110606332D01*
X105276286Y-110606332D02*
X105233429Y-110663475D01*
X105233429Y-110663475D02*
X105147714Y-110720617D01*
X105147714Y-110720617D02*
X104933429Y-110720617D01*
X104933429Y-110720617D02*
X104847714Y-110663475D01*
X104847714Y-110663475D02*
X104804857Y-110606332D01*
D11*
X93071720Y-114197238D02*
X93071720Y-112197238D01*
X93071720Y-112197238D02*
X93571720Y-113625809D01*
X93571720Y-113625809D02*
X94071720Y-112197238D01*
X94071720Y-112197238D02*
X94071720Y-114197238D01*
X95428864Y-114197238D02*
X95428864Y-113149619D01*
X95428864Y-113149619D02*
X95357435Y-112959142D01*
X95357435Y-112959142D02*
X95214578Y-112863904D01*
X95214578Y-112863904D02*
X94928864Y-112863904D01*
X94928864Y-112863904D02*
X94786006Y-112959142D01*
X95428864Y-114102000D02*
X95286006Y-114197238D01*
X95286006Y-114197238D02*
X94928864Y-114197238D01*
X94928864Y-114197238D02*
X94786006Y-114102000D01*
X94786006Y-114102000D02*
X94714578Y-113911523D01*
X94714578Y-113911523D02*
X94714578Y-113721047D01*
X94714578Y-113721047D02*
X94786006Y-113530571D01*
X94786006Y-113530571D02*
X94928864Y-113435333D01*
X94928864Y-113435333D02*
X95286006Y-113435333D01*
X95286006Y-113435333D02*
X95428864Y-113340095D01*
X96143149Y-114197238D02*
X96143149Y-112863904D01*
X96143149Y-112197238D02*
X96071721Y-112292476D01*
X96071721Y-112292476D02*
X96143149Y-112387714D01*
X96143149Y-112387714D02*
X96214578Y-112292476D01*
X96214578Y-112292476D02*
X96143149Y-112197238D01*
X96143149Y-112197238D02*
X96143149Y-112387714D01*
X96857435Y-112863904D02*
X96857435Y-114197238D01*
X96857435Y-113054380D02*
X96928864Y-112959142D01*
X96928864Y-112959142D02*
X97071721Y-112863904D01*
X97071721Y-112863904D02*
X97286007Y-112863904D01*
X97286007Y-112863904D02*
X97428864Y-112959142D01*
X97428864Y-112959142D02*
X97500293Y-113149619D01*
X97500293Y-113149619D02*
X97500293Y-114197238D01*
X99857435Y-113149619D02*
X100071721Y-113244857D01*
X100071721Y-113244857D02*
X100143150Y-113340095D01*
X100143150Y-113340095D02*
X100214578Y-113530571D01*
X100214578Y-113530571D02*
X100214578Y-113816285D01*
X100214578Y-113816285D02*
X100143150Y-114006761D01*
X100143150Y-114006761D02*
X100071721Y-114102000D01*
X100071721Y-114102000D02*
X99928864Y-114197238D01*
X99928864Y-114197238D02*
X99357435Y-114197238D01*
X99357435Y-114197238D02*
X99357435Y-112197238D01*
X99357435Y-112197238D02*
X99857435Y-112197238D01*
X99857435Y-112197238D02*
X100000293Y-112292476D01*
X100000293Y-112292476D02*
X100071721Y-112387714D01*
X100071721Y-112387714D02*
X100143150Y-112578190D01*
X100143150Y-112578190D02*
X100143150Y-112768666D01*
X100143150Y-112768666D02*
X100071721Y-112959142D01*
X100071721Y-112959142D02*
X100000293Y-113054380D01*
X100000293Y-113054380D02*
X99857435Y-113149619D01*
X99857435Y-113149619D02*
X99357435Y-113149619D01*
X101071721Y-114197238D02*
X100928864Y-114102000D01*
X100928864Y-114102000D02*
X100857435Y-114006761D01*
X100857435Y-114006761D02*
X100786007Y-113816285D01*
X100786007Y-113816285D02*
X100786007Y-113244857D01*
X100786007Y-113244857D02*
X100857435Y-113054380D01*
X100857435Y-113054380D02*
X100928864Y-112959142D01*
X100928864Y-112959142D02*
X101071721Y-112863904D01*
X101071721Y-112863904D02*
X101286007Y-112863904D01*
X101286007Y-112863904D02*
X101428864Y-112959142D01*
X101428864Y-112959142D02*
X101500293Y-113054380D01*
X101500293Y-113054380D02*
X101571721Y-113244857D01*
X101571721Y-113244857D02*
X101571721Y-113816285D01*
X101571721Y-113816285D02*
X101500293Y-114006761D01*
X101500293Y-114006761D02*
X101428864Y-114102000D01*
X101428864Y-114102000D02*
X101286007Y-114197238D01*
X101286007Y-114197238D02*
X101071721Y-114197238D01*
X102857436Y-114197238D02*
X102857436Y-113149619D01*
X102857436Y-113149619D02*
X102786007Y-112959142D01*
X102786007Y-112959142D02*
X102643150Y-112863904D01*
X102643150Y-112863904D02*
X102357436Y-112863904D01*
X102357436Y-112863904D02*
X102214578Y-112959142D01*
X102857436Y-114102000D02*
X102714578Y-114197238D01*
X102714578Y-114197238D02*
X102357436Y-114197238D01*
X102357436Y-114197238D02*
X102214578Y-114102000D01*
X102214578Y-114102000D02*
X102143150Y-113911523D01*
X102143150Y-113911523D02*
X102143150Y-113721047D01*
X102143150Y-113721047D02*
X102214578Y-113530571D01*
X102214578Y-113530571D02*
X102357436Y-113435333D01*
X102357436Y-113435333D02*
X102714578Y-113435333D01*
X102714578Y-113435333D02*
X102857436Y-113340095D01*
X103571721Y-114197238D02*
X103571721Y-112863904D01*
X103571721Y-113244857D02*
X103643150Y-113054380D01*
X103643150Y-113054380D02*
X103714579Y-112959142D01*
X103714579Y-112959142D02*
X103857436Y-112863904D01*
X103857436Y-112863904D02*
X104000293Y-112863904D01*
X105143150Y-114197238D02*
X105143150Y-112197238D01*
X105143150Y-114102000D02*
X105000292Y-114197238D01*
X105000292Y-114197238D02*
X104714578Y-114197238D01*
X104714578Y-114197238D02*
X104571721Y-114102000D01*
X104571721Y-114102000D02*
X104500292Y-114006761D01*
X104500292Y-114006761D02*
X104428864Y-113816285D01*
X104428864Y-113816285D02*
X104428864Y-113244857D01*
X104428864Y-113244857D02*
X104500292Y-113054380D01*
X104500292Y-113054380D02*
X104571721Y-112959142D01*
X104571721Y-112959142D02*
X104714578Y-112863904D01*
X104714578Y-112863904D02*
X105000292Y-112863904D01*
X105000292Y-112863904D02*
X105143150Y-112959142D01*
D12*
G36*
X93379049Y-106318720D02*
G01*
X93455639Y-106471901D01*
X93499638Y-106823888D01*
X93499638Y-107474986D01*
X93455639Y-107826973D01*
X93379048Y-107980157D01*
X93334767Y-108024438D01*
X93247843Y-108024438D01*
X93203562Y-107980157D01*
X93126970Y-107826972D01*
X93082972Y-107474987D01*
X93082972Y-106823888D01*
X93126970Y-106471901D01*
X93203561Y-106318719D01*
X93247843Y-106274438D01*
X93334767Y-106274438D01*
X93379049Y-106318720D01*
G37*
G36*
X95670536Y-107282649D02*
G01*
X95697173Y-107335923D01*
X95737733Y-107498160D01*
X95737733Y-107753096D01*
X95697173Y-107915332D01*
X95664761Y-107980157D01*
X95620481Y-108024438D01*
X95416305Y-108024438D01*
X95416305Y-107226819D01*
X95586791Y-107226819D01*
X95670536Y-107282649D01*
G37*
G36*
X95617143Y-106318719D02*
G01*
X95649554Y-106383542D01*
X95690114Y-106545779D01*
X95690114Y-106705477D01*
X95649554Y-106867713D01*
X95617144Y-106932534D01*
X95572861Y-106976819D01*
X95416305Y-106976819D01*
X95416305Y-106274438D01*
X95572862Y-106274438D01*
X95617143Y-106318719D01*
G37*
G36*
X97521906Y-106318720D02*
G01*
X97598496Y-106471901D01*
X97642495Y-106823888D01*
X97642495Y-107474986D01*
X97598496Y-107826973D01*
X97521905Y-107980157D01*
X97477624Y-108024438D01*
X97390700Y-108024438D01*
X97346419Y-107980157D01*
X97269827Y-107826972D01*
X97225829Y-107474987D01*
X97225829Y-106823888D01*
X97269827Y-106471901D01*
X97346418Y-106318719D01*
X97390700Y-106274438D01*
X97477624Y-106274438D01*
X97521906Y-106318720D01*
G37*
G36*
X101093335Y-106318720D02*
G01*
X101169925Y-106471901D01*
X101213924Y-106823888D01*
X101213924Y-107474986D01*
X101169925Y-107826973D01*
X101093334Y-107980157D01*
X101049053Y-108024438D01*
X100962129Y-108024438D01*
X100917848Y-107980157D01*
X100841256Y-107826972D01*
X100797258Y-107474987D01*
X100797258Y-106823888D01*
X100841256Y-106471901D01*
X100917847Y-106318719D01*
X100962129Y-106274438D01*
X101049053Y-106274438D01*
X101093335Y-106318720D01*
G37*
G36*
X105093334Y-106318719D02*
G01*
X105125745Y-106383542D01*
X105168206Y-106553383D01*
X105213924Y-106919126D01*
X105213924Y-107379748D01*
X105168206Y-107745491D01*
X105125745Y-107915332D01*
X105093333Y-107980157D01*
X105053210Y-108020281D01*
X105013086Y-107980157D01*
X104980674Y-107915332D01*
X104938213Y-107745491D01*
X104892496Y-107379749D01*
X104892496Y-106919126D01*
X104938213Y-106553384D01*
X104980674Y-106383541D01*
X105013085Y-106318720D01*
X105053210Y-106278595D01*
X105093334Y-106318719D01*
G37*
G36*
X87998095Y-106318719D02*
G01*
X88030506Y-106383542D01*
X88071066Y-106545779D01*
X88071066Y-106800715D01*
X88030506Y-106962951D01*
X87998094Y-107027776D01*
X87953814Y-107072057D01*
X87749638Y-107072057D01*
X87749638Y-106274438D01*
X87953814Y-106274438D01*
X87998095Y-106318719D01*
G37*
G36*
X105686146Y-108687136D02*
G01*
X85420273Y-108687136D01*
X85420273Y-108315528D01*
X90168707Y-108315528D01*
X90168707Y-108364300D01*
X90187371Y-108409360D01*
X90221859Y-108443848D01*
X90266919Y-108462512D01*
X90291305Y-108464914D01*
X91053209Y-108464914D01*
X91077595Y-108462512D01*
X91122655Y-108443848D01*
X91157143Y-108409360D01*
X91175807Y-108364300D01*
X91175807Y-108315528D01*
X97835374Y-108315528D01*
X97835374Y-108364300D01*
X97854038Y-108409360D01*
X97888526Y-108443848D01*
X97933586Y-108462512D01*
X97957972Y-108464914D01*
X98719876Y-108464914D01*
X98744262Y-108462512D01*
X98789322Y-108443848D01*
X98823810Y-108409360D01*
X98842474Y-108364300D01*
X98842474Y-108315528D01*
X98823810Y-108270468D01*
X98789322Y-108235980D01*
X98744262Y-108217316D01*
X98719876Y-108214914D01*
X97957972Y-108214914D01*
X97933586Y-108217316D01*
X97888526Y-108235980D01*
X97854038Y-108270468D01*
X97835374Y-108315528D01*
X91175807Y-108315528D01*
X91157143Y-108270468D01*
X91122655Y-108235980D01*
X91077595Y-108217316D01*
X91053209Y-108214914D01*
X90291305Y-108214914D01*
X90266919Y-108217316D01*
X90221859Y-108235980D01*
X90187371Y-108270468D01*
X90168707Y-108315528D01*
X85420273Y-108315528D01*
X85420273Y-106149438D01*
X85642495Y-106149438D01*
X85642495Y-108149438D01*
X85644897Y-108173824D01*
X85663561Y-108218884D01*
X85698049Y-108253372D01*
X85743109Y-108272036D01*
X85767495Y-108274438D01*
X86243685Y-108274438D01*
X86268071Y-108272036D01*
X86313131Y-108253372D01*
X86347619Y-108218884D01*
X86366283Y-108173824D01*
X86366283Y-108125052D01*
X86347619Y-108079992D01*
X86313131Y-108045504D01*
X86268071Y-108026840D01*
X86243685Y-108024438D01*
X85892495Y-108024438D01*
X85892495Y-107226819D01*
X86100828Y-107226819D01*
X86125214Y-107224417D01*
X86170274Y-107205753D01*
X86204762Y-107171265D01*
X86223426Y-107126205D01*
X86223426Y-107077433D01*
X86204762Y-107032373D01*
X86170274Y-106997885D01*
X86125214Y-106979221D01*
X86100828Y-106976819D01*
X85892495Y-106976819D01*
X85892495Y-106530390D01*
X86499638Y-106530390D01*
X86499638Y-106720866D01*
X86500057Y-106725120D01*
X86499786Y-106726942D01*
X86501135Y-106736070D01*
X86502040Y-106745252D01*
X86502744Y-106746953D01*
X86503370Y-106751183D01*
X86550989Y-106941659D01*
X86551632Y-106943458D01*
X86551696Y-106944358D01*
X86555578Y-106954504D01*
X86559234Y-106964734D01*
X86559770Y-106965458D01*
X86560454Y-106967244D01*
X86608072Y-107062481D01*
X86614678Y-107072975D01*
X86615942Y-107076026D01*
X86618762Y-107079462D01*
X86621127Y-107083219D01*
X86623618Y-107085379D01*
X86631487Y-107094968D01*
X86726725Y-107190207D01*
X86736313Y-107198076D01*
X86738475Y-107200568D01*
X86742232Y-107202933D01*
X86745667Y-107205752D01*
X86748717Y-107207015D01*
X86759212Y-107213622D01*
X86931546Y-107299789D01*
X86998095Y-107366338D01*
X87030506Y-107431161D01*
X87071066Y-107593398D01*
X87071066Y-107753096D01*
X87030506Y-107915332D01*
X86998094Y-107980157D01*
X86953814Y-108024438D01*
X86805342Y-108024438D01*
X86693976Y-107950194D01*
X86672353Y-107938665D01*
X86624508Y-107929200D01*
X86576681Y-107938765D01*
X86536157Y-107965904D01*
X86509103Y-108006485D01*
X86499638Y-108054330D01*
X86509203Y-108102157D01*
X86536342Y-108142681D01*
X86555300Y-108158206D01*
X86698047Y-108253370D01*
X86698049Y-108253372D01*
X86698051Y-108253373D01*
X86698158Y-108253444D01*
X86719780Y-108264973D01*
X86731795Y-108267349D01*
X86743109Y-108272036D01*
X86767495Y-108274438D01*
X86767626Y-108274438D01*
X87005590Y-108274438D01*
X87029976Y-108272036D01*
X87029977Y-108272036D01*
X87047269Y-108264873D01*
X87075036Y-108253372D01*
X87075041Y-108253366D01*
X87093978Y-108237826D01*
X87189216Y-108142588D01*
X87197079Y-108133005D01*
X87199578Y-108130839D01*
X87201948Y-108127072D01*
X87204761Y-108123646D01*
X87206021Y-108120601D01*
X87212632Y-108110101D01*
X87260251Y-108014862D01*
X87260934Y-108013075D01*
X87261470Y-108012353D01*
X87265121Y-108002134D01*
X87269008Y-107991977D01*
X87269071Y-107991077D01*
X87269715Y-107989278D01*
X87317334Y-107798802D01*
X87317959Y-107794572D01*
X87318664Y-107792871D01*
X87319568Y-107783691D01*
X87320918Y-107774562D01*
X87320646Y-107772739D01*
X87321066Y-107768485D01*
X87321066Y-107578009D01*
X87320646Y-107573754D01*
X87320918Y-107571932D01*
X87319568Y-107562802D01*
X87318664Y-107553623D01*
X87317959Y-107551921D01*
X87317334Y-107547692D01*
X87269715Y-107357216D01*
X87269071Y-107355416D01*
X87269008Y-107354517D01*
X87265125Y-107344370D01*
X87261470Y-107334141D01*
X87260933Y-107333416D01*
X87260250Y-107331631D01*
X87212631Y-107236393D01*
X87206023Y-107225896D01*
X87204761Y-107222849D01*
X87201944Y-107219417D01*
X87199577Y-107215656D01*
X87197082Y-107213492D01*
X87189216Y-107203907D01*
X87093978Y-107108669D01*
X87084392Y-107100802D01*
X87082229Y-107098308D01*
X87078467Y-107095940D01*
X87075036Y-107093124D01*
X87071988Y-107091861D01*
X87061492Y-107085254D01*
X86889160Y-106999088D01*
X86822607Y-106932534D01*
X86790197Y-106867715D01*
X86749638Y-106705477D01*
X86749638Y-106545779D01*
X86790197Y-106383541D01*
X86822608Y-106318720D01*
X86866890Y-106274438D01*
X87015362Y-106274438D01*
X87126729Y-106348682D01*
X87148351Y-106360211D01*
X87196197Y-106369676D01*
X87244023Y-106360111D01*
X87284547Y-106332972D01*
X87311601Y-106292391D01*
X87321066Y-106244546D01*
X87311501Y-106196720D01*
X87284362Y-106156195D01*
X87276111Y-106149438D01*
X87499638Y-106149438D01*
X87499638Y-108149438D01*
X87502040Y-108173824D01*
X87520704Y-108218884D01*
X87555192Y-108253372D01*
X87600252Y-108272036D01*
X87649024Y-108272036D01*
X87694084Y-108253372D01*
X87728572Y-108218884D01*
X87747236Y-108173824D01*
X87749638Y-108149438D01*
X87749638Y-107943327D01*
X88405381Y-107943327D01*
X88408839Y-107991976D01*
X88417596Y-108014862D01*
X88465215Y-108110101D01*
X88471824Y-108120600D01*
X88473086Y-108123646D01*
X88475900Y-108127075D01*
X88478269Y-108130838D01*
X88480764Y-108133002D01*
X88488631Y-108142588D01*
X88583869Y-108237826D01*
X88602805Y-108253366D01*
X88602811Y-108253372D01*
X88630578Y-108264873D01*
X88647870Y-108272036D01*
X88647871Y-108272036D01*
X88672257Y-108274438D01*
X88957971Y-108274438D01*
X88982357Y-108272036D01*
X88982358Y-108272036D01*
X88999650Y-108264873D01*
X89027417Y-108253372D01*
X89027422Y-108253366D01*
X89046359Y-108237826D01*
X89119113Y-108165072D01*
X89357762Y-108165072D01*
X89359183Y-108169334D01*
X89359183Y-108173824D01*
X89366848Y-108192331D01*
X89373186Y-108211342D01*
X89376128Y-108214734D01*
X89377847Y-108218884D01*
X89392017Y-108233054D01*
X89405142Y-108248187D01*
X89409158Y-108250195D01*
X89412335Y-108253372D01*
X89430846Y-108261039D01*
X89448765Y-108269999D01*
X89453246Y-108270317D01*
X89457395Y-108272036D01*
X89481781Y-108274438D01*
X90100828Y-108274438D01*
X90125214Y-108272036D01*
X90170274Y-108253372D01*
X90204762Y-108218884D01*
X90223426Y-108173824D01*
X90223426Y-108125052D01*
X90204762Y-108079992D01*
X90170274Y-108045504D01*
X90125214Y-108026840D01*
X90100828Y-108024438D01*
X89684035Y-108024438D01*
X90165013Y-107062481D01*
X90168467Y-107053453D01*
X90170130Y-107050789D01*
X90171663Y-107045102D01*
X90173770Y-107039596D01*
X90173992Y-107036459D01*
X90176508Y-107027130D01*
X90224127Y-106741416D01*
X90224816Y-106731131D01*
X90225828Y-106720866D01*
X90225828Y-106530390D01*
X90225408Y-106526135D01*
X90225680Y-106524313D01*
X90224330Y-106515183D01*
X90223426Y-106506004D01*
X90222721Y-106504302D01*
X90222096Y-106500073D01*
X90174477Y-106309597D01*
X90173833Y-106307797D01*
X90173770Y-106306898D01*
X90169887Y-106296751D01*
X90166232Y-106286522D01*
X90165695Y-106285797D01*
X90165012Y-106284012D01*
X90117393Y-106188774D01*
X90110785Y-106178277D01*
X90109523Y-106175230D01*
X90106706Y-106171798D01*
X90104339Y-106168037D01*
X90101844Y-106165873D01*
X90093978Y-106156288D01*
X90083229Y-106145539D01*
X91023509Y-106145539D01*
X91025149Y-106169988D01*
X91358482Y-108169987D01*
X91364860Y-108193647D01*
X91366952Y-108196999D01*
X91367844Y-108200852D01*
X91379797Y-108217587D01*
X91390678Y-108235025D01*
X91393893Y-108237321D01*
X91396193Y-108240541D01*
X91413642Y-108251428D01*
X91430366Y-108263374D01*
X91434217Y-108264265D01*
X91437572Y-108266359D01*
X91457855Y-108269739D01*
X91477882Y-108274377D01*
X91481780Y-108273727D01*
X91485680Y-108274377D01*
X91505720Y-108269736D01*
X91525990Y-108266358D01*
X91529340Y-108264267D01*
X91533195Y-108263375D01*
X91549930Y-108251420D01*
X91567369Y-108240541D01*
X91569666Y-108237323D01*
X91572884Y-108235026D01*
X91583767Y-108217583D01*
X91595718Y-108200852D01*
X91596609Y-108197000D01*
X91598702Y-108193647D01*
X91605080Y-108169988D01*
X91938413Y-106169988D01*
X91939791Y-106149438D01*
X92023448Y-106149438D01*
X92023448Y-108149438D01*
X92025850Y-108173824D01*
X92044514Y-108218884D01*
X92079002Y-108253372D01*
X92124062Y-108272036D01*
X92172834Y-108272036D01*
X92217894Y-108253372D01*
X92252382Y-108218884D01*
X92271046Y-108173824D01*
X92273448Y-108149438D01*
X92273448Y-107226819D01*
X92481781Y-107226819D01*
X92506167Y-107224417D01*
X92551227Y-107205753D01*
X92585715Y-107171265D01*
X92604379Y-107126205D01*
X92604379Y-107077433D01*
X92585715Y-107032373D01*
X92551227Y-106997885D01*
X92506167Y-106979221D01*
X92481781Y-106976819D01*
X92273448Y-106976819D01*
X92273448Y-106816104D01*
X92832972Y-106816104D01*
X92832972Y-107482771D01*
X92833733Y-107490503D01*
X92833937Y-107498275D01*
X92881556Y-107879228D01*
X92884806Y-107893591D01*
X92885030Y-107896739D01*
X92886225Y-107899862D01*
X92886964Y-107903127D01*
X92888524Y-107905871D01*
X92893787Y-107919624D01*
X92989026Y-108110102D01*
X92995633Y-108120598D01*
X92996896Y-108123646D01*
X92999712Y-108127077D01*
X93002080Y-108130839D01*
X93004574Y-108133002D01*
X93012441Y-108142588D01*
X93107679Y-108237826D01*
X93126615Y-108253366D01*
X93126621Y-108253372D01*
X93154388Y-108264873D01*
X93171680Y-108272036D01*
X93171681Y-108272036D01*
X93196067Y-108274438D01*
X93386543Y-108274438D01*
X93410929Y-108272036D01*
X93410930Y-108272036D01*
X93428222Y-108264873D01*
X93455989Y-108253372D01*
X93455994Y-108253366D01*
X93474931Y-108237826D01*
X93570169Y-108142588D01*
X93578035Y-108133002D01*
X93580530Y-108130839D01*
X93582898Y-108127077D01*
X93585714Y-108123646D01*
X93586975Y-108120599D01*
X93593585Y-108110101D01*
X93688823Y-107919624D01*
X93694084Y-107905872D01*
X93695646Y-107903127D01*
X93696385Y-107899861D01*
X93697580Y-107896738D01*
X93697803Y-107893591D01*
X93701054Y-107879227D01*
X93748673Y-107498275D01*
X93748876Y-107490503D01*
X93749638Y-107482771D01*
X93749638Y-107363147D01*
X93930612Y-107363147D01*
X93930612Y-107411919D01*
X93949276Y-107456979D01*
X93983764Y-107491467D01*
X94028824Y-107510131D01*
X94053210Y-107512533D01*
X94815115Y-107512533D01*
X94839501Y-107510131D01*
X94884561Y-107491467D01*
X94919049Y-107456979D01*
X94937713Y-107411919D01*
X94937713Y-107363147D01*
X94919049Y-107318087D01*
X94884561Y-107283599D01*
X94839501Y-107264935D01*
X94815115Y-107262533D01*
X94053210Y-107262533D01*
X94028824Y-107264935D01*
X93983764Y-107283599D01*
X93949276Y-107318087D01*
X93930612Y-107363147D01*
X93749638Y-107363147D01*
X93749638Y-106816104D01*
X93748876Y-106808371D01*
X93748673Y-106800600D01*
X93701054Y-106419648D01*
X93697803Y-106405283D01*
X93697580Y-106402136D01*
X93696384Y-106399011D01*
X93695646Y-106395748D01*
X93694085Y-106393003D01*
X93688823Y-106379251D01*
X93593584Y-106188774D01*
X93586976Y-106178277D01*
X93585714Y-106175230D01*
X93582897Y-106171798D01*
X93580530Y-106168037D01*
X93578035Y-106165873D01*
X93570169Y-106156288D01*
X93563319Y-106149438D01*
X95166305Y-106149438D01*
X95166305Y-108149438D01*
X95168707Y-108173824D01*
X95187371Y-108218884D01*
X95221859Y-108253372D01*
X95266919Y-108272036D01*
X95291305Y-108274438D01*
X95672257Y-108274438D01*
X95696643Y-108272036D01*
X95696644Y-108272036D01*
X95713936Y-108264873D01*
X95741703Y-108253372D01*
X95741708Y-108253366D01*
X95760645Y-108237826D01*
X95855883Y-108142588D01*
X95863746Y-108133005D01*
X95866245Y-108130839D01*
X95868615Y-108127072D01*
X95871428Y-108123646D01*
X95872688Y-108120601D01*
X95879299Y-108110101D01*
X95926918Y-108014862D01*
X95927601Y-108013075D01*
X95928137Y-108012353D01*
X95931788Y-108002134D01*
X95935675Y-107991977D01*
X95935738Y-107991077D01*
X95936382Y-107989278D01*
X95984001Y-107798802D01*
X95984626Y-107794572D01*
X95985331Y-107792871D01*
X95986235Y-107783691D01*
X95987585Y-107774562D01*
X95987313Y-107772739D01*
X95987733Y-107768485D01*
X95987733Y-107482771D01*
X95987313Y-107478516D01*
X95987585Y-107476694D01*
X95986235Y-107467564D01*
X95985331Y-107458385D01*
X95984626Y-107456683D01*
X95984001Y-107452454D01*
X95936382Y-107261978D01*
X95935738Y-107260178D01*
X95935675Y-107259279D01*
X95931792Y-107249132D01*
X95928137Y-107238903D01*
X95927600Y-107238178D01*
X95926917Y-107236393D01*
X95879298Y-107141155D01*
X95866244Y-107120418D01*
X95860226Y-107115198D01*
X95855791Y-107108576D01*
X95836833Y-107093051D01*
X95819647Y-107081594D01*
X95820989Y-107079462D01*
X95823810Y-107076026D01*
X95825074Y-107072974D01*
X95831679Y-107062482D01*
X95879298Y-106967244D01*
X95879981Y-106965458D01*
X95880518Y-106964734D01*
X95884173Y-106954504D01*
X95888056Y-106944358D01*
X95888119Y-106943458D01*
X95888763Y-106941659D01*
X95936382Y-106751183D01*
X95937007Y-106746953D01*
X95937712Y-106745252D01*
X95938616Y-106736072D01*
X95939966Y-106726943D01*
X95939694Y-106725120D01*
X95940114Y-106720866D01*
X95940114Y-106530390D01*
X95939694Y-106526135D01*
X95939966Y-106524313D01*
X95938616Y-106515183D01*
X95937712Y-106506004D01*
X95937007Y-106504302D01*
X95936382Y-106500073D01*
X95888763Y-106309597D01*
X95888119Y-106307797D01*
X95888056Y-106306898D01*
X95884173Y-106296751D01*
X95880518Y-106286522D01*
X95879981Y-106285797D01*
X95879298Y-106284012D01*
X95831679Y-106188774D01*
X95825071Y-106178277D01*
X95823809Y-106175230D01*
X95820992Y-106171798D01*
X95818625Y-106168037D01*
X95816130Y-106165873D01*
X95808264Y-106156288D01*
X95801414Y-106149438D01*
X96166305Y-106149438D01*
X96166305Y-108149438D01*
X96168707Y-108173824D01*
X96187371Y-108218884D01*
X96221859Y-108253372D01*
X96266919Y-108272036D01*
X96315691Y-108272036D01*
X96360751Y-108253372D01*
X96395239Y-108218884D01*
X96413903Y-108173824D01*
X96416305Y-108149438D01*
X96416305Y-107226819D01*
X96624638Y-107226819D01*
X96649024Y-107224417D01*
X96694084Y-107205753D01*
X96728572Y-107171265D01*
X96747236Y-107126205D01*
X96747236Y-107077433D01*
X96728572Y-107032373D01*
X96694084Y-106997885D01*
X96649024Y-106979221D01*
X96624638Y-106976819D01*
X96416305Y-106976819D01*
X96416305Y-106816104D01*
X96975829Y-106816104D01*
X96975829Y-107482771D01*
X96976590Y-107490503D01*
X96976794Y-107498275D01*
X97024413Y-107879228D01*
X97027663Y-107893591D01*
X97027887Y-107896739D01*
X97029082Y-107899862D01*
X97029821Y-107903127D01*
X97031381Y-107905871D01*
X97036644Y-107919624D01*
X97131883Y-108110102D01*
X97138490Y-108120598D01*
X97139753Y-108123646D01*
X97142569Y-108127077D01*
X97144937Y-108130839D01*
X97147431Y-108133002D01*
X97155298Y-108142588D01*
X97250536Y-108237826D01*
X97269472Y-108253366D01*
X97269478Y-108253372D01*
X97297245Y-108264873D01*
X97314537Y-108272036D01*
X97314538Y-108272036D01*
X97338924Y-108274438D01*
X97529400Y-108274438D01*
X97553786Y-108272036D01*
X97553787Y-108272036D01*
X97571079Y-108264873D01*
X97598846Y-108253372D01*
X97598851Y-108253366D01*
X97617788Y-108237826D01*
X97713026Y-108142588D01*
X97720892Y-108133002D01*
X97723387Y-108130839D01*
X97725755Y-108127077D01*
X97728571Y-108123646D01*
X97729832Y-108120599D01*
X97736442Y-108110101D01*
X97831680Y-107919624D01*
X97836941Y-107905872D01*
X97838503Y-107903127D01*
X97839242Y-107899861D01*
X97840437Y-107896738D01*
X97840660Y-107893591D01*
X97843911Y-107879227D01*
X97891530Y-107498275D01*
X97891733Y-107490503D01*
X97892495Y-107482771D01*
X97892495Y-106816104D01*
X97891733Y-106808371D01*
X97891530Y-106800600D01*
X97843911Y-106419648D01*
X97840660Y-106405283D01*
X97840437Y-106402136D01*
X97839241Y-106399011D01*
X97838503Y-106395748D01*
X97836942Y-106393003D01*
X97831680Y-106379251D01*
X97736441Y-106188774D01*
X97729833Y-106178277D01*
X97728571Y-106175230D01*
X97725754Y-106171798D01*
X97723387Y-106168037D01*
X97720892Y-106165873D01*
X97713026Y-106156288D01*
X97706176Y-106149438D01*
X98832972Y-106149438D01*
X98832972Y-108149438D01*
X98835374Y-108173824D01*
X98854038Y-108218884D01*
X98888526Y-108253372D01*
X98933586Y-108272036D01*
X98957972Y-108274438D01*
X99434162Y-108274438D01*
X99458548Y-108272036D01*
X99503608Y-108253372D01*
X99538096Y-108218884D01*
X99556760Y-108173824D01*
X99556760Y-108125052D01*
X99538096Y-108079992D01*
X99503608Y-108045504D01*
X99458548Y-108026840D01*
X99434162Y-108024438D01*
X99082972Y-108024438D01*
X99082972Y-107226819D01*
X99291305Y-107226819D01*
X99315691Y-107224417D01*
X99360751Y-107205753D01*
X99395239Y-107171265D01*
X99413903Y-107126205D01*
X99413903Y-107077433D01*
X99395239Y-107032373D01*
X99360751Y-106997885D01*
X99315691Y-106979221D01*
X99291305Y-106976819D01*
X99082972Y-106976819D01*
X99082972Y-106274438D01*
X99434162Y-106274438D01*
X99458548Y-106272036D01*
X99503608Y-106253372D01*
X99538096Y-106218884D01*
X99556760Y-106173824D01*
X99556760Y-106145539D01*
X99594938Y-106145539D01*
X99596578Y-106169988D01*
X99929911Y-108169987D01*
X99936289Y-108193647D01*
X99938381Y-108196999D01*
X99939273Y-108200852D01*
X99951226Y-108217587D01*
X99962107Y-108235025D01*
X99965322Y-108237321D01*
X99967622Y-108240541D01*
X99985071Y-108251428D01*
X100001795Y-108263374D01*
X100005646Y-108264265D01*
X100009001Y-108266359D01*
X100029284Y-108269739D01*
X100049311Y-108274377D01*
X100053209Y-108273727D01*
X100057109Y-108274377D01*
X100077149Y-108269736D01*
X100097419Y-108266358D01*
X100100769Y-108264267D01*
X100104624Y-108263375D01*
X100121359Y-108251420D01*
X100138798Y-108240541D01*
X100141095Y-108237323D01*
X100144313Y-108235026D01*
X100155196Y-108217583D01*
X100167147Y-108200852D01*
X100168038Y-108197000D01*
X100170131Y-108193647D01*
X100176509Y-108169988D01*
X100402156Y-106816104D01*
X100547258Y-106816104D01*
X100547258Y-107482771D01*
X100548019Y-107490503D01*
X100548223Y-107498275D01*
X100595842Y-107879228D01*
X100599092Y-107893591D01*
X100599316Y-107896739D01*
X100600511Y-107899862D01*
X100601250Y-107903127D01*
X100602810Y-107905871D01*
X100608073Y-107919624D01*
X100703312Y-108110102D01*
X100709919Y-108120598D01*
X100711182Y-108123646D01*
X100713998Y-108127077D01*
X100716366Y-108130839D01*
X100718860Y-108133002D01*
X100726727Y-108142588D01*
X100821965Y-108237826D01*
X100840901Y-108253366D01*
X100840907Y-108253372D01*
X100868674Y-108264873D01*
X100885966Y-108272036D01*
X100885967Y-108272036D01*
X100910353Y-108274438D01*
X101100829Y-108274438D01*
X101125215Y-108272036D01*
X101125216Y-108272036D01*
X101142508Y-108264873D01*
X101170275Y-108253372D01*
X101170280Y-108253366D01*
X101189217Y-108237826D01*
X101284455Y-108142588D01*
X101292321Y-108133002D01*
X101294816Y-108130839D01*
X101297184Y-108127077D01*
X101300000Y-108123646D01*
X101301261Y-108120599D01*
X101307871Y-108110101D01*
X101403109Y-107919624D01*
X101408370Y-107905872D01*
X101409932Y-107903127D01*
X101410671Y-107899861D01*
X101411866Y-107896738D01*
X101412089Y-107893591D01*
X101415340Y-107879227D01*
X101462959Y-107498275D01*
X101463162Y-107490503D01*
X101463924Y-107482771D01*
X101463924Y-106816104D01*
X101463162Y-106808371D01*
X101462959Y-106800600D01*
X101415340Y-106419648D01*
X101412089Y-106405283D01*
X101411866Y-106402136D01*
X101410670Y-106399011D01*
X101409932Y-106395748D01*
X101408371Y-106393003D01*
X101403109Y-106379251D01*
X101307870Y-106188774D01*
X101301262Y-106178277D01*
X101300000Y-106175230D01*
X101297183Y-106171798D01*
X101294816Y-106168037D01*
X101292321Y-106165873D01*
X101284455Y-106156288D01*
X101273706Y-106145539D01*
X102261605Y-106145539D01*
X102263245Y-106169988D01*
X102596578Y-108169987D01*
X102602956Y-108193647D01*
X102605048Y-108196999D01*
X102605940Y-108200852D01*
X102617893Y-108217587D01*
X102628774Y-108235025D01*
X102631989Y-108237321D01*
X102634289Y-108240541D01*
X102651738Y-108251428D01*
X102668462Y-108263374D01*
X102672313Y-108264265D01*
X102675668Y-108266359D01*
X102695951Y-108269739D01*
X102715978Y-108274377D01*
X102719876Y-108273727D01*
X102723776Y-108274377D01*
X102743816Y-108269736D01*
X102764086Y-108266358D01*
X102767436Y-108264267D01*
X102771291Y-108263375D01*
X102788026Y-108251420D01*
X102805465Y-108240541D01*
X102807762Y-108237323D01*
X102810980Y-108235026D01*
X102821863Y-108217583D01*
X102833814Y-108200852D01*
X102834705Y-108197000D01*
X102836798Y-108193647D01*
X102843176Y-108169988D01*
X103088761Y-106696479D01*
X103216327Y-106696479D01*
X103216327Y-106745253D01*
X103234992Y-106790312D01*
X103269479Y-106824799D01*
X103314538Y-106843464D01*
X103363312Y-106843464D01*
X103408371Y-106824799D01*
X103427313Y-106809254D01*
X103499639Y-106736928D01*
X103499639Y-108024438D01*
X103338925Y-108024438D01*
X103314539Y-108026840D01*
X103269479Y-108045504D01*
X103234991Y-108079992D01*
X103216327Y-108125052D01*
X103216327Y-108173824D01*
X103234991Y-108218884D01*
X103269479Y-108253372D01*
X103314539Y-108272036D01*
X103338925Y-108274438D01*
X103910353Y-108274438D01*
X103934739Y-108272036D01*
X103979799Y-108253372D01*
X104014287Y-108218884D01*
X104032951Y-108173824D01*
X104032951Y-108125052D01*
X104014287Y-108079992D01*
X103979799Y-108045504D01*
X103963049Y-108038566D01*
X104167287Y-108038566D01*
X104168398Y-108054200D01*
X104167287Y-108069834D01*
X104170111Y-108078308D01*
X104170745Y-108087216D01*
X104179503Y-108110102D01*
X104227121Y-108205339D01*
X104229688Y-108209417D01*
X104230330Y-108211342D01*
X104232409Y-108213739D01*
X104233727Y-108215833D01*
X104234991Y-108218884D01*
X104236763Y-108220656D01*
X104240176Y-108226077D01*
X104252016Y-108236346D01*
X104262286Y-108248187D01*
X104266302Y-108250195D01*
X104269479Y-108253372D01*
X104273628Y-108255090D01*
X104277021Y-108258033D01*
X104291889Y-108262989D01*
X104305909Y-108269999D01*
X104310390Y-108270317D01*
X104314539Y-108272036D01*
X104319031Y-108272036D01*
X104323291Y-108273456D01*
X104338917Y-108272345D01*
X104354559Y-108273457D01*
X104358822Y-108272036D01*
X104363311Y-108272036D01*
X104367462Y-108270316D01*
X104371941Y-108269998D01*
X104385954Y-108262991D01*
X104400829Y-108258033D01*
X104404221Y-108255090D01*
X104408371Y-108253372D01*
X104411548Y-108250194D01*
X104415564Y-108248187D01*
X104425833Y-108236346D01*
X104437674Y-108226077D01*
X104441085Y-108220657D01*
X104442859Y-108218884D01*
X104444122Y-108215832D01*
X104445440Y-108213740D01*
X104447520Y-108211342D01*
X104448161Y-108209416D01*
X104450728Y-108205340D01*
X104498347Y-108110102D01*
X104507105Y-108087216D01*
X104507738Y-108078305D01*
X104510562Y-108069834D01*
X104509451Y-108054200D01*
X104510562Y-108038567D01*
X104507738Y-108030095D01*
X104507105Y-108021184D01*
X104498348Y-107998299D01*
X104450729Y-107903060D01*
X104448161Y-107898980D01*
X104447520Y-107897057D01*
X104445442Y-107894661D01*
X104444121Y-107892563D01*
X104442859Y-107889515D01*
X104441087Y-107887743D01*
X104437675Y-107882322D01*
X104425827Y-107872046D01*
X104415563Y-107860212D01*
X104411548Y-107858204D01*
X104408371Y-107855027D01*
X104404223Y-107853308D01*
X104400830Y-107850366D01*
X104385954Y-107845407D01*
X104371940Y-107838400D01*
X104367460Y-107838081D01*
X104363311Y-107836363D01*
X104358822Y-107836363D01*
X104354559Y-107834942D01*
X104338920Y-107836053D01*
X104323291Y-107834943D01*
X104319031Y-107836363D01*
X104314539Y-107836363D01*
X104310389Y-107838081D01*
X104305910Y-107838400D01*
X104291890Y-107845409D01*
X104277020Y-107850366D01*
X104273626Y-107853308D01*
X104269479Y-107855027D01*
X104266303Y-107858202D01*
X104262286Y-107860211D01*
X104252013Y-107872054D01*
X104240175Y-107882323D01*
X104236763Y-107887742D01*
X104234991Y-107889515D01*
X104233727Y-107892564D01*
X104232410Y-107894656D01*
X104230330Y-107897056D01*
X104229687Y-107898982D01*
X104227121Y-107903060D01*
X104179502Y-107998299D01*
X104170745Y-108021185D01*
X104170111Y-108030091D01*
X104167287Y-108038566D01*
X103963049Y-108038566D01*
X103934739Y-108026840D01*
X103910353Y-108024438D01*
X103749639Y-108024438D01*
X103749639Y-106911342D01*
X104642496Y-106911342D01*
X104642496Y-107387533D01*
X104643257Y-107395265D01*
X104643461Y-107403037D01*
X104691080Y-107783990D01*
X104692744Y-107791347D01*
X104693847Y-107798802D01*
X104741466Y-107989278D01*
X104742109Y-107991078D01*
X104742173Y-107991976D01*
X104746056Y-108002126D01*
X104749711Y-108012353D01*
X104750246Y-108013075D01*
X104750930Y-108014862D01*
X104798549Y-108110101D01*
X104805158Y-108120600D01*
X104806420Y-108123646D01*
X104809234Y-108127075D01*
X104811603Y-108130838D01*
X104814098Y-108133002D01*
X104821965Y-108142588D01*
X104917203Y-108237826D01*
X104936139Y-108253366D01*
X104936145Y-108253372D01*
X104963912Y-108264873D01*
X104981204Y-108272036D01*
X104981205Y-108272036D01*
X105005591Y-108274438D01*
X105100829Y-108274438D01*
X105125215Y-108272036D01*
X105125216Y-108272036D01*
X105142508Y-108264873D01*
X105170275Y-108253372D01*
X105170280Y-108253366D01*
X105189217Y-108237826D01*
X105284455Y-108142588D01*
X105292318Y-108133005D01*
X105294817Y-108130839D01*
X105297187Y-108127072D01*
X105300000Y-108123646D01*
X105301260Y-108120601D01*
X105307871Y-108110101D01*
X105355490Y-108014862D01*
X105356173Y-108013075D01*
X105356709Y-108012353D01*
X105360360Y-108002134D01*
X105364247Y-107991977D01*
X105364310Y-107991077D01*
X105364954Y-107989278D01*
X105412573Y-107798802D01*
X105413675Y-107791344D01*
X105415340Y-107783989D01*
X105462959Y-107403037D01*
X105463162Y-107395265D01*
X105463924Y-107387533D01*
X105463924Y-106911342D01*
X105463162Y-106903609D01*
X105462959Y-106895838D01*
X105415340Y-106514886D01*
X105413675Y-106507530D01*
X105412573Y-106500073D01*
X105364954Y-106309597D01*
X105364310Y-106307797D01*
X105364247Y-106306898D01*
X105360364Y-106296751D01*
X105356709Y-106286522D01*
X105356172Y-106285797D01*
X105355489Y-106284012D01*
X105307870Y-106188774D01*
X105301262Y-106178277D01*
X105300000Y-106175230D01*
X105297183Y-106171798D01*
X105294816Y-106168037D01*
X105292321Y-106165873D01*
X105284455Y-106156288D01*
X105189217Y-106061050D01*
X105170280Y-106045509D01*
X105170275Y-106045504D01*
X105138413Y-106032306D01*
X105125216Y-106026840D01*
X105125215Y-106026840D01*
X105100829Y-106024438D01*
X105005591Y-106024438D01*
X104981205Y-106026840D01*
X104981204Y-106026840D01*
X104968006Y-106032306D01*
X104936145Y-106045504D01*
X104936139Y-106045509D01*
X104917203Y-106061050D01*
X104821965Y-106156288D01*
X104814098Y-106165873D01*
X104811604Y-106168037D01*
X104809235Y-106171798D01*
X104806420Y-106175230D01*
X104805158Y-106178276D01*
X104798549Y-106188775D01*
X104750931Y-106284012D01*
X104750247Y-106285797D01*
X104749711Y-106286522D01*
X104746055Y-106296751D01*
X104742173Y-106306898D01*
X104742109Y-106307797D01*
X104741466Y-106309597D01*
X104693847Y-106500073D01*
X104692744Y-106507527D01*
X104691080Y-106514885D01*
X104643461Y-106895838D01*
X104643257Y-106903609D01*
X104642496Y-106911342D01*
X103749639Y-106911342D01*
X103749639Y-106149438D01*
X103747237Y-106125052D01*
X103745518Y-106120902D01*
X103745200Y-106116423D01*
X103736240Y-106098504D01*
X103728573Y-106079992D01*
X103725396Y-106076815D01*
X103723388Y-106072798D01*
X103708253Y-106059672D01*
X103694085Y-106045504D01*
X103689933Y-106043784D01*
X103686542Y-106040843D01*
X103667540Y-106034509D01*
X103649025Y-106026840D01*
X103644533Y-106026840D01*
X103640273Y-106025420D01*
X103620290Y-106026840D01*
X103600253Y-106026840D01*
X103596103Y-106028558D01*
X103591624Y-106028877D01*
X103573705Y-106037836D01*
X103555193Y-106045504D01*
X103552016Y-106048680D01*
X103547999Y-106050689D01*
X103534873Y-106065823D01*
X103520705Y-106079992D01*
X103518985Y-106084143D01*
X103516044Y-106087535D01*
X103506054Y-106109910D01*
X103413626Y-106387194D01*
X103331431Y-106551584D01*
X103250537Y-106632478D01*
X103234992Y-106651420D01*
X103216327Y-106696479D01*
X103088761Y-106696479D01*
X103176509Y-106169988D01*
X103178149Y-106145539D01*
X103167147Y-106098024D01*
X103138798Y-106058335D01*
X103097419Y-106032518D01*
X103049311Y-106024499D01*
X103001795Y-106035502D01*
X102962107Y-106063851D01*
X102936289Y-106105229D01*
X102929911Y-106128889D01*
X102719877Y-107389093D01*
X102509843Y-106128888D01*
X102503465Y-106105229D01*
X102477647Y-106063850D01*
X102437958Y-106035501D01*
X102390443Y-106024499D01*
X102342335Y-106032517D01*
X102300956Y-106058335D01*
X102272607Y-106098024D01*
X102261605Y-106145539D01*
X101273706Y-106145539D01*
X101189217Y-106061050D01*
X101170280Y-106045509D01*
X101170275Y-106045504D01*
X101138413Y-106032306D01*
X101125216Y-106026840D01*
X101125215Y-106026840D01*
X101100829Y-106024438D01*
X100910353Y-106024438D01*
X100885967Y-106026840D01*
X100885966Y-106026840D01*
X100872768Y-106032306D01*
X100840907Y-106045504D01*
X100840901Y-106045509D01*
X100821965Y-106061050D01*
X100726727Y-106156288D01*
X100718860Y-106165873D01*
X100716366Y-106168037D01*
X100713998Y-106171798D01*
X100711182Y-106175230D01*
X100709919Y-106178277D01*
X100703312Y-106188774D01*
X100608074Y-106379250D01*
X100602811Y-106393002D01*
X100601250Y-106395748D01*
X100600511Y-106399012D01*
X100599316Y-106402136D01*
X100599092Y-106405283D01*
X100595842Y-106419647D01*
X100548223Y-106800600D01*
X100548019Y-106808371D01*
X100547258Y-106816104D01*
X100402156Y-106816104D01*
X100509842Y-106169988D01*
X100511482Y-106145539D01*
X100500480Y-106098024D01*
X100472131Y-106058335D01*
X100430752Y-106032518D01*
X100382644Y-106024499D01*
X100335128Y-106035502D01*
X100295440Y-106063851D01*
X100269622Y-106105229D01*
X100263244Y-106128889D01*
X100053210Y-107389093D01*
X99843176Y-106128888D01*
X99836798Y-106105229D01*
X99810980Y-106063850D01*
X99771291Y-106035501D01*
X99723776Y-106024499D01*
X99675668Y-106032517D01*
X99634289Y-106058335D01*
X99605940Y-106098024D01*
X99594938Y-106145539D01*
X99556760Y-106145539D01*
X99556760Y-106125052D01*
X99538096Y-106079992D01*
X99503608Y-106045504D01*
X99458548Y-106026840D01*
X99434162Y-106024438D01*
X98957972Y-106024438D01*
X98933586Y-106026840D01*
X98888526Y-106045504D01*
X98854038Y-106079992D01*
X98835374Y-106125052D01*
X98832972Y-106149438D01*
X97706176Y-106149438D01*
X97617788Y-106061050D01*
X97598851Y-106045509D01*
X97598846Y-106045504D01*
X97566984Y-106032306D01*
X97553787Y-106026840D01*
X97553786Y-106026840D01*
X97529400Y-106024438D01*
X97338924Y-106024438D01*
X97314538Y-106026840D01*
X97314537Y-106026840D01*
X97301339Y-106032306D01*
X97269478Y-106045504D01*
X97269472Y-106045509D01*
X97250536Y-106061050D01*
X97155298Y-106156288D01*
X97147431Y-106165873D01*
X97144937Y-106168037D01*
X97142569Y-106171798D01*
X97139753Y-106175230D01*
X97138490Y-106178277D01*
X97131883Y-106188774D01*
X97036645Y-106379250D01*
X97031382Y-106393002D01*
X97029821Y-106395748D01*
X97029082Y-106399012D01*
X97027887Y-106402136D01*
X97027663Y-106405283D01*
X97024413Y-106419647D01*
X96976794Y-106800600D01*
X96976590Y-106808371D01*
X96975829Y-106816104D01*
X96416305Y-106816104D01*
X96416305Y-106274438D01*
X96767495Y-106274438D01*
X96791881Y-106272036D01*
X96836941Y-106253372D01*
X96871429Y-106218884D01*
X96890093Y-106173824D01*
X96890093Y-106125052D01*
X96871429Y-106079992D01*
X96836941Y-106045504D01*
X96791881Y-106026840D01*
X96767495Y-106024438D01*
X96291305Y-106024438D01*
X96266919Y-106026840D01*
X96221859Y-106045504D01*
X96187371Y-106079992D01*
X96168707Y-106125052D01*
X96166305Y-106149438D01*
X95801414Y-106149438D01*
X95713026Y-106061050D01*
X95694089Y-106045509D01*
X95694084Y-106045504D01*
X95662222Y-106032306D01*
X95649025Y-106026840D01*
X95649024Y-106026840D01*
X95624638Y-106024438D01*
X95291305Y-106024438D01*
X95266919Y-106026840D01*
X95221859Y-106045504D01*
X95187371Y-106079992D01*
X95168707Y-106125052D01*
X95166305Y-106149438D01*
X93563319Y-106149438D01*
X93474931Y-106061050D01*
X93455994Y-106045509D01*
X93455989Y-106045504D01*
X93424127Y-106032306D01*
X93410930Y-106026840D01*
X93410929Y-106026840D01*
X93386543Y-106024438D01*
X93196067Y-106024438D01*
X93171681Y-106026840D01*
X93171680Y-106026840D01*
X93158482Y-106032306D01*
X93126621Y-106045504D01*
X93126615Y-106045509D01*
X93107679Y-106061050D01*
X93012441Y-106156288D01*
X93004574Y-106165873D01*
X93002080Y-106168037D01*
X92999712Y-106171798D01*
X92996896Y-106175230D01*
X92995633Y-106178277D01*
X92989026Y-106188774D01*
X92893788Y-106379250D01*
X92888525Y-106393002D01*
X92886964Y-106395748D01*
X92886225Y-106399012D01*
X92885030Y-106402136D01*
X92884806Y-106405283D01*
X92881556Y-106419647D01*
X92833937Y-106800600D01*
X92833733Y-106808371D01*
X92832972Y-106816104D01*
X92273448Y-106816104D01*
X92273448Y-106274438D01*
X92624638Y-106274438D01*
X92649024Y-106272036D01*
X92694084Y-106253372D01*
X92728572Y-106218884D01*
X92747236Y-106173824D01*
X92747236Y-106125052D01*
X92728572Y-106079992D01*
X92694084Y-106045504D01*
X92649024Y-106026840D01*
X92624638Y-106024438D01*
X92148448Y-106024438D01*
X92124062Y-106026840D01*
X92079002Y-106045504D01*
X92044514Y-106079992D01*
X92025850Y-106125052D01*
X92023448Y-106149438D01*
X91939791Y-106149438D01*
X91940053Y-106145539D01*
X91929051Y-106098024D01*
X91900702Y-106058335D01*
X91859323Y-106032518D01*
X91811215Y-106024499D01*
X91763699Y-106035502D01*
X91724011Y-106063851D01*
X91698193Y-106105229D01*
X91691815Y-106128889D01*
X91481781Y-107389093D01*
X91271747Y-106128888D01*
X91265369Y-106105229D01*
X91239551Y-106063850D01*
X91199862Y-106035501D01*
X91152347Y-106024499D01*
X91104239Y-106032517D01*
X91062860Y-106058335D01*
X91034511Y-106098024D01*
X91023509Y-106145539D01*
X90083229Y-106145539D01*
X89998740Y-106061050D01*
X89979803Y-106045509D01*
X89979798Y-106045504D01*
X89947936Y-106032306D01*
X89934739Y-106026840D01*
X89934738Y-106026840D01*
X89910352Y-106024438D01*
X89672257Y-106024438D01*
X89647871Y-106026840D01*
X89647870Y-106026840D01*
X89634672Y-106032306D01*
X89602811Y-106045504D01*
X89602805Y-106045509D01*
X89583869Y-106061050D01*
X89488631Y-106156288D01*
X89480764Y-106165873D01*
X89478270Y-106168037D01*
X89475901Y-106171798D01*
X89473086Y-106175230D01*
X89471824Y-106178276D01*
X89465215Y-106188775D01*
X89417597Y-106284012D01*
X89408839Y-106306898D01*
X89405381Y-106355548D01*
X89420805Y-106401818D01*
X89452761Y-106438663D01*
X89496384Y-106460475D01*
X89545034Y-106463933D01*
X89591304Y-106448509D01*
X89628149Y-106416553D01*
X89641203Y-106395816D01*
X89679751Y-106318720D01*
X89724033Y-106274438D01*
X89858576Y-106274438D01*
X89902857Y-106318719D01*
X89935268Y-106383542D01*
X89975828Y-106545779D01*
X89975828Y-106710522D01*
X89932999Y-106967490D01*
X89369978Y-108093536D01*
X89361220Y-108116422D01*
X89360901Y-108120903D01*
X89359183Y-108125052D01*
X89359183Y-108145080D01*
X89357762Y-108165072D01*
X89119113Y-108165072D01*
X89141597Y-108142588D01*
X89149460Y-108133005D01*
X89151959Y-108130839D01*
X89154329Y-108127072D01*
X89157142Y-108123646D01*
X89158402Y-108120601D01*
X89165013Y-108110101D01*
X89212632Y-108014862D01*
X89213315Y-108013075D01*
X89213851Y-108012353D01*
X89217502Y-108002134D01*
X89221389Y-107991977D01*
X89221452Y-107991077D01*
X89222096Y-107989278D01*
X89269715Y-107798802D01*
X89270340Y-107794572D01*
X89271045Y-107792871D01*
X89271949Y-107783691D01*
X89273299Y-107774562D01*
X89273027Y-107772739D01*
X89273447Y-107768485D01*
X89273447Y-107292295D01*
X89273027Y-107288040D01*
X89273299Y-107286218D01*
X89271949Y-107277088D01*
X89271045Y-107267909D01*
X89270340Y-107266207D01*
X89269715Y-107261978D01*
X89222096Y-107071502D01*
X89221452Y-107069702D01*
X89221389Y-107068803D01*
X89217502Y-107058645D01*
X89213851Y-107048427D01*
X89213315Y-107047704D01*
X89212632Y-107045918D01*
X89165013Y-106950679D01*
X89158402Y-106940178D01*
X89157142Y-106937134D01*
X89154329Y-106933707D01*
X89151959Y-106929941D01*
X89149460Y-106927774D01*
X89141597Y-106918192D01*
X89046359Y-106822954D01*
X89027422Y-106807413D01*
X89027417Y-106807408D01*
X89001687Y-106796750D01*
X89262967Y-106199540D01*
X89270540Y-106176236D01*
X89270564Y-106174983D01*
X89271045Y-106173824D01*
X89271045Y-106150637D01*
X89271502Y-106127473D01*
X89271045Y-106126305D01*
X89271045Y-106125052D01*
X89262175Y-106103639D01*
X89253729Y-106082053D01*
X89252860Y-106081149D01*
X89252381Y-106079992D01*
X89235995Y-106063606D01*
X89219928Y-106046893D01*
X89218779Y-106046390D01*
X89217893Y-106045504D01*
X89196468Y-106036630D01*
X89175245Y-106027345D01*
X89173992Y-106027320D01*
X89172833Y-106026840D01*
X89148447Y-106024438D01*
X88529400Y-106024438D01*
X88505014Y-106026840D01*
X88459954Y-106045504D01*
X88425466Y-106079992D01*
X88406802Y-106125052D01*
X88406802Y-106173824D01*
X88425466Y-106218884D01*
X88459954Y-106253372D01*
X88505014Y-106272036D01*
X88529400Y-106274438D01*
X88957320Y-106274438D01*
X88700594Y-106861240D01*
X88693021Y-106884544D01*
X88692996Y-106885796D01*
X88692516Y-106886956D01*
X88692516Y-106910142D01*
X88692059Y-106933307D01*
X88692516Y-106934474D01*
X88692516Y-106935728D01*
X88701385Y-106957140D01*
X88709832Y-106978727D01*
X88710700Y-106979630D01*
X88711180Y-106980788D01*
X88727565Y-106997173D01*
X88743633Y-107013887D01*
X88744781Y-107014389D01*
X88745668Y-107015276D01*
X88767092Y-107024149D01*
X88788316Y-107033435D01*
X88789568Y-107033459D01*
X88790728Y-107033940D01*
X88815114Y-107036342D01*
X88906195Y-107036342D01*
X88950475Y-107080622D01*
X88982887Y-107145447D01*
X89023447Y-107307684D01*
X89023447Y-107753096D01*
X88982887Y-107915332D01*
X88950475Y-107980157D01*
X88906195Y-108024438D01*
X88724033Y-108024438D01*
X88679752Y-107980157D01*
X88641204Y-107903060D01*
X88628150Y-107882322D01*
X88591305Y-107850366D01*
X88545034Y-107834942D01*
X88496385Y-107838400D01*
X88452761Y-107860211D01*
X88420805Y-107897056D01*
X88405381Y-107943327D01*
X87749638Y-107943327D01*
X87749638Y-107322057D01*
X88005590Y-107322057D01*
X88029976Y-107319655D01*
X88029977Y-107319655D01*
X88047269Y-107312492D01*
X88075036Y-107300991D01*
X88075041Y-107300985D01*
X88093978Y-107285445D01*
X88189216Y-107190207D01*
X88197079Y-107180624D01*
X88199578Y-107178458D01*
X88201948Y-107174691D01*
X88204761Y-107171265D01*
X88206021Y-107168220D01*
X88212632Y-107157720D01*
X88260251Y-107062481D01*
X88260934Y-107060694D01*
X88261470Y-107059972D01*
X88265121Y-107049753D01*
X88269008Y-107039596D01*
X88269071Y-107038696D01*
X88269715Y-107036897D01*
X88317334Y-106846421D01*
X88317959Y-106842191D01*
X88318664Y-106840490D01*
X88319568Y-106831310D01*
X88320918Y-106822181D01*
X88320646Y-106820358D01*
X88321066Y-106816104D01*
X88321066Y-106530390D01*
X88320646Y-106526135D01*
X88320918Y-106524313D01*
X88319568Y-106515183D01*
X88318664Y-106506004D01*
X88317959Y-106504302D01*
X88317334Y-106500073D01*
X88269715Y-106309597D01*
X88269071Y-106307797D01*
X88269008Y-106306898D01*
X88265125Y-106296751D01*
X88261470Y-106286522D01*
X88260933Y-106285797D01*
X88260250Y-106284012D01*
X88212631Y-106188774D01*
X88206023Y-106178277D01*
X88204761Y-106175230D01*
X88201944Y-106171798D01*
X88199577Y-106168037D01*
X88197082Y-106165873D01*
X88189216Y-106156288D01*
X88093978Y-106061050D01*
X88075041Y-106045509D01*
X88075036Y-106045504D01*
X88043174Y-106032306D01*
X88029977Y-106026840D01*
X88029976Y-106026840D01*
X88005590Y-106024438D01*
X87624638Y-106024438D01*
X87600252Y-106026840D01*
X87555192Y-106045504D01*
X87520704Y-106079992D01*
X87502040Y-106125052D01*
X87499638Y-106149438D01*
X87276111Y-106149438D01*
X87265404Y-106140670D01*
X87122547Y-106045432D01*
X87100924Y-106033903D01*
X87088908Y-106031525D01*
X87077595Y-106026840D01*
X87053209Y-106024438D01*
X86815114Y-106024438D01*
X86790728Y-106026840D01*
X86790727Y-106026840D01*
X86777529Y-106032306D01*
X86745668Y-106045504D01*
X86745662Y-106045509D01*
X86726726Y-106061050D01*
X86631488Y-106156288D01*
X86623621Y-106165873D01*
X86621127Y-106168037D01*
X86618758Y-106171798D01*
X86615943Y-106175230D01*
X86614681Y-106178276D01*
X86608072Y-106188775D01*
X86560454Y-106284012D01*
X86559770Y-106285797D01*
X86559234Y-106286522D01*
X86555578Y-106296751D01*
X86551696Y-106306898D01*
X86551632Y-106307797D01*
X86550989Y-106309597D01*
X86503370Y-106500073D01*
X86502744Y-106504302D01*
X86502040Y-106506004D01*
X86501135Y-106515185D01*
X86499786Y-106524314D01*
X86500057Y-106526135D01*
X86499638Y-106530390D01*
X85892495Y-106530390D01*
X85892495Y-106274438D01*
X86243685Y-106274438D01*
X86268071Y-106272036D01*
X86313131Y-106253372D01*
X86347619Y-106218884D01*
X86366283Y-106173824D01*
X86366283Y-106125052D01*
X86347619Y-106079992D01*
X86313131Y-106045504D01*
X86268071Y-106026840D01*
X86243685Y-106024438D01*
X85767495Y-106024438D01*
X85743109Y-106026840D01*
X85698049Y-106045504D01*
X85663561Y-106079992D01*
X85644897Y-106125052D01*
X85642495Y-106149438D01*
X85420273Y-106149438D01*
X85420273Y-105802216D01*
X105686146Y-105802216D01*
X105686146Y-108687136D01*
G37*
D13*
X184182332Y-116987819D02*
X184182332Y-115987819D01*
X184658522Y-116987819D02*
X184658522Y-115987819D01*
X184658522Y-115987819D02*
X185229950Y-116987819D01*
X185229950Y-116987819D02*
X185229950Y-115987819D01*
X187039474Y-116987819D02*
X186706141Y-116511628D01*
X186468046Y-116987819D02*
X186468046Y-115987819D01*
X186468046Y-115987819D02*
X186848998Y-115987819D01*
X186848998Y-115987819D02*
X186944236Y-116035438D01*
X186944236Y-116035438D02*
X186991855Y-116083057D01*
X186991855Y-116083057D02*
X187039474Y-116178295D01*
X187039474Y-116178295D02*
X187039474Y-116321152D01*
X187039474Y-116321152D02*
X186991855Y-116416390D01*
X186991855Y-116416390D02*
X186944236Y-116464009D01*
X186944236Y-116464009D02*
X186848998Y-116511628D01*
X186848998Y-116511628D02*
X186468046Y-116511628D01*
X187325189Y-115987819D02*
X187896617Y-115987819D01*
X187610903Y-116987819D02*
X187610903Y-115987819D01*
X188087094Y-115987819D02*
X188658522Y-115987819D01*
X188372808Y-116987819D02*
X188372808Y-115987819D01*
X189182332Y-116511628D02*
X189182332Y-116987819D01*
X188848999Y-115987819D02*
X189182332Y-116511628D01*
X189182332Y-116511628D02*
X189515665Y-115987819D01*
X192722647Y-116987819D02*
X192722647Y-115987819D01*
X193198837Y-116987819D02*
X193198837Y-115987819D01*
X193198837Y-115987819D02*
X193770265Y-116987819D01*
X193770265Y-116987819D02*
X193770265Y-115987819D01*
X194960742Y-116940200D02*
X195103599Y-116987819D01*
X195103599Y-116987819D02*
X195341694Y-116987819D01*
X195341694Y-116987819D02*
X195436932Y-116940200D01*
X195436932Y-116940200D02*
X195484551Y-116892580D01*
X195484551Y-116892580D02*
X195532170Y-116797342D01*
X195532170Y-116797342D02*
X195532170Y-116702104D01*
X195532170Y-116702104D02*
X195484551Y-116606866D01*
X195484551Y-116606866D02*
X195436932Y-116559247D01*
X195436932Y-116559247D02*
X195341694Y-116511628D01*
X195341694Y-116511628D02*
X195151218Y-116464009D01*
X195151218Y-116464009D02*
X195055980Y-116416390D01*
X195055980Y-116416390D02*
X195008361Y-116368771D01*
X195008361Y-116368771D02*
X194960742Y-116273533D01*
X194960742Y-116273533D02*
X194960742Y-116178295D01*
X194960742Y-116178295D02*
X195008361Y-116083057D01*
X195008361Y-116083057D02*
X195055980Y-116035438D01*
X195055980Y-116035438D02*
X195151218Y-115987819D01*
X195151218Y-115987819D02*
X195389313Y-115987819D01*
X195389313Y-115987819D02*
X195532170Y-116035438D01*
X195722647Y-117083057D02*
X196484551Y-117083057D01*
X196722647Y-116987819D02*
X196722647Y-116321152D01*
X196722647Y-116416390D02*
X196770266Y-116368771D01*
X196770266Y-116368771D02*
X196865504Y-116321152D01*
X196865504Y-116321152D02*
X197008361Y-116321152D01*
X197008361Y-116321152D02*
X197103599Y-116368771D01*
X197103599Y-116368771D02*
X197151218Y-116464009D01*
X197151218Y-116464009D02*
X197151218Y-116987819D01*
X197151218Y-116464009D02*
X197198837Y-116368771D01*
X197198837Y-116368771D02*
X197294075Y-116321152D01*
X197294075Y-116321152D02*
X197436932Y-116321152D01*
X197436932Y-116321152D02*
X197532171Y-116368771D01*
X197532171Y-116368771D02*
X197579790Y-116464009D01*
X197579790Y-116464009D02*
X197579790Y-116987819D01*
X198436932Y-116940200D02*
X198341694Y-116987819D01*
X198341694Y-116987819D02*
X198151218Y-116987819D01*
X198151218Y-116987819D02*
X198055980Y-116940200D01*
X198055980Y-116940200D02*
X198008361Y-116844961D01*
X198008361Y-116844961D02*
X198008361Y-116464009D01*
X198008361Y-116464009D02*
X198055980Y-116368771D01*
X198055980Y-116368771D02*
X198151218Y-116321152D01*
X198151218Y-116321152D02*
X198341694Y-116321152D01*
X198341694Y-116321152D02*
X198436932Y-116368771D01*
X198436932Y-116368771D02*
X198484551Y-116464009D01*
X198484551Y-116464009D02*
X198484551Y-116559247D01*
X198484551Y-116559247D02*
X198008361Y-116654485D01*
X198770266Y-116321152D02*
X199151218Y-116321152D01*
X198913123Y-115987819D02*
X198913123Y-116844961D01*
X198913123Y-116844961D02*
X198960742Y-116940200D01*
X198960742Y-116940200D02*
X199055980Y-116987819D01*
X199055980Y-116987819D02*
X199151218Y-116987819D01*
X199865504Y-116940200D02*
X199770266Y-116987819D01*
X199770266Y-116987819D02*
X199579790Y-116987819D01*
X199579790Y-116987819D02*
X199484552Y-116940200D01*
X199484552Y-116940200D02*
X199436933Y-116844961D01*
X199436933Y-116844961D02*
X199436933Y-116464009D01*
X199436933Y-116464009D02*
X199484552Y-116368771D01*
X199484552Y-116368771D02*
X199579790Y-116321152D01*
X199579790Y-116321152D02*
X199770266Y-116321152D01*
X199770266Y-116321152D02*
X199865504Y-116368771D01*
X199865504Y-116368771D02*
X199913123Y-116464009D01*
X199913123Y-116464009D02*
X199913123Y-116559247D01*
X199913123Y-116559247D02*
X199436933Y-116654485D01*
X200341695Y-116987819D02*
X200341695Y-116321152D01*
X200341695Y-116511628D02*
X200389314Y-116416390D01*
X200389314Y-116416390D02*
X200436933Y-116368771D01*
X200436933Y-116368771D02*
X200532171Y-116321152D01*
X200532171Y-116321152D02*
X200627409Y-116321152D01*
X186817210Y-92574619D02*
X187150543Y-93574619D01*
X187150543Y-93574619D02*
X187483876Y-92574619D01*
X187817210Y-93574619D02*
X187817210Y-92574619D01*
X188293400Y-93574619D02*
X188293400Y-92574619D01*
X188293400Y-92574619D02*
X188864828Y-93574619D01*
X188864828Y-93574619D02*
X188864828Y-92574619D01*
X190102924Y-93193666D02*
X190864829Y-93193666D01*
X190483876Y-93574619D02*
X190483876Y-92812714D01*
X191864828Y-93574619D02*
X191293400Y-93574619D01*
X191579114Y-93574619D02*
X191579114Y-92574619D01*
X191579114Y-92574619D02*
X191483876Y-92717476D01*
X191483876Y-92717476D02*
X191388638Y-92812714D01*
X191388638Y-92812714D02*
X191293400Y-92860333D01*
X192245781Y-92669857D02*
X192293400Y-92622238D01*
X192293400Y-92622238D02*
X192388638Y-92574619D01*
X192388638Y-92574619D02*
X192626733Y-92574619D01*
X192626733Y-92574619D02*
X192721971Y-92622238D01*
X192721971Y-92622238D02*
X192769590Y-92669857D01*
X192769590Y-92669857D02*
X192817209Y-92765095D01*
X192817209Y-92765095D02*
X192817209Y-92860333D01*
X192817209Y-92860333D02*
X192769590Y-93003190D01*
X192769590Y-93003190D02*
X192198162Y-93574619D01*
X192198162Y-93574619D02*
X192817209Y-93574619D01*
X193102924Y-92574619D02*
X193436257Y-93574619D01*
X193436257Y-93574619D02*
X193769590Y-92574619D01*
D14*
X92530649Y-69981200D02*
X92673506Y-70028819D01*
X92673506Y-70028819D02*
X92911601Y-70028819D01*
X92911601Y-70028819D02*
X93006839Y-69981200D01*
X93006839Y-69981200D02*
X93054458Y-69933580D01*
X93054458Y-69933580D02*
X93102077Y-69838342D01*
X93102077Y-69838342D02*
X93102077Y-69743104D01*
X93102077Y-69743104D02*
X93054458Y-69647866D01*
X93054458Y-69647866D02*
X93006839Y-69600247D01*
X93006839Y-69600247D02*
X92911601Y-69552628D01*
X92911601Y-69552628D02*
X92721125Y-69505009D01*
X92721125Y-69505009D02*
X92625887Y-69457390D01*
X92625887Y-69457390D02*
X92578268Y-69409771D01*
X92578268Y-69409771D02*
X92530649Y-69314533D01*
X92530649Y-69314533D02*
X92530649Y-69219295D01*
X92530649Y-69219295D02*
X92578268Y-69124057D01*
X92578268Y-69124057D02*
X92625887Y-69076438D01*
X92625887Y-69076438D02*
X92721125Y-69028819D01*
X92721125Y-69028819D02*
X92959220Y-69028819D01*
X92959220Y-69028819D02*
X93102077Y-69076438D01*
X93530649Y-70028819D02*
X93530649Y-69028819D01*
X94483029Y-69028819D02*
X94006839Y-69028819D01*
X94006839Y-69028819D02*
X93959220Y-69505009D01*
X93959220Y-69505009D02*
X94006839Y-69457390D01*
X94006839Y-69457390D02*
X94102077Y-69409771D01*
X94102077Y-69409771D02*
X94340172Y-69409771D01*
X94340172Y-69409771D02*
X94435410Y-69457390D01*
X94435410Y-69457390D02*
X94483029Y-69505009D01*
X94483029Y-69505009D02*
X94530648Y-69600247D01*
X94530648Y-69600247D02*
X94530648Y-69838342D01*
X94530648Y-69838342D02*
X94483029Y-69933580D01*
X94483029Y-69933580D02*
X94435410Y-69981200D01*
X94435410Y-69981200D02*
X94340172Y-70028819D01*
X94340172Y-70028819D02*
X94102077Y-70028819D01*
X94102077Y-70028819D02*
X94006839Y-69981200D01*
X94006839Y-69981200D02*
X93959220Y-69933580D01*
X94863982Y-69028819D02*
X95483029Y-69028819D01*
X95483029Y-69028819D02*
X95149696Y-69409771D01*
X95149696Y-69409771D02*
X95292553Y-69409771D01*
X95292553Y-69409771D02*
X95387791Y-69457390D01*
X95387791Y-69457390D02*
X95435410Y-69505009D01*
X95435410Y-69505009D02*
X95483029Y-69600247D01*
X95483029Y-69600247D02*
X95483029Y-69838342D01*
X95483029Y-69838342D02*
X95435410Y-69933580D01*
X95435410Y-69933580D02*
X95387791Y-69981200D01*
X95387791Y-69981200D02*
X95292553Y-70028819D01*
X95292553Y-70028819D02*
X95006839Y-70028819D01*
X95006839Y-70028819D02*
X94911601Y-69981200D01*
X94911601Y-69981200D02*
X94863982Y-69933580D01*
X96387791Y-69028819D02*
X95911601Y-69028819D01*
X95911601Y-69028819D02*
X95863982Y-69505009D01*
X95863982Y-69505009D02*
X95911601Y-69457390D01*
X95911601Y-69457390D02*
X96006839Y-69409771D01*
X96006839Y-69409771D02*
X96244934Y-69409771D01*
X96244934Y-69409771D02*
X96340172Y-69457390D01*
X96340172Y-69457390D02*
X96387791Y-69505009D01*
X96387791Y-69505009D02*
X96435410Y-69600247D01*
X96435410Y-69600247D02*
X96435410Y-69838342D01*
X96435410Y-69838342D02*
X96387791Y-69933580D01*
X96387791Y-69933580D02*
X96340172Y-69981200D01*
X96340172Y-69981200D02*
X96244934Y-70028819D01*
X96244934Y-70028819D02*
X96006839Y-70028819D01*
X96006839Y-70028819D02*
X95911601Y-69981200D01*
X95911601Y-69981200D02*
X95863982Y-69933580D01*
X97387791Y-70028819D02*
X96816363Y-70028819D01*
X97102077Y-70028819D02*
X97102077Y-69028819D01*
X97102077Y-69028819D02*
X97006839Y-69171676D01*
X97006839Y-69171676D02*
X96911601Y-69266914D01*
X96911601Y-69266914D02*
X96816363Y-69314533D01*
X97768744Y-69743104D02*
X98244934Y-69743104D01*
X97673506Y-70028819D02*
X98006839Y-69028819D01*
X98006839Y-69028819D02*
X98340172Y-70028819D01*
D13*
X196586789Y-102817666D02*
X196110598Y-103150999D01*
X196586789Y-103389094D02*
X195586789Y-103389094D01*
X195586789Y-103389094D02*
X195586789Y-103008142D01*
X195586789Y-103008142D02*
X195634408Y-102912904D01*
X195634408Y-102912904D02*
X195682027Y-102865285D01*
X195682027Y-102865285D02*
X195777265Y-102817666D01*
X195777265Y-102817666D02*
X195920122Y-102817666D01*
X195920122Y-102817666D02*
X196015360Y-102865285D01*
X196015360Y-102865285D02*
X196062979Y-102912904D01*
X196062979Y-102912904D02*
X196110598Y-103008142D01*
X196110598Y-103008142D02*
X196110598Y-103389094D01*
X196586789Y-101865285D02*
X196586789Y-102436713D01*
X196586789Y-102150999D02*
X195586789Y-102150999D01*
X195586789Y-102150999D02*
X195729646Y-102246237D01*
X195729646Y-102246237D02*
X195824884Y-102341475D01*
X195824884Y-102341475D02*
X195872503Y-102436713D01*
X186927789Y-102817666D02*
X186451598Y-103150999D01*
X186927789Y-103389094D02*
X185927789Y-103389094D01*
X185927789Y-103389094D02*
X185927789Y-103008142D01*
X185927789Y-103008142D02*
X185975408Y-102912904D01*
X185975408Y-102912904D02*
X186023027Y-102865285D01*
X186023027Y-102865285D02*
X186118265Y-102817666D01*
X186118265Y-102817666D02*
X186261122Y-102817666D01*
X186261122Y-102817666D02*
X186356360Y-102865285D01*
X186356360Y-102865285D02*
X186403979Y-102912904D01*
X186403979Y-102912904D02*
X186451598Y-103008142D01*
X186451598Y-103008142D02*
X186451598Y-103389094D01*
X185927789Y-102484332D02*
X185927789Y-101865285D01*
X185927789Y-101865285D02*
X186308741Y-102198618D01*
X186308741Y-102198618D02*
X186308741Y-102055761D01*
X186308741Y-102055761D02*
X186356360Y-101960523D01*
X186356360Y-101960523D02*
X186403979Y-101912904D01*
X186403979Y-101912904D02*
X186499217Y-101865285D01*
X186499217Y-101865285D02*
X186737312Y-101865285D01*
X186737312Y-101865285D02*
X186832550Y-101912904D01*
X186832550Y-101912904D02*
X186880170Y-101960523D01*
X186880170Y-101960523D02*
X186927789Y-102055761D01*
X186927789Y-102055761D02*
X186927789Y-102341475D01*
X186927789Y-102341475D02*
X186880170Y-102436713D01*
X186880170Y-102436713D02*
X186832550Y-102484332D01*
X140871172Y-116444628D02*
X141014029Y-116492247D01*
X141014029Y-116492247D02*
X141061648Y-116539866D01*
X141061648Y-116539866D02*
X141109267Y-116635104D01*
X141109267Y-116635104D02*
X141109267Y-116777961D01*
X141109267Y-116777961D02*
X141061648Y-116873199D01*
X141061648Y-116873199D02*
X141014029Y-116920819D01*
X141014029Y-116920819D02*
X140918791Y-116968438D01*
X140918791Y-116968438D02*
X140537839Y-116968438D01*
X140537839Y-116968438D02*
X140537839Y-115968438D01*
X140537839Y-115968438D02*
X140871172Y-115968438D01*
X140871172Y-115968438D02*
X140966410Y-116016057D01*
X140966410Y-116016057D02*
X141014029Y-116063676D01*
X141014029Y-116063676D02*
X141061648Y-116158914D01*
X141061648Y-116158914D02*
X141061648Y-116254152D01*
X141061648Y-116254152D02*
X141014029Y-116349390D01*
X141014029Y-116349390D02*
X140966410Y-116397009D01*
X140966410Y-116397009D02*
X140871172Y-116444628D01*
X140871172Y-116444628D02*
X140537839Y-116444628D01*
X141871172Y-116444628D02*
X141537839Y-116444628D01*
X141537839Y-116968438D02*
X141537839Y-115968438D01*
X141537839Y-115968438D02*
X142014029Y-115968438D01*
X142585458Y-115968438D02*
X142775934Y-115968438D01*
X142775934Y-115968438D02*
X142871172Y-116016057D01*
X142871172Y-116016057D02*
X142966410Y-116111295D01*
X142966410Y-116111295D02*
X143014029Y-116301771D01*
X143014029Y-116301771D02*
X143014029Y-116635104D01*
X143014029Y-116635104D02*
X142966410Y-116825580D01*
X142966410Y-116825580D02*
X142871172Y-116920819D01*
X142871172Y-116920819D02*
X142775934Y-116968438D01*
X142775934Y-116968438D02*
X142585458Y-116968438D01*
X142585458Y-116968438D02*
X142490220Y-116920819D01*
X142490220Y-116920819D02*
X142394982Y-116825580D01*
X142394982Y-116825580D02*
X142347363Y-116635104D01*
X142347363Y-116635104D02*
X142347363Y-116301771D01*
X142347363Y-116301771D02*
X142394982Y-116111295D01*
X142394982Y-116111295D02*
X142490220Y-116016057D01*
X142490220Y-116016057D02*
X142585458Y-115968438D01*
X186460419Y-62832953D02*
X186412800Y-62880573D01*
X186412800Y-62880573D02*
X186269943Y-62928192D01*
X186269943Y-62928192D02*
X186174705Y-62928192D01*
X186174705Y-62928192D02*
X186031848Y-62880573D01*
X186031848Y-62880573D02*
X185936610Y-62785334D01*
X185936610Y-62785334D02*
X185888991Y-62690096D01*
X185888991Y-62690096D02*
X185841372Y-62499620D01*
X185841372Y-62499620D02*
X185841372Y-62356763D01*
X185841372Y-62356763D02*
X185888991Y-62166287D01*
X185888991Y-62166287D02*
X185936610Y-62071049D01*
X185936610Y-62071049D02*
X186031848Y-61975811D01*
X186031848Y-61975811D02*
X186174705Y-61928192D01*
X186174705Y-61928192D02*
X186269943Y-61928192D01*
X186269943Y-61928192D02*
X186412800Y-61975811D01*
X186412800Y-61975811D02*
X186460419Y-62023430D01*
X187317562Y-62261525D02*
X187317562Y-62928192D01*
X187079467Y-61880573D02*
X186841372Y-62594858D01*
X186841372Y-62594858D02*
X187460419Y-62594858D01*
X114781552Y-116444628D02*
X114924409Y-116492247D01*
X114924409Y-116492247D02*
X114972028Y-116539866D01*
X114972028Y-116539866D02*
X115019647Y-116635104D01*
X115019647Y-116635104D02*
X115019647Y-116777961D01*
X115019647Y-116777961D02*
X114972028Y-116873199D01*
X114972028Y-116873199D02*
X114924409Y-116920819D01*
X114924409Y-116920819D02*
X114829171Y-116968438D01*
X114829171Y-116968438D02*
X114448219Y-116968438D01*
X114448219Y-116968438D02*
X114448219Y-115968438D01*
X114448219Y-115968438D02*
X114781552Y-115968438D01*
X114781552Y-115968438D02*
X114876790Y-116016057D01*
X114876790Y-116016057D02*
X114924409Y-116063676D01*
X114924409Y-116063676D02*
X114972028Y-116158914D01*
X114972028Y-116158914D02*
X114972028Y-116254152D01*
X114972028Y-116254152D02*
X114924409Y-116349390D01*
X114924409Y-116349390D02*
X114876790Y-116397009D01*
X114876790Y-116397009D02*
X114781552Y-116444628D01*
X114781552Y-116444628D02*
X114448219Y-116444628D01*
X115876790Y-116968438D02*
X115876790Y-116444628D01*
X115876790Y-116444628D02*
X115829171Y-116349390D01*
X115829171Y-116349390D02*
X115733933Y-116301771D01*
X115733933Y-116301771D02*
X115543457Y-116301771D01*
X115543457Y-116301771D02*
X115448219Y-116349390D01*
X115876790Y-116920819D02*
X115781552Y-116968438D01*
X115781552Y-116968438D02*
X115543457Y-116968438D01*
X115543457Y-116968438D02*
X115448219Y-116920819D01*
X115448219Y-116920819D02*
X115400600Y-116825580D01*
X115400600Y-116825580D02*
X115400600Y-116730342D01*
X115400600Y-116730342D02*
X115448219Y-116635104D01*
X115448219Y-116635104D02*
X115543457Y-116587485D01*
X115543457Y-116587485D02*
X115781552Y-116587485D01*
X115781552Y-116587485D02*
X115876790Y-116539866D01*
X116352981Y-116301771D02*
X116352981Y-116968438D01*
X116352981Y-116397009D02*
X116400600Y-116349390D01*
X116400600Y-116349390D02*
X116495838Y-116301771D01*
X116495838Y-116301771D02*
X116638695Y-116301771D01*
X116638695Y-116301771D02*
X116733933Y-116349390D01*
X116733933Y-116349390D02*
X116781552Y-116444628D01*
X116781552Y-116444628D02*
X116781552Y-116968438D01*
X117686314Y-116968438D02*
X117686314Y-115968438D01*
X117686314Y-116920819D02*
X117591076Y-116968438D01*
X117591076Y-116968438D02*
X117400600Y-116968438D01*
X117400600Y-116968438D02*
X117305362Y-116920819D01*
X117305362Y-116920819D02*
X117257743Y-116873199D01*
X117257743Y-116873199D02*
X117210124Y-116777961D01*
X117210124Y-116777961D02*
X117210124Y-116492247D01*
X117210124Y-116492247D02*
X117257743Y-116397009D01*
X117257743Y-116397009D02*
X117305362Y-116349390D01*
X117305362Y-116349390D02*
X117400600Y-116301771D01*
X117400600Y-116301771D02*
X117591076Y-116301771D01*
X117591076Y-116301771D02*
X117686314Y-116349390D01*
X203767648Y-76032130D02*
X203767648Y-76508320D01*
X203767648Y-76508320D02*
X202767648Y-76508320D01*
X203767648Y-75698796D02*
X202767648Y-75698796D01*
X202767648Y-75698796D02*
X203481933Y-75365463D01*
X203481933Y-75365463D02*
X202767648Y-75032130D01*
X202767648Y-75032130D02*
X203767648Y-75032130D01*
X202767648Y-74651177D02*
X202767648Y-73984511D01*
X202767648Y-73984511D02*
X203767648Y-74413082D01*
X203196219Y-73460701D02*
X203148600Y-73555939D01*
X203148600Y-73555939D02*
X203100981Y-73603558D01*
X203100981Y-73603558D02*
X203005743Y-73651177D01*
X203005743Y-73651177D02*
X202958124Y-73651177D01*
X202958124Y-73651177D02*
X202862886Y-73603558D01*
X202862886Y-73603558D02*
X202815267Y-73555939D01*
X202815267Y-73555939D02*
X202767648Y-73460701D01*
X202767648Y-73460701D02*
X202767648Y-73270225D01*
X202767648Y-73270225D02*
X202815267Y-73174987D01*
X202815267Y-73174987D02*
X202862886Y-73127368D01*
X202862886Y-73127368D02*
X202958124Y-73079749D01*
X202958124Y-73079749D02*
X203005743Y-73079749D01*
X203005743Y-73079749D02*
X203100981Y-73127368D01*
X203100981Y-73127368D02*
X203148600Y-73174987D01*
X203148600Y-73174987D02*
X203196219Y-73270225D01*
X203196219Y-73270225D02*
X203196219Y-73460701D01*
X203196219Y-73460701D02*
X203243838Y-73555939D01*
X203243838Y-73555939D02*
X203291457Y-73603558D01*
X203291457Y-73603558D02*
X203386695Y-73651177D01*
X203386695Y-73651177D02*
X203577171Y-73651177D01*
X203577171Y-73651177D02*
X203672409Y-73603558D01*
X203672409Y-73603558D02*
X203720029Y-73555939D01*
X203720029Y-73555939D02*
X203767648Y-73460701D01*
X203767648Y-73460701D02*
X203767648Y-73270225D01*
X203767648Y-73270225D02*
X203720029Y-73174987D01*
X203720029Y-73174987D02*
X203672409Y-73127368D01*
X203672409Y-73127368D02*
X203577171Y-73079749D01*
X203577171Y-73079749D02*
X203386695Y-73079749D01*
X203386695Y-73079749D02*
X203291457Y-73127368D01*
X203291457Y-73127368D02*
X203243838Y-73174987D01*
X203243838Y-73174987D02*
X203196219Y-73270225D01*
X202767648Y-72460701D02*
X202767648Y-72365463D01*
X202767648Y-72365463D02*
X202815267Y-72270225D01*
X202815267Y-72270225D02*
X202862886Y-72222606D01*
X202862886Y-72222606D02*
X202958124Y-72174987D01*
X202958124Y-72174987D02*
X203148600Y-72127368D01*
X203148600Y-72127368D02*
X203386695Y-72127368D01*
X203386695Y-72127368D02*
X203577171Y-72174987D01*
X203577171Y-72174987D02*
X203672409Y-72222606D01*
X203672409Y-72222606D02*
X203720029Y-72270225D01*
X203720029Y-72270225D02*
X203767648Y-72365463D01*
X203767648Y-72365463D02*
X203767648Y-72460701D01*
X203767648Y-72460701D02*
X203720029Y-72555939D01*
X203720029Y-72555939D02*
X203672409Y-72603558D01*
X203672409Y-72603558D02*
X203577171Y-72651177D01*
X203577171Y-72651177D02*
X203386695Y-72698796D01*
X203386695Y-72698796D02*
X203148600Y-72698796D01*
X203148600Y-72698796D02*
X202958124Y-72651177D01*
X202958124Y-72651177D02*
X202862886Y-72603558D01*
X202862886Y-72603558D02*
X202815267Y-72555939D01*
X202815267Y-72555939D02*
X202767648Y-72460701D01*
X203767648Y-71651177D02*
X203767648Y-71460701D01*
X203767648Y-71460701D02*
X203720029Y-71365463D01*
X203720029Y-71365463D02*
X203672409Y-71317844D01*
X203672409Y-71317844D02*
X203529552Y-71222606D01*
X203529552Y-71222606D02*
X203339076Y-71174987D01*
X203339076Y-71174987D02*
X202958124Y-71174987D01*
X202958124Y-71174987D02*
X202862886Y-71222606D01*
X202862886Y-71222606D02*
X202815267Y-71270225D01*
X202815267Y-71270225D02*
X202767648Y-71365463D01*
X202767648Y-71365463D02*
X202767648Y-71555939D01*
X202767648Y-71555939D02*
X202815267Y-71651177D01*
X202815267Y-71651177D02*
X202862886Y-71698796D01*
X202862886Y-71698796D02*
X202958124Y-71746415D01*
X202958124Y-71746415D02*
X203196219Y-71746415D01*
X203196219Y-71746415D02*
X203291457Y-71698796D01*
X203291457Y-71698796D02*
X203339076Y-71651177D01*
X203339076Y-71651177D02*
X203386695Y-71555939D01*
X203386695Y-71555939D02*
X203386695Y-71365463D01*
X203386695Y-71365463D02*
X203339076Y-71270225D01*
X203339076Y-71270225D02*
X203291457Y-71222606D01*
X203291457Y-71222606D02*
X203196219Y-71174987D01*
X120738114Y-116968438D02*
X120738114Y-115968438D01*
X120738114Y-115968438D02*
X121071447Y-116682723D01*
X121071447Y-116682723D02*
X121404780Y-115968438D01*
X121404780Y-115968438D02*
X121404780Y-116968438D01*
X122023828Y-116968438D02*
X121928590Y-116920819D01*
X121928590Y-116920819D02*
X121880971Y-116873199D01*
X121880971Y-116873199D02*
X121833352Y-116777961D01*
X121833352Y-116777961D02*
X121833352Y-116492247D01*
X121833352Y-116492247D02*
X121880971Y-116397009D01*
X121880971Y-116397009D02*
X121928590Y-116349390D01*
X121928590Y-116349390D02*
X122023828Y-116301771D01*
X122023828Y-116301771D02*
X122166685Y-116301771D01*
X122166685Y-116301771D02*
X122261923Y-116349390D01*
X122261923Y-116349390D02*
X122309542Y-116397009D01*
X122309542Y-116397009D02*
X122357161Y-116492247D01*
X122357161Y-116492247D02*
X122357161Y-116777961D01*
X122357161Y-116777961D02*
X122309542Y-116873199D01*
X122309542Y-116873199D02*
X122261923Y-116920819D01*
X122261923Y-116920819D02*
X122166685Y-116968438D01*
X122166685Y-116968438D02*
X122023828Y-116968438D01*
X123214304Y-116968438D02*
X123214304Y-115968438D01*
X123214304Y-116920819D02*
X123119066Y-116968438D01*
X123119066Y-116968438D02*
X122928590Y-116968438D01*
X122928590Y-116968438D02*
X122833352Y-116920819D01*
X122833352Y-116920819D02*
X122785733Y-116873199D01*
X122785733Y-116873199D02*
X122738114Y-116777961D01*
X122738114Y-116777961D02*
X122738114Y-116492247D01*
X122738114Y-116492247D02*
X122785733Y-116397009D01*
X122785733Y-116397009D02*
X122833352Y-116349390D01*
X122833352Y-116349390D02*
X122928590Y-116301771D01*
X122928590Y-116301771D02*
X123119066Y-116301771D01*
X123119066Y-116301771D02*
X123214304Y-116349390D01*
X124071447Y-116920819D02*
X123976209Y-116968438D01*
X123976209Y-116968438D02*
X123785733Y-116968438D01*
X123785733Y-116968438D02*
X123690495Y-116920819D01*
X123690495Y-116920819D02*
X123642876Y-116825580D01*
X123642876Y-116825580D02*
X123642876Y-116444628D01*
X123642876Y-116444628D02*
X123690495Y-116349390D01*
X123690495Y-116349390D02*
X123785733Y-116301771D01*
X123785733Y-116301771D02*
X123976209Y-116301771D01*
X123976209Y-116301771D02*
X124071447Y-116349390D01*
X124071447Y-116349390D02*
X124119066Y-116444628D01*
X124119066Y-116444628D02*
X124119066Y-116539866D01*
X124119066Y-116539866D02*
X123642876Y-116635104D01*
X106954266Y-116968438D02*
X106954266Y-115968438D01*
X107382837Y-116063676D02*
X107430456Y-116016057D01*
X107430456Y-116016057D02*
X107525694Y-115968438D01*
X107525694Y-115968438D02*
X107763789Y-115968438D01*
X107763789Y-115968438D02*
X107859027Y-116016057D01*
X107859027Y-116016057D02*
X107906646Y-116063676D01*
X107906646Y-116063676D02*
X107954265Y-116158914D01*
X107954265Y-116158914D02*
X107954265Y-116254152D01*
X107954265Y-116254152D02*
X107906646Y-116397009D01*
X107906646Y-116397009D02*
X107335218Y-116968438D01*
X107335218Y-116968438D02*
X107954265Y-116968438D01*
X108954265Y-116873199D02*
X108906646Y-116920819D01*
X108906646Y-116920819D02*
X108763789Y-116968438D01*
X108763789Y-116968438D02*
X108668551Y-116968438D01*
X108668551Y-116968438D02*
X108525694Y-116920819D01*
X108525694Y-116920819D02*
X108430456Y-116825580D01*
X108430456Y-116825580D02*
X108382837Y-116730342D01*
X108382837Y-116730342D02*
X108335218Y-116539866D01*
X108335218Y-116539866D02*
X108335218Y-116397009D01*
X108335218Y-116397009D02*
X108382837Y-116206533D01*
X108382837Y-116206533D02*
X108430456Y-116111295D01*
X108430456Y-116111295D02*
X108525694Y-116016057D01*
X108525694Y-116016057D02*
X108668551Y-115968438D01*
X108668551Y-115968438D02*
X108763789Y-115968438D01*
X108763789Y-115968438D02*
X108906646Y-116016057D01*
X108906646Y-116016057D02*
X108954265Y-116063676D01*
X110478075Y-116444628D02*
X110620932Y-116492247D01*
X110620932Y-116492247D02*
X110668551Y-116539866D01*
X110668551Y-116539866D02*
X110716170Y-116635104D01*
X110716170Y-116635104D02*
X110716170Y-116777961D01*
X110716170Y-116777961D02*
X110668551Y-116873199D01*
X110668551Y-116873199D02*
X110620932Y-116920819D01*
X110620932Y-116920819D02*
X110525694Y-116968438D01*
X110525694Y-116968438D02*
X110144742Y-116968438D01*
X110144742Y-116968438D02*
X110144742Y-115968438D01*
X110144742Y-115968438D02*
X110478075Y-115968438D01*
X110478075Y-115968438D02*
X110573313Y-116016057D01*
X110573313Y-116016057D02*
X110620932Y-116063676D01*
X110620932Y-116063676D02*
X110668551Y-116158914D01*
X110668551Y-116158914D02*
X110668551Y-116254152D01*
X110668551Y-116254152D02*
X110620932Y-116349390D01*
X110620932Y-116349390D02*
X110573313Y-116397009D01*
X110573313Y-116397009D02*
X110478075Y-116444628D01*
X110478075Y-116444628D02*
X110144742Y-116444628D01*
X111573313Y-116301771D02*
X111573313Y-116968438D01*
X111144742Y-116301771D02*
X111144742Y-116825580D01*
X111144742Y-116825580D02*
X111192361Y-116920819D01*
X111192361Y-116920819D02*
X111287599Y-116968438D01*
X111287599Y-116968438D02*
X111430456Y-116968438D01*
X111430456Y-116968438D02*
X111525694Y-116920819D01*
X111525694Y-116920819D02*
X111573313Y-116873199D01*
X112001885Y-116920819D02*
X112097123Y-116968438D01*
X112097123Y-116968438D02*
X112287599Y-116968438D01*
X112287599Y-116968438D02*
X112382837Y-116920819D01*
X112382837Y-116920819D02*
X112430456Y-116825580D01*
X112430456Y-116825580D02*
X112430456Y-116777961D01*
X112430456Y-116777961D02*
X112382837Y-116682723D01*
X112382837Y-116682723D02*
X112287599Y-116635104D01*
X112287599Y-116635104D02*
X112144742Y-116635104D01*
X112144742Y-116635104D02*
X112049504Y-116587485D01*
X112049504Y-116587485D02*
X112001885Y-116492247D01*
X112001885Y-116492247D02*
X112001885Y-116444628D01*
X112001885Y-116444628D02*
X112049504Y-116349390D01*
X112049504Y-116349390D02*
X112144742Y-116301771D01*
X112144742Y-116301771D02*
X112287599Y-116301771D01*
X112287599Y-116301771D02*
X112382837Y-116349390D01*
X194684619Y-67790607D02*
X194637000Y-67838227D01*
X194637000Y-67838227D02*
X194494143Y-67885846D01*
X194494143Y-67885846D02*
X194398905Y-67885846D01*
X194398905Y-67885846D02*
X194256048Y-67838227D01*
X194256048Y-67838227D02*
X194160810Y-67742988D01*
X194160810Y-67742988D02*
X194113191Y-67647750D01*
X194113191Y-67647750D02*
X194065572Y-67457274D01*
X194065572Y-67457274D02*
X194065572Y-67314417D01*
X194065572Y-67314417D02*
X194113191Y-67123941D01*
X194113191Y-67123941D02*
X194160810Y-67028703D01*
X194160810Y-67028703D02*
X194256048Y-66933465D01*
X194256048Y-66933465D02*
X194398905Y-66885846D01*
X194398905Y-66885846D02*
X194494143Y-66885846D01*
X194494143Y-66885846D02*
X194637000Y-66933465D01*
X194637000Y-66933465D02*
X194684619Y-66981084D01*
X195065572Y-66981084D02*
X195113191Y-66933465D01*
X195113191Y-66933465D02*
X195208429Y-66885846D01*
X195208429Y-66885846D02*
X195446524Y-66885846D01*
X195446524Y-66885846D02*
X195541762Y-66933465D01*
X195541762Y-66933465D02*
X195589381Y-66981084D01*
X195589381Y-66981084D02*
X195637000Y-67076322D01*
X195637000Y-67076322D02*
X195637000Y-67171560D01*
X195637000Y-67171560D02*
X195589381Y-67314417D01*
X195589381Y-67314417D02*
X195017953Y-67885846D01*
X195017953Y-67885846D02*
X195637000Y-67885846D01*
X134294691Y-116682723D02*
X134770881Y-116682723D01*
X134199453Y-116968438D02*
X134532786Y-115968438D01*
X134532786Y-115968438D02*
X134866119Y-116968438D01*
X135056596Y-115968438D02*
X135628024Y-115968438D01*
X135342310Y-116968438D02*
X135342310Y-115968438D01*
X135818501Y-115968438D02*
X136389929Y-115968438D01*
X136104215Y-116968438D02*
X136104215Y-115968438D01*
X158863065Y-116494345D02*
X159196747Y-116494345D01*
X159339754Y-117018703D02*
X158863065Y-117018703D01*
X158863065Y-117018703D02*
X158863065Y-116017656D01*
X158863065Y-116017656D02*
X159339754Y-116017656D01*
X159721105Y-116971035D02*
X159864112Y-117018703D01*
X159864112Y-117018703D02*
X160102456Y-117018703D01*
X160102456Y-117018703D02*
X160197794Y-116971035D01*
X160197794Y-116971035D02*
X160245463Y-116923366D01*
X160245463Y-116923366D02*
X160293132Y-116828028D01*
X160293132Y-116828028D02*
X160293132Y-116732690D01*
X160293132Y-116732690D02*
X160245463Y-116637352D01*
X160245463Y-116637352D02*
X160197794Y-116589683D01*
X160197794Y-116589683D02*
X160102456Y-116542014D01*
X160102456Y-116542014D02*
X159911781Y-116494345D01*
X159911781Y-116494345D02*
X159816443Y-116446677D01*
X159816443Y-116446677D02*
X159768774Y-116399008D01*
X159768774Y-116399008D02*
X159721105Y-116303670D01*
X159721105Y-116303670D02*
X159721105Y-116208332D01*
X159721105Y-116208332D02*
X159768774Y-116112994D01*
X159768774Y-116112994D02*
X159816443Y-116065325D01*
X159816443Y-116065325D02*
X159911781Y-116017656D01*
X159911781Y-116017656D02*
X160150125Y-116017656D01*
X160150125Y-116017656D02*
X160293132Y-116065325D01*
X160722152Y-117018703D02*
X160722152Y-116017656D01*
X160722152Y-116017656D02*
X161103503Y-116017656D01*
X161103503Y-116017656D02*
X161198841Y-116065325D01*
X161198841Y-116065325D02*
X161246510Y-116112994D01*
X161246510Y-116112994D02*
X161294179Y-116208332D01*
X161294179Y-116208332D02*
X161294179Y-116351339D01*
X161294179Y-116351339D02*
X161246510Y-116446677D01*
X161246510Y-116446677D02*
X161198841Y-116494345D01*
X161198841Y-116494345D02*
X161103503Y-116542014D01*
X161103503Y-116542014D02*
X160722152Y-116542014D01*
X161627861Y-116017656D02*
X162247557Y-116017656D01*
X162247557Y-116017656D02*
X161913875Y-116399008D01*
X161913875Y-116399008D02*
X162056881Y-116399008D01*
X162056881Y-116399008D02*
X162152219Y-116446677D01*
X162152219Y-116446677D02*
X162199888Y-116494345D01*
X162199888Y-116494345D02*
X162247557Y-116589683D01*
X162247557Y-116589683D02*
X162247557Y-116828028D01*
X162247557Y-116828028D02*
X162199888Y-116923366D01*
X162199888Y-116923366D02*
X162152219Y-116971035D01*
X162152219Y-116971035D02*
X162056881Y-117018703D01*
X162056881Y-117018703D02*
X161770868Y-117018703D01*
X161770868Y-117018703D02*
X161675530Y-116971035D01*
X161675530Y-116971035D02*
X161627861Y-116923366D01*
X162628908Y-116112994D02*
X162676577Y-116065325D01*
X162676577Y-116065325D02*
X162771915Y-116017656D01*
X162771915Y-116017656D02*
X163010259Y-116017656D01*
X163010259Y-116017656D02*
X163105597Y-116065325D01*
X163105597Y-116065325D02*
X163153266Y-116112994D01*
X163153266Y-116112994D02*
X163200935Y-116208332D01*
X163200935Y-116208332D02*
X163200935Y-116303670D01*
X163200935Y-116303670D02*
X163153266Y-116446677D01*
X163153266Y-116446677D02*
X162581239Y-117018703D01*
X162581239Y-117018703D02*
X163200935Y-117018703D01*
X163629955Y-116637352D02*
X164392658Y-116637352D01*
X164869347Y-117018703D02*
X164869347Y-116017656D01*
X164869347Y-116017656D02*
X165107692Y-116017656D01*
X165107692Y-116017656D02*
X165250698Y-116065325D01*
X165250698Y-116065325D02*
X165346036Y-116160663D01*
X165346036Y-116160663D02*
X165393705Y-116256001D01*
X165393705Y-116256001D02*
X165441374Y-116446677D01*
X165441374Y-116446677D02*
X165441374Y-116589683D01*
X165441374Y-116589683D02*
X165393705Y-116780359D01*
X165393705Y-116780359D02*
X165346036Y-116875697D01*
X165346036Y-116875697D02*
X165250698Y-116971035D01*
X165250698Y-116971035D02*
X165107692Y-117018703D01*
X165107692Y-117018703D02*
X164869347Y-117018703D01*
X165870394Y-116494345D02*
X166204076Y-116494345D01*
X166347083Y-117018703D02*
X165870394Y-117018703D01*
X165870394Y-117018703D02*
X165870394Y-116017656D01*
X165870394Y-116017656D02*
X166347083Y-116017656D01*
X166633096Y-116017656D02*
X166966779Y-117018703D01*
X166966779Y-117018703D02*
X167300461Y-116017656D01*
X167634143Y-117018703D02*
X167634143Y-116017656D01*
X168206170Y-117018703D02*
X167777150Y-116446677D01*
X168206170Y-116017656D02*
X167634143Y-116589683D01*
X168635190Y-117018703D02*
X168635190Y-116017656D01*
X168968872Y-116017656D02*
X169540899Y-116017656D01*
X169254886Y-117018703D02*
X169254886Y-116017656D01*
X170446608Y-116923366D02*
X170398939Y-116971035D01*
X170398939Y-116971035D02*
X170255932Y-117018703D01*
X170255932Y-117018703D02*
X170160594Y-117018703D01*
X170160594Y-117018703D02*
X170017588Y-116971035D01*
X170017588Y-116971035D02*
X169922250Y-116875697D01*
X169922250Y-116875697D02*
X169874581Y-116780359D01*
X169874581Y-116780359D02*
X169826912Y-116589683D01*
X169826912Y-116589683D02*
X169826912Y-116446677D01*
X169826912Y-116446677D02*
X169874581Y-116256001D01*
X169874581Y-116256001D02*
X169922250Y-116160663D01*
X169922250Y-116160663D02*
X170017588Y-116065325D01*
X170017588Y-116065325D02*
X170160594Y-116017656D01*
X170160594Y-116017656D02*
X170255932Y-116017656D01*
X170255932Y-116017656D02*
X170398939Y-116065325D01*
X170398939Y-116065325D02*
X170446608Y-116112994D01*
X170875628Y-116637352D02*
X171638331Y-116637352D01*
X172019682Y-116017656D02*
X172639378Y-116017656D01*
X172639378Y-116017656D02*
X172305696Y-116399008D01*
X172305696Y-116399008D02*
X172448702Y-116399008D01*
X172448702Y-116399008D02*
X172544040Y-116446677D01*
X172544040Y-116446677D02*
X172591709Y-116494345D01*
X172591709Y-116494345D02*
X172639378Y-116589683D01*
X172639378Y-116589683D02*
X172639378Y-116828028D01*
X172639378Y-116828028D02*
X172591709Y-116923366D01*
X172591709Y-116923366D02*
X172544040Y-116971035D01*
X172544040Y-116971035D02*
X172448702Y-117018703D01*
X172448702Y-117018703D02*
X172162689Y-117018703D01*
X172162689Y-117018703D02*
X172067351Y-116971035D01*
X172067351Y-116971035D02*
X172019682Y-116923366D01*
X173020729Y-116112994D02*
X173068398Y-116065325D01*
X173068398Y-116065325D02*
X173163736Y-116017656D01*
X173163736Y-116017656D02*
X173402080Y-116017656D01*
X173402080Y-116017656D02*
X173497418Y-116065325D01*
X173497418Y-116065325D02*
X173545087Y-116112994D01*
X173545087Y-116112994D02*
X173592756Y-116208332D01*
X173592756Y-116208332D02*
X173592756Y-116303670D01*
X173592756Y-116303670D02*
X173545087Y-116446677D01*
X173545087Y-116446677D02*
X172973060Y-117018703D01*
X172973060Y-117018703D02*
X173592756Y-117018703D01*
X174021776Y-117018703D02*
X174021776Y-116017656D01*
X174021776Y-116017656D02*
X174260121Y-116017656D01*
X174260121Y-116017656D02*
X174403127Y-116065325D01*
X174403127Y-116065325D02*
X174498465Y-116160663D01*
X174498465Y-116160663D02*
X174546134Y-116256001D01*
X174546134Y-116256001D02*
X174593803Y-116446677D01*
X174593803Y-116446677D02*
X174593803Y-116589683D01*
X174593803Y-116589683D02*
X174546134Y-116780359D01*
X174546134Y-116780359D02*
X174498465Y-116875697D01*
X174498465Y-116875697D02*
X174403127Y-116971035D01*
X174403127Y-116971035D02*
X174260121Y-117018703D01*
X174260121Y-117018703D02*
X174021776Y-117018703D01*
X186415532Y-68415207D02*
X186367913Y-68462827D01*
X186367913Y-68462827D02*
X186225056Y-68510446D01*
X186225056Y-68510446D02*
X186129818Y-68510446D01*
X186129818Y-68510446D02*
X185986961Y-68462827D01*
X185986961Y-68462827D02*
X185891723Y-68367588D01*
X185891723Y-68367588D02*
X185844104Y-68272350D01*
X185844104Y-68272350D02*
X185796485Y-68081874D01*
X185796485Y-68081874D02*
X185796485Y-67939017D01*
X185796485Y-67939017D02*
X185844104Y-67748541D01*
X185844104Y-67748541D02*
X185891723Y-67653303D01*
X185891723Y-67653303D02*
X185986961Y-67558065D01*
X185986961Y-67558065D02*
X186129818Y-67510446D01*
X186129818Y-67510446D02*
X186225056Y-67510446D01*
X186225056Y-67510446D02*
X186367913Y-67558065D01*
X186367913Y-67558065D02*
X186415532Y-67605684D01*
X186748866Y-67510446D02*
X187367913Y-67510446D01*
X187367913Y-67510446D02*
X187034580Y-67891398D01*
X187034580Y-67891398D02*
X187177437Y-67891398D01*
X187177437Y-67891398D02*
X187272675Y-67939017D01*
X187272675Y-67939017D02*
X187320294Y-67986636D01*
X187320294Y-67986636D02*
X187367913Y-68081874D01*
X187367913Y-68081874D02*
X187367913Y-68319969D01*
X187367913Y-68319969D02*
X187320294Y-68415207D01*
X187320294Y-68415207D02*
X187272675Y-68462827D01*
X187272675Y-68462827D02*
X187177437Y-68510446D01*
X187177437Y-68510446D02*
X186891723Y-68510446D01*
X186891723Y-68510446D02*
X186796485Y-68462827D01*
X186796485Y-68462827D02*
X186748866Y-68415207D01*
X136501152Y-75826257D02*
X136548771Y-75778638D01*
X136548771Y-75778638D02*
X136644009Y-75731019D01*
X136644009Y-75731019D02*
X136882104Y-75731019D01*
X136882104Y-75731019D02*
X136977342Y-75778638D01*
X136977342Y-75778638D02*
X137024961Y-75826257D01*
X137024961Y-75826257D02*
X137072580Y-75921495D01*
X137072580Y-75921495D02*
X137072580Y-76016733D01*
X137072580Y-76016733D02*
X137024961Y-76159590D01*
X137024961Y-76159590D02*
X136453533Y-76731019D01*
X136453533Y-76731019D02*
X137072580Y-76731019D01*
X137929723Y-76064352D02*
X137929723Y-76731019D01*
X137691628Y-75683400D02*
X137453533Y-76397685D01*
X137453533Y-76397685D02*
X138072580Y-76397685D01*
X138929723Y-76731019D02*
X138453533Y-76731019D01*
X138453533Y-76731019D02*
X138453533Y-75731019D01*
X139834485Y-76635780D02*
X139786866Y-76683400D01*
X139786866Y-76683400D02*
X139644009Y-76731019D01*
X139644009Y-76731019D02*
X139548771Y-76731019D01*
X139548771Y-76731019D02*
X139405914Y-76683400D01*
X139405914Y-76683400D02*
X139310676Y-76588161D01*
X139310676Y-76588161D02*
X139263057Y-76492923D01*
X139263057Y-76492923D02*
X139215438Y-76302447D01*
X139215438Y-76302447D02*
X139215438Y-76159590D01*
X139215438Y-76159590D02*
X139263057Y-75969114D01*
X139263057Y-75969114D02*
X139310676Y-75873876D01*
X139310676Y-75873876D02*
X139405914Y-75778638D01*
X139405914Y-75778638D02*
X139548771Y-75731019D01*
X139548771Y-75731019D02*
X139644009Y-75731019D01*
X139644009Y-75731019D02*
X139786866Y-75778638D01*
X139786866Y-75778638D02*
X139834485Y-75826257D01*
X140167819Y-75731019D02*
X140786866Y-75731019D01*
X140786866Y-75731019D02*
X140453533Y-76111971D01*
X140453533Y-76111971D02*
X140596390Y-76111971D01*
X140596390Y-76111971D02*
X140691628Y-76159590D01*
X140691628Y-76159590D02*
X140739247Y-76207209D01*
X140739247Y-76207209D02*
X140786866Y-76302447D01*
X140786866Y-76302447D02*
X140786866Y-76540542D01*
X140786866Y-76540542D02*
X140739247Y-76635780D01*
X140739247Y-76635780D02*
X140691628Y-76683400D01*
X140691628Y-76683400D02*
X140596390Y-76731019D01*
X140596390Y-76731019D02*
X140310676Y-76731019D01*
X140310676Y-76731019D02*
X140215438Y-76683400D01*
X140215438Y-76683400D02*
X140167819Y-76635780D01*
X141167819Y-75826257D02*
X141215438Y-75778638D01*
X141215438Y-75778638D02*
X141310676Y-75731019D01*
X141310676Y-75731019D02*
X141548771Y-75731019D01*
X141548771Y-75731019D02*
X141644009Y-75778638D01*
X141644009Y-75778638D02*
X141691628Y-75826257D01*
X141691628Y-75826257D02*
X141739247Y-75921495D01*
X141739247Y-75921495D02*
X141739247Y-76016733D01*
X141739247Y-76016733D02*
X141691628Y-76159590D01*
X141691628Y-76159590D02*
X141120200Y-76731019D01*
X141120200Y-76731019D02*
X141739247Y-76731019D01*
X191507289Y-103389094D02*
X190507289Y-103389094D01*
X190507289Y-103389094D02*
X190507289Y-103150999D01*
X190507289Y-103150999D02*
X190554908Y-103008142D01*
X190554908Y-103008142D02*
X190650146Y-102912904D01*
X190650146Y-102912904D02*
X190745384Y-102865285D01*
X190745384Y-102865285D02*
X190935860Y-102817666D01*
X190935860Y-102817666D02*
X191078717Y-102817666D01*
X191078717Y-102817666D02*
X191269193Y-102865285D01*
X191269193Y-102865285D02*
X191364431Y-102912904D01*
X191364431Y-102912904D02*
X191459670Y-103008142D01*
X191459670Y-103008142D02*
X191507289Y-103150999D01*
X191507289Y-103150999D02*
X191507289Y-103389094D01*
X190507289Y-102484332D02*
X190507289Y-101865285D01*
X190507289Y-101865285D02*
X190888241Y-102198618D01*
X190888241Y-102198618D02*
X190888241Y-102055761D01*
X190888241Y-102055761D02*
X190935860Y-101960523D01*
X190935860Y-101960523D02*
X190983479Y-101912904D01*
X190983479Y-101912904D02*
X191078717Y-101865285D01*
X191078717Y-101865285D02*
X191316812Y-101865285D01*
X191316812Y-101865285D02*
X191412050Y-101912904D01*
X191412050Y-101912904D02*
X191459670Y-101960523D01*
X191459670Y-101960523D02*
X191507289Y-102055761D01*
X191507289Y-102055761D02*
X191507289Y-102341475D01*
X191507289Y-102341475D02*
X191459670Y-102436713D01*
X191459670Y-102436713D02*
X191412050Y-102484332D01*
X191187289Y-99102904D02*
X190187289Y-99102904D01*
X191187289Y-98531476D02*
X190615860Y-98960047D01*
X190187289Y-98531476D02*
X190758717Y-99102904D01*
X194616998Y-62847207D02*
X194569379Y-62894827D01*
X194569379Y-62894827D02*
X194426522Y-62942446D01*
X194426522Y-62942446D02*
X194331284Y-62942446D01*
X194331284Y-62942446D02*
X194188427Y-62894827D01*
X194188427Y-62894827D02*
X194093189Y-62799588D01*
X194093189Y-62799588D02*
X194045570Y-62704350D01*
X194045570Y-62704350D02*
X193997951Y-62513874D01*
X193997951Y-62513874D02*
X193997951Y-62371017D01*
X193997951Y-62371017D02*
X194045570Y-62180541D01*
X194045570Y-62180541D02*
X194093189Y-62085303D01*
X194093189Y-62085303D02*
X194188427Y-61990065D01*
X194188427Y-61990065D02*
X194331284Y-61942446D01*
X194331284Y-61942446D02*
X194426522Y-61942446D01*
X194426522Y-61942446D02*
X194569379Y-61990065D01*
X194569379Y-61990065D02*
X194616998Y-62037684D01*
X195569379Y-62942446D02*
X194997951Y-62942446D01*
X195283665Y-62942446D02*
X195283665Y-61942446D01*
X195283665Y-61942446D02*
X195188427Y-62085303D01*
X195188427Y-62085303D02*
X195093189Y-62180541D01*
X195093189Y-62180541D02*
X194997951Y-62228160D01*
X203767648Y-87378130D02*
X203767648Y-87854320D01*
X203767648Y-87854320D02*
X202767648Y-87854320D01*
X203767648Y-87044796D02*
X202767648Y-87044796D01*
X202767648Y-87044796D02*
X203481933Y-86711463D01*
X203481933Y-86711463D02*
X202767648Y-86378130D01*
X202767648Y-86378130D02*
X203767648Y-86378130D01*
X202767648Y-85997177D02*
X202767648Y-85330511D01*
X202767648Y-85330511D02*
X203767648Y-85759082D01*
X203196219Y-84806701D02*
X203148600Y-84901939D01*
X203148600Y-84901939D02*
X203100981Y-84949558D01*
X203100981Y-84949558D02*
X203005743Y-84997177D01*
X203005743Y-84997177D02*
X202958124Y-84997177D01*
X202958124Y-84997177D02*
X202862886Y-84949558D01*
X202862886Y-84949558D02*
X202815267Y-84901939D01*
X202815267Y-84901939D02*
X202767648Y-84806701D01*
X202767648Y-84806701D02*
X202767648Y-84616225D01*
X202767648Y-84616225D02*
X202815267Y-84520987D01*
X202815267Y-84520987D02*
X202862886Y-84473368D01*
X202862886Y-84473368D02*
X202958124Y-84425749D01*
X202958124Y-84425749D02*
X203005743Y-84425749D01*
X203005743Y-84425749D02*
X203100981Y-84473368D01*
X203100981Y-84473368D02*
X203148600Y-84520987D01*
X203148600Y-84520987D02*
X203196219Y-84616225D01*
X203196219Y-84616225D02*
X203196219Y-84806701D01*
X203196219Y-84806701D02*
X203243838Y-84901939D01*
X203243838Y-84901939D02*
X203291457Y-84949558D01*
X203291457Y-84949558D02*
X203386695Y-84997177D01*
X203386695Y-84997177D02*
X203577171Y-84997177D01*
X203577171Y-84997177D02*
X203672409Y-84949558D01*
X203672409Y-84949558D02*
X203720029Y-84901939D01*
X203720029Y-84901939D02*
X203767648Y-84806701D01*
X203767648Y-84806701D02*
X203767648Y-84616225D01*
X203767648Y-84616225D02*
X203720029Y-84520987D01*
X203720029Y-84520987D02*
X203672409Y-84473368D01*
X203672409Y-84473368D02*
X203577171Y-84425749D01*
X203577171Y-84425749D02*
X203386695Y-84425749D01*
X203386695Y-84425749D02*
X203291457Y-84473368D01*
X203291457Y-84473368D02*
X203243838Y-84520987D01*
X203243838Y-84520987D02*
X203196219Y-84616225D01*
X202767648Y-83806701D02*
X202767648Y-83711463D01*
X202767648Y-83711463D02*
X202815267Y-83616225D01*
X202815267Y-83616225D02*
X202862886Y-83568606D01*
X202862886Y-83568606D02*
X202958124Y-83520987D01*
X202958124Y-83520987D02*
X203148600Y-83473368D01*
X203148600Y-83473368D02*
X203386695Y-83473368D01*
X203386695Y-83473368D02*
X203577171Y-83520987D01*
X203577171Y-83520987D02*
X203672409Y-83568606D01*
X203672409Y-83568606D02*
X203720029Y-83616225D01*
X203720029Y-83616225D02*
X203767648Y-83711463D01*
X203767648Y-83711463D02*
X203767648Y-83806701D01*
X203767648Y-83806701D02*
X203720029Y-83901939D01*
X203720029Y-83901939D02*
X203672409Y-83949558D01*
X203672409Y-83949558D02*
X203577171Y-83997177D01*
X203577171Y-83997177D02*
X203386695Y-84044796D01*
X203386695Y-84044796D02*
X203148600Y-84044796D01*
X203148600Y-84044796D02*
X202958124Y-83997177D01*
X202958124Y-83997177D02*
X202862886Y-83949558D01*
X202862886Y-83949558D02*
X202815267Y-83901939D01*
X202815267Y-83901939D02*
X202767648Y-83806701D01*
X202767648Y-82568606D02*
X202767648Y-83044796D01*
X202767648Y-83044796D02*
X203243838Y-83092415D01*
X203243838Y-83092415D02*
X203196219Y-83044796D01*
X203196219Y-83044796D02*
X203148600Y-82949558D01*
X203148600Y-82949558D02*
X203148600Y-82711463D01*
X203148600Y-82711463D02*
X203196219Y-82616225D01*
X203196219Y-82616225D02*
X203243838Y-82568606D01*
X203243838Y-82568606D02*
X203339076Y-82520987D01*
X203339076Y-82520987D02*
X203577171Y-82520987D01*
X203577171Y-82520987D02*
X203672409Y-82568606D01*
X203672409Y-82568606D02*
X203720029Y-82616225D01*
X203720029Y-82616225D02*
X203767648Y-82711463D01*
X203767648Y-82711463D02*
X203767648Y-82949558D01*
X203767648Y-82949558D02*
X203720029Y-83044796D01*
X203720029Y-83044796D02*
X203672409Y-83092415D01*
X203239048Y-80445558D02*
X202239048Y-80445558D01*
X202239048Y-80445558D02*
X202239048Y-80207463D01*
X202239048Y-80207463D02*
X202286667Y-80064606D01*
X202286667Y-80064606D02*
X202381905Y-79969368D01*
X202381905Y-79969368D02*
X202477143Y-79921749D01*
X202477143Y-79921749D02*
X202667619Y-79874130D01*
X202667619Y-79874130D02*
X202810476Y-79874130D01*
X202810476Y-79874130D02*
X203000952Y-79921749D01*
X203000952Y-79921749D02*
X203096190Y-79969368D01*
X203096190Y-79969368D02*
X203191429Y-80064606D01*
X203191429Y-80064606D02*
X203239048Y-80207463D01*
X203239048Y-80207463D02*
X203239048Y-80445558D01*
X202572381Y-79016987D02*
X203239048Y-79016987D01*
X202191429Y-79255082D02*
X202905714Y-79493177D01*
X202905714Y-79493177D02*
X202905714Y-78874130D01*
X198934092Y-74838568D02*
X197934092Y-74838568D01*
X198934092Y-74267140D02*
X198362663Y-74695711D01*
X197934092Y-74267140D02*
X198505520Y-74838568D01*
X127706961Y-116682723D02*
X128183151Y-116682723D01*
X127611723Y-116968438D02*
X127945056Y-115968438D01*
X127945056Y-115968438D02*
X128278389Y-116968438D01*
X129135532Y-116016057D02*
X129040294Y-115968438D01*
X129040294Y-115968438D02*
X128897437Y-115968438D01*
X128897437Y-115968438D02*
X128754580Y-116016057D01*
X128754580Y-116016057D02*
X128659342Y-116111295D01*
X128659342Y-116111295D02*
X128611723Y-116206533D01*
X128611723Y-116206533D02*
X128564104Y-116397009D01*
X128564104Y-116397009D02*
X128564104Y-116539866D01*
X128564104Y-116539866D02*
X128611723Y-116730342D01*
X128611723Y-116730342D02*
X128659342Y-116825580D01*
X128659342Y-116825580D02*
X128754580Y-116920819D01*
X128754580Y-116920819D02*
X128897437Y-116968438D01*
X128897437Y-116968438D02*
X128992675Y-116968438D01*
X128992675Y-116968438D02*
X129135532Y-116920819D01*
X129135532Y-116920819D02*
X129183151Y-116873199D01*
X129183151Y-116873199D02*
X129183151Y-116539866D01*
X129183151Y-116539866D02*
X128992675Y-116539866D01*
X130183151Y-116873199D02*
X130135532Y-116920819D01*
X130135532Y-116920819D02*
X129992675Y-116968438D01*
X129992675Y-116968438D02*
X129897437Y-116968438D01*
X129897437Y-116968438D02*
X129754580Y-116920819D01*
X129754580Y-116920819D02*
X129659342Y-116825580D01*
X129659342Y-116825580D02*
X129611723Y-116730342D01*
X129611723Y-116730342D02*
X129564104Y-116539866D01*
X129564104Y-116539866D02*
X129564104Y-116397009D01*
X129564104Y-116397009D02*
X129611723Y-116206533D01*
X129611723Y-116206533D02*
X129659342Y-116111295D01*
X129659342Y-116111295D02*
X129754580Y-116016057D01*
X129754580Y-116016057D02*
X129897437Y-115968438D01*
X129897437Y-115968438D02*
X129992675Y-115968438D01*
X129992675Y-115968438D02*
X130135532Y-116016057D01*
X130135532Y-116016057D02*
X130183151Y-116063676D01*
X117914390Y-76807219D02*
X117914390Y-75807219D01*
X117914390Y-75807219D02*
X118295342Y-75807219D01*
X118295342Y-75807219D02*
X118390580Y-75854838D01*
X118390580Y-75854838D02*
X118438199Y-75902457D01*
X118438199Y-75902457D02*
X118485818Y-75997695D01*
X118485818Y-75997695D02*
X118485818Y-76140552D01*
X118485818Y-76140552D02*
X118438199Y-76235790D01*
X118438199Y-76235790D02*
X118390580Y-76283409D01*
X118390580Y-76283409D02*
X118295342Y-76331028D01*
X118295342Y-76331028D02*
X117914390Y-76331028D01*
X119485818Y-76711980D02*
X119438199Y-76759600D01*
X119438199Y-76759600D02*
X119295342Y-76807219D01*
X119295342Y-76807219D02*
X119200104Y-76807219D01*
X119200104Y-76807219D02*
X119057247Y-76759600D01*
X119057247Y-76759600D02*
X118962009Y-76664361D01*
X118962009Y-76664361D02*
X118914390Y-76569123D01*
X118914390Y-76569123D02*
X118866771Y-76378647D01*
X118866771Y-76378647D02*
X118866771Y-76235790D01*
X118866771Y-76235790D02*
X118914390Y-76045314D01*
X118914390Y-76045314D02*
X118962009Y-75950076D01*
X118962009Y-75950076D02*
X119057247Y-75854838D01*
X119057247Y-75854838D02*
X119200104Y-75807219D01*
X119200104Y-75807219D02*
X119295342Y-75807219D01*
X119295342Y-75807219D02*
X119438199Y-75854838D01*
X119438199Y-75854838D02*
X119485818Y-75902457D01*
X120247723Y-76283409D02*
X119914390Y-76283409D01*
X119914390Y-76807219D02*
X119914390Y-75807219D01*
X119914390Y-75807219D02*
X120390580Y-75807219D01*
X120914390Y-76235790D02*
X120819152Y-76188171D01*
X120819152Y-76188171D02*
X120771533Y-76140552D01*
X120771533Y-76140552D02*
X120723914Y-76045314D01*
X120723914Y-76045314D02*
X120723914Y-75997695D01*
X120723914Y-75997695D02*
X120771533Y-75902457D01*
X120771533Y-75902457D02*
X120819152Y-75854838D01*
X120819152Y-75854838D02*
X120914390Y-75807219D01*
X120914390Y-75807219D02*
X121104866Y-75807219D01*
X121104866Y-75807219D02*
X121200104Y-75854838D01*
X121200104Y-75854838D02*
X121247723Y-75902457D01*
X121247723Y-75902457D02*
X121295342Y-75997695D01*
X121295342Y-75997695D02*
X121295342Y-76045314D01*
X121295342Y-76045314D02*
X121247723Y-76140552D01*
X121247723Y-76140552D02*
X121200104Y-76188171D01*
X121200104Y-76188171D02*
X121104866Y-76235790D01*
X121104866Y-76235790D02*
X120914390Y-76235790D01*
X120914390Y-76235790D02*
X120819152Y-76283409D01*
X120819152Y-76283409D02*
X120771533Y-76331028D01*
X120771533Y-76331028D02*
X120723914Y-76426266D01*
X120723914Y-76426266D02*
X120723914Y-76616742D01*
X120723914Y-76616742D02*
X120771533Y-76711980D01*
X120771533Y-76711980D02*
X120819152Y-76759600D01*
X120819152Y-76759600D02*
X120914390Y-76807219D01*
X120914390Y-76807219D02*
X121104866Y-76807219D01*
X121104866Y-76807219D02*
X121200104Y-76759600D01*
X121200104Y-76759600D02*
X121247723Y-76711980D01*
X121247723Y-76711980D02*
X121295342Y-76616742D01*
X121295342Y-76616742D02*
X121295342Y-76426266D01*
X121295342Y-76426266D02*
X121247723Y-76331028D01*
X121247723Y-76331028D02*
X121200104Y-76283409D01*
X121200104Y-76283409D02*
X121104866Y-76235790D01*
X122200104Y-75807219D02*
X121723914Y-75807219D01*
X121723914Y-75807219D02*
X121676295Y-76283409D01*
X121676295Y-76283409D02*
X121723914Y-76235790D01*
X121723914Y-76235790D02*
X121819152Y-76188171D01*
X121819152Y-76188171D02*
X122057247Y-76188171D01*
X122057247Y-76188171D02*
X122152485Y-76235790D01*
X122152485Y-76235790D02*
X122200104Y-76283409D01*
X122200104Y-76283409D02*
X122247723Y-76378647D01*
X122247723Y-76378647D02*
X122247723Y-76616742D01*
X122247723Y-76616742D02*
X122200104Y-76711980D01*
X122200104Y-76711980D02*
X122152485Y-76759600D01*
X122152485Y-76759600D02*
X122057247Y-76807219D01*
X122057247Y-76807219D02*
X121819152Y-76807219D01*
X121819152Y-76807219D02*
X121723914Y-76759600D01*
X121723914Y-76759600D02*
X121676295Y-76711980D01*
X122581057Y-75807219D02*
X123247723Y-75807219D01*
X123247723Y-75807219D02*
X122819152Y-76807219D01*
X124057247Y-76140552D02*
X124057247Y-76807219D01*
X123819152Y-75759600D02*
X123581057Y-76473885D01*
X123581057Y-76473885D02*
X124200104Y-76473885D01*
X124533438Y-76521504D02*
X125009628Y-76521504D01*
X124438200Y-76807219D02*
X124771533Y-75807219D01*
X124771533Y-75807219D02*
X125104866Y-76807219D01*
X125438200Y-76807219D02*
X125438200Y-75807219D01*
X125438200Y-75807219D02*
X125819152Y-75807219D01*
X125819152Y-75807219D02*
X125914390Y-75854838D01*
X125914390Y-75854838D02*
X125962009Y-75902457D01*
X125962009Y-75902457D02*
X126009628Y-75997695D01*
X126009628Y-75997695D02*
X126009628Y-76140552D01*
X126009628Y-76140552D02*
X125962009Y-76235790D01*
X125962009Y-76235790D02*
X125914390Y-76283409D01*
X125914390Y-76283409D02*
X125819152Y-76331028D01*
X125819152Y-76331028D02*
X125438200Y-76331028D01*
X128266171Y-99867019D02*
X127694743Y-99867019D01*
X127980457Y-99867019D02*
X127980457Y-98867019D01*
X127980457Y-98867019D02*
X127885219Y-99009876D01*
X127885219Y-99009876D02*
X127789981Y-99105114D01*
X127789981Y-99105114D02*
X127694743Y-99152733D01*
X128885219Y-98867019D02*
X128980457Y-98867019D01*
X128980457Y-98867019D02*
X129075695Y-98914638D01*
X129075695Y-98914638D02*
X129123314Y-98962257D01*
X129123314Y-98962257D02*
X129170933Y-99057495D01*
X129170933Y-99057495D02*
X129218552Y-99247971D01*
X129218552Y-99247971D02*
X129218552Y-99486066D01*
X129218552Y-99486066D02*
X129170933Y-99676542D01*
X129170933Y-99676542D02*
X129123314Y-99771780D01*
X129123314Y-99771780D02*
X129075695Y-99819400D01*
X129075695Y-99819400D02*
X128980457Y-99867019D01*
X128980457Y-99867019D02*
X128885219Y-99867019D01*
X128885219Y-99867019D02*
X128789981Y-99819400D01*
X128789981Y-99819400D02*
X128742362Y-99771780D01*
X128742362Y-99771780D02*
X128694743Y-99676542D01*
X128694743Y-99676542D02*
X128647124Y-99486066D01*
X128647124Y-99486066D02*
X128647124Y-99247971D01*
X128647124Y-99247971D02*
X128694743Y-99057495D01*
X128694743Y-99057495D02*
X128742362Y-98962257D01*
X128742362Y-98962257D02*
X128789981Y-98914638D01*
X128789981Y-98914638D02*
X128885219Y-98867019D01*
X129647124Y-99867019D02*
X129647124Y-98867019D01*
X130218552Y-99867019D02*
X129789981Y-99295590D01*
X130218552Y-98867019D02*
X129647124Y-99438447D01*
X130551886Y-99867019D02*
X131075695Y-99200352D01*
X130551886Y-99200352D02*
X131075695Y-99867019D01*
X131599505Y-99295590D02*
X131504267Y-99247971D01*
X131504267Y-99247971D02*
X131456648Y-99200352D01*
X131456648Y-99200352D02*
X131409029Y-99105114D01*
X131409029Y-99105114D02*
X131409029Y-99057495D01*
X131409029Y-99057495D02*
X131456648Y-98962257D01*
X131456648Y-98962257D02*
X131504267Y-98914638D01*
X131504267Y-98914638D02*
X131599505Y-98867019D01*
X131599505Y-98867019D02*
X131789981Y-98867019D01*
X131789981Y-98867019D02*
X131885219Y-98914638D01*
X131885219Y-98914638D02*
X131932838Y-98962257D01*
X131932838Y-98962257D02*
X131980457Y-99057495D01*
X131980457Y-99057495D02*
X131980457Y-99105114D01*
X131980457Y-99105114D02*
X131932838Y-99200352D01*
X131932838Y-99200352D02*
X131885219Y-99247971D01*
X131885219Y-99247971D02*
X131789981Y-99295590D01*
X131789981Y-99295590D02*
X131599505Y-99295590D01*
X131599505Y-99295590D02*
X131504267Y-99343209D01*
X131504267Y-99343209D02*
X131456648Y-99390828D01*
X131456648Y-99390828D02*
X131409029Y-99486066D01*
X131409029Y-99486066D02*
X131409029Y-99676542D01*
X131409029Y-99676542D02*
X131456648Y-99771780D01*
X131456648Y-99771780D02*
X131504267Y-99819400D01*
X131504267Y-99819400D02*
X131599505Y-99867019D01*
X131599505Y-99867019D02*
X131789981Y-99867019D01*
X131789981Y-99867019D02*
X131885219Y-99819400D01*
X131885219Y-99819400D02*
X131932838Y-99771780D01*
X131932838Y-99771780D02*
X131980457Y-99676542D01*
X131980457Y-99676542D02*
X131980457Y-99486066D01*
X131980457Y-99486066D02*
X131932838Y-99390828D01*
X131932838Y-99390828D02*
X131885219Y-99343209D01*
X131885219Y-99343209D02*
X131789981Y-99295590D01*
X205784789Y-103389094D02*
X204784789Y-103389094D01*
X204784789Y-103389094D02*
X204784789Y-103150999D01*
X204784789Y-103150999D02*
X204832408Y-103008142D01*
X204832408Y-103008142D02*
X204927646Y-102912904D01*
X204927646Y-102912904D02*
X205022884Y-102865285D01*
X205022884Y-102865285D02*
X205213360Y-102817666D01*
X205213360Y-102817666D02*
X205356217Y-102817666D01*
X205356217Y-102817666D02*
X205546693Y-102865285D01*
X205546693Y-102865285D02*
X205641931Y-102912904D01*
X205641931Y-102912904D02*
X205737170Y-103008142D01*
X205737170Y-103008142D02*
X205784789Y-103150999D01*
X205784789Y-103150999D02*
X205784789Y-103389094D01*
X205784789Y-101865285D02*
X205784789Y-102436713D01*
X205784789Y-102150999D02*
X204784789Y-102150999D01*
X204784789Y-102150999D02*
X204927646Y-102246237D01*
X204927646Y-102246237D02*
X205022884Y-102341475D01*
X205022884Y-102341475D02*
X205070503Y-102436713D01*
X201825789Y-106722904D02*
X200825789Y-106722904D01*
X201825789Y-106151476D02*
X201254360Y-106580047D01*
X200825789Y-106151476D02*
X201397217Y-106722904D01*
X201166289Y-103389094D02*
X200166289Y-103389094D01*
X200166289Y-103389094D02*
X200166289Y-103150999D01*
X200166289Y-103150999D02*
X200213908Y-103008142D01*
X200213908Y-103008142D02*
X200309146Y-102912904D01*
X200309146Y-102912904D02*
X200404384Y-102865285D01*
X200404384Y-102865285D02*
X200594860Y-102817666D01*
X200594860Y-102817666D02*
X200737717Y-102817666D01*
X200737717Y-102817666D02*
X200928193Y-102865285D01*
X200928193Y-102865285D02*
X201023431Y-102912904D01*
X201023431Y-102912904D02*
X201118670Y-103008142D01*
X201118670Y-103008142D02*
X201166289Y-103150999D01*
X201166289Y-103150999D02*
X201166289Y-103389094D01*
X200261527Y-102436713D02*
X200213908Y-102389094D01*
X200213908Y-102389094D02*
X200166289Y-102293856D01*
X200166289Y-102293856D02*
X200166289Y-102055761D01*
X200166289Y-102055761D02*
X200213908Y-101960523D01*
X200213908Y-101960523D02*
X200261527Y-101912904D01*
X200261527Y-101912904D02*
X200356765Y-101865285D01*
X200356765Y-101865285D02*
X200452003Y-101865285D01*
X200452003Y-101865285D02*
X200594860Y-101912904D01*
X200594860Y-101912904D02*
X201166289Y-102484332D01*
X201166289Y-102484332D02*
X201166289Y-101865285D01*
X200846289Y-99102904D02*
X199846289Y-99102904D01*
X200846289Y-98531476D02*
X200274860Y-98960047D01*
X199846289Y-98531476D02*
X200417717Y-99102904D01*
X147269295Y-115990019D02*
X147840723Y-115990019D01*
X147555009Y-116990019D02*
X147555009Y-115990019D01*
X148078819Y-115990019D02*
X148745485Y-116990019D01*
X148745485Y-115990019D02*
X148078819Y-116990019D01*
X115074989Y-67907819D02*
X115408322Y-68907819D01*
X115408322Y-68907819D02*
X115741655Y-67907819D01*
X116408322Y-68384009D02*
X116074989Y-68384009D01*
X116074989Y-68907819D02*
X116074989Y-67907819D01*
X116074989Y-67907819D02*
X116551179Y-67907819D01*
X117122608Y-67907819D02*
X117313084Y-67907819D01*
X117313084Y-67907819D02*
X117408322Y-67955438D01*
X117408322Y-67955438D02*
X117503560Y-68050676D01*
X117503560Y-68050676D02*
X117551179Y-68241152D01*
X117551179Y-68241152D02*
X117551179Y-68574485D01*
X117551179Y-68574485D02*
X117503560Y-68764961D01*
X117503560Y-68764961D02*
X117408322Y-68860200D01*
X117408322Y-68860200D02*
X117313084Y-68907819D01*
X117313084Y-68907819D02*
X117122608Y-68907819D01*
X117122608Y-68907819D02*
X117027370Y-68860200D01*
X117027370Y-68860200D02*
X116932132Y-68764961D01*
X116932132Y-68764961D02*
X116884513Y-68574485D01*
X116884513Y-68574485D02*
X116884513Y-68241152D01*
X116884513Y-68241152D02*
X116932132Y-68050676D01*
X116932132Y-68050676D02*
X117027370Y-67955438D01*
X117027370Y-67955438D02*
X117122608Y-67907819D01*
X117741656Y-69003057D02*
X118503560Y-69003057D01*
X119074989Y-68384009D02*
X118741656Y-68384009D01*
X118741656Y-68907819D02*
X118741656Y-67907819D01*
X118741656Y-67907819D02*
X119217846Y-67907819D01*
X119598799Y-68907819D02*
X119598799Y-68241152D01*
X119598799Y-68431628D02*
X119646418Y-68336390D01*
X119646418Y-68336390D02*
X119694037Y-68288771D01*
X119694037Y-68288771D02*
X119789275Y-68241152D01*
X119789275Y-68241152D02*
X119884513Y-68241152D01*
X120360704Y-68907819D02*
X120265466Y-68860200D01*
X120265466Y-68860200D02*
X120217847Y-68812580D01*
X120217847Y-68812580D02*
X120170228Y-68717342D01*
X120170228Y-68717342D02*
X120170228Y-68431628D01*
X120170228Y-68431628D02*
X120217847Y-68336390D01*
X120217847Y-68336390D02*
X120265466Y-68288771D01*
X120265466Y-68288771D02*
X120360704Y-68241152D01*
X120360704Y-68241152D02*
X120503561Y-68241152D01*
X120503561Y-68241152D02*
X120598799Y-68288771D01*
X120598799Y-68288771D02*
X120646418Y-68336390D01*
X120646418Y-68336390D02*
X120694037Y-68431628D01*
X120694037Y-68431628D02*
X120694037Y-68717342D01*
X120694037Y-68717342D02*
X120646418Y-68812580D01*
X120646418Y-68812580D02*
X120598799Y-68860200D01*
X120598799Y-68860200D02*
X120503561Y-68907819D01*
X120503561Y-68907819D02*
X120360704Y-68907819D01*
X121122609Y-68241152D02*
X121122609Y-68907819D01*
X121122609Y-68336390D02*
X121170228Y-68288771D01*
X121170228Y-68288771D02*
X121265466Y-68241152D01*
X121265466Y-68241152D02*
X121408323Y-68241152D01*
X121408323Y-68241152D02*
X121503561Y-68288771D01*
X121503561Y-68288771D02*
X121551180Y-68384009D01*
X121551180Y-68384009D02*
X121551180Y-68907819D01*
X121884514Y-68241152D02*
X122265466Y-68241152D01*
X122027371Y-67907819D02*
X122027371Y-68764961D01*
X122027371Y-68764961D02*
X122074990Y-68860200D01*
X122074990Y-68860200D02*
X122170228Y-68907819D01*
X122170228Y-68907819D02*
X122265466Y-68907819D01*
X122360705Y-69003057D02*
X123122609Y-69003057D01*
X123360705Y-68907819D02*
X123360705Y-67907819D01*
X123360705Y-67907819D02*
X123741657Y-67907819D01*
X123741657Y-67907819D02*
X123836895Y-67955438D01*
X123836895Y-67955438D02*
X123884514Y-68003057D01*
X123884514Y-68003057D02*
X123932133Y-68098295D01*
X123932133Y-68098295D02*
X123932133Y-68241152D01*
X123932133Y-68241152D02*
X123884514Y-68336390D01*
X123884514Y-68336390D02*
X123836895Y-68384009D01*
X123836895Y-68384009D02*
X123741657Y-68431628D01*
X123741657Y-68431628D02*
X123360705Y-68431628D01*
X124789276Y-68907819D02*
X124789276Y-68384009D01*
X124789276Y-68384009D02*
X124741657Y-68288771D01*
X124741657Y-68288771D02*
X124646419Y-68241152D01*
X124646419Y-68241152D02*
X124455943Y-68241152D01*
X124455943Y-68241152D02*
X124360705Y-68288771D01*
X124789276Y-68860200D02*
X124694038Y-68907819D01*
X124694038Y-68907819D02*
X124455943Y-68907819D01*
X124455943Y-68907819D02*
X124360705Y-68860200D01*
X124360705Y-68860200D02*
X124313086Y-68764961D01*
X124313086Y-68764961D02*
X124313086Y-68669723D01*
X124313086Y-68669723D02*
X124360705Y-68574485D01*
X124360705Y-68574485D02*
X124455943Y-68526866D01*
X124455943Y-68526866D02*
X124694038Y-68526866D01*
X124694038Y-68526866D02*
X124789276Y-68479247D01*
X125265467Y-68241152D02*
X125265467Y-68907819D01*
X125265467Y-68336390D02*
X125313086Y-68288771D01*
X125313086Y-68288771D02*
X125408324Y-68241152D01*
X125408324Y-68241152D02*
X125551181Y-68241152D01*
X125551181Y-68241152D02*
X125646419Y-68288771D01*
X125646419Y-68288771D02*
X125694038Y-68384009D01*
X125694038Y-68384009D02*
X125694038Y-68907819D01*
X126170229Y-68241152D02*
X126170229Y-68907819D01*
X126170229Y-68336390D02*
X126217848Y-68288771D01*
X126217848Y-68288771D02*
X126313086Y-68241152D01*
X126313086Y-68241152D02*
X126455943Y-68241152D01*
X126455943Y-68241152D02*
X126551181Y-68288771D01*
X126551181Y-68288771D02*
X126598800Y-68384009D01*
X126598800Y-68384009D02*
X126598800Y-68907819D01*
X127455943Y-68860200D02*
X127360705Y-68907819D01*
X127360705Y-68907819D02*
X127170229Y-68907819D01*
X127170229Y-68907819D02*
X127074991Y-68860200D01*
X127074991Y-68860200D02*
X127027372Y-68764961D01*
X127027372Y-68764961D02*
X127027372Y-68384009D01*
X127027372Y-68384009D02*
X127074991Y-68288771D01*
X127074991Y-68288771D02*
X127170229Y-68241152D01*
X127170229Y-68241152D02*
X127360705Y-68241152D01*
X127360705Y-68241152D02*
X127455943Y-68288771D01*
X127455943Y-68288771D02*
X127503562Y-68384009D01*
X127503562Y-68384009D02*
X127503562Y-68479247D01*
X127503562Y-68479247D02*
X127027372Y-68574485D01*
X128074991Y-68907819D02*
X127979753Y-68860200D01*
X127979753Y-68860200D02*
X127932134Y-68764961D01*
X127932134Y-68764961D02*
X127932134Y-67907819D01*
X183865390Y-82429838D02*
X183770152Y-82382219D01*
X183770152Y-82382219D02*
X183627295Y-82382219D01*
X183627295Y-82382219D02*
X183484438Y-82429838D01*
X183484438Y-82429838D02*
X183389200Y-82525076D01*
X183389200Y-82525076D02*
X183341581Y-82620314D01*
X183341581Y-82620314D02*
X183293962Y-82810790D01*
X183293962Y-82810790D02*
X183293962Y-82953647D01*
X183293962Y-82953647D02*
X183341581Y-83144123D01*
X183341581Y-83144123D02*
X183389200Y-83239361D01*
X183389200Y-83239361D02*
X183484438Y-83334600D01*
X183484438Y-83334600D02*
X183627295Y-83382219D01*
X183627295Y-83382219D02*
X183722533Y-83382219D01*
X183722533Y-83382219D02*
X183865390Y-83334600D01*
X183865390Y-83334600D02*
X183913009Y-83286980D01*
X183913009Y-83286980D02*
X183913009Y-82953647D01*
X183913009Y-82953647D02*
X183722533Y-82953647D01*
X184341581Y-83382219D02*
X184341581Y-82382219D01*
X184341581Y-82382219D02*
X184913009Y-83382219D01*
X184913009Y-83382219D02*
X184913009Y-82382219D01*
X185389200Y-83382219D02*
X185389200Y-82382219D01*
X185389200Y-82382219D02*
X185627295Y-82382219D01*
X185627295Y-82382219D02*
X185770152Y-82429838D01*
X185770152Y-82429838D02*
X185865390Y-82525076D01*
X185865390Y-82525076D02*
X185913009Y-82620314D01*
X185913009Y-82620314D02*
X185960628Y-82810790D01*
X185960628Y-82810790D02*
X185960628Y-82953647D01*
X185960628Y-82953647D02*
X185913009Y-83144123D01*
X185913009Y-83144123D02*
X185865390Y-83239361D01*
X185865390Y-83239361D02*
X185770152Y-83334600D01*
X185770152Y-83334600D02*
X185627295Y-83382219D01*
X185627295Y-83382219D02*
X185389200Y-83382219D01*
X187151105Y-83001266D02*
X187913010Y-83001266D01*
X187532057Y-83382219D02*
X187532057Y-82620314D01*
X188865390Y-82382219D02*
X188389200Y-82382219D01*
X188389200Y-82382219D02*
X188341581Y-82858409D01*
X188341581Y-82858409D02*
X188389200Y-82810790D01*
X188389200Y-82810790D02*
X188484438Y-82763171D01*
X188484438Y-82763171D02*
X188722533Y-82763171D01*
X188722533Y-82763171D02*
X188817771Y-82810790D01*
X188817771Y-82810790D02*
X188865390Y-82858409D01*
X188865390Y-82858409D02*
X188913009Y-82953647D01*
X188913009Y-82953647D02*
X188913009Y-83191742D01*
X188913009Y-83191742D02*
X188865390Y-83286980D01*
X188865390Y-83286980D02*
X188817771Y-83334600D01*
X188817771Y-83334600D02*
X188722533Y-83382219D01*
X188722533Y-83382219D02*
X188484438Y-83382219D01*
X188484438Y-83382219D02*
X188389200Y-83334600D01*
X188389200Y-83334600D02*
X188341581Y-83286980D01*
X189198724Y-82382219D02*
X189532057Y-83382219D01*
X189532057Y-83382219D02*
X189865390Y-82382219D01*
X190960629Y-83001266D02*
X191722534Y-83001266D01*
X191341581Y-83382219D02*
X191341581Y-82620314D01*
X192246343Y-83382219D02*
X192436819Y-83382219D01*
X192436819Y-83382219D02*
X192532057Y-83334600D01*
X192532057Y-83334600D02*
X192579676Y-83286980D01*
X192579676Y-83286980D02*
X192674914Y-83144123D01*
X192674914Y-83144123D02*
X192722533Y-82953647D01*
X192722533Y-82953647D02*
X192722533Y-82572695D01*
X192722533Y-82572695D02*
X192674914Y-82477457D01*
X192674914Y-82477457D02*
X192627295Y-82429838D01*
X192627295Y-82429838D02*
X192532057Y-82382219D01*
X192532057Y-82382219D02*
X192341581Y-82382219D01*
X192341581Y-82382219D02*
X192246343Y-82429838D01*
X192246343Y-82429838D02*
X192198724Y-82477457D01*
X192198724Y-82477457D02*
X192151105Y-82572695D01*
X192151105Y-82572695D02*
X192151105Y-82810790D01*
X192151105Y-82810790D02*
X192198724Y-82906028D01*
X192198724Y-82906028D02*
X192246343Y-82953647D01*
X192246343Y-82953647D02*
X192341581Y-83001266D01*
X192341581Y-83001266D02*
X192532057Y-83001266D01*
X192532057Y-83001266D02*
X192627295Y-82953647D01*
X192627295Y-82953647D02*
X192674914Y-82906028D01*
X192674914Y-82906028D02*
X192722533Y-82810790D01*
X193008248Y-82382219D02*
X193341581Y-83382219D01*
X193341581Y-83382219D02*
X193674914Y-82382219D01*
X194770153Y-83001266D02*
X195532058Y-83001266D01*
X195151105Y-83382219D02*
X195151105Y-82620314D01*
X196532057Y-83382219D02*
X195960629Y-83382219D01*
X196246343Y-83382219D02*
X196246343Y-82382219D01*
X196246343Y-82382219D02*
X196151105Y-82525076D01*
X196151105Y-82525076D02*
X196055867Y-82620314D01*
X196055867Y-82620314D02*
X195960629Y-82667933D01*
X196913010Y-82477457D02*
X196960629Y-82429838D01*
X196960629Y-82429838D02*
X197055867Y-82382219D01*
X197055867Y-82382219D02*
X197293962Y-82382219D01*
X197293962Y-82382219D02*
X197389200Y-82429838D01*
X197389200Y-82429838D02*
X197436819Y-82477457D01*
X197436819Y-82477457D02*
X197484438Y-82572695D01*
X197484438Y-82572695D02*
X197484438Y-82667933D01*
X197484438Y-82667933D02*
X197436819Y-82810790D01*
X197436819Y-82810790D02*
X196865391Y-83382219D01*
X196865391Y-83382219D02*
X197484438Y-83382219D01*
D15*
%TO.C,J8*%
X190584570Y-114832000D02*
X190584570Y-110812000D01*
X190584570Y-113332000D02*
X189584570Y-113332000D01*
X190584570Y-110812000D02*
X182864570Y-110812000D01*
X190084570Y-112522000D02*
X190584570Y-112522000D01*
X190084570Y-111312000D02*
X190084570Y-112522000D01*
X189584570Y-113332000D02*
X189584570Y-114832000D01*
X183864570Y-113332000D02*
X183864570Y-114832000D01*
X183364570Y-112522000D02*
X183364570Y-111312000D01*
X183364570Y-111312000D02*
X190084570Y-111312000D01*
X182864570Y-114832000D02*
X190584570Y-114832000D01*
X182864570Y-113332000D02*
X183864570Y-113332000D01*
X182864570Y-112522000D02*
X183364570Y-112522000D01*
X182864570Y-110812000D02*
X182864570Y-114832000D01*
X182564570Y-115132000D02*
X185064570Y-115132000D01*
X182564570Y-112632000D02*
X182564570Y-115132000D01*
%TO.C,J9*%
X200410600Y-114832000D02*
X200410600Y-110812000D01*
X200410600Y-113332000D02*
X199410600Y-113332000D01*
X200410600Y-110812000D02*
X192690600Y-110812000D01*
X199910600Y-112522000D02*
X200410600Y-112522000D01*
X199910600Y-111312000D02*
X199910600Y-112522000D01*
X199410600Y-113332000D02*
X199410600Y-114832000D01*
X193690600Y-113332000D02*
X193690600Y-114832000D01*
X193190600Y-112522000D02*
X193190600Y-111312000D01*
X193190600Y-111312000D02*
X199910600Y-111312000D01*
X192690600Y-114832000D02*
X200410600Y-114832000D01*
X192690600Y-113332000D02*
X193690600Y-113332000D01*
X192690600Y-112522000D02*
X193190600Y-112522000D01*
X192690600Y-110812000D02*
X192690600Y-114832000D01*
X192390600Y-115132000D02*
X194890600Y-115132000D01*
X192390600Y-112632000D02*
X192390600Y-115132000D01*
%TO.C,J10*%
X194162200Y-91565600D02*
X194162200Y-87545600D01*
X194162200Y-90065600D02*
X193162200Y-90065600D01*
X194162200Y-87545600D02*
X186442200Y-87545600D01*
X193662200Y-89255600D02*
X194162200Y-89255600D01*
X193662200Y-88045600D02*
X193662200Y-89255600D01*
X193162200Y-90065600D02*
X193162200Y-91565600D01*
X187442200Y-90065600D02*
X187442200Y-91565600D01*
X186942200Y-89255600D02*
X186942200Y-88045600D01*
X186942200Y-88045600D02*
X193662200Y-88045600D01*
X186442200Y-91565600D02*
X194162200Y-91565600D01*
X186442200Y-90065600D02*
X187442200Y-90065600D01*
X186442200Y-89255600D02*
X186942200Y-89255600D01*
X186442200Y-87545600D02*
X186442200Y-91565600D01*
X186142200Y-91865600D02*
X188642200Y-91865600D01*
X186142200Y-89365600D02*
X186142200Y-91865600D01*
D11*
%TO.C,M1*%
X105937000Y-100109600D02*
G75*
G02*
X103397000Y-102649600I-2540000J0D01*
G01*
X103397000Y-72169600D02*
G75*
G02*
X105937000Y-74709600I0J-2540000D01*
G01*
X86886600Y-102649600D02*
G75*
G02*
X84346600Y-100109600I0J2540000D01*
G01*
X84346600Y-74709600D02*
G75*
G02*
X86886600Y-72169600I2540000J0D01*
G01*
X105937000Y-74709600D02*
X105937000Y-100109600D01*
X103397000Y-102649600D02*
X86886600Y-102649600D01*
X86886600Y-72169600D02*
X103397000Y-72169600D01*
X84346600Y-100109600D02*
X84346600Y-74709600D01*
D15*
%TO.C,R1*%
X195131970Y-105921000D02*
X195131970Y-99381000D01*
X195131970Y-99381000D02*
X192391970Y-99381000D01*
X193761970Y-106691000D02*
X193761970Y-105921000D01*
X193761970Y-98611000D02*
X193761970Y-99381000D01*
X192391970Y-105921000D02*
X195131970Y-105921000D01*
X192391970Y-99381000D02*
X192391970Y-105921000D01*
%TO.C,R3*%
X185472970Y-105921000D02*
X185472970Y-99381000D01*
X185472970Y-99381000D02*
X182732970Y-99381000D01*
X184102970Y-106691000D02*
X184102970Y-105921000D01*
X184102970Y-98611000D02*
X184102970Y-99381000D01*
X182732970Y-105921000D02*
X185472970Y-105921000D01*
X182732970Y-99381000D02*
X182732970Y-105921000D01*
%TO.C,J6*%
X143773725Y-114812619D02*
X143773725Y-107092619D01*
X143773725Y-107092619D02*
X139753725Y-107092619D01*
X143273725Y-114312619D02*
X142063725Y-114312619D01*
X143273725Y-107592619D02*
X143273725Y-114312619D01*
X142063725Y-114312619D02*
X142063725Y-114812619D01*
X142063725Y-107592619D02*
X143273725Y-107592619D01*
X142063725Y-107092619D02*
X142063725Y-107592619D01*
X141953725Y-106792619D02*
X139453725Y-106792619D01*
X141253725Y-114812619D02*
X141253725Y-113812619D01*
X141253725Y-113812619D02*
X139753725Y-113812619D01*
X141253725Y-108092619D02*
X139753725Y-108092619D01*
X141253725Y-107092619D02*
X141253725Y-108092619D01*
X139753725Y-114812619D02*
X143773725Y-114812619D01*
X139753725Y-107092619D02*
X139753725Y-114812619D01*
X139453725Y-106792619D02*
X139453725Y-109292619D01*
%TO.C,C4*%
X183007086Y-66343027D02*
X183007086Y-63603027D01*
X190247086Y-63603027D02*
X183007086Y-63603027D01*
X190247086Y-66343027D02*
X183007086Y-66343027D01*
X190247086Y-66343027D02*
X190247086Y-63603027D01*
%TO.C,J2*%
X113755027Y-101792619D02*
X113755027Y-104292619D01*
X114055027Y-102092619D02*
X114055027Y-114812619D01*
X114055027Y-114812619D02*
X118075027Y-114812619D01*
X115555027Y-102092619D02*
X115555027Y-103092619D01*
X115555027Y-103092619D02*
X114055027Y-103092619D01*
X115555027Y-113812619D02*
X114055027Y-113812619D01*
X115555027Y-114812619D02*
X115555027Y-113812619D01*
X116255027Y-101792619D02*
X113755027Y-101792619D01*
X116365027Y-102092619D02*
X116365027Y-102592619D01*
X116365027Y-102592619D02*
X117575027Y-102592619D01*
X116365027Y-114312619D02*
X116365027Y-114812619D01*
X117575027Y-102592619D02*
X117575027Y-114312619D01*
X117575027Y-114312619D02*
X116365027Y-114312619D01*
X118075027Y-102092619D02*
X114055027Y-102092619D01*
X118075027Y-114812619D02*
X118075027Y-102092619D01*
%TO.C,U3*%
X204441829Y-68745464D02*
X204441829Y-78985464D01*
X207572829Y-68745464D02*
X207572829Y-78985464D01*
X209082829Y-68745464D02*
X204441829Y-68745464D01*
X209082829Y-68745464D02*
X209082829Y-78985464D01*
X209082829Y-72015464D02*
X207572829Y-72015464D01*
X209082829Y-75716464D02*
X207572829Y-75716464D01*
X209082829Y-78985464D02*
X204441829Y-78985464D01*
%TO.C,J3*%
X120179701Y-104292619D02*
X120179701Y-106792619D01*
X120479701Y-104592619D02*
X120479701Y-114812619D01*
X120479701Y-114812619D02*
X124499701Y-114812619D01*
X121979701Y-104592619D02*
X121979701Y-105592619D01*
X121979701Y-105592619D02*
X120479701Y-105592619D01*
X121979701Y-113812619D02*
X120479701Y-113812619D01*
X121979701Y-114812619D02*
X121979701Y-113812619D01*
X122679701Y-104292619D02*
X120179701Y-104292619D01*
X122789701Y-104592619D02*
X122789701Y-105092619D01*
X122789701Y-105092619D02*
X123999701Y-105092619D01*
X122789701Y-114312619D02*
X122789701Y-114812619D01*
X123999701Y-105092619D02*
X123999701Y-114312619D01*
X123999701Y-114312619D02*
X122789701Y-114312619D01*
X124499701Y-104592619D02*
X120479701Y-104592619D01*
X124499701Y-114812619D02*
X124499701Y-104592619D01*
%TO.C,J1*%
X107330352Y-101792619D02*
X107330352Y-104292619D01*
X107630352Y-102092619D02*
X107630352Y-114812619D01*
X107630352Y-114812619D02*
X111650352Y-114812619D01*
X109130352Y-102092619D02*
X109130352Y-103092619D01*
X109130352Y-103092619D02*
X107630352Y-103092619D01*
X109130352Y-113812619D02*
X107630352Y-113812619D01*
X109130352Y-114812619D02*
X109130352Y-113812619D01*
X109830352Y-101792619D02*
X107330352Y-101792619D01*
X109940352Y-102092619D02*
X109940352Y-102592619D01*
X109940352Y-102592619D02*
X111150352Y-102592619D01*
X109940352Y-114312619D02*
X109940352Y-114812619D01*
X111150352Y-102592619D02*
X111150352Y-114312619D01*
X111150352Y-114312619D02*
X109940352Y-114312619D01*
X111650352Y-102092619D02*
X107630352Y-102092619D01*
X111650352Y-114812619D02*
X111650352Y-102092619D01*
D16*
%TO.C,G\u002A\u002A\u002A*%
G36*
X117502756Y-89411441D02*
G01*
X117739341Y-89509741D01*
X117989000Y-89660389D01*
X118024746Y-89755591D01*
X117949106Y-89800376D01*
X117579137Y-89870490D01*
X117308421Y-89736368D01*
X117260586Y-89683831D01*
X117163611Y-89481947D01*
X117258582Y-89385970D01*
X117502756Y-89411441D01*
G37*
G36*
X131227058Y-88333638D02*
G01*
X131406963Y-88476072D01*
X131484843Y-88718182D01*
X131457537Y-88962516D01*
X131321882Y-89111621D01*
X131252682Y-89123319D01*
X131018874Y-89025149D01*
X130868235Y-88861980D01*
X130788434Y-88573631D01*
X130903937Y-88370946D01*
X131168842Y-88321516D01*
X131227058Y-88333638D01*
G37*
G36*
X118201226Y-87923627D02*
G01*
X118270904Y-88146355D01*
X118270950Y-88154072D01*
X118347923Y-88468970D01*
X118531561Y-88792005D01*
X118670821Y-89029360D01*
X118629341Y-89127506D01*
X118438885Y-89081726D01*
X118131214Y-88887302D01*
X118092349Y-88857245D01*
X117837431Y-88568846D01*
X117792471Y-88261043D01*
X117888150Y-87997483D01*
X118049022Y-87879507D01*
X118201226Y-87923627D01*
G37*
G36*
X117601910Y-88733756D02*
G01*
X117862955Y-88867459D01*
X117984367Y-88945435D01*
X118292564Y-89135890D01*
X118525377Y-89247076D01*
X118571417Y-89257899D01*
X118589454Y-89297859D01*
X118455291Y-89375438D01*
X118255912Y-89450567D01*
X118082336Y-89483198D01*
X117879883Y-89432859D01*
X117673672Y-89347078D01*
X117454336Y-89146912D01*
X117386488Y-88889908D01*
X117463850Y-88714907D01*
X117601910Y-88733756D01*
G37*
G36*
X120246188Y-92447735D02*
G01*
X120408573Y-92581239D01*
X120597839Y-92812103D01*
X120660059Y-92982380D01*
X120590491Y-93245408D01*
X120419187Y-93515629D01*
X120202247Y-93735786D01*
X119995770Y-93848626D01*
X119858174Y-93800780D01*
X119799677Y-93626610D01*
X119729125Y-93317599D01*
X119719567Y-93267917D01*
X119694366Y-92919753D01*
X119805408Y-92681760D01*
X119896766Y-92589237D01*
X120098161Y-92431837D01*
X120246188Y-92447735D01*
G37*
G36*
X120197430Y-87235854D02*
G01*
X120600682Y-87562380D01*
X120916678Y-88047349D01*
X121038263Y-88372268D01*
X121107923Y-88638256D01*
X121081807Y-88696075D01*
X120935165Y-88578803D01*
X120904472Y-88551077D01*
X120748846Y-88428604D01*
X120594671Y-88394143D01*
X120363629Y-88451763D01*
X119994714Y-88598357D01*
X119483874Y-88789718D01*
X119141391Y-88860124D01*
X118917857Y-88814404D01*
X118804706Y-88714655D01*
X118593794Y-88288776D01*
X118602449Y-87868251D01*
X118802345Y-87500814D01*
X119165162Y-87234198D01*
X119662575Y-87116136D01*
X119754341Y-87114233D01*
X120197430Y-87235854D01*
G37*
G36*
X131404621Y-89493255D02*
G01*
X131443995Y-89819677D01*
X131468112Y-90310674D01*
X131473920Y-90757972D01*
X131473920Y-92141140D01*
X130961968Y-92141140D01*
X130648506Y-92131708D01*
X130545599Y-92086349D01*
X130612528Y-91979469D01*
X130647612Y-91943545D01*
X130773647Y-91704727D01*
X130835599Y-91283162D01*
X130845207Y-90925832D01*
X130835422Y-90474913D01*
X130794874Y-90215296D01*
X130706771Y-90087187D01*
X130596655Y-90040718D01*
X130466223Y-89983725D01*
X130501058Y-89891486D01*
X130724044Y-89720942D01*
X130790853Y-89675262D01*
X131092179Y-89488549D01*
X131312770Y-89383343D01*
X131353761Y-89374804D01*
X131404621Y-89493255D01*
G37*
G36*
X116969833Y-91828624D02*
G01*
X117107615Y-92011442D01*
X117324309Y-92237311D01*
X117643401Y-92453571D01*
X117672268Y-92468743D01*
X118082336Y-92678515D01*
X117842100Y-92409057D01*
X117686190Y-92200397D01*
X117654438Y-92087025D01*
X117781975Y-92116549D01*
X118073557Y-92241799D01*
X118472567Y-92437868D01*
X118585183Y-92496459D01*
X119096184Y-92790754D01*
X119411764Y-93041611D01*
X119575276Y-93284533D01*
X119587613Y-93317348D01*
X119645740Y-93582206D01*
X119563208Y-93782123D01*
X119361626Y-93977496D01*
X119009036Y-94206196D01*
X118643672Y-94259227D01*
X118199202Y-94137419D01*
X117896291Y-93995843D01*
X117331695Y-93617453D01*
X116980064Y-93146390D01*
X116806455Y-92532252D01*
X116791354Y-92401992D01*
X116778283Y-91979662D01*
X116839168Y-91786820D01*
X116969833Y-91828624D01*
G37*
G36*
X122595210Y-89580662D02*
G01*
X122855294Y-89774280D01*
X123053148Y-90011307D01*
X123119459Y-90221651D01*
X123102905Y-90269781D01*
X122906277Y-90375118D01*
X122596276Y-90336967D01*
X122256265Y-90168493D01*
X122200832Y-90127333D01*
X121966121Y-89964315D01*
X121811107Y-89958764D01*
X121646593Y-90083950D01*
X121458669Y-90376463D01*
X121410985Y-90730921D01*
X121481440Y-91083280D01*
X121647936Y-91369494D01*
X121888371Y-91525518D01*
X122137534Y-91506702D01*
X122355511Y-91373193D01*
X122420455Y-91264994D01*
X122529703Y-91173868D01*
X122792934Y-91135210D01*
X122797682Y-91135200D01*
X123091178Y-91197733D01*
X123167949Y-91375402D01*
X123026531Y-91653309D01*
X122866269Y-91832500D01*
X122458955Y-92085125D01*
X121988029Y-92149133D01*
X121539890Y-92023841D01*
X121305711Y-91844815D01*
X121023570Y-91385379D01*
X120949044Y-90881650D01*
X121058261Y-90387616D01*
X121327352Y-89957266D01*
X121732445Y-89644589D01*
X122249670Y-89503572D01*
X122342212Y-89500546D01*
X122595210Y-89580662D01*
G37*
G36*
X124865710Y-89525044D02*
G01*
X124935306Y-89546232D01*
X125364048Y-89807817D01*
X125654557Y-90232231D01*
X125769068Y-90751758D01*
X125751360Y-91009457D01*
X125567032Y-91496434D01*
X125230558Y-91862521D01*
X124799410Y-92086285D01*
X124331061Y-92146293D01*
X123882982Y-92021111D01*
X123609005Y-91808423D01*
X123364696Y-91385311D01*
X123298390Y-90893551D01*
X123305973Y-90854763D01*
X123819064Y-90854763D01*
X123937232Y-91344504D01*
X124095795Y-91648557D01*
X124263628Y-91807526D01*
X124394300Y-91784099D01*
X124420403Y-91732811D01*
X124551270Y-91544146D01*
X124724281Y-91379207D01*
X124938779Y-91061625D01*
X124974656Y-90666946D01*
X124835785Y-90291109D01*
X124673342Y-90116968D01*
X124402145Y-89930271D01*
X124224529Y-89903908D01*
X124045358Y-90031991D01*
X124001218Y-90075370D01*
X123839198Y-90399099D01*
X123819064Y-90854763D01*
X123305973Y-90854763D01*
X123394212Y-90403428D01*
X123636287Y-89985229D01*
X124008739Y-89709241D01*
X124089824Y-89679645D01*
X124335489Y-89573787D01*
X124432336Y-89497849D01*
X124580327Y-89470978D01*
X124865710Y-89525044D01*
G37*
G36*
X118179195Y-90071769D02*
G01*
X118499819Y-90241069D01*
X118747842Y-90458226D01*
X118850966Y-90670052D01*
X118841898Y-90727135D01*
X118816565Y-90850880D01*
X118933018Y-90782327D01*
X118951441Y-90767178D01*
X119205092Y-90658555D01*
X119516191Y-90646387D01*
X119793125Y-90717238D01*
X119944282Y-90857675D01*
X119951236Y-90913797D01*
X119986823Y-91064305D01*
X120046668Y-91062859D01*
X120308577Y-91027385D01*
X120580946Y-91186633D01*
X120821234Y-91489489D01*
X120986905Y-91884837D01*
X121037286Y-92253218D01*
X121000654Y-92575371D01*
X120880835Y-92679553D01*
X120662945Y-92566032D01*
X120359393Y-92265480D01*
X120103219Y-91947081D01*
X119938675Y-91675651D01*
X119905603Y-91564946D01*
X119849161Y-91433665D01*
X119640117Y-91427535D01*
X119535750Y-91447936D01*
X119213858Y-91462793D01*
X118921948Y-91390778D01*
X118734910Y-91262541D01*
X118723273Y-91115420D01*
X118703857Y-91037392D01*
X118524947Y-91071531D01*
X118218776Y-91069053D01*
X117845591Y-90943687D01*
X117512399Y-90744190D01*
X117328837Y-90526510D01*
X117343751Y-90273382D01*
X117546229Y-90078067D01*
X117858272Y-90003517D01*
X118179195Y-90071769D01*
G37*
G36*
X133175528Y-89475230D02*
G01*
X133463737Y-89601895D01*
X133740304Y-89793171D01*
X133797081Y-89846120D01*
X134005076Y-90115917D01*
X134098071Y-90442385D01*
X134114514Y-90784791D01*
X134086107Y-91210883D01*
X133971482Y-91507692D01*
X133746959Y-91773585D01*
X133467767Y-92006571D01*
X133225915Y-92133385D01*
X133176786Y-92141140D01*
X133062136Y-92178339D01*
X133019958Y-92328284D01*
X133039937Y-92648502D01*
X133058405Y-92801289D01*
X133111776Y-93178697D01*
X133158102Y-93436909D01*
X133178108Y-93503460D01*
X133211215Y-93414351D01*
X133260230Y-93140375D01*
X133301305Y-92843311D01*
X133362508Y-92441505D01*
X133438894Y-92230685D01*
X133563508Y-92150988D01*
X133688903Y-92141140D01*
X133827843Y-92151119D01*
X133915472Y-92212447D01*
X133963613Y-92372211D01*
X133984084Y-92677498D01*
X133988707Y-93175394D01*
X133988771Y-93335695D01*
X133982021Y-93905128D01*
X133957332Y-94265488D01*
X133908049Y-94458933D01*
X133827513Y-94527622D01*
X133800158Y-94530249D01*
X133669102Y-94445965D01*
X133606863Y-94167858D01*
X133598078Y-93995843D01*
X133584612Y-93461437D01*
X133464935Y-93995843D01*
X133336958Y-94378760D01*
X133191199Y-94514333D01*
X133044171Y-94404355D01*
X132912389Y-94050618D01*
X132885556Y-93932972D01*
X132761075Y-93335695D01*
X132746210Y-93932972D01*
X132713785Y-94281296D01*
X132647996Y-94496534D01*
X132605603Y-94530249D01*
X132545500Y-94411475D01*
X132502580Y-94082387D01*
X132481343Y-93583837D01*
X132479860Y-93388894D01*
X132475538Y-92842946D01*
X132451772Y-92483246D01*
X132392360Y-92244579D01*
X132281105Y-92061730D01*
X132102633Y-91870310D01*
X131847259Y-91556761D01*
X131740567Y-91221619D01*
X131725405Y-90927241D01*
X131735490Y-90818587D01*
X132236275Y-90818587D01*
X132317953Y-91267302D01*
X132500355Y-91640820D01*
X132655863Y-91791319D01*
X132810503Y-91784941D01*
X132845524Y-91728448D01*
X132983075Y-91536364D01*
X133128445Y-91410991D01*
X133322847Y-91136222D01*
X133373747Y-90758678D01*
X133287005Y-90377907D01*
X133068482Y-90093457D01*
X133050126Y-90080850D01*
X132791303Y-89922676D01*
X132637911Y-89901582D01*
X132485141Y-90016646D01*
X132425971Y-90075370D01*
X132268040Y-90389626D01*
X132236275Y-90818587D01*
X131735490Y-90818587D01*
X131764754Y-90503317D01*
X131917626Y-90190644D01*
X132092960Y-89993844D01*
X132370986Y-89760982D01*
X132610314Y-89634112D01*
X132658802Y-89626289D01*
X132832380Y-89570179D01*
X132857088Y-89517983D01*
X132948903Y-89438739D01*
X133175528Y-89475230D01*
G37*
G36*
X138863662Y-89613712D02*
G01*
X139164174Y-89903791D01*
X139357046Y-90296653D01*
X139395702Y-90563643D01*
X139395702Y-91009457D01*
X138766989Y-91009457D01*
X138371615Y-90989265D01*
X138178508Y-90919356D01*
X138138276Y-90820843D01*
X138033445Y-90667237D01*
X137886791Y-90632230D01*
X137684590Y-90719974D01*
X137643922Y-90945774D01*
X137766541Y-91253483D01*
X137863161Y-91388728D01*
X138109032Y-91589838D01*
X138366131Y-91582799D01*
X138581517Y-91469918D01*
X138641247Y-91378212D01*
X138742004Y-91284826D01*
X138969465Y-91265043D01*
X139211417Y-91313965D01*
X139346623Y-91409001D01*
X139316184Y-91581164D01*
X139104240Y-91831506D01*
X139013002Y-91911972D01*
X138769753Y-92140052D01*
X138732543Y-92250832D01*
X138800779Y-92266883D01*
X138987546Y-92374211D01*
X139100845Y-92631624D01*
X139114800Y-92942268D01*
X139039444Y-93160230D01*
X138968896Y-93385916D01*
X139021049Y-93463029D01*
X139099148Y-93626491D01*
X139141632Y-93939517D01*
X139144217Y-94043920D01*
X139124482Y-94369339D01*
X139047285Y-94501919D01*
X138924167Y-94506959D01*
X138736319Y-94351319D01*
X138663007Y-94089075D01*
X138593199Y-93737002D01*
X138503670Y-93594651D01*
X138425526Y-93671922D01*
X138389872Y-93978710D01*
X138389761Y-94002131D01*
X138361504Y-94361254D01*
X138266770Y-94516071D01*
X138201148Y-94530249D01*
X138108791Y-94485925D01*
X138051413Y-94324215D01*
X138021765Y-94002015D01*
X138012602Y-93476220D01*
X138012534Y-93408239D01*
X138008219Y-92895596D01*
X138389761Y-92895596D01*
X138442419Y-93099923D01*
X138515504Y-93147081D01*
X138617668Y-93041766D01*
X138641247Y-92895596D01*
X138588589Y-92691268D01*
X138515504Y-92644111D01*
X138413340Y-92749426D01*
X138389761Y-92895596D01*
X138008219Y-92895596D01*
X138007981Y-92867290D01*
X137983225Y-92511646D01*
X137921620Y-92275152D01*
X137806522Y-92091655D01*
X137635306Y-91909000D01*
X137392985Y-91619364D01*
X137282718Y-91316855D01*
X137258078Y-90917420D01*
X137288955Y-90515503D01*
X137351756Y-90262800D01*
X137673719Y-90262800D01*
X137744429Y-90348092D01*
X137898644Y-90396775D01*
X138333175Y-90486129D01*
X138612896Y-90476189D01*
X138702202Y-90369729D01*
X138693254Y-90334905D01*
X138536199Y-90155624D01*
X138324291Y-90025212D01*
X138053944Y-89954762D01*
X137840622Y-90068743D01*
X137808655Y-90099616D01*
X137673719Y-90262800D01*
X137351756Y-90262800D01*
X137367172Y-90200766D01*
X137415257Y-90113059D01*
X137724524Y-89837362D01*
X138112892Y-89613142D01*
X138467209Y-89503316D01*
X138516796Y-89500546D01*
X138863662Y-89613712D01*
G37*
G36*
X129601755Y-89527116D02*
G01*
X129966803Y-89749390D01*
X130158273Y-90012510D01*
X130309074Y-90489502D01*
X130322665Y-91005306D01*
X130214447Y-91489792D01*
X129999819Y-91872834D01*
X129703971Y-92081301D01*
X129397033Y-92116750D01*
X129021285Y-92086405D01*
X129011008Y-92084515D01*
X128723828Y-92045708D01*
X128605962Y-92120291D01*
X128582001Y-92371352D01*
X128581841Y-92443551D01*
X128652805Y-92837813D01*
X128801890Y-93011267D01*
X128868559Y-93083469D01*
X128743049Y-93124889D01*
X128399352Y-93141994D01*
X128270941Y-93143257D01*
X127862929Y-93141172D01*
X127670284Y-93119754D01*
X127656932Y-93064320D01*
X127786801Y-92960188D01*
X127799407Y-92951337D01*
X127922661Y-92847243D01*
X128003232Y-92708029D01*
X128050101Y-92483172D01*
X128072252Y-92122144D01*
X128078670Y-91574421D01*
X128078870Y-91379555D01*
X128073357Y-90801239D01*
X128606685Y-90801239D01*
X128610769Y-91286304D01*
X128672850Y-91625840D01*
X128720445Y-91716539D01*
X128903832Y-91781917D01*
X129133699Y-91669071D01*
X129358570Y-91431397D01*
X129526969Y-91122296D01*
X129587781Y-90816807D01*
X129500552Y-90435976D01*
X129279362Y-90147731D01*
X128984958Y-90019457D01*
X128874117Y-90025153D01*
X128737798Y-90099707D01*
X128657736Y-90296474D01*
X128614168Y-90672805D01*
X128606685Y-90801239D01*
X128073357Y-90801239D01*
X128072943Y-90757849D01*
X128051775Y-90348831D01*
X128010282Y-90113906D01*
X127943385Y-90014482D01*
X127897677Y-90003517D01*
X127688603Y-90072525D01*
X127646067Y-90117455D01*
X127483328Y-90182811D01*
X127326531Y-90166246D01*
X127093326Y-90216255D01*
X126929471Y-90498800D01*
X126838998Y-91003565D01*
X126821445Y-91457742D01*
X126821445Y-92141140D01*
X126287039Y-92137317D01*
X125973625Y-92123764D01*
X125882589Y-92081330D01*
X125972682Y-92005326D01*
X126093082Y-91824944D01*
X126172725Y-91495906D01*
X126210389Y-91091100D01*
X126204853Y-90683411D01*
X126154896Y-90345728D01*
X126059296Y-90150937D01*
X126004118Y-90129259D01*
X125831436Y-90075184D01*
X125849766Y-89955467D01*
X126034483Y-89833870D01*
X126129860Y-89803667D01*
X126365078Y-89712292D01*
X126444217Y-89629197D01*
X126557993Y-89574218D01*
X126851466Y-89532738D01*
X127135801Y-89517681D01*
X127514353Y-89528995D01*
X127765553Y-89574904D01*
X127827385Y-89623772D01*
X127927449Y-89682067D01*
X128149927Y-89623177D01*
X128434083Y-89523592D01*
X128554528Y-89530213D01*
X128581481Y-89656938D01*
X128581841Y-89708649D01*
X128599812Y-89846726D01*
X128696594Y-89808964D01*
X128811791Y-89708649D01*
X129194329Y-89508476D01*
X129601755Y-89527116D01*
G37*
G36*
X136212914Y-89524100D02*
G01*
X136553271Y-89602546D01*
X136784971Y-89795457D01*
X136925513Y-90138957D01*
X136992396Y-90669168D01*
X137004739Y-91158669D01*
X137006593Y-92125207D01*
X137415257Y-92164609D01*
X137707341Y-92252219D01*
X137826027Y-92400927D01*
X137753891Y-92547439D01*
X137540999Y-92621421D01*
X137323283Y-92732491D01*
X137250066Y-92920267D01*
X137327054Y-93089330D01*
X137509563Y-93147081D01*
X137714372Y-93225704D01*
X137761049Y-93335695D01*
X137656218Y-93489301D01*
X137509563Y-93524309D01*
X137312358Y-93597985D01*
X137258078Y-93838665D01*
X137310013Y-94077955D01*
X137514504Y-94151694D01*
X137572435Y-94153022D01*
X137825264Y-94218607D01*
X137886791Y-94341636D01*
X137832378Y-94447257D01*
X137637882Y-94506055D01*
X137256416Y-94528807D01*
X137066321Y-94530249D01*
X136625037Y-94525207D01*
X136373080Y-94492632D01*
X136248296Y-94406355D01*
X136188530Y-94240206D01*
X136170405Y-94153022D01*
X136085878Y-93888804D01*
X135986882Y-93775852D01*
X135984935Y-93775794D01*
X135907664Y-93885125D01*
X135874918Y-94148526D01*
X135874910Y-94153022D01*
X135818676Y-94452505D01*
X135686296Y-94530249D01*
X135596386Y-94487497D01*
X135539487Y-94331135D01*
X135508943Y-94019005D01*
X135498097Y-93508947D01*
X135497682Y-93335695D01*
X135496595Y-93176689D01*
X136368552Y-93176689D01*
X136426447Y-93508011D01*
X136498074Y-93775794D01*
X136585807Y-94080131D01*
X136647463Y-94244018D01*
X136690210Y-94246094D01*
X136721216Y-94065000D01*
X136747648Y-93679377D01*
X136776673Y-93067865D01*
X136782964Y-92926802D01*
X136791949Y-92520002D01*
X136780760Y-92236277D01*
X136755108Y-92141552D01*
X136672705Y-92246484D01*
X136543274Y-92507574D01*
X136498074Y-92613316D01*
X136392428Y-92914051D01*
X136368552Y-93176689D01*
X135496595Y-93176689D01*
X135493885Y-92780492D01*
X135475945Y-92430087D01*
X135434042Y-92237831D01*
X135358354Y-92157074D01*
X135246197Y-92141140D01*
X135117837Y-92142317D01*
X135041136Y-92175728D01*
X135013853Y-92286196D01*
X135033746Y-92518544D01*
X135098574Y-92917595D01*
X135183326Y-93398566D01*
X135268090Y-93883052D01*
X135333091Y-94260829D01*
X135368286Y-94473245D01*
X135371768Y-94498814D01*
X135266056Y-94524403D01*
X135120455Y-94530249D01*
X134915646Y-94451626D01*
X134868969Y-94341636D01*
X134768317Y-94174930D01*
X134680356Y-94153022D01*
X134513650Y-94253674D01*
X134491742Y-94341636D01*
X134391089Y-94508341D01*
X134303128Y-94530249D01*
X134152016Y-94423486D01*
X134121129Y-94247329D01*
X134146143Y-93985335D01*
X134205605Y-93565089D01*
X134233246Y-93398566D01*
X134646657Y-93398566D01*
X134659767Y-93627332D01*
X134692406Y-93654292D01*
X134704162Y-93618616D01*
X134723717Y-93299704D01*
X134704162Y-93178517D01*
X134667716Y-93139382D01*
X134647873Y-93313252D01*
X134646657Y-93398566D01*
X134233246Y-93398566D01*
X134286893Y-93075378D01*
X134290926Y-93052774D01*
X134360099Y-92613432D01*
X134393147Y-92289022D01*
X134384219Y-92140637D01*
X134378618Y-92137317D01*
X134405744Y-92083482D01*
X134523177Y-92005326D01*
X134645843Y-91880756D01*
X134714126Y-91647566D01*
X134741085Y-91247078D01*
X134741919Y-91157384D01*
X135246197Y-91157384D01*
X135257255Y-91580682D01*
X135307681Y-91825367D01*
X135423350Y-91963948D01*
X135560554Y-92038277D01*
X135804161Y-92231302D01*
X135879132Y-92555496D01*
X135879366Y-92569987D01*
X135883821Y-92958467D01*
X136063524Y-92644111D01*
X136169505Y-92314974D01*
X136233511Y-91806193D01*
X136247682Y-91409854D01*
X136217236Y-90712706D01*
X136117042Y-90255405D01*
X135945702Y-90035777D01*
X135701816Y-90051651D01*
X135476148Y-90211619D01*
X135332043Y-90421324D01*
X135261169Y-90758333D01*
X135246197Y-91157384D01*
X134741919Y-91157384D01*
X134743227Y-91016662D01*
X134731538Y-90540481D01*
X134687677Y-90258392D01*
X134598450Y-90113722D01*
X134523177Y-90071385D01*
X134377348Y-89988329D01*
X134464296Y-89899724D01*
X134491742Y-89884528D01*
X134908299Y-89702914D01*
X135165360Y-89691247D01*
X135250380Y-89837865D01*
X135273306Y-89972660D01*
X135365246Y-89925109D01*
X135496968Y-89775585D01*
X135739964Y-89572192D01*
X136061215Y-89516332D01*
X136212914Y-89524100D01*
G37*
D15*
%TO.C,C2*%
X191351045Y-69992027D02*
X191981045Y-69992027D01*
X191666045Y-69677027D02*
X191666045Y-70307027D01*
X194851286Y-68601027D02*
X194851286Y-75061027D01*
X194891286Y-68601027D02*
X194891286Y-75061027D01*
X194931286Y-68601027D02*
X194931286Y-75061027D01*
X194971286Y-68603027D02*
X194971286Y-75059027D01*
X195011286Y-68604027D02*
X195011286Y-75058027D01*
X195051286Y-68607027D02*
X195051286Y-75055027D01*
X195091286Y-68609027D02*
X195091286Y-70791027D01*
X195091286Y-72871027D02*
X195091286Y-75053027D01*
X195131286Y-68613027D02*
X195131286Y-70791027D01*
X195131286Y-72871027D02*
X195131286Y-75049027D01*
X195171286Y-68616027D02*
X195171286Y-70791027D01*
X195171286Y-72871027D02*
X195171286Y-75046027D01*
X195211286Y-68620027D02*
X195211286Y-70791027D01*
X195211286Y-72871027D02*
X195211286Y-75042027D01*
X195251286Y-68625027D02*
X195251286Y-70791027D01*
X195251286Y-72871027D02*
X195251286Y-75037027D01*
X195291286Y-68630027D02*
X195291286Y-70791027D01*
X195291286Y-72871027D02*
X195291286Y-75032027D01*
X195331286Y-68636027D02*
X195331286Y-70791027D01*
X195331286Y-72871027D02*
X195331286Y-75026027D01*
X195371286Y-68642027D02*
X195371286Y-70791027D01*
X195371286Y-72871027D02*
X195371286Y-75020027D01*
X195411286Y-68649027D02*
X195411286Y-70791027D01*
X195411286Y-72871027D02*
X195411286Y-75013027D01*
X195451286Y-68656027D02*
X195451286Y-70791027D01*
X195451286Y-72871027D02*
X195451286Y-75006027D01*
X195491286Y-68664027D02*
X195491286Y-70791027D01*
X195491286Y-72871027D02*
X195491286Y-74998027D01*
X195531286Y-68672027D02*
X195531286Y-70791027D01*
X195531286Y-72871027D02*
X195531286Y-74990027D01*
X195572286Y-68681027D02*
X195572286Y-70791027D01*
X195572286Y-72871027D02*
X195572286Y-74981027D01*
X195612286Y-68690027D02*
X195612286Y-70791027D01*
X195612286Y-72871027D02*
X195612286Y-74972027D01*
X195652286Y-68700027D02*
X195652286Y-70791027D01*
X195652286Y-72871027D02*
X195652286Y-74962027D01*
X195692286Y-68710027D02*
X195692286Y-70791027D01*
X195692286Y-72871027D02*
X195692286Y-74952027D01*
X195732286Y-68721027D02*
X195732286Y-70791027D01*
X195732286Y-72871027D02*
X195732286Y-74941027D01*
X195772286Y-68733027D02*
X195772286Y-70791027D01*
X195772286Y-72871027D02*
X195772286Y-74929027D01*
X195812286Y-68745027D02*
X195812286Y-70791027D01*
X195812286Y-72871027D02*
X195812286Y-74917027D01*
X195852286Y-68757027D02*
X195852286Y-70791027D01*
X195852286Y-72871027D02*
X195852286Y-74905027D01*
X195892286Y-68770027D02*
X195892286Y-70791027D01*
X195892286Y-72871027D02*
X195892286Y-74892027D01*
X195932286Y-68784027D02*
X195932286Y-70791027D01*
X195932286Y-72871027D02*
X195932286Y-74878027D01*
X195972286Y-68798027D02*
X195972286Y-70791027D01*
X195972286Y-72871027D02*
X195972286Y-74864027D01*
X196012286Y-68813027D02*
X196012286Y-70791027D01*
X196012286Y-72871027D02*
X196012286Y-74849027D01*
X196052286Y-68829027D02*
X196052286Y-70791027D01*
X196052286Y-72871027D02*
X196052286Y-74833027D01*
X196092286Y-68845027D02*
X196092286Y-70791027D01*
X196092286Y-72871027D02*
X196092286Y-74817027D01*
X196132286Y-68861027D02*
X196132286Y-70791027D01*
X196132286Y-72871027D02*
X196132286Y-74801027D01*
X196172286Y-68879027D02*
X196172286Y-70791027D01*
X196172286Y-72871027D02*
X196172286Y-74783027D01*
X196212286Y-68897027D02*
X196212286Y-70791027D01*
X196212286Y-72871027D02*
X196212286Y-74765027D01*
X196252286Y-68915027D02*
X196252286Y-70791027D01*
X196252286Y-72871027D02*
X196252286Y-74747027D01*
X196292286Y-68935027D02*
X196292286Y-70791027D01*
X196292286Y-72871027D02*
X196292286Y-74727027D01*
X196332286Y-68955027D02*
X196332286Y-70791027D01*
X196332286Y-72871027D02*
X196332286Y-74707027D01*
X196372286Y-68975027D02*
X196372286Y-70791027D01*
X196372286Y-72871027D02*
X196372286Y-74687027D01*
X196412286Y-68997027D02*
X196412286Y-70791027D01*
X196412286Y-72871027D02*
X196412286Y-74665027D01*
X196452286Y-69019027D02*
X196452286Y-70791027D01*
X196452286Y-72871027D02*
X196452286Y-74643027D01*
X196492286Y-69041027D02*
X196492286Y-70791027D01*
X196492286Y-72871027D02*
X196492286Y-74621027D01*
X196532286Y-69065027D02*
X196532286Y-70791027D01*
X196532286Y-72871027D02*
X196532286Y-74597027D01*
X196572286Y-69089027D02*
X196572286Y-70791027D01*
X196572286Y-72871027D02*
X196572286Y-74573027D01*
X196612286Y-69115027D02*
X196612286Y-70791027D01*
X196612286Y-72871027D02*
X196612286Y-74547027D01*
X196652286Y-69141027D02*
X196652286Y-70791027D01*
X196652286Y-72871027D02*
X196652286Y-74521027D01*
X196692286Y-69167027D02*
X196692286Y-70791027D01*
X196692286Y-72871027D02*
X196692286Y-74495027D01*
X196732286Y-69195027D02*
X196732286Y-70791027D01*
X196732286Y-72871027D02*
X196732286Y-74467027D01*
X196772286Y-69224027D02*
X196772286Y-70791027D01*
X196772286Y-72871027D02*
X196772286Y-74438027D01*
X196812286Y-69253027D02*
X196812286Y-70791027D01*
X196812286Y-72871027D02*
X196812286Y-74409027D01*
X196852286Y-69283027D02*
X196852286Y-70791027D01*
X196852286Y-72871027D02*
X196852286Y-74379027D01*
X196892286Y-69315027D02*
X196892286Y-70791027D01*
X196892286Y-72871027D02*
X196892286Y-74347027D01*
X196932286Y-69347027D02*
X196932286Y-70791027D01*
X196932286Y-72871027D02*
X196932286Y-74315027D01*
X196972286Y-69381027D02*
X196972286Y-70791027D01*
X196972286Y-72871027D02*
X196972286Y-74281027D01*
X197012286Y-69415027D02*
X197012286Y-70791027D01*
X197012286Y-72871027D02*
X197012286Y-74247027D01*
X197052286Y-69451027D02*
X197052286Y-70791027D01*
X197052286Y-72871027D02*
X197052286Y-74211027D01*
X197092286Y-69488027D02*
X197092286Y-70791027D01*
X197092286Y-72871027D02*
X197092286Y-74174027D01*
X197132286Y-69526027D02*
X197132286Y-70791027D01*
X197132286Y-72871027D02*
X197132286Y-74136027D01*
X197172286Y-69566027D02*
X197172286Y-74096027D01*
X197212286Y-69607027D02*
X197212286Y-74055027D01*
X197252286Y-69649027D02*
X197252286Y-74013027D01*
X197292286Y-69694027D02*
X197292286Y-73968027D01*
X197332286Y-69739027D02*
X197332286Y-73923027D01*
X197372286Y-69787027D02*
X197372286Y-73875027D01*
X197412286Y-69836027D02*
X197412286Y-73826027D01*
X197452286Y-69887027D02*
X197452286Y-73775027D01*
X197492286Y-69941027D02*
X197492286Y-73721027D01*
X197532286Y-69997027D02*
X197532286Y-73665027D01*
X197572286Y-70055027D02*
X197572286Y-73607027D01*
X197612286Y-70117027D02*
X197612286Y-73545027D01*
X197652286Y-70181027D02*
X197652286Y-73481027D01*
X197692286Y-70250027D02*
X197692286Y-73412027D01*
X197732286Y-70322027D02*
X197732286Y-73340027D01*
X197772286Y-70399027D02*
X197772286Y-73263027D01*
X197812286Y-70481027D02*
X197812286Y-73181027D01*
X197852286Y-70569027D02*
X197852286Y-73093027D01*
X197892286Y-70666027D02*
X197892286Y-72996027D01*
X197932286Y-70772027D02*
X197932286Y-72890027D01*
X197972286Y-70891027D02*
X197972286Y-72771027D01*
X198012286Y-71029027D02*
X198012286Y-72633027D01*
X198052286Y-71198027D02*
X198052286Y-72464027D01*
X198092286Y-71429027D02*
X198092286Y-72233027D01*
X198121286Y-71831027D02*
G75*
G02*
X191581286Y-71831027I-3270000J0D01*
G01*
X191581286Y-71831027D02*
G75*
G02*
X198121286Y-71831027I3270000J0D01*
G01*
%TO.C,J5*%
X133029051Y-106792619D02*
X133029051Y-109292619D01*
X133329051Y-107092619D02*
X133329051Y-114812619D01*
X133329051Y-114812619D02*
X137349051Y-114812619D01*
X134829051Y-107092619D02*
X134829051Y-108092619D01*
X134829051Y-108092619D02*
X133329051Y-108092619D01*
X134829051Y-113812619D02*
X133329051Y-113812619D01*
X134829051Y-114812619D02*
X134829051Y-113812619D01*
X135529051Y-106792619D02*
X133029051Y-106792619D01*
X135639051Y-107092619D02*
X135639051Y-107592619D01*
X135639051Y-107592619D02*
X136849051Y-107592619D01*
X135639051Y-114312619D02*
X135639051Y-114812619D01*
X136849051Y-107592619D02*
X136849051Y-114312619D01*
X136849051Y-114312619D02*
X135639051Y-114312619D01*
X137349051Y-107092619D02*
X133329051Y-107092619D01*
X137349051Y-114812619D02*
X137349051Y-107092619D01*
D17*
%TO.C,U1*%
X152475200Y-60710200D02*
X180375200Y-60710200D01*
X152475200Y-115110200D02*
X152475200Y-60710200D01*
X180375200Y-60710200D02*
X180375200Y-115110200D01*
X180375200Y-115110200D02*
X152475200Y-115110200D01*
D11*
X151925200Y-68100200D02*
G75*
G02*
X151725200Y-68100200I-100000J0D01*
G01*
X151725200Y-68100200D02*
G75*
G02*
X151925200Y-68100200I100000J0D01*
G01*
D15*
%TO.C,C3*%
X183981199Y-72089627D02*
X183981199Y-71521627D01*
X184021199Y-72323627D02*
X184021199Y-71287627D01*
X184061199Y-72482627D02*
X184061199Y-71128627D01*
X184101199Y-72610627D02*
X184101199Y-71000627D01*
X184141199Y-72720627D02*
X184141199Y-70890627D01*
X184181199Y-72816627D02*
X184181199Y-70794627D01*
X184221199Y-72903627D02*
X184221199Y-70707627D01*
X184261199Y-72983627D02*
X184261199Y-70627627D01*
X184301199Y-73056627D02*
X184301199Y-70554627D01*
X184341199Y-73124627D02*
X184341199Y-70486627D01*
X184381199Y-73188627D02*
X184381199Y-70422627D01*
X184421199Y-73248627D02*
X184421199Y-70362627D01*
X184461199Y-73305627D02*
X184461199Y-70305627D01*
X184501199Y-73359627D02*
X184501199Y-70251627D01*
X184541199Y-73410627D02*
X184541199Y-70200627D01*
X184581199Y-70765627D02*
X184581199Y-70152627D01*
X184581199Y-73458627D02*
X184581199Y-72845627D01*
X184621199Y-70765627D02*
X184621199Y-70106627D01*
X184621199Y-73504627D02*
X184621199Y-72845627D01*
X184661199Y-70765627D02*
X184661199Y-70062627D01*
X184661199Y-73548627D02*
X184661199Y-72845627D01*
X184701199Y-70765627D02*
X184701199Y-70020627D01*
X184701199Y-73590627D02*
X184701199Y-72845627D01*
X184741199Y-70765627D02*
X184741199Y-69979627D01*
X184741199Y-73631627D02*
X184741199Y-72845627D01*
X184781199Y-70765627D02*
X184781199Y-69941627D01*
X184781199Y-73669627D02*
X184781199Y-72845627D01*
X184821199Y-70765627D02*
X184821199Y-69904627D01*
X184821199Y-73706627D02*
X184821199Y-72845627D01*
X184861199Y-70765627D02*
X184861199Y-69868627D01*
X184861199Y-73742627D02*
X184861199Y-72845627D01*
X184901199Y-70765627D02*
X184901199Y-69834627D01*
X184901199Y-73776627D02*
X184901199Y-72845627D01*
X184941199Y-70765627D02*
X184941199Y-69801627D01*
X184941199Y-73809627D02*
X184941199Y-72845627D01*
X184981199Y-70765627D02*
X184981199Y-69770627D01*
X184981199Y-73840627D02*
X184981199Y-72845627D01*
X185021199Y-70765627D02*
X185021199Y-69740627D01*
X185021199Y-73870627D02*
X185021199Y-72845627D01*
X185061199Y-70765627D02*
X185061199Y-69710627D01*
X185061199Y-73900627D02*
X185061199Y-72845627D01*
X185101199Y-70765627D02*
X185101199Y-69683627D01*
X185101199Y-73927627D02*
X185101199Y-72845627D01*
X185141199Y-70765627D02*
X185141199Y-69656627D01*
X185141199Y-73954627D02*
X185141199Y-72845627D01*
X185181199Y-70765627D02*
X185181199Y-69630627D01*
X185181199Y-73980627D02*
X185181199Y-72845627D01*
X185221199Y-70765627D02*
X185221199Y-69605627D01*
X185221199Y-74005627D02*
X185221199Y-72845627D01*
X185261199Y-70765627D02*
X185261199Y-69581627D01*
X185261199Y-74029627D02*
X185261199Y-72845627D01*
X185301199Y-70765627D02*
X185301199Y-69558627D01*
X185301199Y-74052627D02*
X185301199Y-72845627D01*
X185341199Y-70765627D02*
X185341199Y-69537627D01*
X185341199Y-74073627D02*
X185341199Y-72845627D01*
X185381199Y-70765627D02*
X185381199Y-69515627D01*
X185381199Y-74095627D02*
X185381199Y-72845627D01*
X185421199Y-70765627D02*
X185421199Y-69495627D01*
X185421199Y-74115627D02*
X185421199Y-72845627D01*
X185461199Y-70765627D02*
X185461199Y-69476627D01*
X185461199Y-74134627D02*
X185461199Y-72845627D01*
X185501199Y-70765627D02*
X185501199Y-69457627D01*
X185501199Y-74153627D02*
X185501199Y-72845627D01*
X185541199Y-70765627D02*
X185541199Y-69440627D01*
X185541199Y-74170627D02*
X185541199Y-72845627D01*
X185581199Y-70765627D02*
X185581199Y-69423627D01*
X185581199Y-74187627D02*
X185581199Y-72845627D01*
X185621199Y-70765627D02*
X185621199Y-69407627D01*
X185621199Y-74203627D02*
X185621199Y-72845627D01*
X185661199Y-70765627D02*
X185661199Y-69391627D01*
X185661199Y-74219627D02*
X185661199Y-72845627D01*
X185701199Y-70765627D02*
X185701199Y-69377627D01*
X185701199Y-74233627D02*
X185701199Y-72845627D01*
X185741199Y-70765627D02*
X185741199Y-69363627D01*
X185741199Y-74247627D02*
X185741199Y-72845627D01*
X185781199Y-70765627D02*
X185781199Y-69350627D01*
X185781199Y-74260627D02*
X185781199Y-72845627D01*
X185821199Y-70765627D02*
X185821199Y-69337627D01*
X185821199Y-74273627D02*
X185821199Y-72845627D01*
X185861199Y-70765627D02*
X185861199Y-69325627D01*
X185861199Y-74285627D02*
X185861199Y-72845627D01*
X185902199Y-70765627D02*
X185902199Y-69314627D01*
X185902199Y-74296627D02*
X185902199Y-72845627D01*
X185942199Y-70765627D02*
X185942199Y-69304627D01*
X185942199Y-74306627D02*
X185942199Y-72845627D01*
X185982199Y-70765627D02*
X185982199Y-69294627D01*
X185982199Y-74316627D02*
X185982199Y-72845627D01*
X186022199Y-70765627D02*
X186022199Y-69285627D01*
X186022199Y-74325627D02*
X186022199Y-72845627D01*
X186062199Y-70765627D02*
X186062199Y-69277627D01*
X186062199Y-74333627D02*
X186062199Y-72845627D01*
X186102199Y-70765627D02*
X186102199Y-69269627D01*
X186102199Y-74341627D02*
X186102199Y-72845627D01*
X186142199Y-70765627D02*
X186142199Y-69262627D01*
X186142199Y-74348627D02*
X186142199Y-72845627D01*
X186182199Y-70765627D02*
X186182199Y-69255627D01*
X186182199Y-74355627D02*
X186182199Y-72845627D01*
X186222199Y-70765627D02*
X186222199Y-69249627D01*
X186222199Y-74361627D02*
X186222199Y-72845627D01*
X186262199Y-70765627D02*
X186262199Y-69244627D01*
X186262199Y-74366627D02*
X186262199Y-72845627D01*
X186302199Y-70765627D02*
X186302199Y-69240627D01*
X186302199Y-74370627D02*
X186302199Y-72845627D01*
X186342199Y-70765627D02*
X186342199Y-69236627D01*
X186342199Y-74374627D02*
X186342199Y-72845627D01*
X186382199Y-70765627D02*
X186382199Y-69232627D01*
X186382199Y-74378627D02*
X186382199Y-72845627D01*
X186422199Y-70765627D02*
X186422199Y-69229627D01*
X186422199Y-74381627D02*
X186422199Y-72845627D01*
X186462199Y-70765627D02*
X186462199Y-69227627D01*
X186462199Y-74383627D02*
X186462199Y-72845627D01*
X186502199Y-70765627D02*
X186502199Y-69226627D01*
X186502199Y-74384627D02*
X186502199Y-72845627D01*
X186542199Y-70765627D02*
X186542199Y-69225627D01*
X186542199Y-74385627D02*
X186542199Y-72845627D01*
X186582199Y-70765627D02*
X186582199Y-69225627D01*
X186582199Y-74385627D02*
X186582199Y-72845627D01*
X189136974Y-73530627D02*
X189136974Y-73030627D01*
X189386974Y-73280627D02*
X188886974Y-73280627D01*
X189202199Y-71805627D02*
G75*
G02*
X183962199Y-71805627I-2620000J0D01*
G01*
X183962199Y-71805627D02*
G75*
G02*
X189202199Y-71805627I2620000J0D01*
G01*
%TO.C,U5*%
X133980200Y-79115400D02*
X133980200Y-84415400D01*
X133980200Y-84415400D02*
X144260200Y-84415400D01*
X144260200Y-79115400D02*
X133980200Y-79115400D01*
X144260200Y-80765400D02*
X144260200Y-79115400D01*
X144260200Y-84415400D02*
X144260200Y-82765400D01*
X144260200Y-82765400D02*
G75*
G02*
X144260200Y-80765400I0J1000000D01*
G01*
%TO.C,D3*%
X187812470Y-100531000D02*
X187812470Y-104771000D01*
X187812470Y-104771000D02*
X190052470Y-104771000D01*
X188932470Y-99881000D02*
X188932470Y-100531000D01*
X188932470Y-105421000D02*
X188932470Y-104771000D01*
X190052470Y-100531000D02*
X187812470Y-100531000D01*
X190052470Y-101131000D02*
X187812470Y-101131000D01*
X190052470Y-101251000D02*
X187812470Y-101251000D01*
X190052470Y-101371000D02*
X187812470Y-101371000D01*
X190052470Y-104771000D02*
X190052470Y-100531000D01*
%TO.C,C1*%
X191163665Y-63617627D02*
X191163665Y-66357627D01*
X191163665Y-63617627D02*
X198403665Y-63617627D01*
X191163665Y-66357627D02*
X198403665Y-66357627D01*
X198403665Y-63617627D02*
X198403665Y-66357627D01*
%TO.C,U4*%
X204441829Y-80091464D02*
X204441829Y-90331464D01*
X207572829Y-80091464D02*
X207572829Y-90331464D01*
X209082829Y-80091464D02*
X204441829Y-80091464D01*
X209082829Y-80091464D02*
X209082829Y-90331464D01*
X209082829Y-83361464D02*
X207572829Y-83361464D01*
X209082829Y-87062464D02*
X207572829Y-87062464D01*
X209082829Y-90331464D02*
X204441829Y-90331464D01*
%TO.C,D4*%
X198844229Y-76987464D02*
X198844229Y-82427464D01*
X198844229Y-82427464D02*
X201784229Y-82427464D01*
X200314229Y-75967464D02*
X200314229Y-76987464D01*
X200314229Y-83447464D02*
X200314229Y-82427464D01*
X201784229Y-76987464D02*
X198844229Y-76987464D01*
X201784229Y-77767464D02*
X198844229Y-77767464D01*
X201784229Y-77887464D02*
X198844229Y-77887464D01*
X201784229Y-78007464D02*
X198844229Y-78007464D01*
X201784229Y-82427464D02*
X201784229Y-76987464D01*
%TO.C,J4*%
X126604376Y-106792619D02*
X126604376Y-109292619D01*
X126904376Y-107092619D02*
X126904376Y-114812619D01*
X126904376Y-114812619D02*
X130924376Y-114812619D01*
X128404376Y-107092619D02*
X128404376Y-108092619D01*
X128404376Y-108092619D02*
X126904376Y-108092619D01*
X128404376Y-113812619D02*
X126904376Y-113812619D01*
X128404376Y-114812619D02*
X128404376Y-113812619D01*
X129104376Y-106792619D02*
X126604376Y-106792619D01*
X129214376Y-107092619D02*
X129214376Y-107592619D01*
X129214376Y-107592619D02*
X130424376Y-107592619D01*
X129214376Y-114312619D02*
X129214376Y-114812619D01*
X130424376Y-107592619D02*
X130424376Y-114312619D01*
X130424376Y-114312619D02*
X129214376Y-114312619D01*
X130924376Y-107092619D02*
X126904376Y-107092619D01*
X130924376Y-114812619D02*
X130924376Y-107092619D01*
%TO.C,U2*%
X111718200Y-79155800D02*
X111718200Y-84455800D01*
X111718200Y-84455800D02*
X132158200Y-84455800D01*
X132158200Y-79155800D02*
X111718200Y-79155800D01*
X132158200Y-80805800D02*
X132158200Y-79155800D01*
X132158200Y-84455800D02*
X132158200Y-82805800D01*
X132158200Y-82805800D02*
G75*
G02*
X132158200Y-80805800I0J1000000D01*
G01*
%TO.C,RN1*%
X116967600Y-95612200D02*
X116967600Y-98412200D01*
X116967600Y-98412200D02*
X140167600Y-98412200D01*
X119677600Y-95612200D02*
X119677600Y-98412200D01*
X140167600Y-95612200D02*
X116967600Y-95612200D01*
X140167600Y-98412200D02*
X140167600Y-95612200D01*
%TO.C,D1*%
X202050970Y-100531000D02*
X202050970Y-104771000D01*
X202050970Y-103931000D02*
X204290970Y-103931000D01*
X202050970Y-104051000D02*
X204290970Y-104051000D01*
X202050970Y-104171000D02*
X204290970Y-104171000D01*
X202050970Y-104771000D02*
X204290970Y-104771000D01*
X203170970Y-99881000D02*
X203170970Y-100531000D01*
X203170970Y-105421000D02*
X203170970Y-104771000D01*
X204290970Y-100531000D02*
X202050970Y-100531000D01*
X204290970Y-104771000D02*
X204290970Y-100531000D01*
%TO.C,D2*%
X197471470Y-100531000D02*
X197471470Y-104771000D01*
X197471470Y-104771000D02*
X199711470Y-104771000D01*
X198591470Y-99881000D02*
X198591470Y-100531000D01*
X198591470Y-105421000D02*
X198591470Y-104771000D01*
X199711470Y-100531000D02*
X197471470Y-100531000D01*
X199711470Y-101131000D02*
X197471470Y-101131000D01*
X199711470Y-101251000D02*
X197471470Y-101251000D01*
X199711470Y-101371000D02*
X197471470Y-101371000D01*
X199711470Y-104771000D02*
X199711470Y-100531000D01*
%TO.C,J7*%
X148378400Y-106818000D02*
X145878400Y-106818000D01*
X145878400Y-106818000D02*
X145878400Y-109318000D01*
X150198400Y-107118000D02*
X146178400Y-107118000D01*
X148488400Y-107118000D02*
X148488400Y-107618000D01*
X147678400Y-107118000D02*
X147678400Y-108118000D01*
X146178400Y-107118000D02*
X146178400Y-114838000D01*
X149698400Y-107618000D02*
X149698400Y-114338000D01*
X148488400Y-107618000D02*
X149698400Y-107618000D01*
X147678400Y-108118000D02*
X146178400Y-108118000D01*
X147678400Y-113838000D02*
X146178400Y-113838000D01*
X149698400Y-114338000D02*
X148488400Y-114338000D01*
X148488400Y-114338000D02*
X148488400Y-114838000D01*
X150198400Y-114838000D02*
X150198400Y-107118000D01*
X147678400Y-114838000D02*
X147678400Y-113838000D01*
X146178400Y-114838000D02*
X150198400Y-114838000D01*
%TO.C,J12*%
X94838800Y-67474400D02*
X94838800Y-66144400D01*
X96168800Y-67474400D02*
X94838800Y-67474400D01*
X97438800Y-64814400D02*
X145758800Y-64814400D01*
X97438800Y-67474400D02*
X97438800Y-64814400D01*
X97438800Y-67474400D02*
X145758800Y-67474400D01*
X145758800Y-67474400D02*
X145758800Y-64814400D01*
%TO.C,J11*%
X183729200Y-79637400D02*
X183729200Y-82137400D01*
X183729200Y-82137400D02*
X186229200Y-82137400D01*
X184029200Y-77817400D02*
X184029200Y-81837400D01*
X184029200Y-79527400D02*
X184529200Y-79527400D01*
X184029200Y-80337400D02*
X185029200Y-80337400D01*
X184029200Y-81837400D02*
X196749200Y-81837400D01*
X184529200Y-78317400D02*
X196249200Y-78317400D01*
X184529200Y-79527400D02*
X184529200Y-78317400D01*
X185029200Y-80337400D02*
X185029200Y-81837400D01*
X195749200Y-80337400D02*
X195749200Y-81837400D01*
X196249200Y-78317400D02*
X196249200Y-79527400D01*
X196249200Y-79527400D02*
X196749200Y-79527400D01*
X196749200Y-77817400D02*
X184029200Y-77817400D01*
X196749200Y-80337400D02*
X195749200Y-80337400D01*
X196749200Y-81837400D02*
X196749200Y-77817400D01*
%TD*%
M02*
