%TF.GenerationSoftware,KiCad,Pcbnew,9.0.4*%
%TF.CreationDate,2025-12-09T22:45:37+01:00*%
%TF.ProjectId,VFO BFO Si5351,56464f20-4246-44f2-9053-69353335312e,rev?*%
%TF.SameCoordinates,Original*%
%TF.FileFunction,Copper,L1,Top*%
%TF.FilePolarity,Positive*%
%FSLAX46Y46*%
G04 Gerber Fmt 4.6, Leading zero omitted, Abs format (unit mm)*
G04 Created by KiCad (PCBNEW 9.0.4) date 2025-12-09 22:45:37*
%MOMM*%
%LPD*%
G01*
G04 APERTURE LIST*
G04 Aperture macros list*
%AMRoundRect*
0 Rectangle with rounded corners*
0 $1 Rounding radius*
0 $2 $3 $4 $5 $6 $7 $8 $9 X,Y pos of 4 corners*
0 Add a 4 corners polygon primitive as box body*
4,1,4,$2,$3,$4,$5,$6,$7,$8,$9,$2,$3,0*
0 Add four circle primitives for the rounded corners*
1,1,$1+$1,$2,$3*
1,1,$1+$1,$4,$5*
1,1,$1+$1,$6,$7*
1,1,$1+$1,$8,$9*
0 Add four rect primitives between the rounded corners*
20,1,$1+$1,$2,$3,$4,$5,0*
20,1,$1+$1,$4,$5,$6,$7,0*
20,1,$1+$1,$6,$7,$8,$9,0*
20,1,$1+$1,$8,$9,$2,$3,0*%
G04 Aperture macros list end*
%TA.AperFunction,ComponentPad*%
%ADD10O,1.700000X2.000000*%
%TD*%
%TA.AperFunction,ComponentPad*%
%ADD11RoundRect,0.250000X-0.600000X-0.750000X0.600000X-0.750000X0.600000X0.750000X-0.600000X0.750000X0*%
%TD*%
%TA.AperFunction,ComponentPad*%
%ADD12C,1.800000*%
%TD*%
%TA.AperFunction,ComponentPad*%
%ADD13R,1.800000X1.800000*%
%TD*%
%TA.AperFunction,WasherPad*%
%ADD14C,2.500000*%
%TD*%
%TA.AperFunction,ComponentPad*%
%ADD15O,1.600000X1.600000*%
%TD*%
%TA.AperFunction,ComponentPad*%
%ADD16C,1.600000*%
%TD*%
%TA.AperFunction,ComponentPad*%
%ADD17O,2.000000X1.700000*%
%TD*%
%TA.AperFunction,ComponentPad*%
%ADD18RoundRect,0.250000X-0.750000X0.600000X-0.750000X-0.600000X0.750000X-0.600000X0.750000X0.600000X0*%
%TD*%
%TA.AperFunction,ComponentPad*%
%ADD19RoundRect,0.250000X-0.725000X0.600000X-0.725000X-0.600000X0.725000X-0.600000X0.725000X0.600000X0*%
%TD*%
%TA.AperFunction,ComponentPad*%
%ADD20O,1.950000X1.700000*%
%TD*%
%TA.AperFunction,ComponentPad*%
%ADD21R,2.000000X1.905000*%
%TD*%
%TA.AperFunction,ComponentPad*%
%ADD22O,2.000000X1.905000*%
%TD*%
%TA.AperFunction,ComponentPad*%
%ADD23C,3.600000*%
%TD*%
%TA.AperFunction,ConnectorPad*%
%ADD24C,5.600000*%
%TD*%
%TA.AperFunction,ComponentPad*%
%ADD25R,1.600000X1.600000*%
%TD*%
%TA.AperFunction,ComponentPad*%
%ADD26R,1.800000X1.700000*%
%TD*%
%TA.AperFunction,ComponentPad*%
%ADD27RoundRect,0.250000X-0.550000X0.550000X-0.550000X-0.550000X0.550000X-0.550000X0.550000X0.550000X0*%
%TD*%
%TA.AperFunction,ComponentPad*%
%ADD28R,2.200000X2.200000*%
%TD*%
%TA.AperFunction,ComponentPad*%
%ADD29O,2.200000X2.200000*%
%TD*%
%TA.AperFunction,ComponentPad*%
%ADD30RoundRect,0.250000X-0.600000X-0.725000X0.600000X-0.725000X0.600000X0.725000X-0.600000X0.725000X0*%
%TD*%
%TA.AperFunction,ComponentPad*%
%ADD31O,1.700000X1.950000*%
%TD*%
%TA.AperFunction,ViaPad*%
%ADD32C,0.600000*%
%TD*%
%TA.AperFunction,Conductor*%
%ADD33C,0.400000*%
%TD*%
%TA.AperFunction,Conductor*%
%ADD34C,0.600000*%
%TD*%
%TA.AperFunction,Conductor*%
%ADD35C,0.800000*%
%TD*%
G04 APERTURE END LIST*
D10*
%TO.P,J8,2,Pin_2*%
%TO.N,GND*%
X187974570Y-112522000D03*
D11*
%TO.P,J8,1,Pin_1*%
%TO.N,Net-(J8-Pin_1)*%
X185474570Y-112522000D03*
%TD*%
D10*
%TO.P,J9,2,Pin_2*%
%TO.N,GND*%
X197800600Y-112522000D03*
D11*
%TO.P,J9,1,Pin_1*%
%TO.N,Net-(J9-Pin_1)*%
X195300600Y-112522000D03*
%TD*%
D10*
%TO.P,J10,2,Pin_2*%
%TO.N,+12V*%
X191552200Y-89255600D03*
D11*
%TO.P,J10,1,Pin_1*%
%TO.N,GND*%
X189052200Y-89255600D03*
%TD*%
D12*
%TO.P,M1,7,CLK0*%
%TO.N,unconnected-(M1-CLK0-Pad7)*%
X103397000Y-95029600D03*
%TO.P,M1,6,CLK1*%
%TO.N,unconnected-(M1-CLK1-Pad6)*%
X103397000Y-92489600D03*
%TO.P,M1,5,CLK2*%
%TO.N,unconnected-(M1-CLK2-Pad5)*%
X103397000Y-89949600D03*
%TO.P,M1,4,SDA*%
%TO.N,SDA*%
X103397000Y-87409600D03*
%TO.P,M1,3,SCL*%
%TO.N,SCL*%
X103397000Y-84869600D03*
%TO.P,M1,2,GND*%
%TO.N,GND*%
X103397000Y-82329600D03*
D13*
%TO.P,M1,1,VDD*%
%TO.N,+3.3V*%
X103397000Y-79789600D03*
D14*
%TO.P,M1,*%
%TO.N,*%
X103397000Y-74709600D03*
X103397000Y-100109600D03*
%TD*%
D15*
%TO.P,R1,2*%
%TO.N,Net-(J9-Pin_1)*%
X193761970Y-107731000D03*
D16*
%TO.P,R1,1*%
%TO.N,Net-(D1-A)*%
X193761970Y-97571000D03*
%TD*%
D15*
%TO.P,R3,2*%
%TO.N,Net-(J8-Pin_1)*%
X184102970Y-107731000D03*
D16*
%TO.P,R3,1*%
%TO.N,RTTY IN*%
X184102970Y-97571000D03*
%TD*%
D17*
%TO.P,J6,2,Pin_2*%
%TO.N,GND*%
X142063725Y-112202619D03*
D18*
%TO.P,J6,1,Pin_1*%
%TO.N,Net-(J6-Pin_1)*%
X142063725Y-109702619D03*
%TD*%
D16*
%TO.P,C4,1*%
%TO.N,+5V*%
X189127086Y-64973027D03*
%TO.P,C4,2*%
%TO.N,GND*%
X184127086Y-64973027D03*
%TD*%
D19*
%TO.P,J2,1,Pin_1*%
%TO.N,Net-(J2-Pin_1)*%
X116365027Y-104702619D03*
D20*
%TO.P,J2,2,Pin_2*%
%TO.N,Net-(J2-Pin_2)*%
X116365027Y-107202619D03*
%TO.P,J2,3,Pin_3*%
%TO.N,Net-(J2-Pin_3)*%
X116365027Y-109702619D03*
%TO.P,J2,4,Pin_4*%
%TO.N,GND*%
X116365027Y-112202619D03*
%TD*%
D21*
%TO.P,U3,1,VI*%
%TO.N,Net-(D4-K)*%
X205812829Y-71325464D03*
D22*
%TO.P,U3,2,GND*%
%TO.N,GND*%
X205812829Y-73865464D03*
%TO.P,U3,3,VO*%
%TO.N,+9V*%
X205812829Y-76405464D03*
%TD*%
D19*
%TO.P,J3,1,Pin_1*%
%TO.N,Net-(J3-Pin_1)*%
X122789701Y-107202619D03*
D20*
%TO.P,J3,2,Pin_2*%
%TO.N,Net-(J3-Pin_2)*%
X122789701Y-109702619D03*
%TO.P,J3,3,Pin_3*%
%TO.N,GND*%
X122789701Y-112202619D03*
%TD*%
D19*
%TO.P,J1,1,Pin_1*%
%TO.N,+3.3V*%
X109940352Y-104702619D03*
D20*
%TO.P,J1,2,Pin_2*%
%TO.N,SCL*%
X109940352Y-107202619D03*
%TO.P,J1,3,Pin_3*%
%TO.N,SDA*%
X109940352Y-109702619D03*
%TO.P,J1,4,Pin_4*%
%TO.N,GND*%
X109940352Y-112202619D03*
%TD*%
D23*
%TO.P,H2,1,1*%
%TO.N,GND*%
X88500000Y-113500000D03*
D24*
X88500000Y-113500000D03*
%TD*%
D25*
%TO.P,C2,1*%
%TO.N,+9V*%
X193601286Y-71831027D03*
D16*
%TO.P,C2,2*%
%TO.N,GND*%
X196101286Y-71831027D03*
%TD*%
D18*
%TO.P,J5,1,Pin_1*%
%TO.N,Net-(J5-Pin_1)*%
X135639051Y-109702619D03*
D17*
%TO.P,J5,2,Pin_2*%
%TO.N,GND*%
X135639051Y-112202619D03*
%TD*%
D26*
%TO.P,U1,J2-1,3V3*%
%TO.N,+3.3V*%
X153725200Y-68100200D03*
D12*
%TO.P,U1,J2-2,EN*%
%TO.N,unconnected-(U1-EN-PadJ2-2)*%
X153725200Y-70640200D03*
%TO.P,U1,J2-3,SENSOR_VP*%
%TO.N,SW_RTTY_CW*%
X153725200Y-73180200D03*
%TO.P,U1,J2-4,SENSOR_VN*%
%TO.N,unconnected-(U1-SENSOR_VN-PadJ2-4)*%
X153725200Y-75720200D03*
%TO.P,U1,J2-5,IO34*%
%TO.N,CLK*%
X153725200Y-78260200D03*
%TO.P,U1,J2-6,IO35*%
%TO.N,DT*%
X153725200Y-80800200D03*
%TO.P,U1,J2-7,IO32*%
%TO.N,SW_STEP*%
X153725200Y-83340200D03*
%TO.P,U1,J2-8,IO33*%
%TO.N,SW_BAND*%
X153725200Y-85880200D03*
%TO.P,U1,J2-9,IO25*%
%TO.N,SW_MODE*%
X153725200Y-88420200D03*
%TO.P,U1,J2-10,IO26*%
%TO.N,SW_AGC*%
X153725200Y-90960200D03*
%TO.P,U1,J2-11,IO27*%
%TO.N,SW_ATT*%
X153725200Y-93500200D03*
%TO.P,U1,J2-12,IO14*%
%TO.N,SW_SCAN*%
X153725200Y-96040200D03*
%TO.P,U1,J2-13,IO12*%
%TO.N,CLK-2*%
X153725200Y-98580200D03*
%TO.P,U1,J2-14,GND1*%
%TO.N,unconnected-(U1-GND1-PadJ2-14)*%
X153725200Y-101120200D03*
%TO.P,U1,J2-15,IO13*%
%TO.N,DT-2*%
X153725200Y-103660200D03*
%TO.P,U1,J2-16,SD2*%
%TO.N,unconnected-(U1-SD2-PadJ2-16)*%
X153725200Y-106200200D03*
%TO.P,U1,J2-17,SD3*%
%TO.N,unconnected-(U1-SD3-PadJ2-17)*%
X153725200Y-108740200D03*
%TO.P,U1,J2-18,CMD*%
%TO.N,unconnected-(U1-CMD-PadJ2-18)*%
X153725200Y-111280200D03*
%TO.P,U1,J2-19,EXT_5V*%
%TO.N,+5V*%
X153725200Y-113820200D03*
%TO.P,U1,J3-1,GND3*%
%TO.N,GND*%
X179125200Y-68100200D03*
%TO.P,U1,J3-2,IO23*%
%TO.N,MOSI*%
X179125200Y-70640200D03*
%TO.P,U1,J3-3,IO22*%
%TO.N,SDA*%
X179125200Y-73180200D03*
%TO.P,U1,J3-4,TXD0*%
%TO.N,unconnected-(U1-TXD0-PadJ3-4)*%
X179125200Y-75720200D03*
%TO.P,U1,J3-5,RXD0*%
%TO.N,unconnected-(U1-RXD0-PadJ3-5)*%
X179125200Y-78260200D03*
%TO.P,U1,J3-6,IO21*%
%TO.N,SCL*%
X179125200Y-80800200D03*
%TO.P,U1,J3-7,GND2*%
%TO.N,unconnected-(U1-GND2-PadJ3-7)*%
X179125200Y-83340200D03*
%TO.P,U1,J3-8,IO19*%
%TO.N,unconnected-(U1-IO19-PadJ3-8)*%
X179125200Y-85880200D03*
%TO.P,U1,J3-9,IO18*%
%TO.N,SCK*%
X179125200Y-88420200D03*
%TO.P,U1,J3-10,IO5*%
%TO.N,CS*%
X179125200Y-90960200D03*
%TO.P,U1,J3-11,IO17*%
%TO.N,RST*%
X179125200Y-93500200D03*
%TO.P,U1,J3-12,IO16*%
%TO.N,D{slash}C*%
X179125200Y-96040200D03*
%TO.P,U1,J3-13,IO4*%
%TO.N,RTTY IN*%
X179125200Y-98580200D03*
%TO.P,U1,J3-14,IO0*%
%TO.N,unconnected-(U1-IO0-PadJ3-14)*%
X179125200Y-101120200D03*
%TO.P,U1,J3-15,IO2*%
%TO.N,TX*%
X179125200Y-103660200D03*
%TO.P,U1,J3-16,IO15*%
%TO.N,METER*%
X179125200Y-106200200D03*
%TO.P,U1,J3-17,SD1*%
%TO.N,unconnected-(U1-SD1-PadJ3-17)*%
X179125200Y-108740200D03*
%TO.P,U1,J3-18,SD0*%
%TO.N,unconnected-(U1-SD0-PadJ3-18)*%
X179125200Y-111280200D03*
%TO.P,U1,J3-19,CLK*%
%TO.N,unconnected-(U1-CLK-PadJ3-19)*%
X179125200Y-113820200D03*
%TD*%
D23*
%TO.P,H1,1,1*%
%TO.N,GND*%
X204500000Y-113500000D03*
D24*
X204500000Y-113500000D03*
%TD*%
D25*
%TO.P,C3,1*%
%TO.N,+5V*%
X187582199Y-71805627D03*
D16*
%TO.P,C3,2*%
%TO.N,GND*%
X185582199Y-71805627D03*
%TD*%
D27*
%TO.P,U5,1,A0*%
%TO.N,GND*%
X142930200Y-77955400D03*
D16*
%TO.P,U5,2,A1*%
X140390200Y-77955400D03*
%TO.P,U5,3,A2*%
X137850200Y-77955400D03*
%TO.P,U5,4,GND*%
X135310200Y-77955400D03*
%TO.P,U5,5,SDA*%
%TO.N,SDA*%
X135310200Y-85575400D03*
%TO.P,U5,6,SCL*%
%TO.N,SCL*%
X137850200Y-85575400D03*
%TO.P,U5,7,WP*%
%TO.N,GND*%
X140390200Y-85575400D03*
%TO.P,U5,8,VCC*%
%TO.N,+3.3V*%
X142930200Y-85575400D03*
%TD*%
D25*
%TO.P,D3,1,K*%
%TO.N,RTTY IN*%
X188932470Y-98841000D03*
D15*
%TO.P,D3,2,A*%
%TO.N,GND*%
X188932470Y-106461000D03*
%TD*%
D23*
%TO.P,H4,1,1*%
%TO.N,GND*%
X88500000Y-64000000D03*
D24*
X88500000Y-64000000D03*
%TD*%
D16*
%TO.P,C1,1*%
%TO.N,+9V*%
X192283665Y-64987627D03*
%TO.P,C1,2*%
%TO.N,GND*%
X197283665Y-64987627D03*
%TD*%
D21*
%TO.P,U4,1,VI*%
%TO.N,+9V*%
X205812829Y-82671464D03*
D22*
%TO.P,U4,2,GND*%
%TO.N,GND*%
X205812829Y-85211464D03*
%TO.P,U4,3,VO*%
%TO.N,+5V*%
X205812829Y-87751464D03*
%TD*%
D28*
%TO.P,D4,1,K*%
%TO.N,Net-(D4-K)*%
X200314229Y-74627464D03*
D29*
%TO.P,D4,2,A*%
%TO.N,+12V*%
X200314229Y-84787464D03*
%TD*%
D18*
%TO.P,J4,1,Pin_1*%
%TO.N,Net-(J4-Pin_1)*%
X129214376Y-109702619D03*
D17*
%TO.P,J4,2,Pin_2*%
%TO.N,GND*%
X129214376Y-112202619D03*
%TD*%
D23*
%TO.P,H3,1,1*%
%TO.N,GND*%
X204500000Y-64000000D03*
D24*
X204500000Y-64000000D03*
%TD*%
D27*
%TO.P,U2,1,A0*%
%TO.N,GND*%
X130828200Y-77995800D03*
D16*
%TO.P,U2,2,A1*%
X128288200Y-77995800D03*
%TO.P,U2,3,A2*%
X125748200Y-77995800D03*
%TO.P,U2,4,P0*%
%TO.N,Net-(J2-Pin_1)*%
X123208200Y-77995800D03*
%TO.P,U2,5,P1*%
%TO.N,Net-(J2-Pin_2)*%
X120668200Y-77995800D03*
%TO.P,U2,6,P2*%
%TO.N,Net-(J2-Pin_3)*%
X118128200Y-77995800D03*
%TO.P,U2,7,P3*%
%TO.N,Net-(J3-Pin_1)*%
X115588200Y-77995800D03*
%TO.P,U2,8,GND*%
%TO.N,GND*%
X113048200Y-77995800D03*
%TO.P,U2,9,P4*%
%TO.N,Net-(J3-Pin_2)*%
X113048200Y-85615800D03*
%TO.P,U2,10,P5*%
%TO.N,Net-(J4-Pin_1)*%
X115588200Y-85615800D03*
%TO.P,U2,11,P6*%
%TO.N,Net-(J5-Pin_1)*%
X118128200Y-85615800D03*
%TO.P,U2,12,P7*%
%TO.N,Net-(J6-Pin_1)*%
X120668200Y-85615800D03*
%TO.P,U2,13,~{INT}*%
%TO.N,unconnected-(U2-~{INT}-Pad13)*%
X123208200Y-85615800D03*
%TO.P,U2,14,SCL*%
%TO.N,SCL*%
X125748200Y-85615800D03*
%TO.P,U2,15,SDA*%
%TO.N,SDA*%
X128288200Y-85615800D03*
%TO.P,U2,16,VDD*%
%TO.N,+3.3V*%
X130828200Y-85615800D03*
%TD*%
D25*
%TO.P,RN1,1,common*%
%TO.N,+3.3V*%
X118407600Y-97012200D03*
D15*
%TO.P,RN1,2,R1*%
%TO.N,Net-(J2-Pin_1)*%
X120947600Y-97012200D03*
%TO.P,RN1,3,R2*%
%TO.N,Net-(J2-Pin_2)*%
X123487600Y-97012200D03*
%TO.P,RN1,4,R3*%
%TO.N,Net-(J2-Pin_3)*%
X126027600Y-97012200D03*
%TO.P,RN1,5,R4*%
%TO.N,Net-(J3-Pin_1)*%
X128567600Y-97012200D03*
%TO.P,RN1,6,R5*%
%TO.N,Net-(J3-Pin_2)*%
X131107600Y-97012200D03*
%TO.P,RN1,7,R6*%
%TO.N,Net-(J4-Pin_1)*%
X133647600Y-97012200D03*
%TO.P,RN1,8,R7*%
%TO.N,Net-(J5-Pin_1)*%
X136187600Y-97012200D03*
%TO.P,RN1,9,R8*%
%TO.N,Net-(J6-Pin_1)*%
X138727600Y-97012200D03*
%TD*%
D25*
%TO.P,D1,1,K*%
%TO.N,METER*%
X203170970Y-106461000D03*
D15*
%TO.P,D1,2,A*%
%TO.N,Net-(D1-A)*%
X203170970Y-98841000D03*
%TD*%
D25*
%TO.P,D2,1,K*%
%TO.N,Net-(D1-A)*%
X198591470Y-98841000D03*
D15*
%TO.P,D2,2,A*%
%TO.N,GND*%
X198591470Y-106461000D03*
%TD*%
D18*
%TO.P,J7,1,Pin_1*%
%TO.N,TX*%
X148488400Y-109728000D03*
D17*
%TO.P,J7,2,Pin_2*%
%TO.N,GND*%
X148488400Y-112228000D03*
%TD*%
D13*
%TO.P,J12,1,Pin_1*%
%TO.N,CLK*%
X96168800Y-66144400D03*
D12*
%TO.P,J12,2,Pin_2*%
%TO.N,DT*%
X98708800Y-66144400D03*
%TO.P,J12,3,Pin_3*%
%TO.N,+9V*%
X101248800Y-66144400D03*
%TO.P,J12,4,Pin_4*%
%TO.N,SW_RTTY_CW*%
X103788800Y-66144400D03*
%TO.P,J12,5,Pin_5*%
%TO.N,SW_STEP*%
X106328800Y-66144400D03*
%TO.P,J12,6,Pin_6*%
%TO.N,SW_SCAN*%
X108868800Y-66144400D03*
%TO.P,J12,7,Pin_7*%
%TO.N,+3.3V*%
X111408800Y-66144400D03*
%TO.P,J12,8,Pin_8*%
%TO.N,GND*%
X113948800Y-66144400D03*
%TO.P,J12,9,Pin_9*%
%TO.N,CS*%
X116488800Y-66144400D03*
%TO.P,J12,10,Pin_10*%
%TO.N,RST*%
X119028800Y-66144400D03*
%TO.P,J12,11,Pin_11*%
%TO.N,D{slash}C*%
X121568800Y-66144400D03*
%TO.P,J12,12,Pin_12*%
%TO.N,MOSI*%
X124108800Y-66144400D03*
%TO.P,J12,13,Pin_13*%
%TO.N,SCK*%
X126648800Y-66144400D03*
%TO.P,J12,14,Pin_14*%
%TO.N,SW_BAND*%
X129188800Y-66144400D03*
%TO.P,J12,15,Pin_15*%
%TO.N,SW_MODE*%
X131728800Y-66144400D03*
%TO.P,J12,16,Pin_16*%
%TO.N,SW_AGC*%
X134268800Y-66144400D03*
%TO.P,J12,17,Pin_17*%
%TO.N,SW_ATT*%
X136808800Y-66144400D03*
%TO.P,J12,18,Pin_18*%
%TO.N,GND*%
X139348800Y-66144400D03*
%TO.P,J12,19,Pin_19*%
%TO.N,CLK-2*%
X141888800Y-66144400D03*
%TO.P,J12,20,Pin_20*%
%TO.N,DT-2*%
X144428800Y-66144400D03*
%TD*%
D30*
%TO.P,J11,1,Pin_1*%
%TO.N,GND*%
X186639200Y-79527400D03*
D31*
%TO.P,J11,2,Pin_2*%
%TO.N,+5V*%
X189139200Y-79527400D03*
%TO.P,J11,3,Pin_3*%
%TO.N,+9V*%
X191639200Y-79527400D03*
%TO.P,J11,4,Pin_4*%
%TO.N,+12V*%
X194139200Y-79527400D03*
%TD*%
D32*
%TO.N,SCL*%
X176022000Y-96926400D03*
X176022000Y-86969600D03*
%TO.N,GND*%
X175873800Y-65763400D03*
%TO.N,SDA*%
X138479100Y-81939100D03*
X144106303Y-70949300D03*
%TO.N,+3.3V*%
X150905800Y-85547200D03*
%TO.N,DT*%
X123500726Y-71362604D03*
X108559600Y-71399400D03*
%TO.N,SW_STEP*%
X124500000Y-72452300D03*
%TO.N,CLK-2*%
X145622600Y-95707200D03*
%TO.N,SW_BAND*%
X141452400Y-82846900D03*
%TO.N,SW_MODE*%
X148127700Y-66118509D03*
%TO.N,SW_SCAN*%
X121462800Y-62788800D03*
X160629600Y-63960000D03*
%TO.N,SW_RTTY_CW*%
X115417600Y-70307200D03*
X108559600Y-70307200D03*
%TO.N,SCK*%
X173345803Y-70868800D03*
%TO.N,D{slash}C*%
X164164600Y-67693800D03*
%TO.N,MOSI*%
X173345803Y-64863400D03*
%TO.N,RST*%
X164236400Y-63963400D03*
%TO.N,CS*%
X172345800Y-70868800D03*
%TD*%
D33*
%TO.N,MOSI*%
X124108800Y-63782200D02*
X124108800Y-66144400D01*
X125281400Y-62609600D02*
X124108800Y-63782200D01*
X157447700Y-62609600D02*
X125281400Y-62609600D01*
X159701500Y-64863400D02*
X157447700Y-62609600D01*
X163790393Y-64863400D02*
X159701500Y-64863400D01*
X163791393Y-64864400D02*
X163790393Y-64863400D01*
X164537807Y-64864400D02*
X163791393Y-64864400D01*
X164538807Y-64863400D02*
X164537807Y-64864400D01*
X173126400Y-64863400D02*
X164538807Y-64863400D01*
%TO.N,SDA*%
X162349800Y-73180200D02*
X179125200Y-73180200D01*
X155793800Y-66624200D02*
X162349800Y-73180200D01*
X152400000Y-66624200D02*
X155793800Y-66624200D01*
X144106303Y-70949300D02*
X144106303Y-70916800D01*
X148107400Y-70916800D02*
X152400000Y-66624200D01*
X144106303Y-70916800D02*
X148107400Y-70916800D01*
%TO.N,SW_MODE*%
X148052791Y-66118509D02*
X146525700Y-67645600D01*
X132061600Y-67645600D02*
X131728800Y-67312800D01*
X146525700Y-67645600D02*
X132061600Y-67645600D01*
X148127700Y-66118509D02*
X148052791Y-66118509D01*
X131728800Y-67312800D02*
X131728800Y-66144400D01*
D34*
%TO.N,+9V*%
X192283665Y-60559265D02*
X192283665Y-64987627D01*
X191770000Y-60045600D02*
X192283665Y-60559265D01*
X102115200Y-60045600D02*
X191770000Y-60045600D01*
X101248800Y-66144400D02*
X101248800Y-60912000D01*
X101248800Y-60912000D02*
X102115200Y-60045600D01*
D33*
%TO.N,RST*%
X119028800Y-61920800D02*
X119028800Y-66144400D01*
X119989600Y-60960000D02*
X119028800Y-61920800D01*
X161487000Y-63042800D02*
X160288986Y-63042800D01*
X162407600Y-63963400D02*
X161487000Y-63042800D01*
X160288986Y-63042800D02*
X158206186Y-60960000D01*
X164236400Y-63963400D02*
X162407600Y-63963400D01*
X158206186Y-60960000D02*
X119989600Y-60960000D01*
%TO.N,SW_SCAN*%
X160626200Y-63963400D02*
X160629600Y-63960000D01*
X160076800Y-63963400D02*
X160626200Y-63963400D01*
X157922000Y-61808600D02*
X160076800Y-63963400D01*
X121462800Y-62788800D02*
X122443000Y-61808600D01*
X122443000Y-61808600D02*
X157922000Y-61808600D01*
%TO.N,SCL*%
X176022000Y-96926400D02*
X176022000Y-86969600D01*
D35*
%TO.N,+5V*%
X191236600Y-113367400D02*
X191236600Y-95173800D01*
X187154400Y-117449600D02*
X191236600Y-113367400D01*
X159105600Y-117449600D02*
X187154400Y-117449600D01*
X155476200Y-113820200D02*
X159105600Y-117449600D01*
X153725000Y-113820200D02*
X155476200Y-113820200D01*
D33*
%TO.N,GND*%
X135310000Y-77955400D02*
X130869000Y-77955400D01*
X130828200Y-77995800D02*
X130828100Y-77995700D01*
X172971596Y-65763400D02*
X159467800Y-65763400D01*
X140390200Y-81265200D02*
X140390200Y-77955400D01*
X157115000Y-63410600D02*
X140304600Y-63410600D01*
X135310200Y-77955400D02*
X135310000Y-77955400D01*
X113048000Y-68358800D02*
X113944400Y-67462400D01*
X113048200Y-81497600D02*
X113048200Y-77995800D01*
X142930200Y-77955400D02*
X142930000Y-77955400D01*
X130828100Y-77995700D02*
X130828000Y-77995800D01*
X125748200Y-77995800D02*
X125748000Y-77995800D01*
X113944400Y-66149200D02*
X113949000Y-66144600D01*
X113048200Y-77995800D02*
X113048000Y-77995800D01*
X173719010Y-65764400D02*
X172972596Y-65764400D01*
X113944400Y-67462400D02*
X113944400Y-66149200D01*
X103397000Y-82329600D02*
X112216200Y-82329600D01*
X173720010Y-65763400D02*
X173719010Y-65764400D01*
X140304600Y-63410600D02*
X139348800Y-64366400D01*
X139348800Y-64366400D02*
X139348800Y-66144400D01*
X175873800Y-65763400D02*
X173720010Y-65763400D01*
X140390000Y-81265400D02*
X140390200Y-81265200D01*
X159467800Y-65763400D02*
X157115000Y-63410600D01*
X113048000Y-77995800D02*
X113048000Y-68358800D01*
X172972596Y-65764400D02*
X172971596Y-65763400D01*
X140390000Y-85575400D02*
X140390000Y-81265400D01*
X113949000Y-66144600D02*
X113948800Y-66144400D01*
X140390200Y-85575400D02*
X140390000Y-85575400D01*
X112216200Y-82329600D02*
X113048200Y-81497600D01*
X130869000Y-77955400D02*
X130828100Y-77995700D01*
X140390000Y-81265400D02*
X140390000Y-77955400D01*
D35*
%TO.N,+5V*%
X185293000Y-84683600D02*
X188010800Y-84683600D01*
X189128400Y-83566000D02*
X189128400Y-79538200D01*
X191236600Y-95173800D02*
X185115200Y-95173800D01*
X191236600Y-95173800D02*
X203377800Y-95173800D01*
X185115200Y-95173800D02*
X184124600Y-94183200D01*
X189128400Y-79538200D02*
X189139200Y-79527400D01*
X184124600Y-94183200D02*
X184124600Y-85852000D01*
X205816200Y-92735400D02*
X205816200Y-87754835D01*
X205816200Y-87754835D02*
X205812829Y-87751464D01*
X184124600Y-85852000D02*
X185293000Y-84683600D01*
X203428600Y-95123000D02*
X205816200Y-92735400D01*
X203377800Y-95173800D02*
X203428600Y-95123000D01*
X188010800Y-84683600D02*
X189128400Y-83566000D01*
D33*
%TO.N,SDA*%
X136152500Y-81939100D02*
X135310200Y-82781400D01*
X128288000Y-88127000D02*
X127399000Y-89016200D01*
X107995000Y-87409600D02*
X103397000Y-87409600D01*
X128288000Y-86871400D02*
X128288000Y-88127000D01*
X109590000Y-89004400D02*
X107995000Y-87409600D01*
X135310200Y-82781400D02*
X135310200Y-85575400D01*
X128288000Y-85615800D02*
X128288000Y-86871400D01*
X127399000Y-89016200D02*
X109719000Y-89016200D01*
X128288000Y-86871400D02*
X128288200Y-86871200D01*
X128288200Y-86871200D02*
X128288200Y-85615800D01*
X109719000Y-89016200D02*
X109707000Y-89004400D01*
X109707000Y-89004400D02*
X109590000Y-89004400D01*
X138479100Y-81939100D02*
X136152500Y-81939100D01*
%TO.N,SCL*%
X124757000Y-88203400D02*
X125760000Y-87201000D01*
X125748000Y-86402600D02*
X125748000Y-85615800D01*
X109922000Y-88203400D02*
X124757000Y-88203400D01*
X125760000Y-87201000D02*
X125748000Y-87189400D01*
X103397000Y-84869600D02*
X104734000Y-84869600D01*
X125748200Y-86402400D02*
X125748200Y-85615800D01*
X125748000Y-86402600D02*
X125748200Y-86402400D01*
X108327000Y-86608600D02*
X109922000Y-88203400D01*
X104734000Y-84869600D02*
X106473000Y-86608600D01*
X106473000Y-86608600D02*
X108327000Y-86608600D01*
X125748000Y-87189400D02*
X125748000Y-86402600D01*
%TO.N,+3.3V*%
X103397000Y-79789600D02*
X109752000Y-79789600D01*
X130828200Y-85615800D02*
X130828000Y-85615800D01*
X118408000Y-90895600D02*
X119486000Y-89817200D01*
X118407600Y-93954300D02*
X118407600Y-97012200D01*
X111358000Y-78184000D02*
X111358000Y-66195600D01*
X118408000Y-93953900D02*
X118408000Y-90895600D01*
X130828000Y-88711200D02*
X130828000Y-85615800D01*
X150905800Y-85547200D02*
X150299000Y-85547200D01*
X118408000Y-97012200D02*
X118408000Y-93953900D01*
X150296200Y-85550000D02*
X142955600Y-85550000D01*
X142955600Y-85550000D02*
X142930200Y-85575400D01*
X111358000Y-66195600D02*
X111409000Y-66144600D01*
X118408000Y-93953900D02*
X118407600Y-93954300D01*
X129722000Y-89817200D02*
X130828000Y-88711200D01*
X150299000Y-85547200D02*
X150296200Y-85550000D01*
X119486000Y-89817200D02*
X129722000Y-89817200D01*
X109752000Y-79789600D02*
X111358000Y-78184000D01*
X111408800Y-66144400D02*
X111409000Y-66144600D01*
%TO.N,DT*%
X124753404Y-71362604D02*
X125042100Y-71651300D01*
X108559600Y-71399400D02*
X107924600Y-71399400D01*
X147629200Y-80571600D02*
X147857800Y-80800200D01*
X98708800Y-67974800D02*
X98708800Y-66144400D01*
X139547100Y-71651300D02*
X141987600Y-74091800D01*
X146177000Y-74091800D02*
X147629200Y-75544000D01*
X123500726Y-71362604D02*
X124753404Y-71362604D01*
X147629200Y-75544000D02*
X147629200Y-80571600D01*
X104902000Y-68376800D02*
X99110800Y-68376800D01*
X147857800Y-80800200D02*
X153725200Y-80800200D01*
X99110800Y-68376800D02*
X98708800Y-67974800D01*
X107924600Y-71399400D02*
X104902000Y-68376800D01*
X141987600Y-74091800D02*
X146177000Y-74091800D01*
X125042100Y-71651300D02*
X139547100Y-71651300D01*
%TO.N,SW_STEP*%
X150474000Y-81816200D02*
X151998000Y-83340200D01*
X124500000Y-72452300D02*
X138900300Y-72452300D01*
X145821400Y-74930000D02*
X146613200Y-75721800D01*
X141378000Y-74930000D02*
X145821400Y-74930000D01*
X151998000Y-83340200D02*
X153725200Y-83340200D01*
X138900300Y-72452300D02*
X141378000Y-74930000D01*
X146613200Y-75721800D02*
X146613200Y-81333600D01*
X146613200Y-81333600D02*
X147095800Y-81816200D01*
X147095800Y-81816200D02*
X150474000Y-81816200D01*
%TO.N,CLK-2*%
X145622600Y-95707200D02*
X145622600Y-96802200D01*
X145622600Y-96802200D02*
X147400600Y-98580200D01*
X147400600Y-98580200D02*
X153725200Y-98580200D01*
%TO.N,SW_BAND*%
X141452400Y-82846900D02*
X149496500Y-82846900D01*
X149496500Y-82846900D02*
X152529800Y-85880200D01*
X152529800Y-85880200D02*
X153725200Y-85880200D01*
%TO.N,SW_RTTY_CW*%
X142420600Y-73180200D02*
X153725200Y-73180200D01*
X125538614Y-70307200D02*
X126081714Y-70850300D01*
X126081714Y-70850300D02*
X140090700Y-70850300D01*
X108051600Y-70307200D02*
X103888800Y-66144400D01*
X108559600Y-70307200D02*
X108051600Y-70307200D01*
X140090700Y-70850300D02*
X142420600Y-73180200D01*
X115417600Y-70307200D02*
X125538614Y-70307200D01*
X103888800Y-66144400D02*
X103788800Y-66144400D01*
%TO.N,SCK*%
X173345803Y-70868800D02*
X173345803Y-67197603D01*
X173345803Y-67197603D02*
X172826000Y-66677800D01*
X126648800Y-67795400D02*
X126648800Y-66144400D01*
X159249414Y-66677800D02*
X159020814Y-66449200D01*
X151307400Y-64211600D02*
X147071700Y-68447300D01*
X159020814Y-66449200D02*
X159019900Y-66449200D01*
X156782300Y-64211600D02*
X151307400Y-64211600D01*
X127300700Y-68447300D02*
X126648800Y-67795400D01*
X147071700Y-68447300D02*
X127300700Y-68447300D01*
X159019900Y-66449200D02*
X156782300Y-64211600D01*
X172826000Y-66677800D02*
X159249414Y-66677800D01*
%TO.N,D{slash}C*%
X126203983Y-68707000D02*
X126202183Y-68705200D01*
X122121400Y-68705200D02*
X121568800Y-68152600D01*
X126831700Y-69248300D02*
X126290400Y-68707000D01*
X164063000Y-67693800D02*
X159130800Y-67693800D01*
X121568800Y-68152600D02*
X121568800Y-66144400D01*
X159130800Y-67693800D02*
X156449600Y-65012600D01*
X126202183Y-68705200D02*
X122121400Y-68705200D01*
X126290400Y-68707000D02*
X126203983Y-68707000D01*
X147403485Y-69248300D02*
X126831700Y-69248300D01*
X151639186Y-65012600D02*
X147403485Y-69248300D01*
X156449600Y-65012600D02*
X151639186Y-65012600D01*
%TO.N,CS*%
X156116900Y-65813600D02*
X151991400Y-65813600D01*
X172345800Y-70868800D02*
X172345800Y-69194800D01*
X159013100Y-68709800D02*
X156116900Y-65813600D01*
X116488800Y-68711400D02*
X116488800Y-66144400D01*
X171860800Y-68709800D02*
X159013100Y-68709800D01*
X147755700Y-70049300D02*
X126413500Y-70049300D01*
X125870399Y-69506200D02*
X117283600Y-69506200D01*
X126413500Y-70049300D02*
X125870399Y-69506200D01*
X172345800Y-69194800D02*
X171860800Y-68709800D01*
X117283600Y-69506200D02*
X116488800Y-68711400D01*
X151991400Y-65813600D02*
X147755700Y-70049300D01*
%TD*%
%TA.AperFunction,Conductor*%
%TO.N,GND*%
G36*
X101306499Y-59509585D02*
G01*
X101352254Y-59562389D01*
X101362198Y-59631547D01*
X101333173Y-59695103D01*
X101327141Y-59701581D01*
X100738511Y-60290211D01*
X100682760Y-60345962D01*
X100627009Y-60401712D01*
X100539409Y-60532814D01*
X100539402Y-60532827D01*
X100479064Y-60678498D01*
X100479061Y-60678510D01*
X100448300Y-60833153D01*
X100448300Y-64931701D01*
X100428615Y-64998740D01*
X100397187Y-65032018D01*
X100336435Y-65076157D01*
X100180556Y-65232036D01*
X100180552Y-65232041D01*
X100079118Y-65371654D01*
X100023788Y-65414320D01*
X99954175Y-65420299D01*
X99892380Y-65387693D01*
X99878482Y-65371654D01*
X99777047Y-65232041D01*
X99777043Y-65232036D01*
X99621163Y-65076156D01*
X99621158Y-65076152D01*
X99442825Y-64946587D01*
X99442824Y-64946586D01*
X99442822Y-64946585D01*
X99325591Y-64886852D01*
X99246406Y-64846504D01*
X99246403Y-64846503D01*
X99036752Y-64778385D01*
X98927886Y-64761142D01*
X98819022Y-64743900D01*
X98598578Y-64743900D01*
X98526001Y-64755395D01*
X98380847Y-64778385D01*
X98171196Y-64846503D01*
X98171193Y-64846504D01*
X97974774Y-64946587D01*
X97796441Y-65076152D01*
X97796436Y-65076156D01*
X97746263Y-65126329D01*
X97684940Y-65159813D01*
X97615248Y-65154828D01*
X97559315Y-65112957D01*
X97542401Y-65081980D01*
X97512597Y-65002071D01*
X97512593Y-65002064D01*
X97426347Y-64886855D01*
X97426344Y-64886852D01*
X97311135Y-64800606D01*
X97311128Y-64800602D01*
X97176282Y-64750308D01*
X97176283Y-64750308D01*
X97116683Y-64743901D01*
X97116681Y-64743900D01*
X97116673Y-64743900D01*
X97116664Y-64743900D01*
X95220929Y-64743900D01*
X95220923Y-64743901D01*
X95161316Y-64750308D01*
X95026471Y-64800602D01*
X95026464Y-64800606D01*
X94911255Y-64886852D01*
X94911252Y-64886855D01*
X94825006Y-65002064D01*
X94825002Y-65002071D01*
X94774708Y-65136917D01*
X94768301Y-65196516D01*
X94768300Y-65196535D01*
X94768300Y-67092270D01*
X94768301Y-67092276D01*
X94774708Y-67151883D01*
X94825002Y-67286728D01*
X94825006Y-67286735D01*
X94911252Y-67401944D01*
X94911255Y-67401947D01*
X95026464Y-67488193D01*
X95026471Y-67488197D01*
X95161317Y-67538491D01*
X95161316Y-67538491D01*
X95168244Y-67539235D01*
X95220927Y-67544900D01*
X97116672Y-67544899D01*
X97176283Y-67538491D01*
X97311131Y-67488196D01*
X97426346Y-67401946D01*
X97512596Y-67286731D01*
X97540229Y-67212643D01*
X97542401Y-67206820D01*
X97584271Y-67150886D01*
X97649736Y-67126468D01*
X97718009Y-67141319D01*
X97746264Y-67162471D01*
X97796435Y-67212642D01*
X97957186Y-67329434D01*
X97999851Y-67384762D01*
X98008300Y-67429751D01*
X98008300Y-67905806D01*
X98008300Y-68043794D01*
X98008300Y-68043796D01*
X98008299Y-68043796D01*
X98035218Y-68179122D01*
X98035221Y-68179132D01*
X98088022Y-68306607D01*
X98164687Y-68421345D01*
X98664254Y-68920912D01*
X98778992Y-68997577D01*
X98906467Y-69050378D01*
X98906472Y-69050380D01*
X98906476Y-69050380D01*
X98906477Y-69050381D01*
X99041803Y-69077300D01*
X99041806Y-69077300D01*
X99041807Y-69077300D01*
X104560481Y-69077300D01*
X104627520Y-69096985D01*
X104648162Y-69113619D01*
X107410081Y-71875538D01*
X107443566Y-71936861D01*
X107446400Y-71963219D01*
X107446400Y-78965100D01*
X107426715Y-79032139D01*
X107373911Y-79077894D01*
X107322400Y-79089100D01*
X104921499Y-79089100D01*
X104854460Y-79069415D01*
X104808705Y-79016611D01*
X104797499Y-78965100D01*
X104797499Y-78841729D01*
X104797498Y-78841723D01*
X104797497Y-78841716D01*
X104791091Y-78782117D01*
X104740796Y-78647269D01*
X104740795Y-78647268D01*
X104740793Y-78647264D01*
X104654547Y-78532055D01*
X104654544Y-78532052D01*
X104539335Y-78445806D01*
X104539328Y-78445802D01*
X104404482Y-78395508D01*
X104404483Y-78395508D01*
X104344883Y-78389101D01*
X104344881Y-78389100D01*
X104344873Y-78389100D01*
X104344864Y-78389100D01*
X102449129Y-78389100D01*
X102449123Y-78389101D01*
X102389516Y-78395508D01*
X102254671Y-78445802D01*
X102254664Y-78445806D01*
X102139455Y-78532052D01*
X102139452Y-78532055D01*
X102053206Y-78647264D01*
X102053202Y-78647271D01*
X102002908Y-78782117D01*
X101996501Y-78841716D01*
X101996501Y-78841723D01*
X101996500Y-78841735D01*
X101996500Y-80737470D01*
X101996501Y-80737476D01*
X102002908Y-80797083D01*
X102053202Y-80931928D01*
X102053206Y-80931935D01*
X102139452Y-81047144D01*
X102139455Y-81047147D01*
X102254664Y-81133393D01*
X102254671Y-81133397D01*
X102389517Y-81183691D01*
X102389516Y-81183691D01*
X102396444Y-81184435D01*
X102449127Y-81190100D01*
X104344872Y-81190099D01*
X104404483Y-81183691D01*
X104539331Y-81133396D01*
X104654546Y-81047146D01*
X104740796Y-80931931D01*
X104791091Y-80797083D01*
X104797500Y-80737473D01*
X104797500Y-80614100D01*
X104817185Y-80547061D01*
X104869989Y-80501306D01*
X104921500Y-80490100D01*
X107322400Y-80490100D01*
X107389439Y-80509785D01*
X107435194Y-80562589D01*
X107446400Y-80614100D01*
X107446400Y-85784100D01*
X107426715Y-85851139D01*
X107373911Y-85896894D01*
X107322400Y-85908100D01*
X106814518Y-85908100D01*
X106747479Y-85888415D01*
X106726837Y-85871781D01*
X105180546Y-84325488D01*
X105180545Y-84325487D01*
X105065807Y-84248822D01*
X104938332Y-84196021D01*
X104938322Y-84196018D01*
X104802996Y-84169100D01*
X104802994Y-84169100D01*
X104802993Y-84169100D01*
X104682351Y-84169100D01*
X104615312Y-84149415D01*
X104582035Y-84117988D01*
X104465242Y-83957235D01*
X104309365Y-83801358D01*
X104309363Y-83801356D01*
X104309358Y-83801352D01*
X104131025Y-83671787D01*
X104131024Y-83671786D01*
X104131022Y-83671785D01*
X104068096Y-83639722D01*
X103934606Y-83571704D01*
X103934603Y-83571703D01*
X103724952Y-83503585D01*
X103616086Y-83486342D01*
X103507222Y-83469100D01*
X103286778Y-83469100D01*
X103214201Y-83480595D01*
X103069047Y-83503585D01*
X102859396Y-83571703D01*
X102859393Y-83571704D01*
X102662974Y-83671787D01*
X102484641Y-83801352D01*
X102484636Y-83801356D01*
X102328756Y-83957236D01*
X102328752Y-83957241D01*
X102199187Y-84135574D01*
X102099104Y-84331993D01*
X102099103Y-84331996D01*
X102030985Y-84541647D01*
X101996500Y-84759378D01*
X101996500Y-84979821D01*
X102030985Y-85197552D01*
X102099103Y-85407203D01*
X102099104Y-85407206D01*
X102199187Y-85603625D01*
X102328752Y-85781958D01*
X102328756Y-85781963D01*
X102484636Y-85937843D01*
X102484641Y-85937847D01*
X102624254Y-86039282D01*
X102666920Y-86094612D01*
X102672899Y-86164225D01*
X102640293Y-86226020D01*
X102624254Y-86239918D01*
X102484641Y-86341352D01*
X102484636Y-86341356D01*
X102328756Y-86497236D01*
X102328752Y-86497241D01*
X102199187Y-86675574D01*
X102099104Y-86871993D01*
X102099103Y-86871996D01*
X102030985Y-87081647D01*
X101996500Y-87299378D01*
X101996500Y-87519821D01*
X102030985Y-87737552D01*
X102099103Y-87947203D01*
X102099104Y-87947206D01*
X102199187Y-88143625D01*
X102328752Y-88321958D01*
X102328756Y-88321963D01*
X102484636Y-88477843D01*
X102484641Y-88477847D01*
X102624254Y-88579282D01*
X102666920Y-88634612D01*
X102672899Y-88704225D01*
X102640293Y-88766020D01*
X102624254Y-88779918D01*
X102484641Y-88881352D01*
X102484636Y-88881356D01*
X102328756Y-89037236D01*
X102328752Y-89037241D01*
X102199187Y-89215574D01*
X102099104Y-89411993D01*
X102099103Y-89411996D01*
X102030985Y-89621647D01*
X101996500Y-89839378D01*
X101996500Y-90059821D01*
X102030985Y-90277552D01*
X102099103Y-90487203D01*
X102099104Y-90487206D01*
X102199187Y-90683625D01*
X102328752Y-90861958D01*
X102328756Y-90861963D01*
X102484636Y-91017843D01*
X102484641Y-91017847D01*
X102624254Y-91119282D01*
X102666920Y-91174612D01*
X102672899Y-91244225D01*
X102640293Y-91306020D01*
X102624254Y-91319918D01*
X102484641Y-91421352D01*
X102484636Y-91421356D01*
X102328756Y-91577236D01*
X102328752Y-91577241D01*
X102199187Y-91755574D01*
X102099104Y-91951993D01*
X102099103Y-91951996D01*
X102030985Y-92161647D01*
X101996500Y-92379378D01*
X101996500Y-92599821D01*
X102030985Y-92817552D01*
X102099103Y-93027203D01*
X102099104Y-93027206D01*
X102199187Y-93223625D01*
X102328752Y-93401958D01*
X102328756Y-93401963D01*
X102484636Y-93557843D01*
X102484641Y-93557847D01*
X102624254Y-93659282D01*
X102666920Y-93714612D01*
X102672899Y-93784225D01*
X102640293Y-93846020D01*
X102624254Y-93859918D01*
X102484641Y-93961352D01*
X102484636Y-93961356D01*
X102328756Y-94117236D01*
X102328752Y-94117241D01*
X102199187Y-94295574D01*
X102099104Y-94491993D01*
X102099103Y-94491996D01*
X102030985Y-94701647D01*
X101996500Y-94919378D01*
X101996500Y-95139821D01*
X102030985Y-95357552D01*
X102099103Y-95567203D01*
X102099104Y-95567206D01*
X102199187Y-95763625D01*
X102328752Y-95941958D01*
X102328756Y-95941963D01*
X102484636Y-96097843D01*
X102484641Y-96097847D01*
X102640192Y-96210860D01*
X102662978Y-96227415D01*
X102791375Y-96292837D01*
X102859393Y-96327495D01*
X102859396Y-96327496D01*
X102964221Y-96361555D01*
X103069049Y-96395615D01*
X103286778Y-96430100D01*
X103286779Y-96430100D01*
X103507221Y-96430100D01*
X103507222Y-96430100D01*
X103724951Y-96395615D01*
X103934606Y-96327495D01*
X104131022Y-96227415D01*
X104309365Y-96097842D01*
X104465242Y-95941965D01*
X104594815Y-95763622D01*
X104694895Y-95567206D01*
X104763015Y-95357551D01*
X104797500Y-95139822D01*
X104797500Y-94919378D01*
X104763015Y-94701649D01*
X104694895Y-94491994D01*
X104694895Y-94491993D01*
X104660237Y-94423975D01*
X104594815Y-94295578D01*
X104578260Y-94272792D01*
X104465247Y-94117241D01*
X104465243Y-94117236D01*
X104309363Y-93961356D01*
X104309358Y-93961352D01*
X104169745Y-93859918D01*
X104127079Y-93804589D01*
X104121100Y-93734975D01*
X104153705Y-93673180D01*
X104169745Y-93659282D01*
X104309358Y-93557847D01*
X104309356Y-93557847D01*
X104309365Y-93557842D01*
X104465242Y-93401965D01*
X104594815Y-93223622D01*
X104694895Y-93027206D01*
X104763015Y-92817551D01*
X104797500Y-92599822D01*
X104797500Y-92379378D01*
X104763015Y-92161649D01*
X104694895Y-91951994D01*
X104694895Y-91951993D01*
X104660237Y-91883975D01*
X104594815Y-91755578D01*
X104578260Y-91732792D01*
X104465247Y-91577241D01*
X104465243Y-91577236D01*
X104309363Y-91421356D01*
X104309358Y-91421352D01*
X104169745Y-91319918D01*
X104127079Y-91264589D01*
X104121100Y-91194975D01*
X104153705Y-91133180D01*
X104169745Y-91119282D01*
X104309358Y-91017847D01*
X104309356Y-91017847D01*
X104309365Y-91017842D01*
X104465242Y-90861965D01*
X104594815Y-90683622D01*
X104694895Y-90487206D01*
X104763015Y-90277551D01*
X104797500Y-90059822D01*
X104797500Y-89839378D01*
X104763015Y-89621649D01*
X104694895Y-89411994D01*
X104694895Y-89411993D01*
X104656261Y-89336172D01*
X104594815Y-89215578D01*
X104491481Y-89073350D01*
X104465247Y-89037241D01*
X104465243Y-89037236D01*
X104309363Y-88881356D01*
X104309358Y-88881352D01*
X104169745Y-88779918D01*
X104127079Y-88724589D01*
X104121100Y-88654975D01*
X104153705Y-88593180D01*
X104169745Y-88579282D01*
X104309358Y-88477847D01*
X104309356Y-88477847D01*
X104309365Y-88477842D01*
X104465242Y-88321965D01*
X104582034Y-88161213D01*
X104637362Y-88118549D01*
X104682351Y-88110100D01*
X107322400Y-88110100D01*
X107389439Y-88129785D01*
X107435194Y-88182589D01*
X107446400Y-88234100D01*
X107446400Y-117438038D01*
X107426715Y-117505077D01*
X107410081Y-117525719D01*
X106983219Y-117952581D01*
X106921896Y-117986066D01*
X106895538Y-117988900D01*
X84119900Y-117988900D01*
X84052861Y-117969215D01*
X84007106Y-117916411D01*
X83995900Y-117864900D01*
X83995900Y-99994858D01*
X101646500Y-99994858D01*
X101646500Y-100224341D01*
X101671446Y-100413815D01*
X101676452Y-100451838D01*
X101676453Y-100451840D01*
X101735842Y-100673487D01*
X101823650Y-100885476D01*
X101823657Y-100885490D01*
X101938392Y-101084217D01*
X102078081Y-101266261D01*
X102078089Y-101266270D01*
X102240330Y-101428511D01*
X102240338Y-101428518D01*
X102422382Y-101568207D01*
X102422385Y-101568208D01*
X102422388Y-101568211D01*
X102621112Y-101682944D01*
X102621117Y-101682946D01*
X102621123Y-101682949D01*
X102712480Y-101720790D01*
X102833113Y-101770758D01*
X103054762Y-101830148D01*
X103282266Y-101860100D01*
X103282273Y-101860100D01*
X103511727Y-101860100D01*
X103511734Y-101860100D01*
X103739238Y-101830148D01*
X103960887Y-101770758D01*
X104172888Y-101682944D01*
X104371612Y-101568211D01*
X104553661Y-101428519D01*
X104553665Y-101428514D01*
X104553670Y-101428511D01*
X104715911Y-101266270D01*
X104715914Y-101266265D01*
X104715919Y-101266261D01*
X104855611Y-101084212D01*
X104970344Y-100885488D01*
X105058158Y-100673487D01*
X105117548Y-100451838D01*
X105147500Y-100224334D01*
X105147500Y-99994866D01*
X105117548Y-99767362D01*
X105058158Y-99545713D01*
X104970344Y-99333712D01*
X104855611Y-99134988D01*
X104855608Y-99134985D01*
X104855607Y-99134982D01*
X104715918Y-98952938D01*
X104715911Y-98952930D01*
X104553670Y-98790689D01*
X104553661Y-98790681D01*
X104371617Y-98650992D01*
X104172890Y-98536257D01*
X104172876Y-98536250D01*
X103960887Y-98448442D01*
X103739238Y-98389052D01*
X103701215Y-98384046D01*
X103511741Y-98359100D01*
X103511734Y-98359100D01*
X103282266Y-98359100D01*
X103282258Y-98359100D01*
X103065715Y-98387609D01*
X103054762Y-98389052D01*
X102961076Y-98414154D01*
X102833112Y-98448442D01*
X102621123Y-98536250D01*
X102621109Y-98536257D01*
X102422382Y-98650992D01*
X102240338Y-98790681D01*
X102078081Y-98952938D01*
X101938392Y-99134982D01*
X101823657Y-99333709D01*
X101823650Y-99333723D01*
X101735842Y-99545712D01*
X101676453Y-99767359D01*
X101676451Y-99767370D01*
X101646500Y-99994858D01*
X83995900Y-99994858D01*
X83995900Y-74594858D01*
X101646500Y-74594858D01*
X101646500Y-74824341D01*
X101671446Y-75013815D01*
X101676452Y-75051838D01*
X101676453Y-75051840D01*
X101735842Y-75273487D01*
X101823650Y-75485476D01*
X101823657Y-75485490D01*
X101938392Y-75684217D01*
X102078081Y-75866261D01*
X102078089Y-75866270D01*
X102240330Y-76028511D01*
X102240338Y-76028518D01*
X102422382Y-76168207D01*
X102422385Y-76168208D01*
X102422388Y-76168211D01*
X102621112Y-76282944D01*
X102621117Y-76282946D01*
X102621123Y-76282949D01*
X102712480Y-76320790D01*
X102833113Y-76370758D01*
X103054762Y-76430148D01*
X103282266Y-76460100D01*
X103282273Y-76460100D01*
X103511727Y-76460100D01*
X103511734Y-76460100D01*
X103739238Y-76430148D01*
X103960887Y-76370758D01*
X104172888Y-76282944D01*
X104371612Y-76168211D01*
X104553661Y-76028519D01*
X104553665Y-76028514D01*
X104553670Y-76028511D01*
X104715911Y-75866270D01*
X104715914Y-75866265D01*
X104715919Y-75866261D01*
X104855611Y-75684212D01*
X104970344Y-75485488D01*
X105058158Y-75273487D01*
X105117548Y-75051838D01*
X105147500Y-74824334D01*
X105147500Y-74594866D01*
X105117548Y-74367362D01*
X105058158Y-74145713D01*
X104970344Y-73933712D01*
X104855611Y-73734988D01*
X104855608Y-73734985D01*
X104855607Y-73734982D01*
X104715918Y-73552938D01*
X104715911Y-73552930D01*
X104553670Y-73390689D01*
X104553661Y-73390681D01*
X104371617Y-73250992D01*
X104172890Y-73136257D01*
X104172876Y-73136250D01*
X103960887Y-73048442D01*
X103739238Y-72989052D01*
X103701215Y-72984046D01*
X103511741Y-72959100D01*
X103511734Y-72959100D01*
X103282266Y-72959100D01*
X103282258Y-72959100D01*
X103065715Y-72987609D01*
X103054762Y-72989052D01*
X102961076Y-73014154D01*
X102833112Y-73048442D01*
X102621123Y-73136250D01*
X102621109Y-73136257D01*
X102422382Y-73250992D01*
X102240338Y-73390681D01*
X102078081Y-73552938D01*
X101938392Y-73734982D01*
X101823657Y-73933709D01*
X101823650Y-73933723D01*
X101735842Y-74145712D01*
X101676453Y-74367359D01*
X101676451Y-74367370D01*
X101646500Y-74594858D01*
X83995900Y-74594858D01*
X83995900Y-59613900D01*
X84015585Y-59546861D01*
X84068389Y-59501106D01*
X84119900Y-59489900D01*
X101239460Y-59489900D01*
X101306499Y-59509585D01*
G37*
%TD.AperFunction*%
%TD*%
M02*
