M48
; DRILL file {KiCad 9.0.4} date 2025-12-09T22:45:42+0100
; FORMAT={-:-/ absolute / metric / decimal}
; #@! TF.CreationDate,2025-12-09T22:45:42+01:00
; #@! TF.GenerationSoftware,Kicad,Pcbnew,9.0.4
; #@! TF.FileFunction,Plated,1,2,PTH
FMAT,2
METRIC
; #@! TA.AperFunction,Plated,PTH,ViaDrill
T1C0.400
; #@! TA.AperFunction,Plated,PTH,ComponentDrill
T2C0.800
; #@! TA.AperFunction,Plated,PTH,ComponentDrill
T3C0.950
; #@! TA.AperFunction,Plated,PTH,ComponentDrill
T4C1.000
; #@! TA.AperFunction,Plated,PTH,ComponentDrill
T5C1.100
; #@! TA.AperFunction,Plated,PTH,ComponentDrill
T6C3.200
%
G90
G05
T1
X108.56Y-70.307
X108.56Y-71.399
X115.418Y-70.307
X121.463Y-62.789
X123.501Y-71.363
X124.5Y-72.452
X138.479Y-81.939
X141.452Y-82.847
X144.106Y-70.949
X145.623Y-95.707
X148.128Y-66.119
X150.906Y-85.547
X160.63Y-63.96
X164.165Y-67.694
X164.236Y-63.963
X172.346Y-70.869
X173.346Y-64.863
X173.346Y-70.869
X175.874Y-65.763
X176.022Y-86.97
X176.022Y-96.926
T2
X113.048Y-77.996
X113.048Y-85.616
X115.588Y-77.996
X115.588Y-85.616
X118.128Y-77.996
X118.128Y-85.616
X118.408Y-97.012
X120.668Y-77.996
X120.668Y-85.616
X120.948Y-97.012
X123.208Y-77.996
X123.208Y-85.616
X123.488Y-97.012
X125.748Y-77.996
X125.748Y-85.616
X126.028Y-97.012
X128.288Y-77.996
X128.288Y-85.616
X128.568Y-97.012
X130.828Y-77.996
X130.828Y-85.616
X131.108Y-97.012
X133.648Y-97.012
X135.31Y-77.955
X135.31Y-85.575
X136.188Y-97.012
X137.85Y-77.955
X137.85Y-85.575
X138.728Y-97.012
X140.39Y-77.955
X140.39Y-85.575
X142.93Y-77.955
X142.93Y-85.575
X184.103Y-97.571
X184.103Y-107.731
X184.127Y-64.973
X185.582Y-71.806
X187.582Y-71.806
X188.932Y-98.841
X188.932Y-106.461
X189.127Y-64.973
X192.284Y-64.988
X193.601Y-71.831
X193.762Y-97.571
X193.762Y-107.731
X196.101Y-71.831
X197.284Y-64.988
X198.591Y-98.841
X198.591Y-106.461
X203.171Y-98.841
X203.171Y-106.461
T3
X109.94Y-104.703
X109.94Y-107.203
X109.94Y-109.703
X109.94Y-112.203
X116.365Y-104.703
X116.365Y-107.203
X116.365Y-109.703
X116.365Y-112.203
X122.79Y-107.203
X122.79Y-109.703
X122.79Y-112.203
X186.639Y-79.527
X189.139Y-79.527
X191.639Y-79.527
X194.139Y-79.527
T4
X96.169Y-66.144
X98.709Y-66.144
X101.249Y-66.144
X103.397Y-79.79
X103.397Y-82.33
X103.397Y-84.87
X103.397Y-87.41
X103.397Y-89.95
X103.397Y-92.49
X103.397Y-95.03
X103.789Y-66.144
X106.329Y-66.144
X108.869Y-66.144
X111.409Y-66.144
X113.949Y-66.144
X116.489Y-66.144
X119.029Y-66.144
X121.569Y-66.144
X124.109Y-66.144
X126.649Y-66.144
X129.189Y-66.144
X129.214Y-109.703
X129.214Y-112.203
X131.729Y-66.144
X134.269Y-66.144
X135.639Y-109.703
X135.639Y-112.203
X136.809Y-66.144
X139.349Y-66.144
X141.889Y-66.144
X142.064Y-109.703
X142.064Y-112.203
X144.429Y-66.144
X148.488Y-109.728
X148.488Y-112.228
X153.725Y-68.1
X153.725Y-70.64
X153.725Y-73.18
X153.725Y-75.72
X153.725Y-78.26
X153.725Y-80.8
X153.725Y-83.34
X153.725Y-85.88
X153.725Y-88.42
X153.725Y-90.96
X153.725Y-93.5
X153.725Y-96.04
X153.725Y-98.58
X153.725Y-101.12
X153.725Y-103.66
X153.725Y-106.2
X153.725Y-108.74
X153.725Y-111.28
X153.725Y-113.82
X179.125Y-68.1
X179.125Y-70.64
X179.125Y-73.18
X179.125Y-75.72
X179.125Y-78.26
X179.125Y-80.8
X179.125Y-83.34
X179.125Y-85.88
X179.125Y-88.42
X179.125Y-90.96
X179.125Y-93.5
X179.125Y-96.04
X179.125Y-98.58
X179.125Y-101.12
X179.125Y-103.66
X179.125Y-106.2
X179.125Y-108.74
X179.125Y-111.28
X179.125Y-113.82
X185.475Y-112.522
X187.975Y-112.522
X189.052Y-89.256
X191.552Y-89.256
X195.301Y-112.522
X197.801Y-112.522
T5
X200.314Y-74.627
X200.314Y-84.787
X205.813Y-71.325
X205.813Y-73.865
X205.813Y-76.405
X205.813Y-82.671
X205.813Y-85.211
X205.813Y-87.751
T6
X88.5Y-64.0
X88.5Y-113.5
X204.5Y-64.0
X204.5Y-113.5
M30
