%TF.GenerationSoftware,KiCad,Pcbnew,9.0.4*%
%TF.CreationDate,2025-12-09T22:45:37+01:00*%
%TF.ProjectId,VFO BFO Si5351,56464f20-4246-44f2-9053-69353335312e,rev?*%
%TF.SameCoordinates,Original*%
%TF.FileFunction,Copper,L2,Bot*%
%TF.FilePolarity,Positive*%
%FSLAX46Y46*%
G04 Gerber Fmt 4.6, Leading zero omitted, Abs format (unit mm)*
G04 Created by KiCad (PCBNEW 9.0.4) date 2025-12-09 22:45:37*
%MOMM*%
%LPD*%
G01*
G04 APERTURE LIST*
G04 Aperture macros list*
%AMRoundRect*
0 Rectangle with rounded corners*
0 $1 Rounding radius*
0 $2 $3 $4 $5 $6 $7 $8 $9 X,Y pos of 4 corners*
0 Add a 4 corners polygon primitive as box body*
4,1,4,$2,$3,$4,$5,$6,$7,$8,$9,$2,$3,0*
0 Add four circle primitives for the rounded corners*
1,1,$1+$1,$2,$3*
1,1,$1+$1,$4,$5*
1,1,$1+$1,$6,$7*
1,1,$1+$1,$8,$9*
0 Add four rect primitives between the rounded corners*
20,1,$1+$1,$2,$3,$4,$5,0*
20,1,$1+$1,$4,$5,$6,$7,0*
20,1,$1+$1,$6,$7,$8,$9,0*
20,1,$1+$1,$8,$9,$2,$3,0*%
G04 Aperture macros list end*
%TA.AperFunction,ComponentPad*%
%ADD10O,1.700000X2.000000*%
%TD*%
%TA.AperFunction,ComponentPad*%
%ADD11RoundRect,0.250000X-0.600000X-0.750000X0.600000X-0.750000X0.600000X0.750000X-0.600000X0.750000X0*%
%TD*%
%TA.AperFunction,ComponentPad*%
%ADD12C,1.800000*%
%TD*%
%TA.AperFunction,ComponentPad*%
%ADD13R,1.800000X1.800000*%
%TD*%
%TA.AperFunction,WasherPad*%
%ADD14C,2.500000*%
%TD*%
%TA.AperFunction,ComponentPad*%
%ADD15O,1.600000X1.600000*%
%TD*%
%TA.AperFunction,ComponentPad*%
%ADD16C,1.600000*%
%TD*%
%TA.AperFunction,ComponentPad*%
%ADD17O,2.000000X1.700000*%
%TD*%
%TA.AperFunction,ComponentPad*%
%ADD18RoundRect,0.250000X-0.750000X0.600000X-0.750000X-0.600000X0.750000X-0.600000X0.750000X0.600000X0*%
%TD*%
%TA.AperFunction,ComponentPad*%
%ADD19RoundRect,0.250000X-0.725000X0.600000X-0.725000X-0.600000X0.725000X-0.600000X0.725000X0.600000X0*%
%TD*%
%TA.AperFunction,ComponentPad*%
%ADD20O,1.950000X1.700000*%
%TD*%
%TA.AperFunction,ComponentPad*%
%ADD21R,2.000000X1.905000*%
%TD*%
%TA.AperFunction,ComponentPad*%
%ADD22O,2.000000X1.905000*%
%TD*%
%TA.AperFunction,ComponentPad*%
%ADD23C,3.600000*%
%TD*%
%TA.AperFunction,ConnectorPad*%
%ADD24C,5.600000*%
%TD*%
%TA.AperFunction,ComponentPad*%
%ADD25R,1.600000X1.600000*%
%TD*%
%TA.AperFunction,ComponentPad*%
%ADD26R,1.800000X1.700000*%
%TD*%
%TA.AperFunction,ComponentPad*%
%ADD27RoundRect,0.250000X-0.550000X0.550000X-0.550000X-0.550000X0.550000X-0.550000X0.550000X0.550000X0*%
%TD*%
%TA.AperFunction,ComponentPad*%
%ADD28R,2.200000X2.200000*%
%TD*%
%TA.AperFunction,ComponentPad*%
%ADD29O,2.200000X2.200000*%
%TD*%
%TA.AperFunction,ComponentPad*%
%ADD30RoundRect,0.250000X-0.600000X-0.725000X0.600000X-0.725000X0.600000X0.725000X-0.600000X0.725000X0*%
%TD*%
%TA.AperFunction,ComponentPad*%
%ADD31O,1.700000X1.950000*%
%TD*%
%TA.AperFunction,ViaPad*%
%ADD32C,0.600000*%
%TD*%
%TA.AperFunction,Conductor*%
%ADD33C,0.400000*%
%TD*%
%TA.AperFunction,Conductor*%
%ADD34C,0.800000*%
%TD*%
%TA.AperFunction,Conductor*%
%ADD35C,0.600000*%
%TD*%
G04 APERTURE END LIST*
D10*
%TO.P,J8,2,Pin_2*%
%TO.N,GND*%
X187974570Y-112522000D03*
D11*
%TO.P,J8,1,Pin_1*%
%TO.N,Net-(J8-Pin_1)*%
X185474570Y-112522000D03*
%TD*%
D10*
%TO.P,J9,2,Pin_2*%
%TO.N,GND*%
X197800600Y-112522000D03*
D11*
%TO.P,J9,1,Pin_1*%
%TO.N,Net-(J9-Pin_1)*%
X195300600Y-112522000D03*
%TD*%
D10*
%TO.P,J10,2,Pin_2*%
%TO.N,+12V*%
X191552200Y-89255600D03*
D11*
%TO.P,J10,1,Pin_1*%
%TO.N,GND*%
X189052200Y-89255600D03*
%TD*%
D12*
%TO.P,M1,7,CLK0*%
%TO.N,unconnected-(M1-CLK0-Pad7)*%
X103397000Y-95029600D03*
%TO.P,M1,6,CLK1*%
%TO.N,unconnected-(M1-CLK1-Pad6)*%
X103397000Y-92489600D03*
%TO.P,M1,5,CLK2*%
%TO.N,unconnected-(M1-CLK2-Pad5)*%
X103397000Y-89949600D03*
%TO.P,M1,4,SDA*%
%TO.N,SDA*%
X103397000Y-87409600D03*
%TO.P,M1,3,SCL*%
%TO.N,SCL*%
X103397000Y-84869600D03*
%TO.P,M1,2,GND*%
%TO.N,GND*%
X103397000Y-82329600D03*
D13*
%TO.P,M1,1,VDD*%
%TO.N,+3.3V*%
X103397000Y-79789600D03*
D14*
%TO.P,M1,*%
%TO.N,*%
X103397000Y-74709600D03*
X103397000Y-100109600D03*
%TD*%
D15*
%TO.P,R1,2*%
%TO.N,Net-(J9-Pin_1)*%
X193761970Y-107731000D03*
D16*
%TO.P,R1,1*%
%TO.N,Net-(D1-A)*%
X193761970Y-97571000D03*
%TD*%
D15*
%TO.P,R3,2*%
%TO.N,Net-(J8-Pin_1)*%
X184102970Y-107731000D03*
D16*
%TO.P,R3,1*%
%TO.N,RTTY IN*%
X184102970Y-97571000D03*
%TD*%
D17*
%TO.P,J6,2,Pin_2*%
%TO.N,GND*%
X142063725Y-112202619D03*
D18*
%TO.P,J6,1,Pin_1*%
%TO.N,Net-(J6-Pin_1)*%
X142063725Y-109702619D03*
%TD*%
D16*
%TO.P,C4,1*%
%TO.N,+5V*%
X189127086Y-64973027D03*
%TO.P,C4,2*%
%TO.N,GND*%
X184127086Y-64973027D03*
%TD*%
D19*
%TO.P,J2,1,Pin_1*%
%TO.N,Net-(J2-Pin_1)*%
X116365027Y-104702619D03*
D20*
%TO.P,J2,2,Pin_2*%
%TO.N,Net-(J2-Pin_2)*%
X116365027Y-107202619D03*
%TO.P,J2,3,Pin_3*%
%TO.N,Net-(J2-Pin_3)*%
X116365027Y-109702619D03*
%TO.P,J2,4,Pin_4*%
%TO.N,GND*%
X116365027Y-112202619D03*
%TD*%
D21*
%TO.P,U3,1,VI*%
%TO.N,Net-(D4-K)*%
X205812829Y-71325464D03*
D22*
%TO.P,U3,2,GND*%
%TO.N,GND*%
X205812829Y-73865464D03*
%TO.P,U3,3,VO*%
%TO.N,+9V*%
X205812829Y-76405464D03*
%TD*%
D19*
%TO.P,J3,1,Pin_1*%
%TO.N,Net-(J3-Pin_1)*%
X122789701Y-107202619D03*
D20*
%TO.P,J3,2,Pin_2*%
%TO.N,Net-(J3-Pin_2)*%
X122789701Y-109702619D03*
%TO.P,J3,3,Pin_3*%
%TO.N,GND*%
X122789701Y-112202619D03*
%TD*%
D19*
%TO.P,J1,1,Pin_1*%
%TO.N,+3.3V*%
X109940352Y-104702619D03*
D20*
%TO.P,J1,2,Pin_2*%
%TO.N,SCL*%
X109940352Y-107202619D03*
%TO.P,J1,3,Pin_3*%
%TO.N,SDA*%
X109940352Y-109702619D03*
%TO.P,J1,4,Pin_4*%
%TO.N,GND*%
X109940352Y-112202619D03*
%TD*%
D23*
%TO.P,H2,1,1*%
%TO.N,GND*%
X88500000Y-113500000D03*
D24*
X88500000Y-113500000D03*
%TD*%
D25*
%TO.P,C2,1*%
%TO.N,+9V*%
X193601286Y-71831027D03*
D16*
%TO.P,C2,2*%
%TO.N,GND*%
X196101286Y-71831027D03*
%TD*%
D18*
%TO.P,J5,1,Pin_1*%
%TO.N,Net-(J5-Pin_1)*%
X135639051Y-109702619D03*
D17*
%TO.P,J5,2,Pin_2*%
%TO.N,GND*%
X135639051Y-112202619D03*
%TD*%
D26*
%TO.P,U1,J2-1,3V3*%
%TO.N,+3.3V*%
X153725200Y-68100200D03*
D12*
%TO.P,U1,J2-2,EN*%
%TO.N,unconnected-(U1-EN-PadJ2-2)*%
X153725200Y-70640200D03*
%TO.P,U1,J2-3,SENSOR_VP*%
%TO.N,SW_RTTY_CW*%
X153725200Y-73180200D03*
%TO.P,U1,J2-4,SENSOR_VN*%
%TO.N,unconnected-(U1-SENSOR_VN-PadJ2-4)*%
X153725200Y-75720200D03*
%TO.P,U1,J2-5,IO34*%
%TO.N,CLK*%
X153725200Y-78260200D03*
%TO.P,U1,J2-6,IO35*%
%TO.N,DT*%
X153725200Y-80800200D03*
%TO.P,U1,J2-7,IO32*%
%TO.N,SW_STEP*%
X153725200Y-83340200D03*
%TO.P,U1,J2-8,IO33*%
%TO.N,SW_BAND*%
X153725200Y-85880200D03*
%TO.P,U1,J2-9,IO25*%
%TO.N,SW_MODE*%
X153725200Y-88420200D03*
%TO.P,U1,J2-10,IO26*%
%TO.N,SW_AGC*%
X153725200Y-90960200D03*
%TO.P,U1,J2-11,IO27*%
%TO.N,SW_ATT*%
X153725200Y-93500200D03*
%TO.P,U1,J2-12,IO14*%
%TO.N,SW_SCAN*%
X153725200Y-96040200D03*
%TO.P,U1,J2-13,IO12*%
%TO.N,CLK-2*%
X153725200Y-98580200D03*
%TO.P,U1,J2-14,GND1*%
%TO.N,unconnected-(U1-GND1-PadJ2-14)*%
X153725200Y-101120200D03*
%TO.P,U1,J2-15,IO13*%
%TO.N,DT-2*%
X153725200Y-103660200D03*
%TO.P,U1,J2-16,SD2*%
%TO.N,unconnected-(U1-SD2-PadJ2-16)*%
X153725200Y-106200200D03*
%TO.P,U1,J2-17,SD3*%
%TO.N,unconnected-(U1-SD3-PadJ2-17)*%
X153725200Y-108740200D03*
%TO.P,U1,J2-18,CMD*%
%TO.N,unconnected-(U1-CMD-PadJ2-18)*%
X153725200Y-111280200D03*
%TO.P,U1,J2-19,EXT_5V*%
%TO.N,+5V*%
X153725200Y-113820200D03*
%TO.P,U1,J3-1,GND3*%
%TO.N,GND*%
X179125200Y-68100200D03*
%TO.P,U1,J3-2,IO23*%
%TO.N,MOSI*%
X179125200Y-70640200D03*
%TO.P,U1,J3-3,IO22*%
%TO.N,SDA*%
X179125200Y-73180200D03*
%TO.P,U1,J3-4,TXD0*%
%TO.N,unconnected-(U1-TXD0-PadJ3-4)*%
X179125200Y-75720200D03*
%TO.P,U1,J3-5,RXD0*%
%TO.N,unconnected-(U1-RXD0-PadJ3-5)*%
X179125200Y-78260200D03*
%TO.P,U1,J3-6,IO21*%
%TO.N,SCL*%
X179125200Y-80800200D03*
%TO.P,U1,J3-7,GND2*%
%TO.N,unconnected-(U1-GND2-PadJ3-7)*%
X179125200Y-83340200D03*
%TO.P,U1,J3-8,IO19*%
%TO.N,unconnected-(U1-IO19-PadJ3-8)*%
X179125200Y-85880200D03*
%TO.P,U1,J3-9,IO18*%
%TO.N,SCK*%
X179125200Y-88420200D03*
%TO.P,U1,J3-10,IO5*%
%TO.N,CS*%
X179125200Y-90960200D03*
%TO.P,U1,J3-11,IO17*%
%TO.N,RST*%
X179125200Y-93500200D03*
%TO.P,U1,J3-12,IO16*%
%TO.N,D{slash}C*%
X179125200Y-96040200D03*
%TO.P,U1,J3-13,IO4*%
%TO.N,RTTY IN*%
X179125200Y-98580200D03*
%TO.P,U1,J3-14,IO0*%
%TO.N,unconnected-(U1-IO0-PadJ3-14)*%
X179125200Y-101120200D03*
%TO.P,U1,J3-15,IO2*%
%TO.N,TX*%
X179125200Y-103660200D03*
%TO.P,U1,J3-16,IO15*%
%TO.N,METER*%
X179125200Y-106200200D03*
%TO.P,U1,J3-17,SD1*%
%TO.N,unconnected-(U1-SD1-PadJ3-17)*%
X179125200Y-108740200D03*
%TO.P,U1,J3-18,SD0*%
%TO.N,unconnected-(U1-SD0-PadJ3-18)*%
X179125200Y-111280200D03*
%TO.P,U1,J3-19,CLK*%
%TO.N,unconnected-(U1-CLK-PadJ3-19)*%
X179125200Y-113820200D03*
%TD*%
D23*
%TO.P,H1,1,1*%
%TO.N,GND*%
X204500000Y-113500000D03*
D24*
X204500000Y-113500000D03*
%TD*%
D25*
%TO.P,C3,1*%
%TO.N,+5V*%
X187582199Y-71805627D03*
D16*
%TO.P,C3,2*%
%TO.N,GND*%
X185582199Y-71805627D03*
%TD*%
D27*
%TO.P,U5,1,A0*%
%TO.N,GND*%
X142930200Y-77955400D03*
D16*
%TO.P,U5,2,A1*%
X140390200Y-77955400D03*
%TO.P,U5,3,A2*%
X137850200Y-77955400D03*
%TO.P,U5,4,GND*%
X135310200Y-77955400D03*
%TO.P,U5,5,SDA*%
%TO.N,SDA*%
X135310200Y-85575400D03*
%TO.P,U5,6,SCL*%
%TO.N,SCL*%
X137850200Y-85575400D03*
%TO.P,U5,7,WP*%
%TO.N,GND*%
X140390200Y-85575400D03*
%TO.P,U5,8,VCC*%
%TO.N,+3.3V*%
X142930200Y-85575400D03*
%TD*%
D25*
%TO.P,D3,1,K*%
%TO.N,RTTY IN*%
X188932470Y-98841000D03*
D15*
%TO.P,D3,2,A*%
%TO.N,GND*%
X188932470Y-106461000D03*
%TD*%
D23*
%TO.P,H4,1,1*%
%TO.N,GND*%
X88500000Y-64000000D03*
D24*
X88500000Y-64000000D03*
%TD*%
D16*
%TO.P,C1,1*%
%TO.N,+9V*%
X192283665Y-64987627D03*
%TO.P,C1,2*%
%TO.N,GND*%
X197283665Y-64987627D03*
%TD*%
D21*
%TO.P,U4,1,VI*%
%TO.N,+9V*%
X205812829Y-82671464D03*
D22*
%TO.P,U4,2,GND*%
%TO.N,GND*%
X205812829Y-85211464D03*
%TO.P,U4,3,VO*%
%TO.N,+5V*%
X205812829Y-87751464D03*
%TD*%
D28*
%TO.P,D4,1,K*%
%TO.N,Net-(D4-K)*%
X200314229Y-74627464D03*
D29*
%TO.P,D4,2,A*%
%TO.N,+12V*%
X200314229Y-84787464D03*
%TD*%
D18*
%TO.P,J4,1,Pin_1*%
%TO.N,Net-(J4-Pin_1)*%
X129214376Y-109702619D03*
D17*
%TO.P,J4,2,Pin_2*%
%TO.N,GND*%
X129214376Y-112202619D03*
%TD*%
D23*
%TO.P,H3,1,1*%
%TO.N,GND*%
X204500000Y-64000000D03*
D24*
X204500000Y-64000000D03*
%TD*%
D27*
%TO.P,U2,1,A0*%
%TO.N,GND*%
X130828200Y-77995800D03*
D16*
%TO.P,U2,2,A1*%
X128288200Y-77995800D03*
%TO.P,U2,3,A2*%
X125748200Y-77995800D03*
%TO.P,U2,4,P0*%
%TO.N,Net-(J2-Pin_1)*%
X123208200Y-77995800D03*
%TO.P,U2,5,P1*%
%TO.N,Net-(J2-Pin_2)*%
X120668200Y-77995800D03*
%TO.P,U2,6,P2*%
%TO.N,Net-(J2-Pin_3)*%
X118128200Y-77995800D03*
%TO.P,U2,7,P3*%
%TO.N,Net-(J3-Pin_1)*%
X115588200Y-77995800D03*
%TO.P,U2,8,GND*%
%TO.N,GND*%
X113048200Y-77995800D03*
%TO.P,U2,9,P4*%
%TO.N,Net-(J3-Pin_2)*%
X113048200Y-85615800D03*
%TO.P,U2,10,P5*%
%TO.N,Net-(J4-Pin_1)*%
X115588200Y-85615800D03*
%TO.P,U2,11,P6*%
%TO.N,Net-(J5-Pin_1)*%
X118128200Y-85615800D03*
%TO.P,U2,12,P7*%
%TO.N,Net-(J6-Pin_1)*%
X120668200Y-85615800D03*
%TO.P,U2,13,~{INT}*%
%TO.N,unconnected-(U2-~{INT}-Pad13)*%
X123208200Y-85615800D03*
%TO.P,U2,14,SCL*%
%TO.N,SCL*%
X125748200Y-85615800D03*
%TO.P,U2,15,SDA*%
%TO.N,SDA*%
X128288200Y-85615800D03*
%TO.P,U2,16,VDD*%
%TO.N,+3.3V*%
X130828200Y-85615800D03*
%TD*%
D25*
%TO.P,RN1,1,common*%
%TO.N,+3.3V*%
X118407600Y-97012200D03*
D15*
%TO.P,RN1,2,R1*%
%TO.N,Net-(J2-Pin_1)*%
X120947600Y-97012200D03*
%TO.P,RN1,3,R2*%
%TO.N,Net-(J2-Pin_2)*%
X123487600Y-97012200D03*
%TO.P,RN1,4,R3*%
%TO.N,Net-(J2-Pin_3)*%
X126027600Y-97012200D03*
%TO.P,RN1,5,R4*%
%TO.N,Net-(J3-Pin_1)*%
X128567600Y-97012200D03*
%TO.P,RN1,6,R5*%
%TO.N,Net-(J3-Pin_2)*%
X131107600Y-97012200D03*
%TO.P,RN1,7,R6*%
%TO.N,Net-(J4-Pin_1)*%
X133647600Y-97012200D03*
%TO.P,RN1,8,R7*%
%TO.N,Net-(J5-Pin_1)*%
X136187600Y-97012200D03*
%TO.P,RN1,9,R8*%
%TO.N,Net-(J6-Pin_1)*%
X138727600Y-97012200D03*
%TD*%
D25*
%TO.P,D1,1,K*%
%TO.N,METER*%
X203170970Y-106461000D03*
D15*
%TO.P,D1,2,A*%
%TO.N,Net-(D1-A)*%
X203170970Y-98841000D03*
%TD*%
D25*
%TO.P,D2,1,K*%
%TO.N,Net-(D1-A)*%
X198591470Y-98841000D03*
D15*
%TO.P,D2,2,A*%
%TO.N,GND*%
X198591470Y-106461000D03*
%TD*%
D18*
%TO.P,J7,1,Pin_1*%
%TO.N,TX*%
X148488400Y-109728000D03*
D17*
%TO.P,J7,2,Pin_2*%
%TO.N,GND*%
X148488400Y-112228000D03*
%TD*%
D13*
%TO.P,J12,1,Pin_1*%
%TO.N,CLK*%
X96168800Y-66144400D03*
D12*
%TO.P,J12,2,Pin_2*%
%TO.N,DT*%
X98708800Y-66144400D03*
%TO.P,J12,3,Pin_3*%
%TO.N,+9V*%
X101248800Y-66144400D03*
%TO.P,J12,4,Pin_4*%
%TO.N,SW_RTTY_CW*%
X103788800Y-66144400D03*
%TO.P,J12,5,Pin_5*%
%TO.N,SW_STEP*%
X106328800Y-66144400D03*
%TO.P,J12,6,Pin_6*%
%TO.N,SW_SCAN*%
X108868800Y-66144400D03*
%TO.P,J12,7,Pin_7*%
%TO.N,+3.3V*%
X111408800Y-66144400D03*
%TO.P,J12,8,Pin_8*%
%TO.N,GND*%
X113948800Y-66144400D03*
%TO.P,J12,9,Pin_9*%
%TO.N,CS*%
X116488800Y-66144400D03*
%TO.P,J12,10,Pin_10*%
%TO.N,RST*%
X119028800Y-66144400D03*
%TO.P,J12,11,Pin_11*%
%TO.N,D{slash}C*%
X121568800Y-66144400D03*
%TO.P,J12,12,Pin_12*%
%TO.N,MOSI*%
X124108800Y-66144400D03*
%TO.P,J12,13,Pin_13*%
%TO.N,SCK*%
X126648800Y-66144400D03*
%TO.P,J12,14,Pin_14*%
%TO.N,SW_BAND*%
X129188800Y-66144400D03*
%TO.P,J12,15,Pin_15*%
%TO.N,SW_MODE*%
X131728800Y-66144400D03*
%TO.P,J12,16,Pin_16*%
%TO.N,SW_AGC*%
X134268800Y-66144400D03*
%TO.P,J12,17,Pin_17*%
%TO.N,SW_ATT*%
X136808800Y-66144400D03*
%TO.P,J12,18,Pin_18*%
%TO.N,GND*%
X139348800Y-66144400D03*
%TO.P,J12,19,Pin_19*%
%TO.N,CLK-2*%
X141888800Y-66144400D03*
%TO.P,J12,20,Pin_20*%
%TO.N,DT-2*%
X144428800Y-66144400D03*
%TD*%
D30*
%TO.P,J11,1,Pin_1*%
%TO.N,GND*%
X186639200Y-79527400D03*
D31*
%TO.P,J11,2,Pin_2*%
%TO.N,+5V*%
X189139200Y-79527400D03*
%TO.P,J11,3,Pin_3*%
%TO.N,+9V*%
X191639200Y-79527400D03*
%TO.P,J11,4,Pin_4*%
%TO.N,+12V*%
X194139200Y-79527400D03*
%TD*%
D32*
%TO.N,SCL*%
X176022000Y-96926400D03*
X176022000Y-86969600D03*
%TO.N,GND*%
X175873800Y-65763400D03*
%TO.N,SDA*%
X138479100Y-81939100D03*
X144106303Y-70949300D03*
%TO.N,+3.3V*%
X150905800Y-85547200D03*
%TO.N,DT*%
X123500726Y-71362604D03*
X108559600Y-71399400D03*
%TO.N,SW_STEP*%
X124500000Y-72452300D03*
%TO.N,CLK-2*%
X145622600Y-95707200D03*
%TO.N,SW_BAND*%
X141452400Y-82846900D03*
%TO.N,SW_MODE*%
X148127700Y-66118509D03*
%TO.N,SW_SCAN*%
X121462800Y-62788800D03*
X160629600Y-63960000D03*
%TO.N,SW_RTTY_CW*%
X115417600Y-70307200D03*
X108559600Y-70307200D03*
%TO.N,SCK*%
X173345803Y-70868800D03*
%TO.N,D{slash}C*%
X164164600Y-67693800D03*
%TO.N,MOSI*%
X173345803Y-64863400D03*
%TO.N,RST*%
X164236400Y-63963400D03*
%TO.N,CS*%
X172345800Y-70868800D03*
%TD*%
D33*
%TO.N,MOSI*%
X175010400Y-70640200D02*
X179125200Y-70640200D01*
X174426200Y-70056000D02*
X175010400Y-70640200D01*
X174426200Y-65484000D02*
X174426200Y-70056000D01*
X173126400Y-64863400D02*
X173805600Y-64863400D01*
X173805600Y-64863400D02*
X174426200Y-65484000D01*
%TO.N,SDA*%
X144128100Y-81939100D02*
X138479100Y-81939100D01*
X144708200Y-81359000D02*
X144128100Y-81939100D01*
X144708200Y-73752600D02*
X144708200Y-81359000D01*
X144722600Y-73738200D02*
X144708200Y-73752600D01*
X144106303Y-70949300D02*
X144722600Y-71565597D01*
X144722600Y-71565597D02*
X144722600Y-73738200D01*
%TO.N,SW_MODE*%
X150677200Y-88420200D02*
X153725200Y-88420200D01*
X149762800Y-87505800D02*
X150677200Y-88420200D01*
X149762800Y-67753609D02*
X149762800Y-87505800D01*
X148127700Y-66118509D02*
X149762800Y-67753609D01*
%TO.N,SW_AGC*%
X149559600Y-90960200D02*
X153725200Y-90960200D01*
X147227700Y-66846600D02*
X148670600Y-68289500D01*
X148670600Y-68289500D02*
X148670600Y-90071200D01*
X147227700Y-64650700D02*
X147227700Y-66846600D01*
X134268800Y-64544200D02*
X135414600Y-63398400D01*
X135414600Y-63398400D02*
X145975400Y-63398400D01*
X134268800Y-66144400D02*
X134268800Y-64544200D01*
X145975400Y-63398400D02*
X147227700Y-64650700D01*
X148670600Y-90071200D02*
X149559600Y-90960200D01*
%TO.N,CLK*%
X155829000Y-76156400D02*
X153725200Y-78260200D01*
X155829000Y-62128400D02*
X155829000Y-76156400D01*
X154660600Y-60960000D02*
X155829000Y-62128400D01*
X97307400Y-60960000D02*
X154660600Y-60960000D01*
X96168800Y-62098600D02*
X97307400Y-60960000D01*
X96168800Y-66144400D02*
X96168800Y-62098600D01*
%TO.N,SW_SCAN*%
X108868800Y-63579000D02*
X108868800Y-66144400D01*
X121462800Y-62788800D02*
X109659000Y-62788800D01*
X109659000Y-62788800D02*
X108868800Y-63579000D01*
%TO.N,SCL*%
X177517800Y-80800200D02*
X179125200Y-80800200D01*
X176022000Y-82296000D02*
X177517800Y-80800200D01*
X176022000Y-86969600D02*
X176022000Y-82296000D01*
X176022000Y-96926400D02*
X176022000Y-96875600D01*
X144117900Y-84096100D02*
X137929100Y-84096100D01*
X144606600Y-84584800D02*
X144117900Y-84096100D01*
X151638000Y-106375200D02*
X144606600Y-99343800D01*
X144606600Y-99343800D02*
X144606600Y-84584800D01*
X166299600Y-115647600D02*
X151969600Y-115647600D01*
X168863600Y-113083600D02*
X166299600Y-115647600D01*
X151969600Y-115647600D02*
X151638000Y-115316000D01*
X168863600Y-110216415D02*
X168863600Y-113083600D01*
X176022000Y-103058015D02*
X168863600Y-110216415D01*
X176022000Y-96926400D02*
X176022000Y-103058015D01*
X151638000Y-115316000D02*
X151638000Y-106375200D01*
%TO.N,SCK*%
X174780200Y-88420200D02*
X179125200Y-88420200D01*
X173334000Y-86974000D02*
X174780200Y-88420200D01*
X173334000Y-70880603D02*
X173334000Y-86974000D01*
%TO.N,CS*%
X175847000Y-90960200D02*
X179125200Y-90960200D01*
X172345800Y-87459000D02*
X175847000Y-90960200D01*
X172345800Y-70868800D02*
X172345800Y-87459000D01*
%TO.N,RST*%
X176812200Y-93500200D02*
X179125200Y-93500200D01*
X171276600Y-67974800D02*
X171276600Y-87964600D01*
X169316400Y-63957200D02*
X169964100Y-64604900D01*
X167259000Y-63957200D02*
X169316400Y-63957200D01*
X167252800Y-63963400D02*
X167259000Y-63957200D01*
X169964100Y-64604900D02*
X169964100Y-66662300D01*
X169964100Y-66662300D02*
X171276600Y-67974800D01*
X171276600Y-87964600D02*
X176812200Y-93500200D01*
X164236400Y-63963400D02*
X167252800Y-63963400D01*
%TO.N,D{slash}C*%
X177726600Y-96040200D02*
X179125200Y-96040200D01*
X170180000Y-88493600D02*
X177726600Y-96040200D01*
X170180000Y-68349800D02*
X170180000Y-88493600D01*
X169524000Y-67693800D02*
X170180000Y-68349800D01*
X164063000Y-67693800D02*
X169524000Y-67693800D01*
%TO.N,TX*%
X149809200Y-109728000D02*
X149148800Y-109728000D01*
X150837000Y-115647785D02*
X150837000Y-110755800D01*
X151637814Y-116448600D02*
X150837000Y-115647785D01*
X169664600Y-113415386D02*
X166631385Y-116448600D01*
X166631385Y-116448600D02*
X151637814Y-116448600D01*
X169664600Y-110548200D02*
X169664600Y-113415386D01*
X176552600Y-103660200D02*
X169664600Y-110548200D01*
X150837000Y-110755800D02*
X149809200Y-109728000D01*
X179125200Y-103660200D02*
X176552600Y-103660200D01*
%TO.N,+3.3V*%
X112060981Y-104702619D02*
X109940352Y-104702619D01*
X118372600Y-98391000D02*
X112060981Y-104702619D01*
X118372600Y-96977200D02*
X118372600Y-98391000D01*
X118408000Y-97012600D02*
X118372600Y-96977200D01*
%TO.N,Net-(J2-Pin_1)*%
X116475093Y-103488907D02*
X120947600Y-99016400D01*
X120947600Y-99016400D02*
X120947600Y-97012200D01*
X116475093Y-104530560D02*
X116475093Y-103488907D01*
X116647152Y-104702619D02*
X116475093Y-104530560D01*
%TO.N,Net-(J3-Pin_1)*%
X128568000Y-100090000D02*
X128568000Y-97012600D01*
X122834400Y-107202619D02*
X122834400Y-105823600D01*
X122834400Y-105823600D02*
X128568000Y-100090000D01*
X128568000Y-97012600D02*
X128567600Y-97012200D01*
%TO.N,Net-(J6-Pin_1)*%
X138728000Y-99813600D02*
X142063725Y-103149325D01*
X142063725Y-103149325D02*
X142063725Y-109702619D01*
X138728000Y-97012200D02*
X138728000Y-99813600D01*
%TO.N,Net-(J4-Pin_1)*%
X129235200Y-104452000D02*
X133648000Y-100039200D01*
X129235200Y-109681795D02*
X129235200Y-104452000D01*
X129214376Y-109702619D02*
X129235200Y-109681795D01*
X133648000Y-100039200D02*
X133648000Y-97012200D01*
X129214376Y-109609191D02*
X129214376Y-109702619D01*
X129590800Y-109232767D02*
X129214376Y-109609191D01*
%TO.N,Net-(J5-Pin_1)*%
X135585200Y-99349200D02*
X136188000Y-98746400D01*
X135585200Y-109702619D02*
X135585200Y-99349200D01*
X135608648Y-109702619D02*
X135585200Y-109702619D01*
%TO.N,GND*%
X149148800Y-112228000D02*
X149123419Y-112202619D01*
X149123419Y-112202619D02*
X109940352Y-112202619D01*
D34*
X197459600Y-117449600D02*
X197713600Y-117195600D01*
X92303600Y-117449600D02*
X197459600Y-117449600D01*
X88500000Y-113500000D02*
X88500000Y-113646000D01*
X88500000Y-113646000D02*
X92303600Y-117449600D01*
D33*
%TO.N,Net-(J2-Pin_2)*%
X123488000Y-99778000D02*
X123488000Y-97012200D01*
X118465600Y-106730800D02*
X118465600Y-104800400D01*
X118465600Y-104800400D02*
X123488000Y-99778000D01*
X117969400Y-107227000D02*
X118465600Y-106730800D01*
X116499474Y-107227000D02*
X117969400Y-107227000D01*
X116475093Y-107202619D02*
X116499474Y-107227000D01*
%TO.N,Net-(J2-Pin_3)*%
X126028000Y-100065000D02*
X126028000Y-97012200D01*
X120294400Y-105798600D02*
X126028000Y-100065000D01*
X118517400Y-109727000D02*
X120294400Y-107950000D01*
X118280434Y-109702619D02*
X118304815Y-109727000D01*
X116647152Y-109702619D02*
X118280434Y-109702619D01*
X118304815Y-109727000D02*
X118517400Y-109727000D01*
X120294400Y-107950000D02*
X120294400Y-105798600D01*
%TO.N,Net-(J3-Pin_2)*%
X131108000Y-100039200D02*
X131108000Y-97012200D01*
X125730000Y-108610400D02*
X125730000Y-105417200D01*
X125730000Y-105417200D02*
X131108000Y-100039200D01*
X124637781Y-109702619D02*
X125730000Y-108610400D01*
X123353852Y-109702619D02*
X124637781Y-109702619D01*
%TO.N,Net-(J2-Pin_2)*%
X116647152Y-107202619D02*
X116475093Y-107202619D01*
%TO.N,GND*%
X109940352Y-111971152D02*
X100969000Y-102999800D01*
X109940352Y-112202619D02*
X109940352Y-111971152D01*
%TO.N,SDA*%
X109915971Y-109727000D02*
X109940352Y-109702619D01*
X109881000Y-109727000D02*
X109915971Y-109727000D01*
X105841000Y-105686800D02*
X109881000Y-109727000D01*
X105841000Y-88719600D02*
X105841000Y-105686800D01*
X104531000Y-87409600D02*
X105841000Y-88719600D01*
X103397000Y-87409600D02*
X104531000Y-87409600D01*
%TO.N,SCL*%
X104734000Y-84869600D02*
X103397000Y-84869600D01*
X106642000Y-104582800D02*
X106642000Y-86777400D01*
X109286000Y-107227000D02*
X106642000Y-104582800D01*
%TO.N,GND*%
X101955000Y-82329600D02*
X103397000Y-82329600D01*
%TO.N,SCL*%
X109915971Y-107227000D02*
X109286000Y-107227000D01*
X109940352Y-107202619D02*
X109915971Y-107227000D01*
%TO.N,+3.3V*%
X106171000Y-79789600D02*
X103397000Y-79789600D01*
X107443000Y-81050600D02*
X106176000Y-79784200D01*
X107443000Y-103529600D02*
X107443000Y-81050600D01*
X109940352Y-104702619D02*
X109915971Y-104727000D01*
X108640000Y-104727000D02*
X107443000Y-103529600D01*
X109915971Y-104727000D02*
X108640000Y-104727000D01*
%TO.N,SCL*%
X106642000Y-86777400D02*
X104734000Y-84869600D01*
%TO.N,GND*%
X100969000Y-83314800D02*
X101955000Y-82329600D01*
X100969000Y-102999800D02*
X100969000Y-83314800D01*
%TO.N,+3.3V*%
X106176000Y-79784200D02*
X106171000Y-79789600D01*
D34*
%TO.N,+9V*%
X193601286Y-68709486D02*
X193601286Y-71831027D01*
X192283665Y-67391865D02*
X193601286Y-68709486D01*
X191639200Y-77600800D02*
X191639200Y-79527400D01*
X193598800Y-71833513D02*
X193601286Y-71831027D01*
X205816200Y-82668093D02*
X205812829Y-82671464D01*
X205816200Y-76408835D02*
X205816200Y-82668093D01*
X200710800Y-76708000D02*
X192532000Y-76708000D01*
X192532000Y-76708000D02*
X191639200Y-77600800D01*
X205816200Y-79603600D02*
X203606400Y-79603600D01*
X193598800Y-76708000D02*
X193598800Y-71833513D01*
X192283665Y-64987627D02*
X192283665Y-67391865D01*
X203606400Y-79603600D02*
X200710800Y-76708000D01*
X205891293Y-76327000D02*
X205812829Y-76405464D01*
X205812829Y-76405464D02*
X205816200Y-76408835D01*
D33*
%TO.N,GND*%
X137850200Y-77955400D02*
X135310200Y-77955400D01*
X113872600Y-80368400D02*
X113048200Y-79544000D01*
D35*
X187985400Y-110439200D02*
X188932470Y-109492130D01*
D34*
X184127086Y-71805800D02*
X184127086Y-79603600D01*
D33*
X113048200Y-79544000D02*
X113048200Y-77995800D01*
D35*
X197800600Y-109590200D02*
X197800600Y-112522000D01*
D34*
X200474200Y-64000000D02*
X204500000Y-64000000D01*
D33*
X179099600Y-65763400D02*
X179125000Y-65738000D01*
D34*
X184127259Y-71805627D02*
X185582199Y-71805627D01*
X205891293Y-85133000D02*
X205812829Y-85211464D01*
D35*
X198628000Y-104546400D02*
X198628000Y-106424470D01*
D33*
X142930200Y-77955400D02*
X140390200Y-77955400D01*
D34*
X207949800Y-110058200D02*
X204508000Y-113500000D01*
X205891293Y-73787000D02*
X205812829Y-73865464D01*
X186237162Y-79252362D02*
X186512200Y-79527400D01*
X204500000Y-113508000D02*
X204500000Y-113500000D01*
X204508000Y-113500000D02*
X204500000Y-113500000D01*
X186512200Y-79527400D02*
X186639200Y-79527400D01*
X184127086Y-87835686D02*
X185597800Y-89306400D01*
D33*
X128288200Y-77995800D02*
X125748200Y-77995800D01*
D35*
X187985400Y-112516170D02*
X187985400Y-110439200D01*
D34*
X197283665Y-64987627D02*
X197283665Y-67473648D01*
D35*
X197800600Y-112522000D02*
X197800600Y-117108600D01*
D34*
X197283665Y-62202735D02*
X197283665Y-64987627D01*
X88396400Y-113396400D02*
X88396400Y-62603600D01*
D35*
X198591470Y-106461000D02*
X198591470Y-108799330D01*
D33*
X125748200Y-77995800D02*
X125748200Y-79541800D01*
D34*
X184127086Y-79603600D02*
X184127086Y-87835686D01*
X184127086Y-64973027D02*
X184127086Y-62202114D01*
X186639200Y-79527400D02*
X184203286Y-79527400D01*
X207949800Y-73787000D02*
X205891293Y-73787000D01*
X207949800Y-67449800D02*
X207949800Y-110058200D01*
X197283665Y-67473648D02*
X196101286Y-68656027D01*
X200812400Y-117195600D02*
X204500000Y-113508000D01*
X184127086Y-71805800D02*
X184127259Y-71805627D01*
D33*
X139348800Y-67490600D02*
X140390200Y-68532000D01*
D34*
X181406800Y-62179200D02*
X184150000Y-62179200D01*
X179125000Y-68100200D02*
X179125000Y-65331400D01*
X179125000Y-64461000D02*
X181406800Y-62179200D01*
D35*
X197945000Y-103863400D02*
X198628000Y-104546400D01*
D34*
X179125000Y-68100600D02*
X179125000Y-68100200D01*
D33*
X140390200Y-77955400D02*
X137850200Y-77955400D01*
D34*
X185597800Y-89306400D02*
X189001400Y-89306400D01*
X184203286Y-79527400D02*
X184127086Y-79603600D01*
D33*
X139348800Y-66144400D02*
X139348800Y-67490600D01*
X140390200Y-68532000D02*
X140390200Y-77955400D01*
D35*
X187824370Y-112677200D02*
X187985400Y-112516170D01*
D34*
X184127086Y-64973027D02*
X184127086Y-71805800D01*
X197307200Y-62179200D02*
X197283665Y-62202735D01*
D35*
X188932470Y-109492130D02*
X188932470Y-104640730D01*
D34*
X196101286Y-68656027D02*
X196101286Y-71831027D01*
X184127086Y-62202114D02*
X184150000Y-62179200D01*
D33*
X130828200Y-77995800D02*
X128288200Y-77995800D01*
D35*
X188932470Y-104640730D02*
X189709800Y-103863400D01*
D34*
X207949800Y-85133000D02*
X205891293Y-85133000D01*
X88500000Y-113500000D02*
X88396400Y-113396400D01*
X189001400Y-89306400D02*
X189052200Y-89255600D01*
D33*
X124921600Y-80368400D02*
X113872600Y-80368400D01*
X125748200Y-79541800D02*
X124921600Y-80368400D01*
X179125000Y-65738000D02*
X179125000Y-65331400D01*
X179125200Y-68100200D02*
X179125000Y-68100200D01*
D34*
X197713600Y-117195600D02*
X200812400Y-117195600D01*
D35*
X198628000Y-106424470D02*
X198591470Y-106461000D01*
D34*
X204500000Y-64000000D02*
X207949800Y-67449800D01*
D33*
X175873800Y-65763400D02*
X179099600Y-65763400D01*
D35*
X198591470Y-108799330D02*
X197800600Y-109590200D01*
D34*
X184150000Y-62179200D02*
X198653400Y-62179200D01*
X179125000Y-65331400D02*
X179125000Y-64461000D01*
X198653400Y-62179200D02*
X200474200Y-64000000D01*
D35*
X197800600Y-117108600D02*
X197713600Y-117195600D01*
X189709800Y-103863400D02*
X197945000Y-103863400D01*
D34*
%TO.N,+5V*%
X187582199Y-75085599D02*
X189139200Y-76642600D01*
X187582199Y-68602201D02*
X187582199Y-71805627D01*
X187582199Y-71805627D02*
X187582199Y-75085599D01*
X189127086Y-67057314D02*
X187582199Y-68602201D01*
X189127086Y-64973027D02*
X189127086Y-67057314D01*
X189139200Y-76642600D02*
X189139200Y-79527400D01*
%TO.N,Net-(D4-K)*%
X201431829Y-71325464D02*
X200314229Y-72443064D01*
X205812829Y-71325464D02*
X201431829Y-71325464D01*
X200314229Y-72443064D02*
X200314229Y-74627464D01*
D35*
%TO.N,Net-(D1-A)*%
X198591470Y-98841000D02*
X196690570Y-98841000D01*
X195420570Y-97571000D02*
X193761970Y-97571000D01*
X196690570Y-98841000D02*
X195420570Y-97571000D01*
X203170970Y-98841000D02*
X198591470Y-98841000D01*
%TO.N,METER*%
X183055000Y-101272600D02*
X181813200Y-102514400D01*
X203174600Y-106457370D02*
X203174600Y-103147800D01*
X181813200Y-105214000D02*
X180827000Y-106200200D01*
X180827000Y-106200200D02*
X179125200Y-106200200D01*
X203170970Y-106461000D02*
X203174600Y-106457370D01*
X181813200Y-102514400D02*
X181813200Y-105214000D01*
X201299400Y-101272600D02*
X183055000Y-101272600D01*
X203174600Y-103147800D02*
X201299400Y-101272600D01*
X179125200Y-106200200D02*
X179125000Y-106200200D01*
D33*
%TO.N,Net-(J5-Pin_1)*%
X136188000Y-98746400D02*
X136188000Y-90999800D01*
X135003600Y-89815400D02*
X118722000Y-89815400D01*
X136188000Y-90999800D02*
X135003600Y-89815400D01*
X118128000Y-89221400D02*
X118128000Y-87418600D01*
X118722000Y-89815400D02*
X118128000Y-89221400D01*
X118128200Y-87418400D02*
X118128200Y-85615800D01*
X118128000Y-87418600D02*
X118128000Y-85615800D01*
X136188000Y-98746400D02*
X136187600Y-98746000D01*
X136187600Y-98746000D02*
X136187600Y-97012200D01*
X118128000Y-87418600D02*
X118128200Y-87418400D01*
%TO.N,Net-(J6-Pin_1)*%
X138728000Y-90060000D02*
X137682400Y-89014400D01*
X120668200Y-87151700D02*
X120668200Y-85615800D01*
X120668000Y-87151900D02*
X120668200Y-87151700D01*
X138728000Y-97012200D02*
X138728000Y-90060000D01*
X138727600Y-97012200D02*
X138728000Y-97012200D01*
X120668000Y-87151900D02*
X120668000Y-85615800D01*
X120668000Y-88688000D02*
X120668000Y-87151900D01*
X137682400Y-89014400D02*
X120995000Y-89014400D01*
X120995000Y-89014400D02*
X120668000Y-88688000D01*
D35*
%TO.N,Net-(J8-Pin_1)*%
X184099200Y-109347000D02*
X185470800Y-110718600D01*
X184099200Y-107731000D02*
X184099200Y-109347000D01*
X185470800Y-110718600D02*
X185470800Y-111937400D01*
%TO.N,Net-(J9-Pin_1)*%
X195300600Y-112522000D02*
X195247000Y-112575600D01*
X194954600Y-107731000D02*
X195300600Y-108077000D01*
X195300600Y-108077000D02*
X195300600Y-112522000D01*
X193761970Y-107731000D02*
X194954600Y-107731000D01*
D33*
%TO.N,Net-(J2-Pin_2)*%
X109045000Y-75181200D02*
X110413800Y-73812400D01*
X123488000Y-94352600D02*
X122967600Y-93832200D01*
X110413800Y-73812400D02*
X118795800Y-73812400D01*
X109045000Y-87305800D02*
X109045000Y-75181200D01*
X122967600Y-93832200D02*
X115571000Y-93832200D01*
X118795800Y-73812400D02*
X120668000Y-75684600D01*
X123488000Y-97012200D02*
X123488000Y-94352600D01*
X120668000Y-77995800D02*
X120668200Y-77995800D01*
X120668000Y-75684600D02*
X120668000Y-77995800D01*
X115571000Y-93832200D02*
X109045000Y-87305800D01*
X123487600Y-97012200D02*
X123488000Y-97012200D01*
%TO.N,SDA*%
X134599000Y-83543400D02*
X135310000Y-84254600D01*
X128288200Y-85615800D02*
X128288000Y-85615800D01*
X128288000Y-85615800D02*
X128288000Y-84012200D01*
X135310000Y-84254600D02*
X135310000Y-85575400D01*
X128288000Y-84012200D02*
X128757000Y-83543400D01*
X135310200Y-85575400D02*
X135310000Y-85575400D01*
X128757000Y-83543400D02*
X134599000Y-83543400D01*
%TO.N,SCL*%
X125748000Y-85615800D02*
X125748000Y-85518100D01*
X125748000Y-85615600D02*
X125748000Y-85518100D01*
X136878900Y-84096100D02*
X137929100Y-84096100D01*
X137850000Y-84813400D02*
X137850200Y-84813600D01*
X125748000Y-84113800D02*
X127159400Y-82702400D01*
X135485200Y-82702400D02*
X136878900Y-84096100D01*
X125748200Y-85615800D02*
X125748000Y-85615600D01*
X137850200Y-84813600D02*
X137850200Y-85575400D01*
X137850000Y-84175200D02*
X137850000Y-84813400D01*
X125748000Y-85518100D02*
X125748000Y-84113800D01*
X137929100Y-84096100D02*
X137850000Y-84175200D01*
X137850000Y-84813400D02*
X137850000Y-85575400D01*
X127159400Y-82702400D02*
X135485200Y-82702400D01*
%TO.N,+3.3V*%
X130828000Y-87138551D02*
X131779449Y-88090000D01*
X130828200Y-86224600D02*
X130828200Y-85615800D01*
X142930000Y-87099400D02*
X142930000Y-86975600D01*
X142930200Y-85575400D02*
X142930200Y-86975400D01*
X141940000Y-88090000D02*
X142930000Y-87099400D01*
X150905800Y-70919600D02*
X153725200Y-68100200D01*
X142930000Y-86975600D02*
X142930000Y-85575400D01*
X142930200Y-86975400D02*
X142930000Y-86975600D01*
X130828000Y-86224800D02*
X130828000Y-87138551D01*
X150905800Y-85547200D02*
X150905800Y-70919600D01*
X130828000Y-86224800D02*
X130828200Y-86224600D01*
X130828000Y-85615800D02*
X130828000Y-86224800D01*
X131779449Y-88090000D02*
X141940000Y-88090000D01*
%TO.N,Net-(J2-Pin_3)*%
X126028000Y-93539800D02*
X125519400Y-93031200D01*
X109846000Y-75558814D02*
X110744000Y-74660814D01*
X118128000Y-75506800D02*
X118128000Y-76229700D01*
X125519400Y-93031200D02*
X115903000Y-93031200D01*
X110767815Y-74637000D02*
X117258200Y-74637000D01*
X110744000Y-74660814D02*
X110744000Y-74650600D01*
X110754214Y-74650600D02*
X110767815Y-74637000D01*
X118128000Y-76229700D02*
X118128000Y-77995800D01*
X117258200Y-74637000D02*
X118128000Y-75506800D01*
X118128200Y-75507000D02*
X118128200Y-77995800D01*
X126028000Y-97012200D02*
X126028000Y-93539800D01*
X118128000Y-75506800D02*
X118128200Y-75507000D01*
X126027600Y-97012200D02*
X126028000Y-97012200D01*
X115903000Y-93031200D02*
X109846000Y-86974000D01*
X109846000Y-86974000D02*
X109846000Y-75558814D01*
X110744000Y-74650600D02*
X110754214Y-74650600D01*
%TO.N,DT*%
X123494182Y-71362604D02*
X123500726Y-71362604D01*
X123470986Y-71385800D02*
X123494182Y-71362604D01*
X108559600Y-71399400D02*
X108573200Y-71385800D01*
X108573200Y-71385800D02*
X123470986Y-71385800D01*
%TO.N,SW_STEP*%
X107628200Y-72500000D02*
X106328800Y-71200600D01*
X123150700Y-72452300D02*
X122908800Y-72210400D01*
X124500000Y-72452300D02*
X123150700Y-72452300D01*
X109460630Y-72500000D02*
X107628200Y-72500000D01*
X109750230Y-72210400D02*
X109460630Y-72500000D01*
X106328800Y-71200600D02*
X106328800Y-66144400D01*
X122908800Y-72210400D02*
X109750230Y-72210400D01*
%TO.N,CLK-2*%
X141888800Y-67185800D02*
X141888800Y-66144400D01*
X145622600Y-95707200D02*
X145622600Y-70919600D01*
X145622600Y-70919600D02*
X141888800Y-67185800D01*
%TO.N,DT-2*%
X153725200Y-103660200D02*
X150169200Y-103660200D01*
X150169200Y-103660200D02*
X146613200Y-100104200D01*
X144428800Y-67596100D02*
X144428800Y-66144400D01*
X146613200Y-69780500D02*
X144428800Y-67596100D01*
X146613200Y-100104200D02*
X146613200Y-69780500D01*
%TO.N,SW_BAND*%
X133100400Y-80800200D02*
X134189800Y-81889600D01*
X129747600Y-70919600D02*
X132541600Y-70919600D01*
X132541600Y-70919600D02*
X133100400Y-71478400D01*
X129188800Y-70360800D02*
X129747600Y-70919600D01*
X133100400Y-71478400D02*
X133100400Y-80800200D01*
X134189800Y-81889600D02*
X136298000Y-81889600D01*
X136298000Y-81889600D02*
X137255300Y-82846900D01*
X137255300Y-82846900D02*
X141452400Y-82846900D01*
X129188800Y-66144400D02*
X129188800Y-70360800D01*
%TO.N,SW_ATT*%
X145560000Y-64278400D02*
X137557200Y-64278400D01*
X146426000Y-67178600D02*
X146426000Y-65144400D01*
X148442000Y-93500200D02*
X147603800Y-92662000D01*
X136808800Y-65026800D02*
X136808800Y-66144400D01*
X137557200Y-64278400D02*
X136808800Y-65026800D01*
X153725200Y-93500200D02*
X148442000Y-93500200D01*
X146426000Y-65144400D02*
X145560000Y-64278400D01*
X147603800Y-68356400D02*
X146426000Y-67178600D01*
X147603800Y-92662000D02*
X147603800Y-68356400D01*
%TO.N,SW_SCAN*%
X155528600Y-96040200D02*
X153725200Y-96040200D01*
X156845000Y-64675600D02*
X156845000Y-94723800D01*
X160629600Y-63960000D02*
X157560600Y-63960000D01*
X156845000Y-94723800D02*
X155528600Y-96040200D01*
X157560600Y-63960000D02*
X156845000Y-64675600D01*
%TO.N,SW_RTTY_CW*%
X115417600Y-70307200D02*
X108559600Y-70307200D01*
%TO.N,SCK*%
X173345803Y-70862899D02*
X173334000Y-70874702D01*
%TO.N,Net-(J3-Pin_1)*%
X110647000Y-86642200D02*
X110647000Y-75890600D01*
X116235000Y-92230200D02*
X110647000Y-86642200D01*
X115588000Y-75837000D02*
X115588000Y-76610700D01*
X115588000Y-76610700D02*
X115588000Y-77995800D01*
X111099600Y-75438000D02*
X115189000Y-75438000D01*
X115189000Y-75438000D02*
X115588000Y-75837000D01*
X128567600Y-97012200D02*
X128568000Y-97012200D01*
X115588200Y-76610900D02*
X115588200Y-77995800D01*
X128568000Y-97012200D02*
X128568000Y-92727000D01*
X128568000Y-92727000D02*
X128071200Y-92230200D01*
X128071200Y-92230200D02*
X116235000Y-92230200D01*
X115588000Y-76610700D02*
X115588200Y-76610900D01*
X110647000Y-75890600D02*
X111099600Y-75438000D01*
D35*
%TO.N,RTTY IN*%
X179151000Y-98605600D02*
X179125100Y-98580300D01*
X188932470Y-98841000D02*
X187165570Y-98841000D01*
X184102970Y-97571000D02*
X182438600Y-97571000D01*
X187165570Y-98841000D02*
X185895570Y-97571000D01*
X181404000Y-98605600D02*
X179151000Y-98605600D01*
X182438600Y-97571000D02*
X181404000Y-98605600D01*
X179125100Y-98580300D02*
X179125000Y-98580200D01*
D33*
X179125200Y-98580200D02*
X179125100Y-98580300D01*
D35*
X185895570Y-97571000D02*
X184102970Y-97571000D01*
X188189000Y-98841000D02*
X188932470Y-98841000D01*
D33*
%TO.N,Net-(J2-Pin_1)*%
X108244000Y-87637600D02*
X108244000Y-87637570D01*
X108244000Y-74849414D02*
X110082015Y-73011400D01*
X120466600Y-94633200D02*
X115902770Y-94633200D01*
X110082015Y-73011400D02*
X120611000Y-73011400D01*
X115902770Y-94633200D02*
X115902760Y-94633210D01*
X108244000Y-87637570D02*
X108243990Y-87637560D01*
X123208000Y-75608400D02*
X123208000Y-77995800D01*
X120948000Y-95114600D02*
X120466600Y-94633200D01*
X123208000Y-77995800D02*
X123208200Y-77995800D01*
X108244000Y-87305775D02*
X108244000Y-74849414D01*
X120948000Y-97012200D02*
X120948000Y-95114600D01*
X108243990Y-87637560D02*
X108244000Y-87305775D01*
X115239000Y-94633200D02*
X108244000Y-87637600D01*
X115902760Y-94633210D02*
X115570975Y-94633200D01*
X120947600Y-97012200D02*
X120948000Y-97012200D01*
X115570975Y-94633200D02*
X115239000Y-94633200D01*
X120611000Y-73011400D02*
X123208000Y-75608400D01*
%TO.N,Net-(J3-Pin_2)*%
X131108000Y-92092000D02*
X130433400Y-91417400D01*
X130433400Y-91417400D02*
X116616000Y-91417400D01*
X113048000Y-87849800D02*
X113048000Y-86732800D01*
X116616000Y-91417400D02*
X113048000Y-87849800D01*
X131107600Y-97012200D02*
X131108000Y-97012200D01*
X113048200Y-86732600D02*
X113048200Y-85615800D01*
X113048000Y-86732800D02*
X113048000Y-85615800D01*
X131108000Y-97012200D02*
X131108000Y-92092000D01*
X113048000Y-86732800D02*
X113048200Y-86732600D01*
%TO.N,Net-(J4-Pin_1)*%
X115588000Y-85615800D02*
X115588200Y-85615800D01*
X133648000Y-97012200D02*
X133648000Y-91609400D01*
X116948000Y-90616400D02*
X115588000Y-89257000D01*
X133647600Y-97012200D02*
X133648000Y-97012200D01*
X115588000Y-89257000D02*
X115588000Y-85615800D01*
X132655000Y-90616400D02*
X116948000Y-90616400D01*
X133648000Y-91609400D02*
X132655000Y-90616400D01*
D34*
%TO.N,+12V*%
X201783756Y-86256991D02*
X200314229Y-84787464D01*
X194139200Y-79527400D02*
X201091800Y-79527400D01*
X191603000Y-89306400D02*
X200863200Y-89306400D01*
X200863200Y-89306400D02*
X201783756Y-88385844D01*
X191552200Y-89255600D02*
X191603000Y-89306400D01*
X201091800Y-79527400D02*
X201783756Y-80219356D01*
X201783756Y-83317937D02*
X200314229Y-84787464D01*
X201783756Y-88385844D02*
X201783756Y-86256991D01*
X201783756Y-80219356D02*
X201783756Y-83317937D01*
%TD*%
M02*
