%TF.GenerationSoftware,KiCad,Pcbnew,9.0.4*%
%TF.CreationDate,2025-12-09T22:45:37+01:00*%
%TF.ProjectId,VFO BFO Si5351,56464f20-4246-44f2-9053-69353335312e,rev?*%
%TF.SameCoordinates,Original*%
%TF.FileFunction,Soldermask,Bot*%
%TF.FilePolarity,Negative*%
%FSLAX46Y46*%
G04 Gerber Fmt 4.6, Leading zero omitted, Abs format (unit mm)*
G04 Created by KiCad (PCBNEW 9.0.4) date 2025-12-09 22:45:37*
%MOMM*%
%LPD*%
G01*
G04 APERTURE LIST*
G04 Aperture macros list*
%AMRoundRect*
0 Rectangle with rounded corners*
0 $1 Rounding radius*
0 $2 $3 $4 $5 $6 $7 $8 $9 X,Y pos of 4 corners*
0 Add a 4 corners polygon primitive as box body*
4,1,4,$2,$3,$4,$5,$6,$7,$8,$9,$2,$3,0*
0 Add four circle primitives for the rounded corners*
1,1,$1+$1,$2,$3*
1,1,$1+$1,$4,$5*
1,1,$1+$1,$6,$7*
1,1,$1+$1,$8,$9*
0 Add four rect primitives between the rounded corners*
20,1,$1+$1,$2,$3,$4,$5,0*
20,1,$1+$1,$4,$5,$6,$7,0*
20,1,$1+$1,$6,$7,$8,$9,0*
20,1,$1+$1,$8,$9,$2,$3,0*%
G04 Aperture macros list end*
%ADD10O,1.700000X2.000000*%
%ADD11RoundRect,0.250000X-0.600000X-0.750000X0.600000X-0.750000X0.600000X0.750000X-0.600000X0.750000X0*%
%ADD12C,1.800000*%
%ADD13R,1.800000X1.800000*%
%ADD14C,2.500000*%
%ADD15O,1.600000X1.600000*%
%ADD16C,1.600000*%
%ADD17O,2.000000X1.700000*%
%ADD18RoundRect,0.250000X-0.750000X0.600000X-0.750000X-0.600000X0.750000X-0.600000X0.750000X0.600000X0*%
%ADD19RoundRect,0.250000X-0.725000X0.600000X-0.725000X-0.600000X0.725000X-0.600000X0.725000X0.600000X0*%
%ADD20O,1.950000X1.700000*%
%ADD21R,2.000000X1.905000*%
%ADD22O,2.000000X1.905000*%
%ADD23C,3.600000*%
%ADD24C,5.600000*%
%ADD25R,1.600000X1.600000*%
%ADD26RoundRect,0.102000X-0.900000X-0.850000X0.900000X-0.850000X0.900000X0.850000X-0.900000X0.850000X0*%
%ADD27RoundRect,0.250000X-0.550000X0.550000X-0.550000X-0.550000X0.550000X-0.550000X0.550000X0.550000X0*%
%ADD28R,2.200000X2.200000*%
%ADD29O,2.200000X2.200000*%
%ADD30RoundRect,0.250000X-0.600000X-0.725000X0.600000X-0.725000X0.600000X0.725000X-0.600000X0.725000X0*%
%ADD31O,1.700000X1.950000*%
G04 APERTURE END LIST*
D10*
%TO.C,J8*%
X187974570Y-112522000D03*
D11*
X185474570Y-112522000D03*
%TD*%
D10*
%TO.C,J9*%
X197800600Y-112522000D03*
D11*
X195300600Y-112522000D03*
%TD*%
D10*
%TO.C,J10*%
X191552200Y-89255600D03*
D11*
X189052200Y-89255600D03*
%TD*%
D12*
%TO.C,M1*%
X103397000Y-95029600D03*
X103397000Y-92489600D03*
X103397000Y-89949600D03*
X103397000Y-87409600D03*
X103397000Y-84869600D03*
X103397000Y-82329600D03*
D13*
X103397000Y-79789600D03*
D14*
X103397000Y-74709600D03*
X103397000Y-100109600D03*
%TD*%
D15*
%TO.C,R1*%
X193761970Y-107731000D03*
D16*
X193761970Y-97571000D03*
%TD*%
D15*
%TO.C,R3*%
X184102970Y-107731000D03*
D16*
X184102970Y-97571000D03*
%TD*%
D17*
%TO.C,J6*%
X142063725Y-112202619D03*
D18*
X142063725Y-109702619D03*
%TD*%
D16*
%TO.C,C4*%
X189127086Y-64973027D03*
X184127086Y-64973027D03*
%TD*%
D19*
%TO.C,J2*%
X116365027Y-104702619D03*
D20*
X116365027Y-107202619D03*
X116365027Y-109702619D03*
X116365027Y-112202619D03*
%TD*%
D21*
%TO.C,U3*%
X205812829Y-71325464D03*
D22*
X205812829Y-73865464D03*
X205812829Y-76405464D03*
%TD*%
D19*
%TO.C,J3*%
X122789701Y-107202619D03*
D20*
X122789701Y-109702619D03*
X122789701Y-112202619D03*
%TD*%
D19*
%TO.C,J1*%
X109940352Y-104702619D03*
D20*
X109940352Y-107202619D03*
X109940352Y-109702619D03*
X109940352Y-112202619D03*
%TD*%
D23*
%TO.C,H2*%
X88500000Y-113500000D03*
D24*
X88500000Y-113500000D03*
%TD*%
D25*
%TO.C,C2*%
X193601286Y-71831027D03*
D16*
X196101286Y-71831027D03*
%TD*%
D18*
%TO.C,J5*%
X135639051Y-109702619D03*
D17*
X135639051Y-112202619D03*
%TD*%
D26*
%TO.C,U1*%
X153725200Y-68100200D03*
D12*
X153725200Y-70640200D03*
X153725200Y-73180200D03*
X153725200Y-75720200D03*
X153725200Y-78260200D03*
X153725200Y-80800200D03*
X153725200Y-83340200D03*
X153725200Y-85880200D03*
X153725200Y-88420200D03*
X153725200Y-90960200D03*
X153725200Y-93500200D03*
X153725200Y-96040200D03*
X153725200Y-98580200D03*
X153725200Y-101120200D03*
X153725200Y-103660200D03*
X153725200Y-106200200D03*
X153725200Y-108740200D03*
X153725200Y-111280200D03*
X153725200Y-113820200D03*
X179125200Y-68100200D03*
X179125200Y-70640200D03*
X179125200Y-73180200D03*
X179125200Y-75720200D03*
X179125200Y-78260200D03*
X179125200Y-80800200D03*
X179125200Y-83340200D03*
X179125200Y-85880200D03*
X179125200Y-88420200D03*
X179125200Y-90960200D03*
X179125200Y-93500200D03*
X179125200Y-96040200D03*
X179125200Y-98580200D03*
X179125200Y-101120200D03*
X179125200Y-103660200D03*
X179125200Y-106200200D03*
X179125200Y-108740200D03*
X179125200Y-111280200D03*
X179125200Y-113820200D03*
%TD*%
D23*
%TO.C,H1*%
X204500000Y-113500000D03*
D24*
X204500000Y-113500000D03*
%TD*%
D25*
%TO.C,C3*%
X187582199Y-71805627D03*
D16*
X185582199Y-71805627D03*
%TD*%
D27*
%TO.C,U5*%
X142930200Y-77955400D03*
D16*
X140390200Y-77955400D03*
X137850200Y-77955400D03*
X135310200Y-77955400D03*
X135310200Y-85575400D03*
X137850200Y-85575400D03*
X140390200Y-85575400D03*
X142930200Y-85575400D03*
%TD*%
D25*
%TO.C,D3*%
X188932470Y-98841000D03*
D15*
X188932470Y-106461000D03*
%TD*%
D23*
%TO.C,H4*%
X88500000Y-64000000D03*
D24*
X88500000Y-64000000D03*
%TD*%
D16*
%TO.C,C1*%
X192283665Y-64987627D03*
X197283665Y-64987627D03*
%TD*%
D21*
%TO.C,U4*%
X205812829Y-82671464D03*
D22*
X205812829Y-85211464D03*
X205812829Y-87751464D03*
%TD*%
D28*
%TO.C,D4*%
X200314229Y-74627464D03*
D29*
X200314229Y-84787464D03*
%TD*%
D18*
%TO.C,J4*%
X129214376Y-109702619D03*
D17*
X129214376Y-112202619D03*
%TD*%
D23*
%TO.C,H3*%
X204500000Y-64000000D03*
D24*
X204500000Y-64000000D03*
%TD*%
D27*
%TO.C,U2*%
X130828200Y-77995800D03*
D16*
X128288200Y-77995800D03*
X125748200Y-77995800D03*
X123208200Y-77995800D03*
X120668200Y-77995800D03*
X118128200Y-77995800D03*
X115588200Y-77995800D03*
X113048200Y-77995800D03*
X113048200Y-85615800D03*
X115588200Y-85615800D03*
X118128200Y-85615800D03*
X120668200Y-85615800D03*
X123208200Y-85615800D03*
X125748200Y-85615800D03*
X128288200Y-85615800D03*
X130828200Y-85615800D03*
%TD*%
D25*
%TO.C,RN1*%
X118407600Y-97012200D03*
D15*
X120947600Y-97012200D03*
X123487600Y-97012200D03*
X126027600Y-97012200D03*
X128567600Y-97012200D03*
X131107600Y-97012200D03*
X133647600Y-97012200D03*
X136187600Y-97012200D03*
X138727600Y-97012200D03*
%TD*%
D25*
%TO.C,D1*%
X203170970Y-106461000D03*
D15*
X203170970Y-98841000D03*
%TD*%
D25*
%TO.C,D2*%
X198591470Y-98841000D03*
D15*
X198591470Y-106461000D03*
%TD*%
D18*
%TO.C,J7*%
X148488400Y-109728000D03*
D17*
X148488400Y-112228000D03*
%TD*%
D13*
%TO.C,J12*%
X96168800Y-66144400D03*
D12*
X98708800Y-66144400D03*
X101248800Y-66144400D03*
X103788800Y-66144400D03*
X106328800Y-66144400D03*
X108868800Y-66144400D03*
X111408800Y-66144400D03*
X113948800Y-66144400D03*
X116488800Y-66144400D03*
X119028800Y-66144400D03*
X121568800Y-66144400D03*
X124108800Y-66144400D03*
X126648800Y-66144400D03*
X129188800Y-66144400D03*
X131728800Y-66144400D03*
X134268800Y-66144400D03*
X136808800Y-66144400D03*
X139348800Y-66144400D03*
X141888800Y-66144400D03*
X144428800Y-66144400D03*
%TD*%
D30*
%TO.C,J11*%
X186639200Y-79527400D03*
D31*
X189139200Y-79527400D03*
X191639200Y-79527400D03*
X194139200Y-79527400D03*
%TD*%
M02*
