M48
; DRILL file {KiCad 9.0.4} date 2025-12-09T23:50:22+0100
; FORMAT={-:-/ absolute / metric / decimal}
; #@! TF.CreationDate,2025-12-09T23:50:22+01:00
; #@! TF.GenerationSoftware,Kicad,Pcbnew,9.0.4
; #@! TF.FileFunction,Plated,1,2,PTH
FMAT,2
METRIC
; #@! TA.AperFunction,Plated,PTH,ViaDrill
T1C0.400
; #@! TA.AperFunction,Plated,PTH,ComponentDrill
T2C0.800
; #@! TA.AperFunction,Plated,PTH,ComponentDrill
T3C0.900
; #@! TA.AperFunction,Plated,PTH,ComponentDrill
T4C0.950
; #@! TA.AperFunction,Plated,PTH,ComponentDrill
T5C1.000
; #@! TA.AperFunction,Plated,PTH,ComponentDrill
T6C1.100
; #@! TA.AperFunction,Plated,PTH,ComponentDrill
T7C2.000
; #@! TA.AperFunction,Plated,PTH,ComponentDrill
T8C3.000
%
G90
G05
T1
X180.319Y-93.599
T2
X72.085Y-84.988
X82.245Y-84.988
X93.012Y-82.312
X93.012Y-84.852
X93.012Y-87.392
X93.012Y-89.932
X174.162Y-69.632
X174.162Y-72.172
X174.162Y-74.712
X174.162Y-77.252
X174.162Y-79.792
X174.162Y-82.332
X174.162Y-84.872
X174.162Y-87.412
X174.162Y-89.952
X174.162Y-92.492
X174.162Y-95.032
X174.162Y-97.572
X174.162Y-100.112
X174.162Y-102.652
X187.801Y-80.95
X187.801Y-91.11
X193.294Y-96.571
X193.294Y-100.621
X203.454Y-96.571
X203.454Y-100.621
T3
X182.442Y-84.76
X182.442Y-87.3
T4
X199.181Y-82.441
X199.181Y-84.941
X199.181Y-87.441
X199.181Y-89.941
T5
X74.39Y-93.933
X74.39Y-108.433
X76.89Y-108.433
X79.39Y-93.933
X79.39Y-108.433
X156.763Y-122.047
X159.303Y-122.047
X161.843Y-122.047
X164.383Y-122.047
X166.923Y-122.047
X169.463Y-122.047
X172.003Y-122.047
X174.543Y-122.047
X177.083Y-122.047
X179.623Y-122.047
X182.163Y-122.047
X184.703Y-122.047
X187.243Y-122.047
X189.783Y-122.047
X192.323Y-122.047
X193.396Y-84.825
X193.396Y-87.325
X194.863Y-122.047
X197.403Y-122.047
X199.943Y-122.047
X202.483Y-122.047
X204.388Y-81.006
X204.388Y-83.546
X204.388Y-86.086
X204.388Y-88.626
X204.388Y-91.166
X205.023Y-122.047
T6
X73.64Y-73.575
X73.64Y-78.075
X80.14Y-73.575
X80.14Y-78.075
X103.534Y-117.863
X103.534Y-122.363
X110.034Y-117.863
X110.034Y-122.363
X117.758Y-117.899
X117.758Y-122.399
X124.258Y-117.899
X124.258Y-122.399
X131.982Y-117.899
X131.982Y-122.399
X138.482Y-117.899
X138.482Y-122.399
X146.206Y-117.863
X146.206Y-122.363
X152.706Y-117.863
X152.706Y-122.363
X180.319Y-69.826
X180.319Y-76.326
X180.319Y-95.886
X180.319Y-102.386
X184.819Y-69.826
X184.819Y-76.326
X184.819Y-95.886
X184.819Y-102.386
T8
X93.462Y-64.482
X93.462Y-107.882
X169.062Y-64.482
X169.062Y-107.782
T7
G00X71.29Y-101.183
M15
G01X71.29Y-100.683
M16
G05
G00X82.49Y-101.183
M15
G01X82.49Y-100.683
M16
G05
M30
