%TF.GenerationSoftware,KiCad,Pcbnew,9.0.4*%
%TF.CreationDate,2026-03-04T00:21:06+01:00*%
%TF.ProjectId,Front Pannel,46726f6e-7420-4506-916e-6e656c2e6b69,rev?*%
%TF.SameCoordinates,Original*%
%TF.FileFunction,Copper,L2,Bot*%
%TF.FilePolarity,Positive*%
%FSLAX46Y46*%
G04 Gerber Fmt 4.6, Leading zero omitted, Abs format (unit mm)*
G04 Created by KiCad (PCBNEW 9.0.4) date 2026-03-04 00:21:06*
%MOMM*%
%LPD*%
G01*
G04 APERTURE LIST*
G04 Aperture macros list*
%AMRoundRect*
0 Rectangle with rounded corners*
0 $1 Rounding radius*
0 $2 $3 $4 $5 $6 $7 $8 $9 X,Y pos of 4 corners*
0 Add a 4 corners polygon primitive as box body*
4,1,4,$2,$3,$4,$5,$6,$7,$8,$9,$2,$3,0*
0 Add four circle primitives for the rounded corners*
1,1,$1+$1,$2,$3*
1,1,$1+$1,$4,$5*
1,1,$1+$1,$6,$7*
1,1,$1+$1,$8,$9*
0 Add four rect primitives between the rounded corners*
20,1,$1+$1,$2,$3,$4,$5,0*
20,1,$1+$1,$4,$5,$6,$7,0*
20,1,$1+$1,$6,$7,$8,$9,0*
20,1,$1+$1,$8,$9,$2,$3,0*%
G04 Aperture macros list end*
%TA.AperFunction,ComponentPad*%
%ADD10C,1.600000*%
%TD*%
%TA.AperFunction,ComponentPad*%
%ADD11O,1.600000X1.600000*%
%TD*%
%TA.AperFunction,ComponentPad*%
%ADD12R,1.800000X1.800000*%
%TD*%
%TA.AperFunction,ComponentPad*%
%ADD13C,1.800000*%
%TD*%
%TA.AperFunction,ComponentPad*%
%ADD14C,2.500000*%
%TD*%
%TA.AperFunction,ComponentPad*%
%ADD15R,1.700000X1.700000*%
%TD*%
%TA.AperFunction,ComponentPad*%
%ADD16O,1.700000X1.700000*%
%TD*%
%TA.AperFunction,ComponentPad*%
%ADD17R,2.000000X3.000000*%
%TD*%
%TA.AperFunction,ComponentPad*%
%ADD18O,2.000000X3.000000*%
%TD*%
%TA.AperFunction,ComponentPad*%
%ADD19R,3.500000X4.500000*%
%TD*%
%TA.AperFunction,ComponentPad*%
%ADD20C,2.600000*%
%TD*%
%TA.AperFunction,ConnectorPad*%
%ADD21C,3.800000*%
%TD*%
%TA.AperFunction,ComponentPad*%
%ADD22C,3.400000*%
%TD*%
%TA.AperFunction,ComponentPad*%
%ADD23R,3.000000X1.700000*%
%TD*%
%TA.AperFunction,ComponentPad*%
%ADD24O,3.000000X1.700000*%
%TD*%
%TA.AperFunction,ComponentPad*%
%ADD25RoundRect,0.250000X0.750000X-0.600000X0.750000X0.600000X-0.750000X0.600000X-0.750000X-0.600000X0*%
%TD*%
%TA.AperFunction,ComponentPad*%
%ADD26O,2.000000X1.700000*%
%TD*%
%TA.AperFunction,ComponentPad*%
%ADD27RoundRect,0.250000X0.725000X-0.600000X0.725000X0.600000X-0.725000X0.600000X-0.725000X-0.600000X0*%
%TD*%
%TA.AperFunction,ComponentPad*%
%ADD28O,1.950000X1.700000*%
%TD*%
%TA.AperFunction,ViaPad*%
%ADD29C,0.600000*%
%TD*%
%TA.AperFunction,Conductor*%
%ADD30C,0.400000*%
%TD*%
%TA.AperFunction,Conductor*%
%ADD31C,0.800000*%
%TD*%
%TA.AperFunction,Conductor*%
%ADD32C,0.600000*%
%TD*%
G04 APERTURE END LIST*
D10*
%TO.P,R3,1*%
%TO.N,+3.3V*%
X193294000Y-100620800D03*
D11*
%TO.P,R3,2*%
%TO.N,CLK*%
X203454000Y-100620800D03*
%TD*%
D12*
%TO.P,D1,1,K*%
%TO.N,GND*%
X182442000Y-84759800D03*
D13*
%TO.P,D1,2,A*%
%TO.N,Net-(D1-A)*%
X182442000Y-87299800D03*
%TD*%
D14*
%TO.P,SW7,1,1*%
%TO.N,GND*%
X180319000Y-76325800D03*
X180319000Y-69825800D03*
%TO.P,SW7,2,2*%
%TO.N,SW_STEP*%
X184819000Y-76325800D03*
X184819000Y-69825800D03*
%TD*%
%TO.P,SW4,1,1*%
%TO.N,GND*%
X138482400Y-122399000D03*
X131982400Y-122399000D03*
%TO.P,SW4,2,2*%
%TO.N,SW_AGC*%
X138482400Y-117899000D03*
X131982400Y-117899000D03*
%TD*%
D10*
%TO.P,R2,1*%
%TO.N,+3.3V*%
X193294000Y-96570800D03*
D11*
%TO.P,R2,2*%
%TO.N,DT*%
X203454000Y-96570800D03*
%TD*%
D14*
%TO.P,SW3,1,1*%
%TO.N,GND*%
X124258400Y-122399000D03*
X117758400Y-122399000D03*
%TO.P,SW3,2,2*%
%TO.N,SW_MODE*%
X124258400Y-117899000D03*
X117758400Y-117899000D03*
%TD*%
D10*
%TO.P,R1,1*%
%TO.N,Net-(J1-Pin_2)*%
X187801400Y-80949800D03*
D11*
%TO.P,R1,2*%
%TO.N,Net-(D1-A)*%
X187801400Y-91109800D03*
%TD*%
D15*
%TO.P,J3,1,Pin_1*%
%TO.N,GND*%
X204388000Y-81006000D03*
D16*
%TO.P,J3,2,Pin_2*%
%TO.N,+3.3V*%
X204388000Y-83546000D03*
%TO.P,J3,3,Pin_3*%
%TO.N,SW_STEP*%
X204388000Y-86086000D03*
%TO.P,J3,4,Pin_4*%
%TO.N,DT*%
X204388000Y-88626000D03*
%TO.P,J3,5,Pin_5*%
%TO.N,CLK*%
X204388000Y-91166000D03*
%TD*%
D10*
%TO.P,R4,1*%
%TO.N,+3.3V*%
X82245200Y-84988400D03*
D11*
%TO.P,R4,2*%
%TO.N,SW_RTTY_CW*%
X72085200Y-84988400D03*
%TD*%
D17*
%TO.P,SW1,A,A*%
%TO.N,CLK-2*%
X74390400Y-106575516D03*
D18*
%TO.P,SW1,B,B*%
%TO.N,DT-2*%
X79390400Y-106575516D03*
%TO.P,SW1,C,C*%
%TO.N,GND*%
X76890400Y-106575516D03*
D19*
X71290400Y-99075516D03*
X82490400Y-99075516D03*
D18*
%TO.P,SW1,S1,S1*%
%TO.N,unconnected-(SW1-PadS1)*%
X74390400Y-92075516D03*
%TO.P,SW1,S2,S2*%
%TO.N,unconnected-(SW1-PadS2)*%
X79390400Y-92075516D03*
%TD*%
D20*
%TO.P,H2,1,1*%
%TO.N,GND*%
X212804800Y-121724600D03*
D21*
X212804800Y-121724600D03*
%TD*%
D20*
%TO.P,H4,1,1*%
%TO.N,GND*%
X73500000Y-121750000D03*
D21*
X73500000Y-121750000D03*
%TD*%
D14*
%TO.P,SW2,1,1*%
%TO.N,GND*%
X110034400Y-122363000D03*
X103534400Y-122363000D03*
%TO.P,SW2,2,2*%
%TO.N,SW_BAND*%
X110034400Y-117863000D03*
X103534400Y-117863000D03*
%TD*%
%TO.P,SW5,1,1*%
%TO.N,GND*%
X152706400Y-122363000D03*
X146206400Y-122363000D03*
%TO.P,SW5,2,2*%
%TO.N,SW_ATT*%
X152706400Y-117863000D03*
X146206400Y-117863000D03*
%TD*%
D22*
%TO.P,U1,*%
%TO.N,*%
X93462200Y-64482200D03*
X93462200Y-107882200D03*
X169062200Y-64482200D03*
X169062200Y-107782200D03*
D23*
%TO.P,U1,1,VCC*%
%TO.N,+3.3V*%
X174162200Y-102652200D03*
D24*
%TO.P,U1,2,GND*%
%TO.N,GND*%
X174162200Y-100112200D03*
%TO.P,U1,3,~{CS}*%
%TO.N,CS*%
X174162200Y-97572200D03*
%TO.P,U1,4,RESET*%
%TO.N,RST*%
X174162200Y-95032200D03*
%TO.P,U1,5,D/~{C}*%
%TO.N,D{slash}C*%
X174162200Y-92492200D03*
%TO.P,U1,6,MOSI*%
%TO.N,MOSI*%
X174162200Y-89952200D03*
%TO.P,U1,7,SCK*%
%TO.N,SCK*%
X174162200Y-87412200D03*
%TO.P,U1,8,LED*%
%TO.N,+3.3V*%
X174162200Y-84872200D03*
%TO.P,U1,9,MISO*%
%TO.N,unconnected-(U1-MISO-Pad9)*%
X174162200Y-82332200D03*
%TO.P,U1,10,T_CLK*%
%TO.N,unconnected-(U1-T_CLK-Pad10)*%
X174162200Y-79792200D03*
%TO.P,U1,11,T_CS*%
%TO.N,unconnected-(U1-T_CS-Pad11)*%
X174162200Y-77252200D03*
%TO.P,U1,12,T_DIN*%
%TO.N,unconnected-(U1-T_DIN-Pad12)*%
X174162200Y-74712200D03*
%TO.P,U1,13,T_OUT*%
%TO.N,unconnected-(U1-T_OUT-Pad13)*%
X174162200Y-72172200D03*
%TO.P,U1,14,T_IRQ*%
%TO.N,unconnected-(U1-T_IRQ-Pad14)*%
X174162200Y-69632200D03*
D23*
%TO.P,U1,15,SD_CS*%
%TO.N,unconnected-(U1-SD_CS-Pad15)*%
X93012200Y-89932200D03*
D24*
%TO.P,U1,16,SD_MOSI*%
%TO.N,unconnected-(U1-SD_MOSI-Pad16)*%
X93012200Y-87392200D03*
%TO.P,U1,17,SD_MISO*%
%TO.N,unconnected-(U1-SD_MISO-Pad17)*%
X93012200Y-84852200D03*
%TO.P,U1,18,SD_SCK*%
%TO.N,unconnected-(U1-SD_SCK-Pad18)*%
X93012200Y-82312200D03*
%TD*%
D14*
%TO.P,SW6,1,1*%
%TO.N,GND*%
X180319000Y-102386200D03*
X180319000Y-95886200D03*
%TO.P,SW6,2,2*%
%TO.N,SW_SCAN*%
X184819000Y-102386200D03*
X184819000Y-95886200D03*
%TD*%
D20*
%TO.P,H1,1,1*%
%TO.N,GND*%
X212804800Y-62534800D03*
D21*
X212804800Y-62534800D03*
%TD*%
D20*
%TO.P,H3,1,1*%
%TO.N,GND*%
X73500000Y-62560200D03*
D21*
X73500000Y-62560200D03*
%TD*%
D14*
%TO.P,SW8,1,1*%
%TO.N,GND*%
X79140400Y-69825800D03*
X79140400Y-76325800D03*
%TO.P,SW8,2,2*%
%TO.N,SW_RTTY_CW*%
X74640400Y-69825800D03*
X74640400Y-76325800D03*
%TD*%
D25*
%TO.P,J1,1,Pin_1*%
%TO.N,GND*%
X193395600Y-87325200D03*
D26*
%TO.P,J1,2,Pin_2*%
%TO.N,Net-(J1-Pin_2)*%
X193395600Y-84825200D03*
%TD*%
D15*
%TO.P,J4,1,Pin_1*%
%TO.N,CLK*%
X205022600Y-122047000D03*
D16*
%TO.P,J4,2,Pin_2*%
%TO.N,DT*%
X202482600Y-122047000D03*
%TO.P,J4,3,Pin_3*%
%TO.N,+9V*%
X199942600Y-122047000D03*
%TO.P,J4,4,Pin_4*%
%TO.N,SW_RTTY_CW*%
X197402600Y-122047000D03*
%TO.P,J4,5,Pin_5*%
%TO.N,SW_STEP*%
X194862600Y-122047000D03*
%TO.P,J4,6,Pin_6*%
%TO.N,SW_SCAN*%
X192322600Y-122047000D03*
%TO.P,J4,7,Pin_7*%
%TO.N,+3.3V*%
X189782600Y-122047000D03*
%TO.P,J4,8,Pin_8*%
%TO.N,GND*%
X187242600Y-122047000D03*
%TO.P,J4,9,Pin_9*%
%TO.N,CS*%
X184702600Y-122047000D03*
%TO.P,J4,10,Pin_10*%
%TO.N,RST*%
X182162600Y-122047000D03*
%TO.P,J4,11,Pin_11*%
%TO.N,D{slash}C*%
X179622600Y-122047000D03*
%TO.P,J4,12,Pin_12*%
%TO.N,MOSI*%
X177082600Y-122047000D03*
%TO.P,J4,13,Pin_13*%
%TO.N,SCK*%
X174542600Y-122047000D03*
%TO.P,J4,14,Pin_14*%
%TO.N,SW_BAND*%
X172002600Y-122047000D03*
%TO.P,J4,15,Pin_15*%
%TO.N,SW_MODE*%
X169462600Y-122047000D03*
%TO.P,J4,16,Pin_16*%
%TO.N,SW_AGC*%
X166922600Y-122047000D03*
%TO.P,J4,17,Pin_17*%
%TO.N,SW_ATT*%
X164382600Y-122047000D03*
%TO.P,J4,18,Pin_18*%
%TO.N,GND*%
X161842600Y-122047000D03*
%TO.P,J4,19,Pin_19*%
%TO.N,CLK-2*%
X159302600Y-122047000D03*
%TO.P,J4,20,Pin_20*%
%TO.N,DT-2*%
X156762600Y-122047000D03*
%TD*%
D27*
%TO.P,J2,1,Pin_1*%
%TO.N,GND*%
X199180600Y-89941400D03*
D28*
%TO.P,J2,2,Pin_2*%
%TO.N,+9V*%
X199180600Y-87441400D03*
%TO.P,J2,3,Pin_3*%
%TO.N,DT*%
X199180600Y-84941400D03*
%TO.P,J2,4,Pin_4*%
%TO.N,CLK*%
X199180600Y-82441400D03*
%TD*%
D29*
%TO.N,GND*%
X180319000Y-93599000D03*
%TD*%
D30*
%TO.N,MOSI*%
X177060200Y-118232600D02*
X174372200Y-115544600D01*
X160758200Y-94581400D02*
X163620200Y-91719400D01*
X163741200Y-91693200D02*
X168269200Y-91693200D01*
X177068200Y-122062700D02*
X177060200Y-122070600D01*
X177082600Y-122048300D02*
X177082600Y-122047000D01*
X174146600Y-89967800D02*
X174162200Y-89952200D01*
X172264200Y-89967800D02*
X174146600Y-89967800D01*
X169995200Y-89967800D02*
X172264200Y-89967800D01*
X177060200Y-122144600D02*
X177060200Y-122070600D01*
X168269200Y-91693200D02*
X169995200Y-89967800D01*
X177068200Y-122062700D02*
X177082600Y-122048300D01*
X177060200Y-122070600D02*
X177060200Y-118232600D01*
X177077200Y-122161600D02*
X177060200Y-122144600D01*
X172264200Y-89967800D02*
X174533200Y-89967800D01*
X163714200Y-91719400D02*
X163741200Y-91693200D01*
X163839200Y-115544600D02*
X160758200Y-112464200D01*
X174372200Y-115544600D02*
X163839200Y-115544600D01*
X160758200Y-112464200D02*
X160758200Y-94581400D01*
X163620200Y-91719400D02*
X163714200Y-91719400D01*
X177076200Y-122054800D02*
X177068200Y-122062700D01*
D31*
%TO.N,GND*%
X146206200Y-122362600D02*
X152706200Y-122362600D01*
X87299800Y-114096800D02*
X85699600Y-112496600D01*
D30*
X73500000Y-121750000D02*
X71290400Y-119540400D01*
X180319000Y-76325800D02*
X180319200Y-76325800D01*
D31*
X97510600Y-114096800D02*
X87299800Y-114096800D01*
X152706200Y-122362600D02*
X155156200Y-119913400D01*
D30*
X71290400Y-119540400D02*
X71290400Y-99075516D01*
D31*
X117758400Y-122398600D02*
X124258200Y-122398600D01*
D30*
X117758400Y-122399000D02*
X117758400Y-122398600D01*
X110034400Y-122363000D02*
X110034400Y-122362600D01*
D31*
X79140400Y-87217600D02*
X79140400Y-69825800D01*
D30*
X199186000Y-89936000D02*
X199180600Y-89941400D01*
D31*
X125189200Y-122362600D02*
X131982200Y-122362600D01*
D30*
X131982400Y-122381000D02*
X131982400Y-122399000D01*
X103534800Y-122362600D02*
X103534400Y-122363000D01*
D31*
X138482200Y-122362600D02*
X146206200Y-122362600D01*
D30*
X124258200Y-122398600D02*
X124258200Y-122399000D01*
X131982200Y-122380800D02*
X131982400Y-122381000D01*
X131982200Y-122399000D02*
X131982200Y-122380800D01*
X152706200Y-121826600D02*
X152706200Y-122362600D01*
X174541800Y-100112200D02*
X174545200Y-100115600D01*
X77387600Y-106121200D02*
X76893000Y-106615800D01*
D31*
X180319200Y-73075800D02*
X180319200Y-76325800D01*
X161836200Y-123888600D02*
X162687000Y-124739400D01*
D30*
X138482200Y-122399000D02*
X138482200Y-122362600D01*
D31*
X162687000Y-124739400D02*
X186207400Y-124739400D01*
X110034400Y-122362600D02*
X117722400Y-122362600D01*
X164541200Y-102539800D02*
X166965400Y-100115600D01*
D30*
X124258400Y-122399000D02*
X124258200Y-122399000D01*
D31*
X131982200Y-122362600D02*
X138482200Y-122362600D01*
D30*
X174545200Y-100115600D02*
X174545200Y-100116000D01*
X152706400Y-122363000D02*
X152706200Y-122363000D01*
D31*
X110034400Y-122362600D02*
X103534800Y-122362600D01*
X82490400Y-99075516D02*
X85689716Y-99075516D01*
D30*
X73500000Y-62560200D02*
X79140400Y-62560200D01*
D31*
X165582600Y-111937800D02*
X164541200Y-110896400D01*
X83566000Y-89027000D02*
X80949800Y-89027000D01*
D30*
X187236200Y-122053400D02*
X187236200Y-122054800D01*
D31*
X180061400Y-111937800D02*
X165582600Y-111937800D01*
X187237200Y-122041600D02*
X187237200Y-119113600D01*
X161836200Y-121457600D02*
X161836200Y-123888600D01*
X99858600Y-122363000D02*
X98907600Y-121412000D01*
D30*
X193364000Y-87279800D02*
X193364200Y-87279800D01*
X117722400Y-122362600D02*
X117758400Y-122398600D01*
X131982200Y-122380800D02*
X131982200Y-122362600D01*
D31*
X103534400Y-122363000D02*
X99858600Y-122363000D01*
D30*
X153243200Y-122364600D02*
X152706200Y-121826600D01*
X187242600Y-122047000D02*
X187237200Y-122041600D01*
X125153200Y-122398600D02*
X125189200Y-122362600D01*
D31*
X166965400Y-100115600D02*
X174545200Y-100115600D01*
D30*
X185769200Y-84759800D02*
X188289200Y-87279800D01*
X146206200Y-122362600D02*
X146206200Y-122363000D01*
D31*
X187237200Y-119113600D02*
X180061400Y-111937800D01*
D30*
X188289200Y-87279800D02*
X193364000Y-87279800D01*
D31*
X160292200Y-119913400D02*
X161836200Y-121457600D01*
X187236200Y-123710600D02*
X187236200Y-122054800D01*
X98907600Y-115493800D02*
X97510600Y-114096800D01*
X85699600Y-112496600D02*
X85699600Y-99085400D01*
X180319000Y-93599000D02*
X180319000Y-95886200D01*
X180319000Y-76325800D02*
X180319000Y-93599000D01*
D30*
X124258200Y-122398600D02*
X125153200Y-122398600D01*
X79140400Y-62560200D02*
X79140400Y-69825800D01*
D31*
X80949800Y-89027000D02*
X79140400Y-87217600D01*
D30*
X199225200Y-89936000D02*
X199186000Y-89936000D01*
X180319200Y-73075800D02*
X180319000Y-73075600D01*
D31*
X180319200Y-69825800D02*
X180319200Y-73075800D01*
X155156200Y-119913400D02*
X160292200Y-119913400D01*
X98907600Y-121412000D02*
X98907600Y-115493800D01*
X186207400Y-124739400D02*
X187236200Y-123710600D01*
D30*
X152706200Y-122363000D02*
X152706200Y-122362600D01*
X182442200Y-84759800D02*
X185769200Y-84759800D01*
D31*
X164541200Y-110896400D02*
X164541200Y-102539800D01*
D30*
X85689716Y-99075516D02*
X85699600Y-99085400D01*
X146206400Y-122363000D02*
X146206200Y-122363000D01*
D31*
X85699600Y-99085400D02*
X85699600Y-91160600D01*
X85699600Y-91160600D02*
X83566000Y-89027000D01*
D30*
X187242600Y-122047000D02*
X187236200Y-122053400D01*
X180319000Y-73075600D02*
X180319000Y-69825800D01*
X174162200Y-100112200D02*
X174541800Y-100112200D01*
X182442000Y-84759800D02*
X182442200Y-84759800D01*
%TO.N,SW_BAND*%
X172002200Y-122047400D02*
X172002200Y-122048600D01*
X171980200Y-122144600D02*
X171980200Y-122070600D01*
X171980200Y-122070600D02*
X172002200Y-122048600D01*
X110034400Y-117862600D02*
X110034400Y-117863000D01*
X110470600Y-117779800D02*
X110034400Y-117343600D01*
X163178200Y-117170200D02*
X159951200Y-113942600D01*
X172002200Y-118728300D02*
X170444200Y-117170200D01*
X116919800Y-113942600D02*
X113082600Y-117779800D01*
X172002600Y-122047000D02*
X172002200Y-122047400D01*
X110034400Y-117343600D02*
X110034400Y-117603100D01*
X171996200Y-122054800D02*
X171980200Y-122070600D01*
X110034400Y-117862600D02*
X103534800Y-117862600D01*
X110034400Y-117603100D02*
X110034400Y-117862600D01*
X113082600Y-117779800D02*
X110470600Y-117779800D01*
X171997200Y-122161600D02*
X171980200Y-122144600D01*
X110034400Y-117603100D02*
X110034400Y-117862600D01*
X103534800Y-117862600D02*
X103534400Y-117863000D01*
X170444200Y-117170200D02*
X163178200Y-117170200D01*
X172002200Y-122048600D02*
X172002200Y-118728300D01*
X159951200Y-113942600D02*
X116919800Y-113942600D01*
X103534800Y-117862600D02*
X103534400Y-117862600D01*
%TO.N,D{slash}C*%
X171083200Y-92494200D02*
X164072200Y-92494200D01*
X172814700Y-92496000D02*
X171084200Y-92496000D01*
X179622600Y-122047000D02*
X179600200Y-122069400D01*
X179600200Y-122069400D02*
X179600200Y-122144600D01*
X179600200Y-120315600D02*
X179616200Y-120331400D01*
X174158400Y-92496000D02*
X174162200Y-92492200D01*
X179600200Y-122144600D02*
X179617200Y-122161600D01*
X161559200Y-112132400D02*
X164159200Y-114731800D01*
X164159200Y-114731800D02*
X175846200Y-114731800D01*
X179616200Y-120331400D02*
X179616200Y-122054800D01*
X174545200Y-92496000D02*
X172814700Y-92496000D01*
X161559200Y-95007200D02*
X161559200Y-112132400D01*
X164072200Y-92494200D02*
X161559200Y-95007200D01*
X179600200Y-118486600D02*
X179600200Y-120315600D01*
X171084200Y-92496000D02*
X171083200Y-92494200D01*
X179600200Y-120315600D02*
X179600200Y-122144600D01*
X172814700Y-92496000D02*
X174158400Y-92496000D01*
X175846200Y-114731800D02*
X179600200Y-118486600D01*
%TO.N,SW_AGC*%
X166900200Y-119197600D02*
X166900200Y-122144600D01*
X131982200Y-117898600D02*
X135232200Y-117898600D01*
X141106200Y-117898600D02*
X143460200Y-115544600D01*
X166916200Y-122053400D02*
X166916200Y-122054800D01*
X138482200Y-117898600D02*
X139207300Y-117898600D01*
X143460200Y-115544600D02*
X159150200Y-115544600D01*
X139207300Y-117898600D02*
X138482800Y-117898600D01*
X135232200Y-117898600D02*
X138482200Y-117898600D01*
X138482800Y-117898600D02*
X138482400Y-117899000D01*
X138482200Y-117898600D02*
X138482200Y-117899000D01*
X166922600Y-122047000D02*
X166916200Y-122053400D01*
X166900200Y-122144600D02*
X166917200Y-122161600D01*
X131982800Y-117898600D02*
X131982400Y-117899000D01*
X159150200Y-115544600D02*
X162414200Y-118808600D01*
X135232200Y-117898600D02*
X131982800Y-117898600D01*
X162414200Y-118808600D02*
X166511200Y-118808600D01*
X166900200Y-122070600D02*
X166900200Y-122144600D01*
X166916200Y-122054800D02*
X166900200Y-122070600D01*
X131982200Y-117899000D02*
X131982200Y-117898600D01*
X166511200Y-118808600D02*
X166900200Y-119197600D01*
X139207300Y-117898600D02*
X141106200Y-117898600D01*
%TO.N,SCK*%
X174520200Y-118334600D02*
X172543200Y-116357400D01*
X159957200Y-94249600D02*
X163289200Y-90918400D01*
X163383200Y-90918400D02*
X163409200Y-90892200D01*
X163289200Y-90918400D02*
X163383200Y-90918400D01*
X174520200Y-122069400D02*
X174520200Y-122144600D01*
X174520200Y-122144600D02*
X174520200Y-120239600D01*
X163409200Y-90892200D02*
X167546200Y-90892200D01*
X174520200Y-120239600D02*
X174536200Y-120255400D01*
X174158400Y-87416000D02*
X174162200Y-87412200D01*
X173503700Y-87416000D02*
X174545200Y-87416000D01*
X174537200Y-122161600D02*
X174520200Y-122144600D01*
X173503700Y-87416000D02*
X174158400Y-87416000D01*
X159957200Y-112796000D02*
X159957200Y-94249600D01*
X163519200Y-116357400D02*
X159957200Y-112796000D01*
X171023200Y-87416000D02*
X173503700Y-87416000D01*
X167546200Y-90892200D02*
X171023200Y-87416000D01*
X174542600Y-122047000D02*
X174520200Y-122069400D01*
X174536200Y-120255400D02*
X174536200Y-122054800D01*
X174520200Y-120239600D02*
X174520200Y-118334600D01*
X172543200Y-116357400D02*
X163519200Y-116357400D01*
%TO.N,SW_STEP*%
X184819200Y-69825800D02*
X184819200Y-76325800D01*
X184819000Y-76325800D02*
X200582600Y-76325800D01*
X184819000Y-69825800D02*
X184819200Y-69825800D01*
X202712000Y-86136800D02*
X204337200Y-86136800D01*
X184819000Y-76325800D02*
X184819200Y-76325800D01*
X201828400Y-85242400D02*
X202717400Y-86131400D01*
X201828400Y-77571600D02*
X201828400Y-85242400D01*
X202717400Y-86131400D02*
X202712000Y-86136800D01*
X200582600Y-76325800D02*
X201828400Y-77571600D01*
%TO.N,SW_SCAN*%
X184819000Y-111444600D02*
X192322600Y-118948200D01*
X184819000Y-95886200D02*
X184819200Y-95886200D01*
X184819000Y-102386200D02*
X184819000Y-111444600D01*
X192322600Y-118948200D02*
X192322600Y-122047000D01*
X184819000Y-102386200D02*
X184819200Y-102386200D01*
%TO.N,SW_MODE*%
X117758800Y-117898600D02*
X117758400Y-117899000D01*
X124258400Y-117899000D02*
X124258200Y-117899000D01*
X168683200Y-117983000D02*
X162858200Y-117983000D01*
X130342200Y-114743600D02*
X127205200Y-117881400D01*
X169462600Y-122047000D02*
X169456200Y-122053400D01*
X169456200Y-122053400D02*
X169456200Y-122054800D01*
X127205200Y-117881400D02*
X124275200Y-117881400D01*
X169440200Y-122144600D02*
X169440200Y-122070600D01*
X124275200Y-117881400D02*
X124258200Y-117898600D01*
X169440200Y-122070600D02*
X169440200Y-118740600D01*
X117758800Y-117898600D02*
X117758400Y-117898600D01*
X124258200Y-117898600D02*
X117758800Y-117898600D01*
X124258200Y-117898600D02*
X124258200Y-117899000D01*
X169440200Y-118740600D02*
X168683200Y-117983000D01*
X159619200Y-114743600D02*
X130342200Y-114743600D01*
X169456200Y-122054800D02*
X169440200Y-122070600D01*
X162858200Y-117983000D02*
X159619200Y-114743600D01*
X169457200Y-122161600D02*
X169440200Y-122144600D01*
%TO.N,SW_ATT*%
X152706200Y-117862600D02*
X152706200Y-117863000D01*
X164376200Y-122054800D02*
X164368200Y-122062700D01*
X164377200Y-122161600D02*
X164360200Y-122144600D01*
X163654200Y-119609600D02*
X162082200Y-119609600D01*
X152706400Y-117863000D02*
X152706200Y-117863000D01*
X146206200Y-117862600D02*
X152706200Y-117862600D01*
X160335200Y-117862600D02*
X152706200Y-117862600D01*
X162082200Y-119609600D02*
X160335200Y-117862600D01*
X164382600Y-122048300D02*
X164382600Y-122047000D01*
X164368200Y-122062700D02*
X164360200Y-122070600D01*
X164360200Y-120315600D02*
X163654200Y-119609600D01*
X164360200Y-122144600D02*
X164360200Y-122070600D01*
X146206400Y-117863000D02*
X146206200Y-117863000D01*
X164368200Y-122062700D02*
X164382600Y-122048300D01*
X146206200Y-117863000D02*
X146206200Y-117862600D01*
X164360200Y-122070600D02*
X164360200Y-120315600D01*
%TO.N,CS*%
X171016200Y-97575600D02*
X167559200Y-94118800D01*
X173503700Y-97575600D02*
X171016200Y-97575600D01*
X184680200Y-118994600D02*
X184680200Y-122070600D01*
X174545200Y-97575600D02*
X173503700Y-97575600D01*
X174158800Y-97575600D02*
X174162200Y-97572200D01*
X184696200Y-122054800D02*
X184680200Y-122070600D01*
X184702600Y-122047000D02*
X184696200Y-122053400D01*
X184696200Y-122053400D02*
X184696200Y-122054800D01*
X184680200Y-122144600D02*
X184697200Y-122161600D01*
X164799200Y-113106200D02*
X178792200Y-113106200D01*
X178792200Y-113106200D02*
X184680200Y-118994600D01*
X164736200Y-94096200D02*
X163161200Y-95670800D01*
X174545200Y-97576000D02*
X174545200Y-97575600D01*
X167536200Y-94096200D02*
X164736200Y-94096200D01*
X184680200Y-122070600D02*
X184680200Y-122144600D01*
X167559200Y-94118800D02*
X167536200Y-94096200D01*
X163161200Y-95670800D02*
X163161200Y-111468900D01*
X163161200Y-111468900D02*
X164799200Y-113106200D01*
X173503700Y-97575600D02*
X174158800Y-97575600D01*
%TO.N,RST*%
X172137200Y-95035100D02*
X174159300Y-95035100D01*
X174545200Y-95035900D02*
X174545200Y-95036000D01*
X177348200Y-113930800D02*
X182140200Y-118723000D01*
X167990200Y-93295200D02*
X164404200Y-93295200D01*
X182156200Y-122053400D02*
X182156200Y-122054800D01*
X162360200Y-111800600D02*
X164491200Y-113930800D01*
X182140200Y-122144600D02*
X182157200Y-122161600D01*
X174544200Y-95035100D02*
X174545200Y-95035900D01*
X182140200Y-118723000D02*
X182140200Y-122070600D01*
X174545200Y-95036000D02*
X174544200Y-95035100D01*
X182140200Y-122070600D02*
X182140200Y-122144600D01*
X169730200Y-95035100D02*
X167990200Y-93295200D01*
X164404200Y-93295200D02*
X162360200Y-95339000D01*
X164491200Y-113930800D02*
X177348200Y-113930800D01*
X172137200Y-95035100D02*
X169730200Y-95035100D01*
X182162600Y-122047000D02*
X182156200Y-122053400D01*
X172137200Y-95035100D02*
X174544200Y-95035100D01*
X182156200Y-122054800D02*
X182140200Y-122070600D01*
X174159300Y-95035100D02*
X174162200Y-95032200D01*
X162360200Y-95339000D02*
X162360200Y-111800600D01*
D31*
%TO.N,+3.3V*%
X82245200Y-84988400D02*
X84912200Y-84988400D01*
X174162200Y-102652200D02*
X174162200Y-109519200D01*
D30*
X189782600Y-122049400D02*
X189782600Y-122047000D01*
D31*
X170855000Y-84872200D02*
X174162200Y-84872200D01*
X158826200Y-111988600D02*
X158826200Y-93964902D01*
X203301600Y-67259200D02*
X206425800Y-70383400D01*
X158826200Y-93964902D02*
X163510102Y-89281000D01*
X189777200Y-119100600D02*
X189777200Y-122054800D01*
D30*
X189777200Y-119044800D02*
X189777200Y-119100600D01*
X174543200Y-84874200D02*
X174544200Y-84875100D01*
X174545200Y-84875900D02*
X174545200Y-84876000D01*
X174544200Y-84875100D02*
X174545200Y-84875900D01*
D31*
X84912200Y-84988400D02*
X87350600Y-87426800D01*
X182213200Y-111480600D02*
X189777200Y-119044800D01*
X163510102Y-89281000D02*
X166446200Y-89281000D01*
X88036400Y-112471200D02*
X158343600Y-112471200D01*
D30*
X174162200Y-84872200D02*
X174541200Y-84872200D01*
X189777200Y-122054800D02*
X189782600Y-122049400D01*
D32*
X193294000Y-96570800D02*
X193294000Y-100620800D01*
D30*
X174544200Y-84875100D02*
X174545200Y-84876000D01*
D31*
X87350600Y-87426800D02*
X87350600Y-111785400D01*
X177286200Y-102082600D02*
X177286200Y-68484200D01*
X174165600Y-102655600D02*
X176713200Y-102655600D01*
X174162200Y-109519200D02*
X174955200Y-110312200D01*
D30*
X189776200Y-122054800D02*
X189777200Y-122054800D01*
D31*
X176713200Y-102655600D02*
X177286200Y-102082600D01*
D30*
X174162200Y-102652200D02*
X174165600Y-102655600D01*
D31*
X205810800Y-83596800D02*
X204337200Y-83596800D01*
X178511200Y-67259200D02*
X203301600Y-67259200D01*
X177286200Y-84876000D02*
X174545200Y-84876000D01*
X87350600Y-111785400D02*
X88036400Y-112471200D01*
D30*
X182195200Y-111480600D02*
X182213200Y-111480600D01*
D31*
X181026800Y-110312200D02*
X182195200Y-111480600D01*
X177286200Y-68484200D02*
X178511200Y-67259200D01*
X206425800Y-70383400D02*
X206425800Y-82981800D01*
X158343600Y-112471200D02*
X158826200Y-111988600D01*
X174955200Y-110312200D02*
X181026800Y-110312200D01*
D30*
X182195200Y-111480600D02*
X182213200Y-111480600D01*
X189777200Y-122054800D02*
X189777200Y-122161600D01*
X174541200Y-84872200D02*
X174543200Y-84874200D01*
D31*
X206425800Y-82981800D02*
X205810800Y-83596800D01*
X166446200Y-89281000D02*
X170855000Y-84872200D01*
D30*
%TO.N,CLK*%
X203454000Y-100620800D02*
X205008200Y-100620800D01*
X205022200Y-94227400D02*
X205022200Y-100634800D01*
X204337200Y-91216800D02*
X204337200Y-93542400D01*
X205008200Y-100620800D02*
X205022200Y-100634800D01*
X205022200Y-100634800D02*
X205022200Y-122047000D01*
X199180600Y-82441400D02*
X199219800Y-82441400D01*
X204337200Y-93542400D02*
X205022200Y-94227400D01*
X205022200Y-122047000D02*
X205022600Y-122047000D01*
X199219800Y-82441400D02*
X199225200Y-82436000D01*
D31*
%TO.N,+9V*%
X195935600Y-88716000D02*
X197210200Y-87441400D01*
X188817400Y-93599000D02*
X194945000Y-93599000D01*
X199942600Y-119862600D02*
X198774200Y-118694200D01*
X187090200Y-110845600D02*
X187090200Y-95326200D01*
X195935600Y-92608400D02*
X195935600Y-88716000D01*
X199942600Y-122047000D02*
X199942600Y-119862600D01*
D30*
X198286700Y-87436000D02*
X199175200Y-87436000D01*
X199175200Y-87436000D02*
X199180600Y-87441400D01*
D31*
X194945000Y-93599000D02*
X195935600Y-92608400D01*
X197210200Y-87441400D02*
X199180600Y-87441400D01*
X187090200Y-95326200D02*
X188817400Y-93599000D01*
X198774200Y-118694200D02*
X194938800Y-118694200D01*
X194938800Y-118694200D02*
X187090200Y-110845600D01*
D30*
X198286700Y-87436000D02*
X198281300Y-87441400D01*
X199225200Y-87436000D02*
X198286700Y-87436000D01*
%TO.N,DT*%
X199180600Y-84941400D02*
X202865200Y-88626000D01*
X207162400Y-89966800D02*
X207162400Y-123647200D01*
X199225200Y-84936000D02*
X199186000Y-84936000D01*
X206197200Y-124612400D02*
X203504800Y-124612400D01*
X199186000Y-84936000D02*
X199180600Y-84941400D01*
X203504800Y-124612400D02*
X202482600Y-123590200D01*
X202482600Y-123590200D02*
X202482600Y-122047000D01*
X205821600Y-88626000D02*
X207162400Y-89966800D01*
X207162400Y-123647200D02*
X206197200Y-124612400D01*
X202865200Y-88626000D02*
X205821600Y-88626000D01*
%TO.N,DT-2*%
X156756200Y-123172100D02*
X156756200Y-122054800D01*
X82321400Y-124333000D02*
X156254200Y-124333000D01*
X156756200Y-123831000D02*
X156756200Y-123172100D01*
X156756200Y-122053400D02*
X156756200Y-122054800D01*
X79390400Y-106575516D02*
X79394200Y-106579316D01*
X156254200Y-124333000D02*
X156756200Y-123831000D01*
X79394200Y-106579316D02*
X79394200Y-121405800D01*
X156762600Y-122047000D02*
X156756200Y-122053400D01*
X79394200Y-121405800D02*
X82321400Y-124333000D01*
X156756200Y-123172100D02*
X156756200Y-122257600D01*
%TO.N,SW_RTTY_CW*%
X81434202Y-125935000D02*
X158399664Y-125935000D01*
X72085200Y-93675200D02*
X74980800Y-96570800D01*
X72237600Y-114274600D02*
X77792201Y-119829201D01*
X158731625Y-125935000D02*
X196314800Y-125935000D01*
X72085200Y-84988400D02*
X72085200Y-93675200D01*
X158399664Y-125935000D02*
X158399840Y-125935176D01*
X158399840Y-125935176D02*
X158731625Y-125935000D01*
X77792201Y-122293000D02*
X81434202Y-125935000D01*
X196314800Y-125935000D02*
X197402600Y-124847200D01*
X197402600Y-124847200D02*
X197402600Y-122047000D01*
X74640400Y-69903200D02*
X74640400Y-82433200D01*
X72237600Y-104038400D02*
X72237600Y-114274600D01*
X74980800Y-96570800D02*
X74980800Y-101295200D01*
X74640400Y-82433200D02*
X72085200Y-84988400D01*
X77792201Y-119829201D02*
X77792201Y-122293000D01*
X74980800Y-101295200D02*
X72237600Y-104038400D01*
%TO.N,CLK-2*%
X159296200Y-122803800D02*
X159296200Y-122054800D01*
X74365000Y-106600916D02*
X74365000Y-115132000D01*
X78593200Y-119360200D02*
X78593200Y-121961214D01*
X159296200Y-124568400D02*
X159296200Y-123553100D01*
X74390400Y-106575516D02*
X74365000Y-106600916D01*
X78593200Y-121961214D02*
X81765987Y-125134000D01*
X158731200Y-125134000D02*
X159296200Y-124568400D01*
X159296200Y-122803800D02*
X159296200Y-122257600D01*
X159302600Y-122797400D02*
X159302600Y-122047000D01*
X74365000Y-115132000D02*
X78593200Y-119360200D01*
X159296200Y-123553100D02*
X159296200Y-122803800D01*
X81765987Y-125134000D02*
X158731200Y-125134000D01*
X159296200Y-123553100D02*
X159296200Y-122803800D01*
X159296200Y-122803800D02*
X159302600Y-122797400D01*
%TO.N,Net-(D1-A)*%
X182442000Y-87299800D02*
X182442200Y-87299800D01*
X187801400Y-91109800D02*
X187801200Y-91109800D01*
X186125200Y-87299800D02*
X187801200Y-88976200D01*
X182442200Y-87299800D02*
X186125200Y-87299800D01*
X187801200Y-88976200D02*
X187801200Y-91109800D01*
%TO.N,Net-(J1-Pin_2)*%
X193364200Y-84779800D02*
X193364200Y-82804000D01*
X193364200Y-82804000D02*
X191510200Y-80949800D01*
X187801400Y-80949800D02*
X187801200Y-80949800D01*
X191510200Y-80949800D02*
X187801400Y-80949800D01*
X193364000Y-84779800D02*
X193364200Y-84779800D01*
%TD*%
%TA.AperFunction,Conductor*%
%TO.N,GND*%
G36*
X217222139Y-58040385D02*
G01*
X217267894Y-58093189D01*
X217279100Y-58144700D01*
X217279100Y-75397700D01*
X217259415Y-75464739D01*
X217206611Y-75510494D01*
X217155100Y-75521700D01*
X214970508Y-75521700D01*
X214843212Y-75555808D01*
X214729086Y-75621700D01*
X214729083Y-75621702D01*
X214635902Y-75714883D01*
X214635900Y-75714886D01*
X214570008Y-75829012D01*
X214545711Y-75919691D01*
X214535900Y-75956308D01*
X214535900Y-95971508D01*
X214535900Y-96103292D01*
X214541517Y-96124254D01*
X214570008Y-96230587D01*
X214590607Y-96266265D01*
X214635900Y-96344714D01*
X214729086Y-96437900D01*
X214843214Y-96503792D01*
X214970508Y-96537900D01*
X217155100Y-96537900D01*
X217222139Y-96557585D01*
X217267894Y-96610389D01*
X217279100Y-96661900D01*
X217279100Y-126049900D01*
X217259415Y-126116939D01*
X217206611Y-126162694D01*
X217155100Y-126173900D01*
X197365919Y-126173900D01*
X197298880Y-126154215D01*
X197253125Y-126101411D01*
X197243181Y-126032253D01*
X197272206Y-125968697D01*
X197278238Y-125962219D01*
X197946712Y-125293745D01*
X197946714Y-125293743D01*
X198023375Y-125179011D01*
X198032695Y-125156512D01*
X198076178Y-125051532D01*
X198076180Y-125051528D01*
X198095024Y-124956794D01*
X198103100Y-124916195D01*
X198103100Y-123270547D01*
X198122785Y-123203508D01*
X198154214Y-123170230D01*
X198282392Y-123077104D01*
X198432704Y-122926792D01*
X198432706Y-122926788D01*
X198432709Y-122926786D01*
X198557648Y-122754820D01*
X198557647Y-122754820D01*
X198557651Y-122754816D01*
X198562114Y-122746054D01*
X198610088Y-122695259D01*
X198677908Y-122678463D01*
X198744044Y-122700999D01*
X198783086Y-122746056D01*
X198787551Y-122754820D01*
X198912490Y-122926786D01*
X199062813Y-123077109D01*
X199234779Y-123202048D01*
X199234781Y-123202049D01*
X199234784Y-123202051D01*
X199424188Y-123298557D01*
X199626357Y-123364246D01*
X199836313Y-123397500D01*
X199836314Y-123397500D01*
X200048886Y-123397500D01*
X200048887Y-123397500D01*
X200258843Y-123364246D01*
X200461012Y-123298557D01*
X200650416Y-123202051D01*
X200736738Y-123139335D01*
X200822386Y-123077109D01*
X200822388Y-123077106D01*
X200822392Y-123077104D01*
X200972704Y-122926792D01*
X200972706Y-122926788D01*
X200972709Y-122926786D01*
X201097648Y-122754820D01*
X201097647Y-122754820D01*
X201097651Y-122754816D01*
X201102114Y-122746054D01*
X201150088Y-122695259D01*
X201217908Y-122678463D01*
X201284044Y-122700999D01*
X201323086Y-122746056D01*
X201327551Y-122754820D01*
X201452490Y-122926786D01*
X201602811Y-123077107D01*
X201673800Y-123128682D01*
X201730985Y-123170229D01*
X201773651Y-123225558D01*
X201782100Y-123270547D01*
X201782100Y-123521206D01*
X201782100Y-123659194D01*
X201782100Y-123659196D01*
X201782099Y-123659196D01*
X201809018Y-123794522D01*
X201809021Y-123794532D01*
X201861822Y-123922007D01*
X201938487Y-124036745D01*
X203058254Y-125156512D01*
X203172992Y-125233177D01*
X203300467Y-125285978D01*
X203300472Y-125285980D01*
X203300476Y-125285980D01*
X203300477Y-125285981D01*
X203435803Y-125312900D01*
X203435806Y-125312900D01*
X206266196Y-125312900D01*
X206362501Y-125293743D01*
X206401528Y-125285980D01*
X206465269Y-125259577D01*
X206529007Y-125233177D01*
X206529008Y-125233176D01*
X206529011Y-125233175D01*
X206643743Y-125156514D01*
X207706514Y-124093743D01*
X207783175Y-123979011D01*
X207796249Y-123947449D01*
X207835978Y-123851532D01*
X207835980Y-123851528D01*
X207862900Y-123716194D01*
X207862900Y-123578206D01*
X207862900Y-89897807D01*
X207862900Y-89897804D01*
X207835981Y-89762477D01*
X207835980Y-89762476D01*
X207835980Y-89762472D01*
X207828888Y-89745351D01*
X207783178Y-89634995D01*
X207783171Y-89634982D01*
X207710119Y-89525653D01*
X207710117Y-89525649D01*
X207706516Y-89520260D01*
X207706513Y-89520256D01*
X206268146Y-88081888D01*
X206268145Y-88081887D01*
X206153407Y-88005222D01*
X206025932Y-87952421D01*
X206025922Y-87952418D01*
X205890596Y-87925500D01*
X205890594Y-87925500D01*
X205890593Y-87925500D01*
X205611547Y-87925500D01*
X205544508Y-87905815D01*
X205511230Y-87874385D01*
X205430653Y-87763480D01*
X205418107Y-87746211D01*
X205267786Y-87595890D01*
X205095820Y-87470951D01*
X205095115Y-87470591D01*
X205087054Y-87466485D01*
X205036259Y-87418512D01*
X205019463Y-87350692D01*
X205041999Y-87284556D01*
X205087054Y-87245515D01*
X205095816Y-87241051D01*
X205189141Y-87173247D01*
X205267786Y-87116109D01*
X205267788Y-87116106D01*
X205267792Y-87116104D01*
X205418104Y-86965792D01*
X205418106Y-86965788D01*
X205418109Y-86965786D01*
X205543048Y-86793820D01*
X205543047Y-86793820D01*
X205543051Y-86793816D01*
X205639557Y-86604412D01*
X205705246Y-86402243D01*
X205738500Y-86192287D01*
X205738500Y-85979713D01*
X205705246Y-85769757D01*
X205639557Y-85567588D01*
X205543051Y-85378184D01*
X205543049Y-85378181D01*
X205543048Y-85378179D01*
X205418109Y-85206213D01*
X205267786Y-85055890D01*
X205095820Y-84930951D01*
X205095115Y-84930591D01*
X205087054Y-84926485D01*
X205036259Y-84878512D01*
X205019463Y-84810692D01*
X205041999Y-84744556D01*
X205087054Y-84705515D01*
X205095816Y-84701051D01*
X205119471Y-84683865D01*
X205267786Y-84576109D01*
X205267788Y-84576106D01*
X205267792Y-84576104D01*
X205310277Y-84533619D01*
X205371600Y-84500134D01*
X205397958Y-84497300D01*
X205899493Y-84497300D01*
X205899494Y-84497299D01*
X206073466Y-84462695D01*
X206162892Y-84425653D01*
X206237347Y-84394813D01*
X206331673Y-84331786D01*
X206384836Y-84296264D01*
X207125263Y-83555836D01*
X207125264Y-83555835D01*
X207223813Y-83408347D01*
X207291694Y-83244466D01*
X207294620Y-83229760D01*
X207312096Y-83141900D01*
X207312096Y-83141899D01*
X207326300Y-83070494D01*
X207326300Y-70294708D01*
X207321851Y-70272344D01*
X207321851Y-70272342D01*
X207291695Y-70120734D01*
X207254164Y-70030128D01*
X207223813Y-69956853D01*
X207141863Y-69834207D01*
X207134745Y-69823554D01*
X207125266Y-69809366D01*
X203875635Y-66559735D01*
X203875630Y-66559731D01*
X203821222Y-66523378D01*
X203821216Y-66523375D01*
X203816559Y-66520263D01*
X203728147Y-66461187D01*
X203646206Y-66427246D01*
X203564266Y-66393305D01*
X203564258Y-66393303D01*
X203390296Y-66358700D01*
X203390292Y-66358700D01*
X203390291Y-66358700D01*
X178599892Y-66358700D01*
X178422509Y-66358700D01*
X178422504Y-66358700D01*
X178248539Y-66393303D01*
X178248523Y-66393308D01*
X178132653Y-66441302D01*
X178132654Y-66441303D01*
X178084654Y-66461186D01*
X177937165Y-66559735D01*
X177937161Y-66559738D01*
X176586740Y-67910158D01*
X176586739Y-67910159D01*
X176554331Y-67958663D01*
X176554330Y-67958664D01*
X176488185Y-68057655D01*
X176454246Y-68139593D01*
X176420307Y-68221527D01*
X176420305Y-68221533D01*
X176420305Y-68221534D01*
X176401723Y-68314954D01*
X176385700Y-68395505D01*
X176385700Y-69358312D01*
X176366015Y-69425351D01*
X176313211Y-69471106D01*
X176244053Y-69481050D01*
X176180497Y-69452025D01*
X176142723Y-69393247D01*
X176139227Y-69377710D01*
X176129446Y-69315960D01*
X176129446Y-69315957D01*
X176063757Y-69113788D01*
X175967251Y-68924384D01*
X175967249Y-68924381D01*
X175967248Y-68924379D01*
X175842309Y-68752413D01*
X175691986Y-68602090D01*
X175520020Y-68477151D01*
X175330614Y-68380644D01*
X175330613Y-68380643D01*
X175330612Y-68380643D01*
X175128443Y-68314954D01*
X175128441Y-68314953D01*
X175128440Y-68314953D01*
X174967157Y-68289408D01*
X174918487Y-68281700D01*
X173405913Y-68281700D01*
X173366402Y-68287957D01*
X173195959Y-68314953D01*
X173195960Y-68314953D01*
X172993785Y-68380644D01*
X172804379Y-68477151D01*
X172632413Y-68602090D01*
X172482090Y-68752413D01*
X172357151Y-68924379D01*
X172260644Y-69113785D01*
X172194953Y-69315960D01*
X172161700Y-69525913D01*
X172161700Y-69738487D01*
X172194954Y-69948443D01*
X172221495Y-70030128D01*
X172260644Y-70150614D01*
X172357151Y-70340020D01*
X172482090Y-70511986D01*
X172632413Y-70662309D01*
X172804382Y-70787250D01*
X172813146Y-70791716D01*
X172863942Y-70839691D01*
X172880736Y-70907512D01*
X172858198Y-70973647D01*
X172813146Y-71012684D01*
X172804382Y-71017149D01*
X172632413Y-71142090D01*
X172482090Y-71292413D01*
X172357151Y-71464379D01*
X172260644Y-71653785D01*
X172194953Y-71855960D01*
X172161700Y-72065913D01*
X172161700Y-72278486D01*
X172194953Y-72488439D01*
X172260644Y-72690614D01*
X172357151Y-72880020D01*
X172482090Y-73051986D01*
X172632413Y-73202309D01*
X172804382Y-73327250D01*
X172813146Y-73331716D01*
X172863942Y-73379691D01*
X172880736Y-73447512D01*
X172858198Y-73513647D01*
X172813146Y-73552684D01*
X172804382Y-73557149D01*
X172632413Y-73682090D01*
X172482090Y-73832413D01*
X172357151Y-74004379D01*
X172260644Y-74193785D01*
X172194953Y-74395960D01*
X172173403Y-74532025D01*
X172161700Y-74605913D01*
X172161700Y-74818487D01*
X172194954Y-75028443D01*
X172240666Y-75169130D01*
X172260644Y-75230614D01*
X172357151Y-75420020D01*
X172482090Y-75591986D01*
X172632413Y-75742309D01*
X172804382Y-75867250D01*
X172813146Y-75871716D01*
X172863942Y-75919691D01*
X172880736Y-75987512D01*
X172858198Y-76053647D01*
X172813146Y-76092684D01*
X172804382Y-76097149D01*
X172632413Y-76222090D01*
X172482090Y-76372413D01*
X172357151Y-76544379D01*
X172260644Y-76733785D01*
X172194953Y-76935960D01*
X172168704Y-77101690D01*
X172161700Y-77145913D01*
X172161700Y-77358487D01*
X172163092Y-77367276D01*
X172184526Y-77502607D01*
X172194954Y-77568443D01*
X172219737Y-77644718D01*
X172260644Y-77770614D01*
X172357151Y-77960020D01*
X172482090Y-78131986D01*
X172632413Y-78282309D01*
X172804382Y-78407250D01*
X172813146Y-78411716D01*
X172863942Y-78459691D01*
X172880736Y-78527512D01*
X172858198Y-78593647D01*
X172813146Y-78632684D01*
X172804382Y-78637149D01*
X172632413Y-78762090D01*
X172482090Y-78912413D01*
X172357151Y-79084379D01*
X172260644Y-79273785D01*
X172194953Y-79475960D01*
X172161700Y-79685913D01*
X172161700Y-79898486D01*
X172194025Y-80102581D01*
X172194954Y-80108443D01*
X172258477Y-80303947D01*
X172260644Y-80310614D01*
X172357151Y-80500020D01*
X172482090Y-80671986D01*
X172632413Y-80822309D01*
X172804382Y-80947250D01*
X172813146Y-80951716D01*
X172863942Y-80999691D01*
X172880736Y-81067512D01*
X172858198Y-81133647D01*
X172813146Y-81172684D01*
X172804382Y-81177149D01*
X172632413Y-81302090D01*
X172482090Y-81452413D01*
X172357151Y-81624379D01*
X172260644Y-81813785D01*
X172194953Y-82015960D01*
X172161700Y-82225913D01*
X172161700Y-82438486D01*
X172191785Y-82628439D01*
X172194954Y-82648443D01*
X172256603Y-82838179D01*
X172260644Y-82850614D01*
X172357151Y-83040020D01*
X172482090Y-83211986D01*
X172632413Y-83362309D01*
X172804382Y-83487250D01*
X172813146Y-83491716D01*
X172863942Y-83539691D01*
X172880736Y-83607512D01*
X172858198Y-83673647D01*
X172813146Y-83712684D01*
X172804382Y-83717149D01*
X172632413Y-83842090D01*
X172632409Y-83842094D01*
X172539123Y-83935381D01*
X172477800Y-83968866D01*
X172451442Y-83971700D01*
X170766303Y-83971700D01*
X170592341Y-84006303D01*
X170592333Y-84006305D01*
X170498920Y-84044998D01*
X170498915Y-84045000D01*
X170491527Y-84048061D01*
X170428453Y-84074187D01*
X170310897Y-84152736D01*
X170307434Y-84155049D01*
X170307425Y-84155055D01*
X170280962Y-84172737D01*
X170280961Y-84172738D01*
X166109519Y-88344181D01*
X166048196Y-88377666D01*
X166021838Y-88380500D01*
X163421405Y-88380500D01*
X163247443Y-88415103D01*
X163247435Y-88415105D01*
X163162113Y-88450447D01*
X163162110Y-88450448D01*
X163155144Y-88453334D01*
X163083555Y-88482987D01*
X162972777Y-88557007D01*
X162968918Y-88559585D01*
X162968910Y-88559590D01*
X162936071Y-88581532D01*
X162936063Y-88581538D01*
X158126738Y-93390862D01*
X158126737Y-93390863D01*
X158106776Y-93420737D01*
X158106770Y-93420746D01*
X158104304Y-93424438D01*
X158028187Y-93538355D01*
X157999909Y-93606625D01*
X157996950Y-93613767D01*
X157996949Y-93613770D01*
X157960305Y-93702235D01*
X157960303Y-93702243D01*
X157928592Y-93861662D01*
X157928593Y-93861663D01*
X157925700Y-93876208D01*
X157925700Y-111446700D01*
X157906015Y-111513739D01*
X157853211Y-111559494D01*
X157801700Y-111570700D01*
X88460762Y-111570700D01*
X88431324Y-111562055D01*
X88401334Y-111555532D01*
X88396317Y-111551776D01*
X88393723Y-111551015D01*
X88373080Y-111534381D01*
X88287418Y-111448718D01*
X88253934Y-111387394D01*
X88251100Y-111361037D01*
X88251100Y-107737978D01*
X91261700Y-107737978D01*
X91261700Y-108026421D01*
X91261701Y-108026438D01*
X91299349Y-108312406D01*
X91299350Y-108312411D01*
X91299351Y-108312417D01*
X91374009Y-108591044D01*
X91374014Y-108591060D01*
X91484391Y-108857536D01*
X91484399Y-108857552D01*
X91628620Y-109107348D01*
X91628631Y-109107364D01*
X91804224Y-109336202D01*
X91804230Y-109336209D01*
X92008190Y-109540169D01*
X92008196Y-109540174D01*
X92237044Y-109715775D01*
X92237051Y-109715779D01*
X92486847Y-109860000D01*
X92486863Y-109860008D01*
X92753339Y-109970385D01*
X92753345Y-109970386D01*
X92753355Y-109970391D01*
X93031983Y-110045049D01*
X93317972Y-110082700D01*
X93317979Y-110082700D01*
X93606421Y-110082700D01*
X93606428Y-110082700D01*
X93892417Y-110045049D01*
X94171045Y-109970391D01*
X94171057Y-109970385D01*
X94171060Y-109970385D01*
X94437536Y-109860008D01*
X94437539Y-109860006D01*
X94437545Y-109860004D01*
X94687356Y-109715775D01*
X94916204Y-109540174D01*
X95120174Y-109336204D01*
X95295775Y-109107356D01*
X95440004Y-108857545D01*
X95526592Y-108648503D01*
X95550385Y-108591060D01*
X95550385Y-108591057D01*
X95550391Y-108591045D01*
X95625049Y-108312417D01*
X95662700Y-108026428D01*
X95662700Y-107737972D01*
X95625049Y-107451983D01*
X95550391Y-107173355D01*
X95550386Y-107173345D01*
X95550385Y-107173339D01*
X95440008Y-106906863D01*
X95440000Y-106906847D01*
X95295779Y-106657051D01*
X95295775Y-106657044D01*
X95120174Y-106428196D01*
X95120169Y-106428190D01*
X94916209Y-106224230D01*
X94916202Y-106224224D01*
X94687364Y-106048631D01*
X94687362Y-106048629D01*
X94687356Y-106048625D01*
X94687351Y-106048622D01*
X94687348Y-106048620D01*
X94437552Y-105904399D01*
X94437536Y-105904391D01*
X94171060Y-105794014D01*
X94171048Y-105794010D01*
X94171045Y-105794009D01*
X93892417Y-105719351D01*
X93892411Y-105719350D01*
X93892406Y-105719349D01*
X93606438Y-105681701D01*
X93606433Y-105681700D01*
X93606428Y-105681700D01*
X93317972Y-105681700D01*
X93317966Y-105681700D01*
X93317961Y-105681701D01*
X93031993Y-105719349D01*
X93031986Y-105719350D01*
X93031983Y-105719351D01*
X92753355Y-105794009D01*
X92753339Y-105794014D01*
X92486863Y-105904391D01*
X92486847Y-105904399D01*
X92237051Y-106048620D01*
X92237035Y-106048631D01*
X92008197Y-106224224D01*
X92008190Y-106224230D01*
X91804230Y-106428190D01*
X91804224Y-106428197D01*
X91628631Y-106657035D01*
X91628620Y-106657051D01*
X91484399Y-106906847D01*
X91484391Y-106906863D01*
X91374014Y-107173339D01*
X91374009Y-107173355D01*
X91299352Y-107451980D01*
X91299349Y-107451993D01*
X91261701Y-107737961D01*
X91261700Y-107737978D01*
X88251100Y-107737978D01*
X88251100Y-87338107D01*
X88240419Y-87284416D01*
X88229739Y-87230723D01*
X88229739Y-87230720D01*
X88221555Y-87189578D01*
X88216494Y-87164134D01*
X88213480Y-87156857D01*
X88213478Y-87156851D01*
X88148616Y-87000259D01*
X88148609Y-87000246D01*
X88050065Y-86852766D01*
X87991115Y-86793816D01*
X87924635Y-86727336D01*
X85486236Y-84288936D01*
X85486235Y-84288935D01*
X85486230Y-84288931D01*
X85431822Y-84252578D01*
X85431816Y-84252575D01*
X85427159Y-84249463D01*
X85338747Y-84190387D01*
X85256806Y-84156446D01*
X85247849Y-84152736D01*
X85174866Y-84122505D01*
X85174858Y-84122503D01*
X85000896Y-84087900D01*
X85000892Y-84087900D01*
X85000891Y-84087900D01*
X83235247Y-84087900D01*
X83168208Y-84068215D01*
X83147566Y-84051581D01*
X83092413Y-83996428D01*
X82926813Y-83876115D01*
X82926812Y-83876114D01*
X82926810Y-83876113D01*
X82860036Y-83842090D01*
X82744423Y-83783181D01*
X82549734Y-83719922D01*
X82369650Y-83691400D01*
X82347552Y-83687900D01*
X82142848Y-83687900D01*
X82120750Y-83691400D01*
X81940665Y-83719922D01*
X81745976Y-83783181D01*
X81563586Y-83876115D01*
X81397986Y-83996428D01*
X81253228Y-84141186D01*
X81132915Y-84306786D01*
X81039981Y-84489176D01*
X80976722Y-84683865D01*
X80944700Y-84886048D01*
X80944700Y-85090751D01*
X80976722Y-85292934D01*
X81039981Y-85487623D01*
X81132915Y-85670013D01*
X81253228Y-85835613D01*
X81397986Y-85980371D01*
X81493585Y-86049826D01*
X81563590Y-86100687D01*
X81655489Y-86147512D01*
X81745976Y-86193618D01*
X81745978Y-86193618D01*
X81745981Y-86193620D01*
X81850337Y-86227527D01*
X81940665Y-86256877D01*
X82041757Y-86272888D01*
X82142848Y-86288900D01*
X82142849Y-86288900D01*
X82347551Y-86288900D01*
X82347552Y-86288900D01*
X82549734Y-86256877D01*
X82744419Y-86193620D01*
X82926810Y-86100687D01*
X83062773Y-86001905D01*
X83092413Y-85980371D01*
X83092415Y-85980368D01*
X83092419Y-85980366D01*
X83147566Y-85925219D01*
X83208889Y-85891734D01*
X83235247Y-85888900D01*
X84487838Y-85888900D01*
X84554877Y-85908585D01*
X84575519Y-85925219D01*
X86413781Y-87763480D01*
X86447266Y-87824803D01*
X86450100Y-87851161D01*
X86450100Y-111874096D01*
X86484703Y-112048059D01*
X86484704Y-112048063D01*
X86484705Y-112048066D01*
X86504356Y-112095506D01*
X86552584Y-112211942D01*
X86552585Y-112211944D01*
X86611663Y-112300360D01*
X86651137Y-112359438D01*
X86651140Y-112359441D01*
X87336936Y-113045235D01*
X87462365Y-113170664D01*
X87609853Y-113269213D01*
X87657852Y-113289095D01*
X87773734Y-113337095D01*
X87947704Y-113371699D01*
X87947708Y-113371700D01*
X87947709Y-113371700D01*
X88125092Y-113371700D01*
X116200680Y-113371700D01*
X116267719Y-113391385D01*
X116313474Y-113444189D01*
X116323418Y-113513347D01*
X116294393Y-113576903D01*
X116288361Y-113583381D01*
X112828762Y-117042981D01*
X112767439Y-117076466D01*
X112741081Y-117079300D01*
X111674825Y-117079300D01*
X111607786Y-117059615D01*
X111567438Y-117017300D01*
X111564229Y-117011742D01*
X111493011Y-116888388D01*
X111353319Y-116706339D01*
X111353318Y-116706338D01*
X111353311Y-116706330D01*
X111191070Y-116544089D01*
X111191061Y-116544081D01*
X111009017Y-116404392D01*
X110993532Y-116395452D01*
X110810288Y-116289656D01*
X110810276Y-116289650D01*
X110598287Y-116201842D01*
X110376638Y-116142452D01*
X110338615Y-116137446D01*
X110149141Y-116112500D01*
X110149134Y-116112500D01*
X109919666Y-116112500D01*
X109919658Y-116112500D01*
X109703115Y-116141009D01*
X109692162Y-116142452D01*
X109598476Y-116167554D01*
X109470512Y-116201842D01*
X109258523Y-116289650D01*
X109258509Y-116289657D01*
X109059782Y-116404392D01*
X108877738Y-116544081D01*
X108715481Y-116706338D01*
X108575792Y-116888382D01*
X108461057Y-117087109D01*
X108459258Y-117090758D01*
X108458009Y-117090142D01*
X108417842Y-117139969D01*
X108351544Y-117162022D01*
X108347140Y-117162100D01*
X105221660Y-117162100D01*
X105154621Y-117142415D01*
X105109764Y-117090648D01*
X105109542Y-117090758D01*
X105109122Y-117089906D01*
X105108866Y-117089611D01*
X105108031Y-117087695D01*
X105107746Y-117087118D01*
X105107744Y-117087112D01*
X104993011Y-116888388D01*
X104993008Y-116888385D01*
X104993007Y-116888382D01*
X104853318Y-116706338D01*
X104853311Y-116706330D01*
X104691070Y-116544089D01*
X104691061Y-116544081D01*
X104509017Y-116404392D01*
X104493532Y-116395452D01*
X104310288Y-116289656D01*
X104310276Y-116289650D01*
X104098287Y-116201842D01*
X103876638Y-116142452D01*
X103838615Y-116137446D01*
X103649141Y-116112500D01*
X103649134Y-116112500D01*
X103419666Y-116112500D01*
X103419658Y-116112500D01*
X103203115Y-116141009D01*
X103192162Y-116142452D01*
X103098476Y-116167554D01*
X102970512Y-116201842D01*
X102758523Y-116289650D01*
X102758509Y-116289657D01*
X102559782Y-116404392D01*
X102377738Y-116544081D01*
X102215481Y-116706338D01*
X102075792Y-116888382D01*
X101961057Y-117087109D01*
X101961050Y-117087123D01*
X101873242Y-117299112D01*
X101813853Y-117520759D01*
X101813851Y-117520770D01*
X101783900Y-117748258D01*
X101783900Y-117977741D01*
X101808371Y-118163604D01*
X101813852Y-118205238D01*
X101865097Y-118396489D01*
X101873242Y-118426887D01*
X101961050Y-118638876D01*
X101961057Y-118638890D01*
X101981842Y-118674890D01*
X102064741Y-118818477D01*
X102075792Y-118837617D01*
X102215481Y-119019661D01*
X102215489Y-119019670D01*
X102377730Y-119181911D01*
X102377738Y-119181918D01*
X102377739Y-119181919D01*
X102424644Y-119217911D01*
X102559782Y-119321607D01*
X102559785Y-119321608D01*
X102559788Y-119321611D01*
X102758512Y-119436344D01*
X102758517Y-119436346D01*
X102758523Y-119436349D01*
X102845419Y-119472342D01*
X102970513Y-119524158D01*
X103192162Y-119583548D01*
X103419666Y-119613500D01*
X103419673Y-119613500D01*
X103649127Y-119613500D01*
X103649134Y-119613500D01*
X103876638Y-119583548D01*
X104098287Y-119524158D01*
X104310288Y-119436344D01*
X104509012Y-119321611D01*
X104691061Y-119181919D01*
X104691065Y-119181914D01*
X104691070Y-119181911D01*
X104853311Y-119019670D01*
X104853314Y-119019665D01*
X104853319Y-119019661D01*
X104993011Y-118837612D01*
X105107744Y-118638888D01*
X105107749Y-118638874D01*
X105109535Y-118635255D01*
X105110563Y-118635762D01*
X105151260Y-118585250D01*
X105217553Y-118563179D01*
X105221990Y-118563100D01*
X108346810Y-118563100D01*
X108413849Y-118582785D01*
X108459604Y-118635589D01*
X108460916Y-118638603D01*
X108461061Y-118638898D01*
X108575792Y-118837617D01*
X108715481Y-119019661D01*
X108715489Y-119019670D01*
X108877730Y-119181911D01*
X108877738Y-119181918D01*
X108877739Y-119181919D01*
X108924644Y-119217911D01*
X109059782Y-119321607D01*
X109059785Y-119321608D01*
X109059788Y-119321611D01*
X109258512Y-119436344D01*
X109258517Y-119436346D01*
X109258523Y-119436349D01*
X109345419Y-119472342D01*
X109470513Y-119524158D01*
X109692162Y-119583548D01*
X109919666Y-119613500D01*
X109919673Y-119613500D01*
X110149127Y-119613500D01*
X110149134Y-119613500D01*
X110376638Y-119583548D01*
X110598287Y-119524158D01*
X110810288Y-119436344D01*
X111009012Y-119321611D01*
X111191061Y-119181919D01*
X111191065Y-119181914D01*
X111191070Y-119181911D01*
X111353311Y-119019670D01*
X111353314Y-119019665D01*
X111353319Y-119019661D01*
X111493011Y-118837612D01*
X111607744Y-118638888D01*
X111631346Y-118581908D01*
X111641728Y-118556846D01*
X111685569Y-118502443D01*
X111751864Y-118480379D01*
X111756288Y-118480300D01*
X113151596Y-118480300D01*
X113242640Y-118462189D01*
X113286928Y-118453380D01*
X113354934Y-118425211D01*
X113414407Y-118400577D01*
X113414408Y-118400576D01*
X113414411Y-118400575D01*
X113529143Y-118323914D01*
X117173638Y-114679419D01*
X117234961Y-114645934D01*
X117261319Y-114643100D01*
X129152836Y-114643100D01*
X129219875Y-114662785D01*
X129265630Y-114715589D01*
X129275574Y-114784747D01*
X129246549Y-114848303D01*
X129240529Y-114854768D01*
X126972181Y-117123695D01*
X126951311Y-117144570D01*
X126889993Y-117178063D01*
X126863619Y-117180900D01*
X125936700Y-117180900D01*
X125869661Y-117161215D01*
X125829313Y-117118900D01*
X125732040Y-116950419D01*
X125717011Y-116924388D01*
X125717008Y-116924385D01*
X125717007Y-116924382D01*
X125577318Y-116742338D01*
X125577311Y-116742330D01*
X125415070Y-116580089D01*
X125415061Y-116580081D01*
X125233017Y-116440392D01*
X125034290Y-116325657D01*
X125034276Y-116325650D01*
X124822287Y-116237842D01*
X124600638Y-116178452D01*
X124562615Y-116173446D01*
X124373141Y-116148500D01*
X124373134Y-116148500D01*
X124143666Y-116148500D01*
X124143658Y-116148500D01*
X123927115Y-116177009D01*
X123916162Y-116178452D01*
X123828868Y-116201842D01*
X123694512Y-116237842D01*
X123482523Y-116325650D01*
X123482509Y-116325657D01*
X123283782Y-116440392D01*
X123101738Y-116580081D01*
X122939481Y-116742338D01*
X122799792Y-116924382D01*
X122685057Y-117123109D01*
X122683258Y-117126758D01*
X122682009Y-117126142D01*
X122641842Y-117175969D01*
X122575544Y-117198022D01*
X122571140Y-117198100D01*
X119445660Y-117198100D01*
X119378621Y-117178415D01*
X119333764Y-117126648D01*
X119333542Y-117126758D01*
X119333122Y-117125906D01*
X119332866Y-117125611D01*
X119332031Y-117123695D01*
X119331746Y-117123118D01*
X119331744Y-117123112D01*
X119217011Y-116924388D01*
X119217008Y-116924385D01*
X119217007Y-116924382D01*
X119077318Y-116742338D01*
X119077311Y-116742330D01*
X118915070Y-116580089D01*
X118915061Y-116580081D01*
X118733017Y-116440392D01*
X118534290Y-116325657D01*
X118534276Y-116325650D01*
X118322287Y-116237842D01*
X118100638Y-116178452D01*
X118062615Y-116173446D01*
X117873141Y-116148500D01*
X117873134Y-116148500D01*
X117643666Y-116148500D01*
X117643658Y-116148500D01*
X117427115Y-116177009D01*
X117416162Y-116178452D01*
X117328868Y-116201842D01*
X117194512Y-116237842D01*
X116982523Y-116325650D01*
X116982509Y-116325657D01*
X116783782Y-116440392D01*
X116601738Y-116580081D01*
X116439481Y-116742338D01*
X116299792Y-116924382D01*
X116185057Y-117123109D01*
X116185050Y-117123123D01*
X116097242Y-117335112D01*
X116037853Y-117556759D01*
X116037851Y-117556770D01*
X116007900Y-117784258D01*
X116007900Y-118013741D01*
X116028563Y-118170681D01*
X116037852Y-118241238D01*
X116097242Y-118462887D01*
X116120349Y-118518672D01*
X116185050Y-118674876D01*
X116185054Y-118674884D01*
X116185056Y-118674888D01*
X116295272Y-118865789D01*
X116299792Y-118873617D01*
X116439481Y-119055661D01*
X116439489Y-119055670D01*
X116601730Y-119217911D01*
X116601738Y-119217918D01*
X116783782Y-119357607D01*
X116783785Y-119357608D01*
X116783788Y-119357611D01*
X116982512Y-119472344D01*
X116982517Y-119472346D01*
X116982523Y-119472349D01*
X117072011Y-119509416D01*
X117194513Y-119560158D01*
X117416162Y-119619548D01*
X117643666Y-119649500D01*
X117643673Y-119649500D01*
X117873127Y-119649500D01*
X117873134Y-119649500D01*
X118100638Y-119619548D01*
X118322287Y-119560158D01*
X118534288Y-119472344D01*
X118733012Y-119357611D01*
X118915061Y-119217919D01*
X118915065Y-119217914D01*
X118915070Y-119217911D01*
X119077311Y-119055670D01*
X119077314Y-119055665D01*
X119077319Y-119055661D01*
X119217011Y-118873612D01*
X119331744Y-118674888D01*
X119331749Y-118674874D01*
X119333535Y-118671255D01*
X119334563Y-118671762D01*
X119375260Y-118621250D01*
X119441553Y-118599179D01*
X119445990Y-118599100D01*
X122570810Y-118599100D01*
X122637849Y-118618785D01*
X122683604Y-118671589D01*
X122684916Y-118674603D01*
X122685061Y-118674898D01*
X122799792Y-118873617D01*
X122939481Y-119055661D01*
X122939489Y-119055670D01*
X123101730Y-119217911D01*
X123101738Y-119217918D01*
X123283782Y-119357607D01*
X123283785Y-119357608D01*
X123283788Y-119357611D01*
X123482512Y-119472344D01*
X123482517Y-119472346D01*
X123482523Y-119472349D01*
X123572011Y-119509416D01*
X123694513Y-119560158D01*
X123916162Y-119619548D01*
X124143666Y-119649500D01*
X124143673Y-119649500D01*
X124373127Y-119649500D01*
X124373134Y-119649500D01*
X124600638Y-119619548D01*
X124822287Y-119560158D01*
X125034288Y-119472344D01*
X125233012Y-119357611D01*
X125415061Y-119217919D01*
X125415065Y-119217914D01*
X125415070Y-119217911D01*
X125577311Y-119055670D01*
X125577314Y-119055665D01*
X125577319Y-119055661D01*
X125717011Y-118873612D01*
X125831744Y-118674888D01*
X125838553Y-118658448D01*
X125882393Y-118604045D01*
X125948687Y-118581979D01*
X125953115Y-118581900D01*
X127136255Y-118581900D01*
X127136295Y-118581908D01*
X127201231Y-118581900D01*
X127274193Y-118581900D01*
X127274204Y-118581897D01*
X127274269Y-118581891D01*
X127274283Y-118581891D01*
X127341982Y-118568415D01*
X127408848Y-118555115D01*
X127409533Y-118554986D01*
X127409607Y-118554955D01*
X127409614Y-118554954D01*
X127471254Y-118529412D01*
X127471256Y-118529411D01*
X127471256Y-118529412D01*
X127471262Y-118529408D01*
X127537011Y-118502175D01*
X127537020Y-118502168D01*
X127537053Y-118502155D01*
X127537083Y-118502134D01*
X127537090Y-118502132D01*
X127595809Y-118462887D01*
X127651742Y-118425514D01*
X127651746Y-118425509D01*
X127651781Y-118425486D01*
X127651806Y-118425460D01*
X127651812Y-118425457D01*
X127703431Y-118373825D01*
X127749314Y-118327942D01*
X127753991Y-118323265D01*
X127754117Y-118323124D01*
X130596088Y-115480429D01*
X130657406Y-115446937D01*
X130683780Y-115444100D01*
X142270681Y-115444100D01*
X142337720Y-115463785D01*
X142383475Y-115516589D01*
X142393419Y-115585747D01*
X142364394Y-115649303D01*
X142358362Y-115655781D01*
X140852362Y-117161781D01*
X140791039Y-117195266D01*
X140764681Y-117198100D01*
X140169660Y-117198100D01*
X140102621Y-117178415D01*
X140057764Y-117126648D01*
X140057542Y-117126758D01*
X140057122Y-117125906D01*
X140056866Y-117125611D01*
X140056031Y-117123695D01*
X140055746Y-117123118D01*
X140055744Y-117123112D01*
X139941011Y-116924388D01*
X139941008Y-116924385D01*
X139941007Y-116924382D01*
X139801318Y-116742338D01*
X139801311Y-116742330D01*
X139639070Y-116580089D01*
X139639061Y-116580081D01*
X139457017Y-116440392D01*
X139258290Y-116325657D01*
X139258276Y-116325650D01*
X139046287Y-116237842D01*
X138824638Y-116178452D01*
X138786615Y-116173446D01*
X138597141Y-116148500D01*
X138597134Y-116148500D01*
X138367666Y-116148500D01*
X138367658Y-116148500D01*
X138151115Y-116177009D01*
X138140162Y-116178452D01*
X138052868Y-116201842D01*
X137918512Y-116237842D01*
X137706523Y-116325650D01*
X137706509Y-116325657D01*
X137507782Y-116440392D01*
X137325738Y-116580081D01*
X137163481Y-116742338D01*
X137023792Y-116924382D01*
X136909057Y-117123109D01*
X136907258Y-117126758D01*
X136906009Y-117126142D01*
X136865842Y-117175969D01*
X136799544Y-117198022D01*
X136795140Y-117198100D01*
X133669660Y-117198100D01*
X133602621Y-117178415D01*
X133557764Y-117126648D01*
X133557542Y-117126758D01*
X133557122Y-117125906D01*
X133556866Y-117125611D01*
X133556031Y-117123695D01*
X133555746Y-117123118D01*
X133555744Y-117123112D01*
X133441011Y-116924388D01*
X133441008Y-116924385D01*
X133441007Y-116924382D01*
X133301318Y-116742338D01*
X133301311Y-116742330D01*
X133139070Y-116580089D01*
X133139061Y-116580081D01*
X132957017Y-116440392D01*
X132758290Y-116325657D01*
X132758276Y-116325650D01*
X132546287Y-116237842D01*
X132324638Y-116178452D01*
X132286615Y-116173446D01*
X132097141Y-116148500D01*
X132097134Y-116148500D01*
X131867666Y-116148500D01*
X131867658Y-116148500D01*
X131651115Y-116177009D01*
X131640162Y-116178452D01*
X131552868Y-116201842D01*
X131418512Y-116237842D01*
X131206523Y-116325650D01*
X131206509Y-116325657D01*
X131007782Y-116440392D01*
X130825738Y-116580081D01*
X130663481Y-116742338D01*
X130523792Y-116924382D01*
X130409057Y-117123109D01*
X130409050Y-117123123D01*
X130321242Y-117335112D01*
X130261853Y-117556759D01*
X130261851Y-117556770D01*
X130231900Y-117784258D01*
X130231900Y-118013741D01*
X130252563Y-118170681D01*
X130261852Y-118241238D01*
X130321242Y-118462887D01*
X130344349Y-118518672D01*
X130409050Y-118674876D01*
X130409054Y-118674884D01*
X130409056Y-118674888D01*
X130519272Y-118865789D01*
X130523792Y-118873617D01*
X130663481Y-119055661D01*
X130663489Y-119055670D01*
X130825730Y-119217911D01*
X130825738Y-119217918D01*
X131007782Y-119357607D01*
X131007785Y-119357608D01*
X131007788Y-119357611D01*
X131206512Y-119472344D01*
X131206517Y-119472346D01*
X131206523Y-119472349D01*
X131296011Y-119509416D01*
X131418513Y-119560158D01*
X131640162Y-119619548D01*
X131867666Y-119649500D01*
X131867673Y-119649500D01*
X132097127Y-119649500D01*
X132097134Y-119649500D01*
X132324638Y-119619548D01*
X132546287Y-119560158D01*
X132758288Y-119472344D01*
X132957012Y-119357611D01*
X133139061Y-119217919D01*
X133139065Y-119217914D01*
X133139070Y-119217911D01*
X133301311Y-119055670D01*
X133301314Y-119055665D01*
X133301319Y-119055661D01*
X133441011Y-118873612D01*
X133555744Y-118674888D01*
X133555749Y-118674874D01*
X133557535Y-118671255D01*
X133558563Y-118671762D01*
X133599260Y-118621250D01*
X133665553Y-118599179D01*
X133669990Y-118599100D01*
X135163207Y-118599100D01*
X136794810Y-118599100D01*
X136861849Y-118618785D01*
X136907604Y-118671589D01*
X136908916Y-118674603D01*
X136909061Y-118674898D01*
X137023792Y-118873617D01*
X137163481Y-119055661D01*
X137163489Y-119055670D01*
X137325730Y-119217911D01*
X137325738Y-119217918D01*
X137507782Y-119357607D01*
X137507785Y-119357608D01*
X137507788Y-119357611D01*
X137706512Y-119472344D01*
X137706517Y-119472346D01*
X137706523Y-119472349D01*
X137796011Y-119509416D01*
X137918513Y-119560158D01*
X138140162Y-119619548D01*
X138367666Y-119649500D01*
X138367673Y-119649500D01*
X138597127Y-119649500D01*
X138597134Y-119649500D01*
X138824638Y-119619548D01*
X139046287Y-119560158D01*
X139258288Y-119472344D01*
X139457012Y-119357611D01*
X139639061Y-119217919D01*
X139639065Y-119217914D01*
X139639070Y-119217911D01*
X139801311Y-119055670D01*
X139801314Y-119055665D01*
X139801319Y-119055661D01*
X139941011Y-118873612D01*
X140055744Y-118674888D01*
X140055749Y-118674874D01*
X140057535Y-118671255D01*
X140058563Y-118671762D01*
X140099260Y-118621250D01*
X140165553Y-118599179D01*
X140169990Y-118599100D01*
X141175196Y-118599100D01*
X141266240Y-118580989D01*
X141310528Y-118572180D01*
X141397223Y-118536270D01*
X141438007Y-118519377D01*
X141438008Y-118519376D01*
X141438011Y-118519375D01*
X141552743Y-118442714D01*
X141552745Y-118442712D01*
X141552748Y-118442710D01*
X143714038Y-116281419D01*
X143775361Y-116247934D01*
X143801719Y-116245100D01*
X145074086Y-116245100D01*
X145141125Y-116264785D01*
X145186880Y-116317589D01*
X145196824Y-116386747D01*
X145167799Y-116450303D01*
X145149573Y-116467475D01*
X145049738Y-116544081D01*
X144887481Y-116706338D01*
X144747792Y-116888382D01*
X144633057Y-117087109D01*
X144633050Y-117087123D01*
X144545242Y-117299112D01*
X144485853Y-117520759D01*
X144485851Y-117520770D01*
X144455900Y-117748258D01*
X144455900Y-117977741D01*
X144480371Y-118163604D01*
X144485852Y-118205238D01*
X144537097Y-118396489D01*
X144545242Y-118426887D01*
X144633050Y-118638876D01*
X144633057Y-118638890D01*
X144653842Y-118674890D01*
X144736741Y-118818477D01*
X144747792Y-118837617D01*
X144887481Y-119019661D01*
X144887489Y-119019670D01*
X145049730Y-119181911D01*
X145049738Y-119181918D01*
X145049739Y-119181919D01*
X145096644Y-119217911D01*
X145231782Y-119321607D01*
X145231785Y-119321608D01*
X145231788Y-119321611D01*
X145430512Y-119436344D01*
X145430517Y-119436346D01*
X145430523Y-119436349D01*
X145517419Y-119472342D01*
X145642513Y-119524158D01*
X145864162Y-119583548D01*
X146091666Y-119613500D01*
X146091673Y-119613500D01*
X146321127Y-119613500D01*
X146321134Y-119613500D01*
X146548638Y-119583548D01*
X146770287Y-119524158D01*
X146982288Y-119436344D01*
X147181012Y-119321611D01*
X147363061Y-119181919D01*
X147363065Y-119181914D01*
X147363070Y-119181911D01*
X147525311Y-119019670D01*
X147525314Y-119019665D01*
X147525319Y-119019661D01*
X147665011Y-118837612D01*
X147779744Y-118638888D01*
X147779749Y-118638874D01*
X147781535Y-118635255D01*
X147782563Y-118635762D01*
X147823260Y-118585250D01*
X147889553Y-118563179D01*
X147893990Y-118563100D01*
X151018810Y-118563100D01*
X151085849Y-118582785D01*
X151131604Y-118635589D01*
X151132916Y-118638603D01*
X151133061Y-118638898D01*
X151247792Y-118837617D01*
X151387481Y-119019661D01*
X151387489Y-119019670D01*
X151549730Y-119181911D01*
X151549738Y-119181918D01*
X151549739Y-119181919D01*
X151596644Y-119217911D01*
X151731782Y-119321607D01*
X151731785Y-119321608D01*
X151731788Y-119321611D01*
X151930512Y-119436344D01*
X151930517Y-119436346D01*
X151930523Y-119436349D01*
X152017419Y-119472342D01*
X152142513Y-119524158D01*
X152364162Y-119583548D01*
X152591666Y-119613500D01*
X152591673Y-119613500D01*
X152821127Y-119613500D01*
X152821134Y-119613500D01*
X153048638Y-119583548D01*
X153270287Y-119524158D01*
X153482288Y-119436344D01*
X153681012Y-119321611D01*
X153863061Y-119181919D01*
X153863065Y-119181914D01*
X153863070Y-119181911D01*
X154025311Y-119019670D01*
X154025314Y-119019665D01*
X154025319Y-119019661D01*
X154165011Y-118837612D01*
X154279744Y-118638888D01*
X154279749Y-118638874D01*
X154281535Y-118635255D01*
X154282563Y-118635762D01*
X154323260Y-118585250D01*
X154389553Y-118563179D01*
X154393990Y-118563100D01*
X159993681Y-118563100D01*
X160060720Y-118582785D01*
X160081362Y-118599419D01*
X161635653Y-120153711D01*
X161635654Y-120153712D01*
X161750392Y-120230377D01*
X161827721Y-120262407D01*
X161877872Y-120283180D01*
X161877876Y-120283180D01*
X161877877Y-120283181D01*
X162013203Y-120310100D01*
X162013206Y-120310100D01*
X162013207Y-120310100D01*
X163312681Y-120310100D01*
X163379720Y-120329785D01*
X163400362Y-120346419D01*
X163623381Y-120569438D01*
X163638084Y-120596365D01*
X163654677Y-120622184D01*
X163655568Y-120628384D01*
X163656866Y-120630761D01*
X163659700Y-120657119D01*
X163659700Y-120839726D01*
X163640015Y-120906765D01*
X163608585Y-120940044D01*
X163502814Y-121016890D01*
X163502809Y-121016894D01*
X163352490Y-121167213D01*
X163227551Y-121339179D01*
X163131044Y-121528585D01*
X163065353Y-121730760D01*
X163032100Y-121940713D01*
X163032100Y-122153287D01*
X163065354Y-122363243D01*
X163108922Y-122497332D01*
X163131044Y-122565414D01*
X163227551Y-122754820D01*
X163352490Y-122926786D01*
X163502813Y-123077109D01*
X163674779Y-123202048D01*
X163674781Y-123202049D01*
X163674784Y-123202051D01*
X163864188Y-123298557D01*
X164066357Y-123364246D01*
X164276313Y-123397500D01*
X164276314Y-123397500D01*
X164488886Y-123397500D01*
X164488887Y-123397500D01*
X164698843Y-123364246D01*
X164901012Y-123298557D01*
X165090416Y-123202051D01*
X165176738Y-123139335D01*
X165262386Y-123077109D01*
X165262388Y-123077106D01*
X165262392Y-123077104D01*
X165412704Y-122926792D01*
X165412706Y-122926788D01*
X165412709Y-122926786D01*
X165537648Y-122754820D01*
X165537647Y-122754820D01*
X165537651Y-122754816D01*
X165542114Y-122746054D01*
X165590088Y-122695259D01*
X165657908Y-122678463D01*
X165724044Y-122700999D01*
X165763086Y-122746056D01*
X165767551Y-122754820D01*
X165892490Y-122926786D01*
X166042813Y-123077109D01*
X166214779Y-123202048D01*
X166214781Y-123202049D01*
X166214784Y-123202051D01*
X166404188Y-123298557D01*
X166606357Y-123364246D01*
X166816313Y-123397500D01*
X166816314Y-123397500D01*
X167028886Y-123397500D01*
X167028887Y-123397500D01*
X167238843Y-123364246D01*
X167441012Y-123298557D01*
X167630416Y-123202051D01*
X167716738Y-123139335D01*
X167802386Y-123077109D01*
X167802388Y-123077106D01*
X167802392Y-123077104D01*
X167952704Y-122926792D01*
X167952706Y-122926788D01*
X167952709Y-122926786D01*
X168077648Y-122754820D01*
X168077647Y-122754820D01*
X168077651Y-122754816D01*
X168082114Y-122746054D01*
X168130088Y-122695259D01*
X168197908Y-122678463D01*
X168264044Y-122700999D01*
X168303086Y-122746056D01*
X168307551Y-122754820D01*
X168432490Y-122926786D01*
X168582813Y-123077109D01*
X168754779Y-123202048D01*
X168754781Y-123202049D01*
X168754784Y-123202051D01*
X168944188Y-123298557D01*
X169146357Y-123364246D01*
X169356313Y-123397500D01*
X169356314Y-123397500D01*
X169568886Y-123397500D01*
X169568887Y-123397500D01*
X169778843Y-123364246D01*
X169981012Y-123298557D01*
X170170416Y-123202051D01*
X170256738Y-123139335D01*
X170342386Y-123077109D01*
X170342388Y-123077106D01*
X170342392Y-123077104D01*
X170492704Y-122926792D01*
X170492706Y-122926788D01*
X170492709Y-122926786D01*
X170617648Y-122754820D01*
X170617647Y-122754820D01*
X170617651Y-122754816D01*
X170622114Y-122746054D01*
X170670088Y-122695259D01*
X170737908Y-122678463D01*
X170804044Y-122700999D01*
X170843086Y-122746056D01*
X170847551Y-122754820D01*
X170972490Y-122926786D01*
X171122813Y-123077109D01*
X171294779Y-123202048D01*
X171294781Y-123202049D01*
X171294784Y-123202051D01*
X171484188Y-123298557D01*
X171686357Y-123364246D01*
X171896313Y-123397500D01*
X171896314Y-123397500D01*
X172108886Y-123397500D01*
X172108887Y-123397500D01*
X172318843Y-123364246D01*
X172521012Y-123298557D01*
X172710416Y-123202051D01*
X172796738Y-123139335D01*
X172882386Y-123077109D01*
X172882388Y-123077106D01*
X172882392Y-123077104D01*
X173032704Y-122926792D01*
X173032706Y-122926788D01*
X173032709Y-122926786D01*
X173157648Y-122754820D01*
X173157647Y-122754820D01*
X173157651Y-122754816D01*
X173162114Y-122746054D01*
X173210088Y-122695259D01*
X173277908Y-122678463D01*
X173344044Y-122700999D01*
X173383086Y-122746056D01*
X173387551Y-122754820D01*
X173512490Y-122926786D01*
X173662813Y-123077109D01*
X173834779Y-123202048D01*
X173834781Y-123202049D01*
X173834784Y-123202051D01*
X174024188Y-123298557D01*
X174226357Y-123364246D01*
X174436313Y-123397500D01*
X174436314Y-123397500D01*
X174648886Y-123397500D01*
X174648887Y-123397500D01*
X174858843Y-123364246D01*
X175061012Y-123298557D01*
X175250416Y-123202051D01*
X175336738Y-123139335D01*
X175422386Y-123077109D01*
X175422388Y-123077106D01*
X175422392Y-123077104D01*
X175572704Y-122926792D01*
X175572706Y-122926788D01*
X175572709Y-122926786D01*
X175697648Y-122754820D01*
X175697647Y-122754820D01*
X175697651Y-122754816D01*
X175702114Y-122746054D01*
X175750088Y-122695259D01*
X175817908Y-122678463D01*
X175884044Y-122700999D01*
X175923086Y-122746056D01*
X175927551Y-122754820D01*
X176052490Y-122926786D01*
X176202813Y-123077109D01*
X176374779Y-123202048D01*
X176374781Y-123202049D01*
X176374784Y-123202051D01*
X176564188Y-123298557D01*
X176766357Y-123364246D01*
X176976313Y-123397500D01*
X176976314Y-123397500D01*
X177188886Y-123397500D01*
X177188887Y-123397500D01*
X177398843Y-123364246D01*
X177601012Y-123298557D01*
X177790416Y-123202051D01*
X177876738Y-123139335D01*
X177962386Y-123077109D01*
X177962388Y-123077106D01*
X177962392Y-123077104D01*
X178112704Y-122926792D01*
X178112706Y-122926788D01*
X178112709Y-122926786D01*
X178237648Y-122754820D01*
X178237647Y-122754820D01*
X178237651Y-122754816D01*
X178242114Y-122746054D01*
X178290088Y-122695259D01*
X178357908Y-122678463D01*
X178424044Y-122700999D01*
X178463086Y-122746056D01*
X178467551Y-122754820D01*
X178592490Y-122926786D01*
X178742813Y-123077109D01*
X178914779Y-123202048D01*
X178914781Y-123202049D01*
X178914784Y-123202051D01*
X179104188Y-123298557D01*
X179306357Y-123364246D01*
X179516313Y-123397500D01*
X179516314Y-123397500D01*
X179728886Y-123397500D01*
X179728887Y-123397500D01*
X179938843Y-123364246D01*
X180141012Y-123298557D01*
X180330416Y-123202051D01*
X180416738Y-123139335D01*
X180502386Y-123077109D01*
X180502388Y-123077106D01*
X180502392Y-123077104D01*
X180652704Y-122926792D01*
X180652706Y-122926788D01*
X180652709Y-122926786D01*
X180777648Y-122754820D01*
X180777647Y-122754820D01*
X180777651Y-122754816D01*
X180782114Y-122746054D01*
X180830088Y-122695259D01*
X180897908Y-122678463D01*
X180964044Y-122700999D01*
X181003086Y-122746056D01*
X181007551Y-122754820D01*
X181132490Y-122926786D01*
X181282813Y-123077109D01*
X181454779Y-123202048D01*
X181454781Y-123202049D01*
X181454784Y-123202051D01*
X181644188Y-123298557D01*
X181846357Y-123364246D01*
X182056313Y-123397500D01*
X182056314Y-123397500D01*
X182268886Y-123397500D01*
X182268887Y-123397500D01*
X182478843Y-123364246D01*
X182681012Y-123298557D01*
X182870416Y-123202051D01*
X182956738Y-123139335D01*
X183042386Y-123077109D01*
X183042388Y-123077106D01*
X183042392Y-123077104D01*
X183192704Y-122926792D01*
X183192706Y-122926788D01*
X183192709Y-122926786D01*
X183317648Y-122754820D01*
X183317647Y-122754820D01*
X183317651Y-122754816D01*
X183322114Y-122746054D01*
X183370088Y-122695259D01*
X183437908Y-122678463D01*
X183504044Y-122700999D01*
X183543086Y-122746056D01*
X183547551Y-122754820D01*
X183672490Y-122926786D01*
X183822813Y-123077109D01*
X183994779Y-123202048D01*
X183994781Y-123202049D01*
X183994784Y-123202051D01*
X184184188Y-123298557D01*
X184386357Y-123364246D01*
X184596313Y-123397500D01*
X184596314Y-123397500D01*
X184808886Y-123397500D01*
X184808887Y-123397500D01*
X185018843Y-123364246D01*
X185221012Y-123298557D01*
X185410416Y-123202051D01*
X185496738Y-123139335D01*
X185582386Y-123077109D01*
X185582388Y-123077106D01*
X185582392Y-123077104D01*
X185732704Y-122926792D01*
X185732706Y-122926788D01*
X185732709Y-122926786D01*
X185857648Y-122754820D01*
X185857647Y-122754820D01*
X185857651Y-122754816D01*
X185954157Y-122565412D01*
X186019846Y-122363243D01*
X186053100Y-122153287D01*
X186053100Y-121940713D01*
X186019846Y-121730757D01*
X185954157Y-121528588D01*
X185857651Y-121339184D01*
X185857649Y-121339181D01*
X185857648Y-121339179D01*
X185732709Y-121167213D01*
X185582392Y-121016896D01*
X185576479Y-121012600D01*
X185431813Y-120907495D01*
X185389149Y-120852167D01*
X185380700Y-120807178D01*
X185380700Y-118975807D01*
X185380702Y-118925630D01*
X185380700Y-118925619D01*
X185380700Y-118925607D01*
X185380700Y-118925604D01*
X185367682Y-118860160D01*
X185366332Y-118853375D01*
X185354811Y-118795446D01*
X185354292Y-118792089D01*
X185353998Y-118790801D01*
X185353780Y-118790275D01*
X185353780Y-118790272D01*
X185322592Y-118714977D01*
X185312636Y-118690938D01*
X185301996Y-118665247D01*
X185301257Y-118663347D01*
X185300932Y-118662704D01*
X185300357Y-118661864D01*
X185261875Y-118604272D01*
X185224329Y-118548075D01*
X185224326Y-118548072D01*
X185224324Y-118548069D01*
X185224313Y-118548056D01*
X185193681Y-118517425D01*
X185193677Y-118517421D01*
X179339945Y-112663291D01*
X179339945Y-112663290D01*
X179336316Y-112659661D01*
X179336314Y-112659658D01*
X179297732Y-112621076D01*
X179238761Y-112562101D01*
X179238752Y-112562094D01*
X179238738Y-112562083D01*
X179177787Y-112521357D01*
X179177784Y-112521355D01*
X179124032Y-112485437D01*
X179124023Y-112485433D01*
X179124011Y-112485425D01*
X179123989Y-112485416D01*
X179123988Y-112485415D01*
X179052140Y-112455655D01*
X179051819Y-112455522D01*
X178996551Y-112432627D01*
X178996539Y-112432624D01*
X178996528Y-112432620D01*
X178995606Y-112432436D01*
X178995605Y-112432436D01*
X178922301Y-112417854D01*
X178922228Y-112417840D01*
X178921927Y-112417780D01*
X178861218Y-112405703D01*
X178861208Y-112405702D01*
X178861193Y-112405700D01*
X178859459Y-112405700D01*
X178778425Y-112405700D01*
X178723230Y-112405698D01*
X178723220Y-112405700D01*
X165140616Y-112405700D01*
X165073577Y-112386015D01*
X165052953Y-112369400D01*
X164908435Y-112224944D01*
X164332168Y-111648922D01*
X163898037Y-111214976D01*
X163864539Y-111153660D01*
X163861700Y-111127276D01*
X163861700Y-107637978D01*
X166861700Y-107637978D01*
X166861700Y-107926421D01*
X166861701Y-107926438D01*
X166899349Y-108212406D01*
X166899350Y-108212411D01*
X166899351Y-108212417D01*
X166974009Y-108491044D01*
X166974014Y-108491060D01*
X167084391Y-108757536D01*
X167084399Y-108757552D01*
X167228620Y-109007348D01*
X167228631Y-109007364D01*
X167404224Y-109236202D01*
X167404230Y-109236209D01*
X167608190Y-109440169D01*
X167608196Y-109440174D01*
X167837044Y-109615775D01*
X167837051Y-109615779D01*
X168086847Y-109760000D01*
X168086863Y-109760008D01*
X168353339Y-109870385D01*
X168353345Y-109870386D01*
X168353355Y-109870391D01*
X168631983Y-109945049D01*
X168917972Y-109982700D01*
X168917979Y-109982700D01*
X169206421Y-109982700D01*
X169206428Y-109982700D01*
X169492417Y-109945049D01*
X169771045Y-109870391D01*
X169771057Y-109870385D01*
X169771060Y-109870385D01*
X170037536Y-109760008D01*
X170037539Y-109760006D01*
X170037545Y-109760004D01*
X170287356Y-109615775D01*
X170516204Y-109440174D01*
X170720174Y-109236204D01*
X170895775Y-109007356D01*
X171040004Y-108757545D01*
X171085171Y-108648503D01*
X171150385Y-108491060D01*
X171150385Y-108491057D01*
X171150391Y-108491045D01*
X171225049Y-108212417D01*
X171262700Y-107926428D01*
X171262700Y-107637972D01*
X171225049Y-107351983D01*
X171150391Y-107073355D01*
X171150386Y-107073345D01*
X171150385Y-107073339D01*
X171040008Y-106806863D01*
X171040000Y-106806847D01*
X170895779Y-106557051D01*
X170895775Y-106557044D01*
X170720174Y-106328196D01*
X170720169Y-106328190D01*
X170516209Y-106124230D01*
X170516202Y-106124224D01*
X170287364Y-105948631D01*
X170287362Y-105948629D01*
X170287356Y-105948625D01*
X170287351Y-105948622D01*
X170287348Y-105948620D01*
X170037552Y-105804399D01*
X170037536Y-105804391D01*
X169771060Y-105694014D01*
X169771048Y-105694010D01*
X169771045Y-105694009D01*
X169492417Y-105619351D01*
X169492411Y-105619350D01*
X169492406Y-105619349D01*
X169206438Y-105581701D01*
X169206433Y-105581700D01*
X169206428Y-105581700D01*
X168917972Y-105581700D01*
X168917966Y-105581700D01*
X168917961Y-105581701D01*
X168631993Y-105619349D01*
X168631986Y-105619350D01*
X168631983Y-105619351D01*
X168399293Y-105681700D01*
X168353355Y-105694009D01*
X168353339Y-105694014D01*
X168086863Y-105804391D01*
X168086847Y-105804399D01*
X167837051Y-105948620D01*
X167837035Y-105948631D01*
X167608197Y-106124224D01*
X167608190Y-106124230D01*
X167404230Y-106328190D01*
X167404224Y-106328197D01*
X167228631Y-106557035D01*
X167228620Y-106557051D01*
X167084399Y-106806847D01*
X167084391Y-106806863D01*
X166974014Y-107073339D01*
X166974009Y-107073355D01*
X166899352Y-107351980D01*
X166899349Y-107351993D01*
X166861701Y-107637961D01*
X166861700Y-107637978D01*
X163861700Y-107637978D01*
X163861700Y-96012379D01*
X163881385Y-95945340D01*
X163898030Y-95924687D01*
X163978524Y-95844214D01*
X164500558Y-95322312D01*
X164989987Y-94833008D01*
X165051314Y-94799530D01*
X165077657Y-94796700D01*
X167195092Y-94796700D01*
X167262131Y-94816385D01*
X167282771Y-94833016D01*
X168794556Y-96344713D01*
X170535162Y-98085218D01*
X170569658Y-98119714D01*
X170569664Y-98119718D01*
X170569673Y-98119727D01*
X170626562Y-98157736D01*
X170682890Y-98195373D01*
X170684201Y-98196279D01*
X170684383Y-98196371D01*
X170684389Y-98196375D01*
X170684394Y-98196377D01*
X170684403Y-98196381D01*
X170684407Y-98196384D01*
X170684415Y-98196387D01*
X170684936Y-98196651D01*
X170686838Y-98197390D01*
X170742065Y-98220265D01*
X170809994Y-98248402D01*
X170809993Y-98248402D01*
X170812518Y-98249448D01*
X170816212Y-98250045D01*
X170883464Y-98263420D01*
X170947207Y-98276100D01*
X170947211Y-98276100D01*
X170947216Y-98276101D01*
X170947221Y-98276100D01*
X170947227Y-98276102D01*
X171016220Y-98276100D01*
X171016222Y-98276100D01*
X172291122Y-98276100D01*
X172358161Y-98295785D01*
X172391440Y-98327215D01*
X172482090Y-98451985D01*
X172482094Y-98451990D01*
X172632413Y-98602309D01*
X172804379Y-98727248D01*
X172804381Y-98727249D01*
X172804384Y-98727251D01*
X172993788Y-98823757D01*
X173195957Y-98889446D01*
X173405913Y-98922700D01*
X173405914Y-98922700D01*
X174918486Y-98922700D01*
X174918487Y-98922700D01*
X175128443Y-98889446D01*
X175330612Y-98823757D01*
X175520016Y-98727251D01*
X175541989Y-98711286D01*
X175691986Y-98602309D01*
X175691988Y-98602306D01*
X175691992Y-98602304D01*
X175842304Y-98451992D01*
X175842306Y-98451988D01*
X175842309Y-98451986D01*
X175967248Y-98280020D01*
X175967247Y-98280020D01*
X175967251Y-98280016D01*
X176063757Y-98090612D01*
X176129446Y-97888443D01*
X176139227Y-97826689D01*
X176169156Y-97763554D01*
X176228468Y-97726623D01*
X176298330Y-97727621D01*
X176356563Y-97766231D01*
X176384677Y-97830194D01*
X176385700Y-97846087D01*
X176385700Y-101622499D01*
X176366015Y-101689538D01*
X176313211Y-101735293D01*
X176244053Y-101745237D01*
X176180497Y-101716212D01*
X176145518Y-101665832D01*
X176105997Y-101559871D01*
X176105993Y-101559864D01*
X176019747Y-101444655D01*
X176019744Y-101444652D01*
X175904535Y-101358406D01*
X175904528Y-101358402D01*
X175769682Y-101308108D01*
X175769683Y-101308108D01*
X175710083Y-101301701D01*
X175710081Y-101301700D01*
X175710073Y-101301700D01*
X175710064Y-101301700D01*
X172614329Y-101301700D01*
X172614323Y-101301701D01*
X172554716Y-101308108D01*
X172419871Y-101358402D01*
X172419864Y-101358406D01*
X172304655Y-101444652D01*
X172304652Y-101444655D01*
X172218406Y-101559864D01*
X172218402Y-101559871D01*
X172168108Y-101694717D01*
X172161701Y-101754316D01*
X172161700Y-101754335D01*
X172161700Y-103550070D01*
X172161701Y-103550076D01*
X172168108Y-103609683D01*
X172218402Y-103744528D01*
X172218406Y-103744535D01*
X172304652Y-103859744D01*
X172304655Y-103859747D01*
X172419864Y-103945993D01*
X172419871Y-103945997D01*
X172456182Y-103959540D01*
X172554717Y-103996291D01*
X172614327Y-104002700D01*
X173137700Y-104002699D01*
X173204739Y-104022383D01*
X173250494Y-104075187D01*
X173261700Y-104126699D01*
X173261700Y-109607896D01*
X173296303Y-109781858D01*
X173296305Y-109781866D01*
X173323894Y-109848471D01*
X173364184Y-109945742D01*
X173364185Y-109945744D01*
X173423263Y-110034160D01*
X173462737Y-110093238D01*
X173462740Y-110093241D01*
X174255736Y-110886235D01*
X174381165Y-111011664D01*
X174381166Y-111011665D01*
X174528646Y-111110209D01*
X174528659Y-111110216D01*
X174633544Y-111153660D01*
X174692534Y-111178094D01*
X174735135Y-111186568D01*
X174866505Y-111212700D01*
X174866508Y-111212700D01*
X174866509Y-111212700D01*
X180602438Y-111212700D01*
X180669477Y-111232385D01*
X180690119Y-111249019D01*
X181621158Y-112180059D01*
X181621159Y-112180060D01*
X181621162Y-112180062D01*
X181621164Y-112180064D01*
X181665253Y-112209523D01*
X181684041Y-112224942D01*
X188722273Y-119263361D01*
X188840382Y-119381473D01*
X188873867Y-119442797D01*
X188876700Y-119469153D01*
X188876700Y-120991642D01*
X188857015Y-121058681D01*
X188840381Y-121079323D01*
X188752494Y-121167209D01*
X188752490Y-121167213D01*
X188627551Y-121339179D01*
X188531044Y-121528585D01*
X188465353Y-121730760D01*
X188432100Y-121940713D01*
X188432100Y-122153287D01*
X188465354Y-122363243D01*
X188508922Y-122497332D01*
X188531044Y-122565414D01*
X188627551Y-122754820D01*
X188752490Y-122926786D01*
X188902813Y-123077109D01*
X189074779Y-123202048D01*
X189074781Y-123202049D01*
X189074784Y-123202051D01*
X189264188Y-123298557D01*
X189466357Y-123364246D01*
X189676313Y-123397500D01*
X189676314Y-123397500D01*
X189888886Y-123397500D01*
X189888887Y-123397500D01*
X190098843Y-123364246D01*
X190301012Y-123298557D01*
X190490416Y-123202051D01*
X190576738Y-123139335D01*
X190662386Y-123077109D01*
X190662388Y-123077106D01*
X190662392Y-123077104D01*
X190812704Y-122926792D01*
X190812706Y-122926788D01*
X190812709Y-122926786D01*
X190937648Y-122754820D01*
X190937647Y-122754820D01*
X190937651Y-122754816D01*
X190942114Y-122746054D01*
X190990088Y-122695259D01*
X191057908Y-122678463D01*
X191124044Y-122700999D01*
X191163086Y-122746056D01*
X191167551Y-122754820D01*
X191292490Y-122926786D01*
X191442813Y-123077109D01*
X191614779Y-123202048D01*
X191614781Y-123202049D01*
X191614784Y-123202051D01*
X191804188Y-123298557D01*
X192006357Y-123364246D01*
X192216313Y-123397500D01*
X192216314Y-123397500D01*
X192428886Y-123397500D01*
X192428887Y-123397500D01*
X192638843Y-123364246D01*
X192841012Y-123298557D01*
X193030416Y-123202051D01*
X193116738Y-123139335D01*
X193202386Y-123077109D01*
X193202388Y-123077106D01*
X193202392Y-123077104D01*
X193352704Y-122926792D01*
X193352706Y-122926788D01*
X193352709Y-122926786D01*
X193477648Y-122754820D01*
X193477647Y-122754820D01*
X193477651Y-122754816D01*
X193482114Y-122746054D01*
X193530088Y-122695259D01*
X193597908Y-122678463D01*
X193664044Y-122700999D01*
X193703086Y-122746056D01*
X193707551Y-122754820D01*
X193832490Y-122926786D01*
X193982813Y-123077109D01*
X194154779Y-123202048D01*
X194154781Y-123202049D01*
X194154784Y-123202051D01*
X194344188Y-123298557D01*
X194546357Y-123364246D01*
X194756313Y-123397500D01*
X194756314Y-123397500D01*
X194968886Y-123397500D01*
X194968887Y-123397500D01*
X195178843Y-123364246D01*
X195381012Y-123298557D01*
X195570416Y-123202051D01*
X195656738Y-123139335D01*
X195742386Y-123077109D01*
X195742388Y-123077106D01*
X195742392Y-123077104D01*
X195892704Y-122926792D01*
X195892706Y-122926788D01*
X195892709Y-122926786D01*
X196017648Y-122754820D01*
X196017647Y-122754820D01*
X196017651Y-122754816D01*
X196022114Y-122746054D01*
X196070088Y-122695259D01*
X196137908Y-122678463D01*
X196204044Y-122700999D01*
X196243086Y-122746056D01*
X196247551Y-122754820D01*
X196372490Y-122926786D01*
X196522811Y-123077107D01*
X196593800Y-123128682D01*
X196650985Y-123170229D01*
X196693651Y-123225558D01*
X196702100Y-123270547D01*
X196702100Y-124505681D01*
X196682415Y-124572720D01*
X196665781Y-124593362D01*
X196060962Y-125198181D01*
X195999639Y-125231666D01*
X195973281Y-125234500D01*
X159920118Y-125234500D01*
X159900372Y-125228701D01*
X159879809Y-125227766D01*
X159867523Y-125219056D01*
X159853079Y-125214815D01*
X159839603Y-125199263D01*
X159822810Y-125187358D01*
X159817183Y-125173389D01*
X159807324Y-125162011D01*
X159804394Y-125141639D01*
X159796705Y-125122548D01*
X159799523Y-125107758D01*
X159797380Y-125092853D01*
X159805930Y-125074128D01*
X159809783Y-125053913D01*
X159824200Y-125034123D01*
X159826405Y-125029297D01*
X159830194Y-125025120D01*
X159831285Y-125023970D01*
X159840314Y-125014942D01*
X159840416Y-125014788D01*
X159840551Y-125014654D01*
X159879131Y-124956847D01*
X159879182Y-124956803D01*
X159879168Y-124956794D01*
X159916972Y-124900215D01*
X159916975Y-124900211D01*
X159916977Y-124900204D01*
X159917099Y-124899979D01*
X159917146Y-124899888D01*
X159917151Y-124899882D01*
X159943469Y-124836246D01*
X159969780Y-124772728D01*
X159969816Y-124772543D01*
X159969888Y-124772371D01*
X159983166Y-124705428D01*
X159996700Y-124637393D01*
X159996700Y-124637392D01*
X159996735Y-124637032D01*
X159996734Y-124637027D01*
X159996736Y-124637022D01*
X159996700Y-124568973D01*
X159996700Y-123484107D01*
X159996700Y-123275198D01*
X160016385Y-123208159D01*
X160047815Y-123174880D01*
X160182386Y-123077109D01*
X160182388Y-123077106D01*
X160182392Y-123077104D01*
X160332704Y-122926792D01*
X160332706Y-122926788D01*
X160332709Y-122926786D01*
X160457648Y-122754820D01*
X160457647Y-122754820D01*
X160457651Y-122754816D01*
X160554157Y-122565412D01*
X160619846Y-122363243D01*
X160653100Y-122153287D01*
X160653100Y-121940713D01*
X160619846Y-121730757D01*
X160554157Y-121528588D01*
X160457651Y-121339184D01*
X160457649Y-121339181D01*
X160457648Y-121339179D01*
X160332709Y-121167213D01*
X160182386Y-121016890D01*
X160010420Y-120891951D01*
X159821014Y-120795444D01*
X159821013Y-120795443D01*
X159821012Y-120795443D01*
X159618843Y-120729754D01*
X159618841Y-120729753D01*
X159618840Y-120729753D01*
X159457557Y-120704208D01*
X159408887Y-120696500D01*
X159196313Y-120696500D01*
X159147642Y-120704208D01*
X158986360Y-120729753D01*
X158784185Y-120795444D01*
X158594779Y-120891951D01*
X158422813Y-121016890D01*
X158272490Y-121167213D01*
X158147549Y-121339182D01*
X158143084Y-121347946D01*
X158095109Y-121398742D01*
X158027288Y-121415536D01*
X157961153Y-121392998D01*
X157922116Y-121347946D01*
X157917650Y-121339182D01*
X157792709Y-121167213D01*
X157642386Y-121016890D01*
X157470420Y-120891951D01*
X157281014Y-120795444D01*
X157281013Y-120795443D01*
X157281012Y-120795443D01*
X157078843Y-120729754D01*
X157078841Y-120729753D01*
X157078840Y-120729753D01*
X156917557Y-120704208D01*
X156868887Y-120696500D01*
X156656313Y-120696500D01*
X156607642Y-120704208D01*
X156446360Y-120729753D01*
X156244185Y-120795444D01*
X156054779Y-120891951D01*
X155882813Y-121016890D01*
X155732490Y-121167213D01*
X155607551Y-121339179D01*
X155511044Y-121528585D01*
X155445353Y-121730760D01*
X155412100Y-121940713D01*
X155412100Y-122153287D01*
X155445354Y-122363243D01*
X155488922Y-122497332D01*
X155511044Y-122565414D01*
X155607551Y-122754820D01*
X155732490Y-122926786D01*
X155882811Y-123077107D01*
X155943662Y-123121317D01*
X156004585Y-123165579D01*
X156007925Y-123169910D01*
X156012903Y-123172184D01*
X156029033Y-123197283D01*
X156047251Y-123220908D01*
X156048504Y-123227581D01*
X156050677Y-123230962D01*
X156055700Y-123265897D01*
X156055700Y-123489481D01*
X156036015Y-123556520D01*
X156019381Y-123577162D01*
X156000362Y-123596181D01*
X155939039Y-123629666D01*
X155912681Y-123632500D01*
X82662919Y-123632500D01*
X82595880Y-123612815D01*
X82575238Y-123596181D01*
X80131019Y-121151962D01*
X80097534Y-121090639D01*
X80094700Y-121064281D01*
X80094700Y-108476694D01*
X80114385Y-108409655D01*
X80162405Y-108366209D01*
X80176833Y-108358859D01*
X80367910Y-108220033D01*
X80534917Y-108053026D01*
X80673743Y-107861949D01*
X80780968Y-107651508D01*
X80853953Y-107426884D01*
X80890900Y-107193613D01*
X80890900Y-105957418D01*
X80853953Y-105724147D01*
X80780966Y-105499519D01*
X80673742Y-105289082D01*
X80534917Y-105098006D01*
X80367910Y-104930999D01*
X80176833Y-104792173D01*
X79966396Y-104684949D01*
X79741768Y-104611962D01*
X79508497Y-104575016D01*
X79508492Y-104575016D01*
X79272308Y-104575016D01*
X79272303Y-104575016D01*
X79039031Y-104611962D01*
X78814403Y-104684949D01*
X78603966Y-104792173D01*
X78494950Y-104871378D01*
X78412890Y-104930999D01*
X78412888Y-104931001D01*
X78412887Y-104931001D01*
X78245885Y-105098003D01*
X78245885Y-105098004D01*
X78245883Y-105098006D01*
X78186262Y-105180066D01*
X78107057Y-105289082D01*
X77999833Y-105499519D01*
X77926846Y-105724147D01*
X77889900Y-105957418D01*
X77889900Y-107193613D01*
X77926846Y-107426884D01*
X77999833Y-107651512D01*
X78107057Y-107861949D01*
X78245883Y-108053026D01*
X78412890Y-108220033D01*
X78603967Y-108358859D01*
X78625994Y-108370082D01*
X78676790Y-108418054D01*
X78693700Y-108480567D01*
X78693700Y-118170681D01*
X78674015Y-118237720D01*
X78621211Y-118283475D01*
X78552053Y-118293419D01*
X78488497Y-118264394D01*
X78482019Y-118258362D01*
X75101819Y-114878162D01*
X75068334Y-114816839D01*
X75065500Y-114790481D01*
X75065500Y-108700015D01*
X75085185Y-108632976D01*
X75137989Y-108587221D01*
X75189500Y-108576015D01*
X75438271Y-108576015D01*
X75438272Y-108576015D01*
X75497883Y-108569607D01*
X75632731Y-108519312D01*
X75747946Y-108433062D01*
X75834196Y-108317847D01*
X75884491Y-108182999D01*
X75890900Y-108123389D01*
X75890899Y-105027644D01*
X75884491Y-104968033D01*
X75870678Y-104930999D01*
X75834197Y-104833187D01*
X75834193Y-104833180D01*
X75747947Y-104717971D01*
X75747944Y-104717968D01*
X75632735Y-104631722D01*
X75632728Y-104631718D01*
X75497882Y-104581424D01*
X75497883Y-104581424D01*
X75438283Y-104575017D01*
X75438281Y-104575016D01*
X75438273Y-104575016D01*
X75438264Y-104575016D01*
X73342529Y-104575016D01*
X73342523Y-104575017D01*
X73282916Y-104581424D01*
X73148071Y-104631718D01*
X73148064Y-104631722D01*
X73136410Y-104640447D01*
X73123789Y-104645154D01*
X73113611Y-104653974D01*
X73091693Y-104657125D01*
X73070946Y-104664864D01*
X73057785Y-104662001D01*
X73044453Y-104663918D01*
X73024309Y-104654718D01*
X73002673Y-104650012D01*
X72993149Y-104640488D01*
X72980897Y-104634893D01*
X72968924Y-104616263D01*
X72953268Y-104600607D01*
X72949581Y-104586165D01*
X72943123Y-104576115D01*
X72938100Y-104541180D01*
X72938100Y-104379919D01*
X72957785Y-104312880D01*
X72974419Y-104292238D01*
X75524912Y-101741745D01*
X75524914Y-101741743D01*
X75601575Y-101627011D01*
X75607474Y-101612771D01*
X75654378Y-101499532D01*
X75654380Y-101499528D01*
X75681300Y-101364194D01*
X75681300Y-101226206D01*
X75681300Y-96501807D01*
X75674664Y-96468448D01*
X75654380Y-96366472D01*
X75653651Y-96364712D01*
X75601577Y-96238992D01*
X75524912Y-96124254D01*
X75524911Y-96124253D01*
X73455185Y-94054528D01*
X73421700Y-93993205D01*
X73426684Y-93923513D01*
X73468556Y-93867580D01*
X73534020Y-93843163D01*
X73599264Y-93857356D01*
X73599626Y-93856647D01*
X73814403Y-93966082D01*
X73814405Y-93966082D01*
X73814408Y-93966084D01*
X73884761Y-93988943D01*
X74039031Y-94039069D01*
X74272303Y-94076016D01*
X74272308Y-94076016D01*
X74508497Y-94076016D01*
X74741768Y-94039069D01*
X74790995Y-94023074D01*
X74966392Y-93966084D01*
X75176833Y-93858859D01*
X75367910Y-93720033D01*
X75534917Y-93553026D01*
X75673743Y-93361949D01*
X75780968Y-93151508D01*
X75853953Y-92926884D01*
X75858284Y-92899538D01*
X75890900Y-92693613D01*
X75890900Y-91457418D01*
X77889900Y-91457418D01*
X77889900Y-92693613D01*
X77926846Y-92926884D01*
X77999833Y-93151512D01*
X78069664Y-93288562D01*
X78107057Y-93361949D01*
X78245883Y-93553026D01*
X78412890Y-93720033D01*
X78603967Y-93858859D01*
X78676042Y-93895583D01*
X78814403Y-93966082D01*
X78814405Y-93966082D01*
X78814408Y-93966084D01*
X78884761Y-93988943D01*
X79039031Y-94039069D01*
X79272303Y-94076016D01*
X79272308Y-94076016D01*
X79508497Y-94076016D01*
X79741768Y-94039069D01*
X79790995Y-94023074D01*
X79966392Y-93966084D01*
X80176833Y-93858859D01*
X80367910Y-93720033D01*
X80534917Y-93553026D01*
X80673743Y-93361949D01*
X80780968Y-93151508D01*
X80853953Y-92926884D01*
X80858284Y-92899538D01*
X80890900Y-92693613D01*
X80890900Y-91457418D01*
X80853953Y-91224147D01*
X80820089Y-91119928D01*
X80780968Y-90999524D01*
X80780966Y-90999521D01*
X80780966Y-90999519D01*
X80695603Y-90831986D01*
X80673743Y-90789083D01*
X80534917Y-90598006D01*
X80367910Y-90430999D01*
X80176833Y-90292173D01*
X80156791Y-90281961D01*
X79966396Y-90184949D01*
X79741768Y-90111962D01*
X79508497Y-90075016D01*
X79508492Y-90075016D01*
X79272308Y-90075016D01*
X79272303Y-90075016D01*
X79039031Y-90111962D01*
X78814403Y-90184949D01*
X78603966Y-90292173D01*
X78494950Y-90371378D01*
X78412890Y-90430999D01*
X78412888Y-90431001D01*
X78412887Y-90431001D01*
X78245885Y-90598003D01*
X78245885Y-90598004D01*
X78245883Y-90598006D01*
X78200830Y-90660016D01*
X78107057Y-90789082D01*
X77999833Y-90999519D01*
X77926846Y-91224147D01*
X77889900Y-91457418D01*
X75890900Y-91457418D01*
X75853953Y-91224147D01*
X75820089Y-91119928D01*
X75780968Y-90999524D01*
X75780966Y-90999521D01*
X75780966Y-90999519D01*
X75695603Y-90831986D01*
X75673743Y-90789083D01*
X75534917Y-90598006D01*
X75367910Y-90430999D01*
X75176833Y-90292173D01*
X75156791Y-90281961D01*
X74966396Y-90184949D01*
X74741768Y-90111962D01*
X74508497Y-90075016D01*
X74508492Y-90075016D01*
X74272308Y-90075016D01*
X74272303Y-90075016D01*
X74039031Y-90111962D01*
X73814403Y-90184949D01*
X73603966Y-90292173D01*
X73494950Y-90371378D01*
X73412890Y-90430999D01*
X73412888Y-90431001D01*
X73412887Y-90431001D01*
X73245885Y-90598003D01*
X73245885Y-90598004D01*
X73245883Y-90598006D01*
X73200830Y-90660016D01*
X73107057Y-90789082D01*
X73020185Y-90959578D01*
X72972210Y-91010374D01*
X72904389Y-91027169D01*
X72838254Y-91004631D01*
X72794803Y-90949916D01*
X72785700Y-90903283D01*
X72785700Y-86150144D01*
X72805385Y-86083105D01*
X72836815Y-86049826D01*
X72932415Y-85980369D01*
X72932415Y-85980368D01*
X72932419Y-85980366D01*
X73077166Y-85835619D01*
X73077168Y-85835615D01*
X73077171Y-85835613D01*
X73172071Y-85704992D01*
X73197487Y-85670010D01*
X73290420Y-85487619D01*
X73353677Y-85292934D01*
X73385700Y-85090752D01*
X73385700Y-84886048D01*
X73367213Y-84769329D01*
X73376167Y-84700036D01*
X73402002Y-84662253D01*
X75184513Y-82879743D01*
X75217342Y-82830612D01*
X75261175Y-82765011D01*
X75292107Y-82690334D01*
X75313980Y-82637529D01*
X75322466Y-82594866D01*
X75335229Y-82530702D01*
X75340900Y-82502195D01*
X75340900Y-82205913D01*
X91011700Y-82205913D01*
X91011700Y-82418486D01*
X91040402Y-82599708D01*
X91044954Y-82628443D01*
X91098806Y-82794181D01*
X91110643Y-82830612D01*
X91207151Y-83020020D01*
X91332090Y-83191986D01*
X91482413Y-83342309D01*
X91654382Y-83467250D01*
X91663146Y-83471716D01*
X91713942Y-83519691D01*
X91730736Y-83587512D01*
X91708198Y-83653647D01*
X91663146Y-83692684D01*
X91654382Y-83697149D01*
X91482413Y-83822090D01*
X91332090Y-83972413D01*
X91207151Y-84144379D01*
X91110644Y-84333785D01*
X91044953Y-84535960D01*
X91021527Y-84683866D01*
X91011700Y-84745913D01*
X91011700Y-84958487D01*
X91021734Y-85021844D01*
X91040677Y-85141443D01*
X91044954Y-85168443D01*
X91104662Y-85352205D01*
X91110644Y-85370614D01*
X91207151Y-85560020D01*
X91332090Y-85731986D01*
X91482413Y-85882309D01*
X91654382Y-86007250D01*
X91663146Y-86011716D01*
X91713942Y-86059691D01*
X91730736Y-86127512D01*
X91708198Y-86193647D01*
X91663146Y-86232684D01*
X91654382Y-86237149D01*
X91482413Y-86362090D01*
X91332090Y-86512413D01*
X91207151Y-86684379D01*
X91110644Y-86873785D01*
X91044953Y-87075960D01*
X91011700Y-87285913D01*
X91011700Y-87498486D01*
X91032173Y-87627751D01*
X91044954Y-87708443D01*
X91109084Y-87905815D01*
X91110644Y-87910614D01*
X91207151Y-88100020D01*
X91332090Y-88271986D01*
X91445630Y-88385526D01*
X91479115Y-88446849D01*
X91474131Y-88516541D01*
X91432259Y-88572474D01*
X91401283Y-88589389D01*
X91269869Y-88638403D01*
X91269864Y-88638406D01*
X91154655Y-88724652D01*
X91154652Y-88724655D01*
X91068406Y-88839864D01*
X91068404Y-88839869D01*
X91018108Y-88974717D01*
X91011701Y-89034316D01*
X91011701Y-89034323D01*
X91011700Y-89034335D01*
X91011700Y-90830070D01*
X91011701Y-90830076D01*
X91018108Y-90889683D01*
X91068402Y-91024528D01*
X91068406Y-91024535D01*
X91154652Y-91139744D01*
X91154655Y-91139747D01*
X91269864Y-91225993D01*
X91269871Y-91225997D01*
X91404717Y-91276291D01*
X91404716Y-91276291D01*
X91411644Y-91277035D01*
X91464327Y-91282700D01*
X94560072Y-91282699D01*
X94619683Y-91276291D01*
X94754531Y-91225996D01*
X94869746Y-91139746D01*
X94955996Y-91024531D01*
X95006291Y-90889683D01*
X95012700Y-90830073D01*
X95012699Y-89034328D01*
X95006291Y-88974717D01*
X94986662Y-88922090D01*
X94955996Y-88839869D01*
X94955993Y-88839864D01*
X94869747Y-88724655D01*
X94869744Y-88724652D01*
X94754535Y-88638406D01*
X94754528Y-88638402D01*
X94623117Y-88589389D01*
X94567183Y-88547518D01*
X94542766Y-88482053D01*
X94557618Y-88413780D01*
X94578763Y-88385532D01*
X94692304Y-88271992D01*
X94817251Y-88100016D01*
X94913757Y-87910612D01*
X94979446Y-87708443D01*
X95012700Y-87498487D01*
X95012700Y-87285913D01*
X94979446Y-87075957D01*
X94913757Y-86873788D01*
X94817251Y-86684384D01*
X94817249Y-86684381D01*
X94817248Y-86684379D01*
X94692309Y-86512413D01*
X94541986Y-86362090D01*
X94370020Y-86237151D01*
X94369315Y-86236791D01*
X94361254Y-86232685D01*
X94310459Y-86184712D01*
X94293663Y-86116892D01*
X94316199Y-86050756D01*
X94361254Y-86011715D01*
X94370016Y-86007251D01*
X94419211Y-85971509D01*
X94541986Y-85882309D01*
X94541988Y-85882306D01*
X94541992Y-85882304D01*
X94692304Y-85731992D01*
X94692306Y-85731988D01*
X94692309Y-85731986D01*
X94817248Y-85560020D01*
X94817247Y-85560020D01*
X94817251Y-85560016D01*
X94913757Y-85370612D01*
X94979446Y-85168443D01*
X95012700Y-84958487D01*
X95012700Y-84745913D01*
X94979446Y-84535957D01*
X94913757Y-84333788D01*
X94817251Y-84144384D01*
X94817249Y-84144381D01*
X94817248Y-84144379D01*
X94692309Y-83972413D01*
X94541986Y-83822090D01*
X94370020Y-83697151D01*
X94369315Y-83696791D01*
X94361254Y-83692685D01*
X94310459Y-83644712D01*
X94293663Y-83576892D01*
X94316199Y-83510756D01*
X94361254Y-83471715D01*
X94370016Y-83467251D01*
X94451101Y-83408340D01*
X94541986Y-83342309D01*
X94541988Y-83342306D01*
X94541992Y-83342304D01*
X94692304Y-83191992D01*
X94692306Y-83191988D01*
X94692309Y-83191986D01*
X94817248Y-83020020D01*
X94817247Y-83020020D01*
X94817251Y-83020016D01*
X94913757Y-82830612D01*
X94979446Y-82628443D01*
X95012700Y-82418487D01*
X95012700Y-82205913D01*
X94979446Y-81995957D01*
X94913757Y-81793788D01*
X94817251Y-81604384D01*
X94817249Y-81604381D01*
X94817248Y-81604379D01*
X94692309Y-81432413D01*
X94541986Y-81282090D01*
X94370020Y-81157151D01*
X94180614Y-81060644D01*
X94180613Y-81060643D01*
X94180612Y-81060643D01*
X93978443Y-80994954D01*
X93978441Y-80994953D01*
X93978440Y-80994953D01*
X93817157Y-80969408D01*
X93768487Y-80961700D01*
X92255913Y-80961700D01*
X92207242Y-80969408D01*
X92045960Y-80994953D01*
X92045957Y-80994954D01*
X91869921Y-81052152D01*
X91843785Y-81060644D01*
X91654379Y-81157151D01*
X91482413Y-81282090D01*
X91332090Y-81432413D01*
X91207151Y-81604379D01*
X91110644Y-81793785D01*
X91110643Y-81793787D01*
X91110643Y-81793788D01*
X91109593Y-81797019D01*
X91044953Y-81995960D01*
X91011700Y-82205913D01*
X75340900Y-82205913D01*
X75340900Y-78013224D01*
X75360585Y-77946185D01*
X75412693Y-77901032D01*
X75412647Y-77900939D01*
X75413005Y-77900762D01*
X75413389Y-77900430D01*
X75415863Y-77899352D01*
X75416274Y-77899149D01*
X75416288Y-77899144D01*
X75615012Y-77784411D01*
X75797061Y-77644719D01*
X75797065Y-77644714D01*
X75797070Y-77644711D01*
X75959311Y-77482470D01*
X75959314Y-77482465D01*
X75959319Y-77482461D01*
X76099011Y-77300412D01*
X76213744Y-77101688D01*
X76301558Y-76889687D01*
X76360948Y-76668038D01*
X76390900Y-76440534D01*
X76390900Y-76211066D01*
X76360948Y-75983562D01*
X76301558Y-75761913D01*
X76244971Y-75625300D01*
X76213749Y-75549923D01*
X76213746Y-75549917D01*
X76213744Y-75549912D01*
X76099011Y-75351188D01*
X76099008Y-75351185D01*
X76099007Y-75351182D01*
X75959318Y-75169138D01*
X75959311Y-75169130D01*
X75797070Y-75006889D01*
X75797061Y-75006881D01*
X75615017Y-74867192D01*
X75614031Y-74866623D01*
X75416288Y-74752456D01*
X75416287Y-74752455D01*
X75412642Y-74750658D01*
X75413201Y-74749523D01*
X75363026Y-74709068D01*
X75340978Y-74642768D01*
X75340900Y-74638374D01*
X75340900Y-71513224D01*
X75360585Y-71446185D01*
X75412693Y-71401032D01*
X75412647Y-71400939D01*
X75413005Y-71400762D01*
X75413389Y-71400430D01*
X75415863Y-71399352D01*
X75416274Y-71399149D01*
X75416288Y-71399144D01*
X75615012Y-71284411D01*
X75797061Y-71144719D01*
X75797065Y-71144714D01*
X75797070Y-71144711D01*
X75959311Y-70982470D01*
X75959314Y-70982465D01*
X75959319Y-70982461D01*
X76099011Y-70800412D01*
X76213744Y-70601688D01*
X76301558Y-70389687D01*
X76360948Y-70168038D01*
X76390900Y-69940534D01*
X76390900Y-69711066D01*
X76360948Y-69483562D01*
X76301558Y-69261913D01*
X76251590Y-69141280D01*
X76213749Y-69049923D01*
X76213746Y-69049917D01*
X76213744Y-69049912D01*
X76099011Y-68851188D01*
X76099008Y-68851185D01*
X76099007Y-68851182D01*
X75959318Y-68669138D01*
X75959311Y-68669130D01*
X75797070Y-68506889D01*
X75797061Y-68506881D01*
X75615017Y-68367192D01*
X75611052Y-68364903D01*
X75416288Y-68252456D01*
X75416276Y-68252450D01*
X75204287Y-68164642D01*
X75185843Y-68159700D01*
X74982638Y-68105252D01*
X74944615Y-68100246D01*
X74755141Y-68075300D01*
X74755134Y-68075300D01*
X74525666Y-68075300D01*
X74525658Y-68075300D01*
X74309115Y-68103809D01*
X74298162Y-68105252D01*
X74204476Y-68130354D01*
X74076512Y-68164642D01*
X73864523Y-68252450D01*
X73864509Y-68252457D01*
X73665782Y-68367192D01*
X73483738Y-68506881D01*
X73321481Y-68669138D01*
X73181792Y-68851182D01*
X73067057Y-69049909D01*
X73067050Y-69049923D01*
X72979242Y-69261912D01*
X72919853Y-69483559D01*
X72919851Y-69483570D01*
X72889900Y-69711058D01*
X72889900Y-69940541D01*
X72913624Y-70120733D01*
X72919852Y-70168038D01*
X72953793Y-70294708D01*
X72979242Y-70389687D01*
X73067050Y-70601676D01*
X73067057Y-70601690D01*
X73181792Y-70800417D01*
X73321481Y-70982461D01*
X73321489Y-70982470D01*
X73483730Y-71144711D01*
X73483738Y-71144718D01*
X73665782Y-71284407D01*
X73665785Y-71284408D01*
X73665788Y-71284411D01*
X73864512Y-71399144D01*
X73864518Y-71399146D01*
X73868153Y-71400939D01*
X73867587Y-71402085D01*
X73917737Y-71442477D01*
X73939820Y-71508765D01*
X73939900Y-71513224D01*
X73939900Y-74638374D01*
X73920215Y-74705413D01*
X73868110Y-74750561D01*
X73868158Y-74750658D01*
X73867790Y-74750839D01*
X73867411Y-74751168D01*
X73864953Y-74752238D01*
X73864509Y-74752457D01*
X73665782Y-74867192D01*
X73483738Y-75006881D01*
X73321481Y-75169138D01*
X73181792Y-75351182D01*
X73067057Y-75549909D01*
X73067050Y-75549923D01*
X72979242Y-75761912D01*
X72919853Y-75983559D01*
X72919851Y-75983570D01*
X72889900Y-76211058D01*
X72889900Y-76440541D01*
X72903572Y-76544384D01*
X72919852Y-76668038D01*
X72979242Y-76889687D01*
X73067050Y-77101676D01*
X73067057Y-77101690D01*
X73181792Y-77300417D01*
X73321481Y-77482461D01*
X73321489Y-77482470D01*
X73483730Y-77644711D01*
X73483738Y-77644718D01*
X73665782Y-77784407D01*
X73665785Y-77784408D01*
X73665788Y-77784411D01*
X73864512Y-77899144D01*
X73864518Y-77899146D01*
X73868153Y-77900939D01*
X73867587Y-77902085D01*
X73917737Y-77942477D01*
X73939820Y-78008765D01*
X73939900Y-78013224D01*
X73939900Y-82091680D01*
X73920215Y-82158719D01*
X73903581Y-82179361D01*
X72411347Y-83671594D01*
X72350024Y-83705079D01*
X72304268Y-83706386D01*
X72245960Y-83697151D01*
X72187552Y-83687900D01*
X71982848Y-83687900D01*
X71960750Y-83691400D01*
X71780665Y-83719922D01*
X71585976Y-83783181D01*
X71403586Y-83876115D01*
X71237986Y-83996428D01*
X71093228Y-84141186D01*
X70972915Y-84306786D01*
X70879981Y-84489176D01*
X70816722Y-84683865D01*
X70784700Y-84886048D01*
X70784700Y-85090751D01*
X70816722Y-85292934D01*
X70879981Y-85487623D01*
X70972915Y-85670013D01*
X71093228Y-85835613D01*
X71237984Y-85980369D01*
X71333585Y-86049826D01*
X71376251Y-86105155D01*
X71384700Y-86150144D01*
X71384700Y-93606206D01*
X71384700Y-93744194D01*
X71384700Y-93744196D01*
X71384699Y-93744196D01*
X71411618Y-93879522D01*
X71411621Y-93879532D01*
X71464422Y-94007007D01*
X71541087Y-94121745D01*
X71541088Y-94121746D01*
X74243981Y-96824638D01*
X74277466Y-96885961D01*
X74280300Y-96912319D01*
X74280300Y-100953680D01*
X74260615Y-101020719D01*
X74243981Y-101041361D01*
X71693488Y-103591853D01*
X71693482Y-103591861D01*
X71617806Y-103705118D01*
X71617807Y-103705119D01*
X71616825Y-103706588D01*
X71564020Y-103834071D01*
X71564018Y-103834077D01*
X71537100Y-103969404D01*
X71537100Y-103969407D01*
X71537100Y-114205606D01*
X71537100Y-114343594D01*
X71537100Y-114343596D01*
X71537099Y-114343596D01*
X71564018Y-114478922D01*
X71564021Y-114478932D01*
X71616822Y-114606407D01*
X71693487Y-114721145D01*
X71693488Y-114721146D01*
X77055382Y-120083039D01*
X77088867Y-120144362D01*
X77091701Y-120170720D01*
X77091701Y-122224006D01*
X77091701Y-122361994D01*
X77091701Y-122361996D01*
X77091700Y-122361996D01*
X77118619Y-122497322D01*
X77118622Y-122497332D01*
X77171423Y-122624807D01*
X77248088Y-122739545D01*
X77248089Y-122739546D01*
X80470765Y-125962219D01*
X80504250Y-126023542D01*
X80499266Y-126093234D01*
X80457394Y-126149167D01*
X80391930Y-126173584D01*
X80383084Y-126173900D01*
X69045900Y-126173900D01*
X68978861Y-126154215D01*
X68933106Y-126101411D01*
X68921900Y-126049900D01*
X68921900Y-64337978D01*
X91261700Y-64337978D01*
X91261700Y-64626421D01*
X91261701Y-64626438D01*
X91299349Y-64912406D01*
X91299350Y-64912411D01*
X91299351Y-64912417D01*
X91299352Y-64912419D01*
X91374009Y-65191044D01*
X91374014Y-65191060D01*
X91484391Y-65457536D01*
X91484399Y-65457552D01*
X91628620Y-65707348D01*
X91628631Y-65707364D01*
X91804224Y-65936202D01*
X91804230Y-65936209D01*
X92008190Y-66140169D01*
X92008196Y-66140174D01*
X92237044Y-66315775D01*
X92237051Y-66315779D01*
X92486847Y-66460000D01*
X92486863Y-66460008D01*
X92753339Y-66570385D01*
X92753345Y-66570386D01*
X92753355Y-66570391D01*
X93031983Y-66645049D01*
X93317972Y-66682700D01*
X93317979Y-66682700D01*
X93606421Y-66682700D01*
X93606428Y-66682700D01*
X93892417Y-66645049D01*
X94171045Y-66570391D01*
X94171057Y-66570385D01*
X94171060Y-66570385D01*
X94437536Y-66460008D01*
X94437539Y-66460006D01*
X94437545Y-66460004D01*
X94687356Y-66315775D01*
X94916204Y-66140174D01*
X95120174Y-65936204D01*
X95295775Y-65707356D01*
X95440004Y-65457545D01*
X95550391Y-65191045D01*
X95625049Y-64912417D01*
X95662700Y-64626428D01*
X95662700Y-64337978D01*
X166861700Y-64337978D01*
X166861700Y-64626421D01*
X166861701Y-64626438D01*
X166899349Y-64912406D01*
X166899350Y-64912411D01*
X166899351Y-64912417D01*
X166899352Y-64912419D01*
X166974009Y-65191044D01*
X166974014Y-65191060D01*
X167084391Y-65457536D01*
X167084399Y-65457552D01*
X167228620Y-65707348D01*
X167228631Y-65707364D01*
X167404224Y-65936202D01*
X167404230Y-65936209D01*
X167608190Y-66140169D01*
X167608196Y-66140174D01*
X167837044Y-66315775D01*
X167837051Y-66315779D01*
X168086847Y-66460000D01*
X168086863Y-66460008D01*
X168353339Y-66570385D01*
X168353345Y-66570386D01*
X168353355Y-66570391D01*
X168631983Y-66645049D01*
X168917972Y-66682700D01*
X168917979Y-66682700D01*
X169206421Y-66682700D01*
X169206428Y-66682700D01*
X169492417Y-66645049D01*
X169771045Y-66570391D01*
X169771057Y-66570385D01*
X169771060Y-66570385D01*
X170037536Y-66460008D01*
X170037539Y-66460006D01*
X170037545Y-66460004D01*
X170287356Y-66315775D01*
X170516204Y-66140174D01*
X170720174Y-65936204D01*
X170895775Y-65707356D01*
X171040004Y-65457545D01*
X171150391Y-65191045D01*
X171225049Y-64912417D01*
X171262700Y-64626428D01*
X171262700Y-64337972D01*
X171225049Y-64051983D01*
X171150391Y-63773355D01*
X171150386Y-63773345D01*
X171150385Y-63773339D01*
X171040008Y-63506863D01*
X171040000Y-63506847D01*
X170895779Y-63257051D01*
X170895775Y-63257044D01*
X170720174Y-63028196D01*
X170720169Y-63028190D01*
X170516209Y-62824230D01*
X170516202Y-62824224D01*
X170287364Y-62648631D01*
X170287362Y-62648629D01*
X170287356Y-62648625D01*
X170287351Y-62648622D01*
X170287348Y-62648620D01*
X170037552Y-62504399D01*
X170037536Y-62504391D01*
X169771060Y-62394014D01*
X169771048Y-62394010D01*
X169771045Y-62394009D01*
X169492417Y-62319351D01*
X169492411Y-62319350D01*
X169492406Y-62319349D01*
X169206438Y-62281701D01*
X169206433Y-62281700D01*
X169206428Y-62281700D01*
X168917972Y-62281700D01*
X168917966Y-62281700D01*
X168917961Y-62281701D01*
X168631993Y-62319349D01*
X168631986Y-62319350D01*
X168631983Y-62319351D01*
X168353355Y-62394009D01*
X168353339Y-62394014D01*
X168086863Y-62504391D01*
X168086847Y-62504399D01*
X167837051Y-62648620D01*
X167837035Y-62648631D01*
X167608197Y-62824224D01*
X167608190Y-62824230D01*
X167404230Y-63028190D01*
X167404224Y-63028197D01*
X167228631Y-63257035D01*
X167228620Y-63257051D01*
X167084399Y-63506847D01*
X167084391Y-63506863D01*
X166974014Y-63773339D01*
X166974009Y-63773355D01*
X166899352Y-64051980D01*
X166899349Y-64051993D01*
X166861701Y-64337961D01*
X166861700Y-64337978D01*
X95662700Y-64337978D01*
X95662700Y-64337972D01*
X95625049Y-64051983D01*
X95550391Y-63773355D01*
X95550386Y-63773345D01*
X95550385Y-63773339D01*
X95440008Y-63506863D01*
X95440000Y-63506847D01*
X95295779Y-63257051D01*
X95295775Y-63257044D01*
X95120174Y-63028196D01*
X95120169Y-63028190D01*
X94916209Y-62824230D01*
X94916202Y-62824224D01*
X94687364Y-62648631D01*
X94687362Y-62648629D01*
X94687356Y-62648625D01*
X94687351Y-62648622D01*
X94687348Y-62648620D01*
X94437552Y-62504399D01*
X94437536Y-62504391D01*
X94171060Y-62394014D01*
X94171048Y-62394010D01*
X94171045Y-62394009D01*
X93892417Y-62319351D01*
X93892411Y-62319350D01*
X93892406Y-62319349D01*
X93606438Y-62281701D01*
X93606433Y-62281700D01*
X93606428Y-62281700D01*
X93317972Y-62281700D01*
X93317966Y-62281700D01*
X93317961Y-62281701D01*
X93031993Y-62319349D01*
X93031986Y-62319350D01*
X93031983Y-62319351D01*
X92753355Y-62394009D01*
X92753339Y-62394014D01*
X92486863Y-62504391D01*
X92486847Y-62504399D01*
X92237051Y-62648620D01*
X92237035Y-62648631D01*
X92008197Y-62824224D01*
X92008190Y-62824230D01*
X91804230Y-63028190D01*
X91804224Y-63028197D01*
X91628631Y-63257035D01*
X91628620Y-63257051D01*
X91484399Y-63506847D01*
X91484391Y-63506863D01*
X91374014Y-63773339D01*
X91374009Y-63773355D01*
X91299352Y-64051980D01*
X91299349Y-64051993D01*
X91261701Y-64337961D01*
X91261700Y-64337978D01*
X68921900Y-64337978D01*
X68921900Y-58144700D01*
X68941585Y-58077661D01*
X68994389Y-58031906D01*
X69045900Y-58020700D01*
X217155100Y-58020700D01*
X217222139Y-58040385D01*
G37*
%TD.AperFunction*%
%TA.AperFunction,Conductor*%
G36*
X183816540Y-68179385D02*
G01*
X183862295Y-68232189D01*
X183872239Y-68301347D01*
X183843214Y-68364903D01*
X183824988Y-68382075D01*
X183662338Y-68506881D01*
X183500081Y-68669138D01*
X183360392Y-68851182D01*
X183245657Y-69049909D01*
X183245650Y-69049923D01*
X183157842Y-69261912D01*
X183098453Y-69483559D01*
X183098451Y-69483570D01*
X183068500Y-69711058D01*
X183068500Y-69940541D01*
X183092224Y-70120733D01*
X183098452Y-70168038D01*
X183132393Y-70294708D01*
X183157842Y-70389687D01*
X183245650Y-70601676D01*
X183245657Y-70601690D01*
X183360392Y-70800417D01*
X183500081Y-70982461D01*
X183500089Y-70982470D01*
X183662330Y-71144711D01*
X183662338Y-71144718D01*
X183844382Y-71284407D01*
X183844385Y-71284408D01*
X183844388Y-71284411D01*
X184043112Y-71399144D01*
X184043118Y-71399146D01*
X184046758Y-71400942D01*
X184046222Y-71402027D01*
X184096555Y-71442586D01*
X184118621Y-71508879D01*
X184118700Y-71513308D01*
X184118700Y-74638292D01*
X184099015Y-74705331D01*
X184046725Y-74750640D01*
X184046739Y-74750668D01*
X184046633Y-74750720D01*
X184046211Y-74751086D01*
X184043460Y-74752284D01*
X184043103Y-74752460D01*
X183844382Y-74867192D01*
X183662338Y-75006881D01*
X183500081Y-75169138D01*
X183360392Y-75351182D01*
X183245657Y-75549909D01*
X183245650Y-75549923D01*
X183157842Y-75761912D01*
X183098453Y-75983559D01*
X183098451Y-75983570D01*
X183068500Y-76211058D01*
X183068500Y-76440541D01*
X183082172Y-76544384D01*
X183098452Y-76668038D01*
X183157842Y-76889687D01*
X183245650Y-77101676D01*
X183245657Y-77101690D01*
X183360392Y-77300417D01*
X183500081Y-77482461D01*
X183500089Y-77482470D01*
X183662330Y-77644711D01*
X183662338Y-77644718D01*
X183844382Y-77784407D01*
X183844385Y-77784408D01*
X183844388Y-77784411D01*
X184043112Y-77899144D01*
X184043117Y-77899146D01*
X184043123Y-77899149D01*
X184118498Y-77930370D01*
X184255113Y-77986958D01*
X184476762Y-78046348D01*
X184704266Y-78076300D01*
X184704273Y-78076300D01*
X184933727Y-78076300D01*
X184933734Y-78076300D01*
X185161238Y-78046348D01*
X185382887Y-77986958D01*
X185594888Y-77899144D01*
X185793612Y-77784411D01*
X185975661Y-77644719D01*
X185975665Y-77644714D01*
X185975670Y-77644711D01*
X186137911Y-77482470D01*
X186137914Y-77482465D01*
X186137919Y-77482461D01*
X186277611Y-77300412D01*
X186392344Y-77101688D01*
X186392349Y-77101675D01*
X186394142Y-77098042D01*
X186395284Y-77098605D01*
X186435697Y-77048449D01*
X186501990Y-77026379D01*
X186506425Y-77026300D01*
X200241081Y-77026300D01*
X200308120Y-77045985D01*
X200328762Y-77062619D01*
X201091581Y-77825438D01*
X201125066Y-77886761D01*
X201127900Y-77913119D01*
X201127900Y-85173406D01*
X201127900Y-85311394D01*
X201127900Y-85311396D01*
X201127899Y-85311396D01*
X201154818Y-85446722D01*
X201154821Y-85446732D01*
X201207622Y-85574207D01*
X201284287Y-85688945D01*
X201284288Y-85688946D01*
X202137500Y-86542157D01*
X202152921Y-86560947D01*
X202167885Y-86583342D01*
X202167888Y-86583346D01*
X202265454Y-86680912D01*
X202380192Y-86757577D01*
X202507667Y-86810378D01*
X202507672Y-86810380D01*
X202507676Y-86810380D01*
X202507677Y-86810381D01*
X202643003Y-86837300D01*
X202643006Y-86837300D01*
X202643007Y-86837300D01*
X203201360Y-86837300D01*
X203268399Y-86856985D01*
X203301679Y-86888415D01*
X203357896Y-86965792D01*
X203508213Y-87116109D01*
X203680182Y-87241050D01*
X203688946Y-87245516D01*
X203739742Y-87293491D01*
X203756536Y-87361312D01*
X203733998Y-87427447D01*
X203688946Y-87466484D01*
X203680182Y-87470949D01*
X203508213Y-87595890D01*
X203357894Y-87746209D01*
X203357890Y-87746214D01*
X203282556Y-87849904D01*
X203227227Y-87892570D01*
X203157613Y-87898549D01*
X203095818Y-87865944D01*
X203094557Y-87864700D01*
X200643385Y-85413528D01*
X200609900Y-85352205D01*
X200613135Y-85287528D01*
X200622846Y-85257643D01*
X200656100Y-85047687D01*
X200656100Y-84835113D01*
X200622846Y-84625157D01*
X200557157Y-84422988D01*
X200460651Y-84233584D01*
X200460649Y-84233581D01*
X200460648Y-84233579D01*
X200335709Y-84061613D01*
X200185392Y-83911296D01*
X200136966Y-83876113D01*
X200020804Y-83791716D01*
X199978140Y-83736389D01*
X199972161Y-83666776D01*
X200004766Y-83604980D01*
X200020799Y-83591086D01*
X200185392Y-83471504D01*
X200335704Y-83321192D01*
X200335706Y-83321188D01*
X200335709Y-83321186D01*
X200460648Y-83149220D01*
X200460647Y-83149220D01*
X200460651Y-83149216D01*
X200557157Y-82959812D01*
X200622846Y-82757643D01*
X200656100Y-82547687D01*
X200656100Y-82335113D01*
X200622846Y-82125157D01*
X200557157Y-81922988D01*
X200460651Y-81733584D01*
X200460649Y-81733581D01*
X200460648Y-81733579D01*
X200335709Y-81561613D01*
X200185386Y-81411290D01*
X200013420Y-81286351D01*
X199824014Y-81189844D01*
X199824013Y-81189843D01*
X199824012Y-81189843D01*
X199621843Y-81124154D01*
X199621841Y-81124153D01*
X199621840Y-81124153D01*
X199460557Y-81098608D01*
X199411887Y-81090900D01*
X198949313Y-81090900D01*
X198900642Y-81098608D01*
X198739360Y-81124153D01*
X198537185Y-81189844D01*
X198347779Y-81286351D01*
X198175813Y-81411290D01*
X198025490Y-81561613D01*
X197900551Y-81733579D01*
X197804044Y-81922985D01*
X197738353Y-82125160D01*
X197711541Y-82294444D01*
X197705100Y-82335113D01*
X197705100Y-82547687D01*
X197712876Y-82596780D01*
X197734774Y-82735044D01*
X197738354Y-82757643D01*
X197778028Y-82879747D01*
X197804044Y-82959814D01*
X197900551Y-83149220D01*
X198025490Y-83321186D01*
X198175809Y-83471505D01*
X198175814Y-83471509D01*
X198340393Y-83591082D01*
X198383059Y-83646411D01*
X198389038Y-83716025D01*
X198356433Y-83777820D01*
X198340393Y-83791718D01*
X198175814Y-83911290D01*
X198175809Y-83911294D01*
X198025490Y-84061613D01*
X197900551Y-84233579D01*
X197804044Y-84422985D01*
X197738353Y-84625160D01*
X197723504Y-84718913D01*
X197705100Y-84835113D01*
X197705100Y-85047687D01*
X197738354Y-85257643D01*
X197796403Y-85436300D01*
X197804044Y-85459814D01*
X197900551Y-85649220D01*
X198025490Y-85821186D01*
X198175809Y-85971505D01*
X198175814Y-85971509D01*
X198340393Y-86091082D01*
X198383059Y-86146411D01*
X198389038Y-86216025D01*
X198356433Y-86277820D01*
X198340393Y-86291718D01*
X198175814Y-86411290D01*
X198175809Y-86411294D01*
X198082523Y-86504581D01*
X198021200Y-86538066D01*
X197994842Y-86540900D01*
X197121504Y-86540900D01*
X196947539Y-86575503D01*
X196947523Y-86575508D01*
X196831653Y-86623502D01*
X196831654Y-86623503D01*
X196783654Y-86643386D01*
X196681416Y-86711700D01*
X196636164Y-86741935D01*
X195236137Y-88141962D01*
X195236132Y-88141968D01*
X195229370Y-88152087D01*
X195229371Y-88152088D01*
X195137588Y-88289449D01*
X195119067Y-88334165D01*
X195069705Y-88453333D01*
X195069705Y-88453334D01*
X195040193Y-88601698D01*
X195040194Y-88601699D01*
X195035100Y-88627309D01*
X195035100Y-92184038D01*
X195015415Y-92251077D01*
X194998781Y-92271719D01*
X194608319Y-92662181D01*
X194546996Y-92695666D01*
X194520638Y-92698500D01*
X188728704Y-92698500D01*
X188554741Y-92733103D01*
X188554733Y-92733105D01*
X188462862Y-92771159D01*
X188462854Y-92771163D01*
X188455808Y-92774082D01*
X188390853Y-92800987D01*
X188285973Y-92871066D01*
X188282207Y-92873582D01*
X188282197Y-92873588D01*
X188243364Y-92899535D01*
X188243361Y-92899538D01*
X186390740Y-94752158D01*
X186390734Y-94752165D01*
X186377272Y-94772312D01*
X186323658Y-94817115D01*
X186254333Y-94825819D01*
X186191307Y-94795662D01*
X186175804Y-94778912D01*
X186137919Y-94729539D01*
X186137913Y-94729533D01*
X186137910Y-94729529D01*
X185975670Y-94567289D01*
X185975661Y-94567281D01*
X185793617Y-94427592D01*
X185594890Y-94312857D01*
X185594876Y-94312850D01*
X185382887Y-94225042D01*
X185161238Y-94165652D01*
X185106208Y-94158407D01*
X184933741Y-94135700D01*
X184933734Y-94135700D01*
X184704266Y-94135700D01*
X184704258Y-94135700D01*
X184487715Y-94164209D01*
X184476762Y-94165652D01*
X184383076Y-94190754D01*
X184255112Y-94225042D01*
X184043123Y-94312850D01*
X184043109Y-94312857D01*
X183844382Y-94427592D01*
X183662338Y-94567281D01*
X183500081Y-94729538D01*
X183360392Y-94911582D01*
X183245657Y-95110309D01*
X183245650Y-95110323D01*
X183157842Y-95322312D01*
X183132158Y-95418169D01*
X183098452Y-95543962D01*
X183097576Y-95550614D01*
X183068500Y-95771458D01*
X183068500Y-96000941D01*
X183084736Y-96124257D01*
X183098452Y-96228438D01*
X183135438Y-96366472D01*
X183157842Y-96450087D01*
X183245650Y-96662076D01*
X183245657Y-96662090D01*
X183360392Y-96860817D01*
X183500081Y-97042861D01*
X183500089Y-97042870D01*
X183662330Y-97205111D01*
X183662338Y-97205118D01*
X183844382Y-97344807D01*
X183844385Y-97344808D01*
X183844388Y-97344811D01*
X184043112Y-97459544D01*
X184043117Y-97459546D01*
X184043123Y-97459549D01*
X184134480Y-97497390D01*
X184255113Y-97547358D01*
X184476762Y-97606748D01*
X184704266Y-97636700D01*
X184704273Y-97636700D01*
X184933727Y-97636700D01*
X184933734Y-97636700D01*
X185161238Y-97606748D01*
X185382887Y-97547358D01*
X185594888Y-97459544D01*
X185793612Y-97344811D01*
X185975661Y-97205119D01*
X185975665Y-97205114D01*
X185975670Y-97205111D01*
X185978019Y-97202762D01*
X186039342Y-97169277D01*
X186109034Y-97174261D01*
X186164967Y-97216133D01*
X186189384Y-97281597D01*
X186189700Y-97290443D01*
X186189700Y-100981957D01*
X186170015Y-101048996D01*
X186117211Y-101094751D01*
X186048053Y-101104695D01*
X185984497Y-101075670D01*
X185978019Y-101069638D01*
X185975670Y-101067289D01*
X185975661Y-101067281D01*
X185793617Y-100927592D01*
X185594890Y-100812857D01*
X185594876Y-100812850D01*
X185382887Y-100725042D01*
X185375830Y-100723151D01*
X185161238Y-100665652D01*
X185123215Y-100660646D01*
X184933741Y-100635700D01*
X184933734Y-100635700D01*
X184704266Y-100635700D01*
X184704258Y-100635700D01*
X184487715Y-100664209D01*
X184476762Y-100665652D01*
X184383076Y-100690754D01*
X184255112Y-100725042D01*
X184043123Y-100812850D01*
X184043109Y-100812857D01*
X183844382Y-100927592D01*
X183662338Y-101067281D01*
X183500081Y-101229538D01*
X183360392Y-101411582D01*
X183245657Y-101610309D01*
X183245650Y-101610323D01*
X183157842Y-101822312D01*
X183098453Y-102043959D01*
X183098451Y-102043970D01*
X183068500Y-102271458D01*
X183068500Y-102500941D01*
X183088999Y-102656635D01*
X183098452Y-102728438D01*
X183098453Y-102728440D01*
X183157842Y-102950087D01*
X183245650Y-103162076D01*
X183245656Y-103162088D01*
X183357070Y-103355064D01*
X183360392Y-103360817D01*
X183500081Y-103542861D01*
X183500089Y-103542870D01*
X183662330Y-103705111D01*
X183662338Y-103705118D01*
X183662339Y-103705119D01*
X183664255Y-103706589D01*
X183844382Y-103844807D01*
X183844385Y-103844808D01*
X183844388Y-103844811D01*
X184043112Y-103959544D01*
X184043118Y-103959546D01*
X184046753Y-103961339D01*
X184046187Y-103962485D01*
X184096337Y-104002877D01*
X184118420Y-104069165D01*
X184118500Y-104073624D01*
X184118500Y-111375606D01*
X184118500Y-111513594D01*
X184118500Y-111513596D01*
X184118499Y-111513596D01*
X184145418Y-111648922D01*
X184145421Y-111648932D01*
X184198222Y-111776407D01*
X184274887Y-111891145D01*
X184274888Y-111891146D01*
X191585781Y-119202038D01*
X191619266Y-119263361D01*
X191622100Y-119289719D01*
X191622100Y-120823452D01*
X191602415Y-120890491D01*
X191570985Y-120923770D01*
X191442813Y-121016890D01*
X191292490Y-121167213D01*
X191167549Y-121339182D01*
X191163084Y-121347946D01*
X191115109Y-121398742D01*
X191047288Y-121415536D01*
X190981153Y-121392998D01*
X190942116Y-121347946D01*
X190937650Y-121339182D01*
X190812709Y-121167213D01*
X190714019Y-121068523D01*
X190680534Y-121007200D01*
X190677700Y-120980842D01*
X190677700Y-118993267D01*
X190677701Y-118956120D01*
X190643098Y-118782145D01*
X190575218Y-118618264D01*
X190562413Y-118599100D01*
X190476673Y-118470776D01*
X190476668Y-118470770D01*
X182787249Y-110781147D01*
X182787243Y-110781142D01*
X182743145Y-110751676D01*
X182724356Y-110736256D01*
X181600835Y-109612735D01*
X181600830Y-109612731D01*
X181546422Y-109576378D01*
X181546416Y-109576375D01*
X181541759Y-109573263D01*
X181453347Y-109514187D01*
X181371406Y-109480246D01*
X181289466Y-109446305D01*
X181289458Y-109446303D01*
X181115496Y-109411700D01*
X181115492Y-109411700D01*
X181115491Y-109411700D01*
X175379561Y-109411700D01*
X175312522Y-109392015D01*
X175291880Y-109375381D01*
X175099019Y-109182519D01*
X175065534Y-109121196D01*
X175062700Y-109094838D01*
X175062700Y-104126699D01*
X175082385Y-104059660D01*
X175135189Y-104013905D01*
X175186700Y-104002699D01*
X175710071Y-104002699D01*
X175710072Y-104002699D01*
X175769683Y-103996291D01*
X175904531Y-103945996D01*
X176019746Y-103859746D01*
X176105996Y-103744531D01*
X176116588Y-103716133D01*
X176146190Y-103636767D01*
X176188061Y-103580833D01*
X176253526Y-103556416D01*
X176262372Y-103556100D01*
X176801893Y-103556100D01*
X176801894Y-103556099D01*
X176975866Y-103521495D01*
X177057806Y-103487553D01*
X177139747Y-103453613D01*
X177228159Y-103394536D01*
X177287236Y-103355064D01*
X177985663Y-102656636D01*
X177985664Y-102656635D01*
X178084213Y-102509147D01*
X178152094Y-102345266D01*
X178166776Y-102271458D01*
X178186699Y-102171295D01*
X178186700Y-102171293D01*
X178186700Y-87189578D01*
X181041500Y-87189578D01*
X181041500Y-87410021D01*
X181075985Y-87627752D01*
X181144103Y-87837403D01*
X181144104Y-87837406D01*
X181191596Y-87930612D01*
X181229612Y-88005222D01*
X181244187Y-88033825D01*
X181373752Y-88212158D01*
X181373756Y-88212163D01*
X181529636Y-88368043D01*
X181529641Y-88368047D01*
X181647030Y-88453334D01*
X181707978Y-88497615D01*
X181824540Y-88557007D01*
X181904393Y-88597695D01*
X181904396Y-88597696D01*
X181995538Y-88627309D01*
X182114049Y-88665815D01*
X182331778Y-88700300D01*
X182331779Y-88700300D01*
X182552221Y-88700300D01*
X182552222Y-88700300D01*
X182769951Y-88665815D01*
X182979606Y-88597695D01*
X183176022Y-88497615D01*
X183354365Y-88368042D01*
X183510242Y-88212165D01*
X183627034Y-88051413D01*
X183682362Y-88008749D01*
X183727351Y-88000300D01*
X185783622Y-88000300D01*
X185850661Y-88019985D01*
X185871314Y-88036629D01*
X186416087Y-88581532D01*
X187027409Y-89193000D01*
X187064392Y-89229991D01*
X187097869Y-89291318D01*
X187100700Y-89317662D01*
X187100700Y-89948200D01*
X187081015Y-90015239D01*
X187049585Y-90048518D01*
X186954187Y-90117828D01*
X186954182Y-90117832D01*
X186809428Y-90262586D01*
X186689115Y-90428186D01*
X186596181Y-90610576D01*
X186532922Y-90805265D01*
X186519552Y-90889683D01*
X186500900Y-91007448D01*
X186500900Y-91212152D01*
X186502800Y-91224147D01*
X186532922Y-91414334D01*
X186596181Y-91609023D01*
X186689115Y-91791413D01*
X186809428Y-91957013D01*
X186954186Y-92101771D01*
X187084027Y-92196104D01*
X187119790Y-92222087D01*
X187217198Y-92271719D01*
X187302176Y-92315018D01*
X187302178Y-92315018D01*
X187302181Y-92315020D01*
X187351689Y-92331106D01*
X187496865Y-92378277D01*
X187545077Y-92385913D01*
X187699048Y-92410300D01*
X187699049Y-92410300D01*
X187903751Y-92410300D01*
X187903752Y-92410300D01*
X188105934Y-92378277D01*
X188300619Y-92315020D01*
X188483010Y-92222087D01*
X188575990Y-92154532D01*
X188648613Y-92101771D01*
X188648615Y-92101768D01*
X188648619Y-92101766D01*
X188793366Y-91957019D01*
X188793368Y-91957015D01*
X188793371Y-91957013D01*
X188910715Y-91795500D01*
X188913687Y-91791410D01*
X189006620Y-91609019D01*
X189069877Y-91414334D01*
X189101900Y-91212152D01*
X189101900Y-91007448D01*
X189074110Y-90831992D01*
X189069877Y-90805265D01*
X189006618Y-90610576D01*
X188935302Y-90470612D01*
X188913687Y-90428190D01*
X188905956Y-90417549D01*
X188793371Y-90262586D01*
X188648621Y-90117836D01*
X188648619Y-90117834D01*
X188552813Y-90048226D01*
X188510149Y-89992898D01*
X188501700Y-89947910D01*
X188501700Y-88972225D01*
X188501708Y-88907290D01*
X188501700Y-88907249D01*
X188501700Y-88907207D01*
X188501700Y-88907204D01*
X188488306Y-88839869D01*
X188488303Y-88839854D01*
X188479814Y-88797151D01*
X188474805Y-88771952D01*
X188474799Y-88771939D01*
X188474781Y-88771878D01*
X188474780Y-88771872D01*
X188447895Y-88706965D01*
X188422014Y-88644463D01*
X188422012Y-88644460D01*
X188421979Y-88644399D01*
X188421975Y-88644389D01*
X188383303Y-88586513D01*
X188345367Y-88529722D01*
X188345336Y-88529691D01*
X188345314Y-88529658D01*
X188298643Y-88482987D01*
X186673688Y-86857644D01*
X186673564Y-86857507D01*
X186621047Y-86804991D01*
X186621039Y-86804976D01*
X186621036Y-86804980D01*
X186571811Y-86755743D01*
X186571810Y-86755742D01*
X186571808Y-86755740D01*
X186571804Y-86755737D01*
X186571770Y-86755709D01*
X186571738Y-86755683D01*
X186511588Y-86715492D01*
X186511588Y-86715491D01*
X186511582Y-86715487D01*
X186511577Y-86715485D01*
X186457085Y-86679065D01*
X186457047Y-86679049D01*
X186457011Y-86679025D01*
X186456988Y-86679015D01*
X186456986Y-86679014D01*
X186394045Y-86652944D01*
X186394031Y-86652938D01*
X186329609Y-86626244D01*
X186329608Y-86626243D01*
X186329604Y-86626242D01*
X186329530Y-86626220D01*
X186261176Y-86612623D01*
X186261058Y-86612599D01*
X186194277Y-86599309D01*
X186194238Y-86599308D01*
X186194193Y-86599300D01*
X186193687Y-86599300D01*
X186121225Y-86599300D01*
X186056290Y-86599292D01*
X186056250Y-86599300D01*
X183727351Y-86599300D01*
X183660312Y-86579615D01*
X183627035Y-86548188D01*
X183510242Y-86387435D01*
X183354365Y-86231558D01*
X183354363Y-86231556D01*
X183354358Y-86231552D01*
X183176025Y-86101987D01*
X183176024Y-86101986D01*
X183176022Y-86101985D01*
X183113096Y-86069922D01*
X182979606Y-86001904D01*
X182979603Y-86001903D01*
X182769952Y-85933785D01*
X182610845Y-85908585D01*
X182552222Y-85899300D01*
X182331778Y-85899300D01*
X182273155Y-85908585D01*
X182114047Y-85933785D01*
X181904396Y-86001903D01*
X181904393Y-86001904D01*
X181707974Y-86101987D01*
X181529641Y-86231552D01*
X181529636Y-86231556D01*
X181373756Y-86387436D01*
X181373752Y-86387441D01*
X181244187Y-86565774D01*
X181144104Y-86762193D01*
X181144103Y-86762196D01*
X181075985Y-86971847D01*
X181041500Y-87189578D01*
X178186700Y-87189578D01*
X178186700Y-80847448D01*
X186500900Y-80847448D01*
X186500900Y-81052152D01*
X186503333Y-81067512D01*
X186532922Y-81254334D01*
X186596181Y-81449023D01*
X186689115Y-81631413D01*
X186809428Y-81797013D01*
X186954186Y-81941771D01*
X187109149Y-82054356D01*
X187119790Y-82062087D01*
X187236007Y-82121303D01*
X187302176Y-82155018D01*
X187302178Y-82155018D01*
X187302181Y-82155020D01*
X187351689Y-82171106D01*
X187496865Y-82218277D01*
X187563014Y-82228754D01*
X187699048Y-82250300D01*
X187699049Y-82250300D01*
X187903751Y-82250300D01*
X187903752Y-82250300D01*
X188105934Y-82218277D01*
X188300619Y-82155020D01*
X188483010Y-82062087D01*
X188575990Y-81994532D01*
X188648613Y-81941771D01*
X188648615Y-81941768D01*
X188648619Y-81941766D01*
X188793366Y-81797019D01*
X188795714Y-81793788D01*
X188839454Y-81733584D01*
X188862825Y-81701415D01*
X188918155Y-81658749D01*
X188963144Y-81650300D01*
X191168654Y-81650300D01*
X191235693Y-81669985D01*
X191256340Y-81686623D01*
X191492677Y-81922985D01*
X192462697Y-82893109D01*
X192627386Y-83057815D01*
X192660868Y-83119140D01*
X192663700Y-83145492D01*
X192663700Y-83530003D01*
X192644015Y-83597042D01*
X192595996Y-83640487D01*
X192537782Y-83670149D01*
X192365813Y-83795090D01*
X192215490Y-83945413D01*
X192090551Y-84117379D01*
X191994044Y-84306785D01*
X191928353Y-84508960D01*
X191900651Y-84683865D01*
X191895100Y-84718913D01*
X191895100Y-84931487D01*
X191904140Y-84988562D01*
X191914804Y-85055896D01*
X191928354Y-85141443D01*
X191983575Y-85311396D01*
X191994044Y-85343614D01*
X192090551Y-85533020D01*
X192215490Y-85704986D01*
X192365813Y-85855309D01*
X192537779Y-85980248D01*
X192537781Y-85980249D01*
X192537784Y-85980251D01*
X192727188Y-86076757D01*
X192929357Y-86142446D01*
X193139313Y-86175700D01*
X193139314Y-86175700D01*
X193651886Y-86175700D01*
X193651887Y-86175700D01*
X193861843Y-86142446D01*
X194064012Y-86076757D01*
X194253416Y-85980251D01*
X194275389Y-85964286D01*
X194425386Y-85855309D01*
X194425388Y-85855306D01*
X194425392Y-85855304D01*
X194575704Y-85704992D01*
X194575706Y-85704988D01*
X194575709Y-85704986D01*
X194700648Y-85533020D01*
X194700647Y-85533020D01*
X194700651Y-85533016D01*
X194797157Y-85343612D01*
X194862846Y-85141443D01*
X194896100Y-84931487D01*
X194896100Y-84718913D01*
X194862846Y-84508957D01*
X194797157Y-84306788D01*
X194700651Y-84117384D01*
X194700649Y-84117381D01*
X194700648Y-84117379D01*
X194575709Y-83945413D01*
X194425386Y-83795090D01*
X194253415Y-83670148D01*
X194253414Y-83670147D01*
X194132405Y-83608489D01*
X194081609Y-83560515D01*
X194064700Y-83498005D01*
X194064700Y-82794181D01*
X194064703Y-82735044D01*
X194064700Y-82735028D01*
X194064700Y-82735007D01*
X194050392Y-82663078D01*
X194038127Y-82601398D01*
X194037837Y-82599810D01*
X194037243Y-82598376D01*
X194009275Y-82530854D01*
X193984992Y-82472222D01*
X193984988Y-82472216D01*
X193984978Y-82472198D01*
X193984975Y-82472189D01*
X193947558Y-82416190D01*
X193908338Y-82357486D01*
X193908315Y-82357458D01*
X193871170Y-82320314D01*
X193871166Y-82320307D01*
X193871165Y-82320309D01*
X192058271Y-80507219D01*
X192058271Y-80507218D01*
X192054320Y-80503266D01*
X192054314Y-80503258D01*
X192012531Y-80461475D01*
X191956772Y-80405710D01*
X191956768Y-80405707D01*
X191956767Y-80405706D01*
X191956747Y-80405689D01*
X191897804Y-80366304D01*
X191897777Y-80366286D01*
X191897700Y-80366235D01*
X191842045Y-80329043D01*
X191842026Y-80329035D01*
X191842011Y-80329025D01*
X191841984Y-80329014D01*
X191841983Y-80329013D01*
X191781468Y-80303947D01*
X191781463Y-80303945D01*
X191715506Y-80276621D01*
X191714602Y-80276236D01*
X191714585Y-80276231D01*
X191714440Y-80276202D01*
X191714439Y-80276201D01*
X191647978Y-80262982D01*
X191647973Y-80262979D01*
X191647973Y-80262981D01*
X191579238Y-80249305D01*
X191579235Y-80249304D01*
X191579232Y-80249304D01*
X191579226Y-80249303D01*
X191579194Y-80249300D01*
X191579193Y-80249300D01*
X191500382Y-80249300D01*
X191441244Y-80249297D01*
X191441229Y-80249300D01*
X188963144Y-80249300D01*
X188896105Y-80229615D01*
X188862825Y-80198184D01*
X188793369Y-80102584D01*
X188648613Y-79957828D01*
X188483013Y-79837515D01*
X188483012Y-79837514D01*
X188483010Y-79837513D01*
X188426053Y-79808491D01*
X188300623Y-79744581D01*
X188105934Y-79681322D01*
X187931395Y-79653678D01*
X187903752Y-79649300D01*
X187699048Y-79649300D01*
X187674729Y-79653151D01*
X187496865Y-79681322D01*
X187302176Y-79744581D01*
X187119786Y-79837515D01*
X186954186Y-79957828D01*
X186809428Y-80102586D01*
X186689115Y-80268186D01*
X186596181Y-80450576D01*
X186532922Y-80645265D01*
X186504882Y-80822304D01*
X186500900Y-80847448D01*
X178186700Y-80847448D01*
X178186700Y-68908561D01*
X178206385Y-68841522D01*
X178223019Y-68820880D01*
X178847880Y-68196019D01*
X178909203Y-68162534D01*
X178935561Y-68159700D01*
X183749501Y-68159700D01*
X183816540Y-68179385D01*
G37*
%TD.AperFunction*%
%TA.AperFunction,Conductor*%
G36*
X200796292Y-87568015D02*
G01*
X200847343Y-87598800D01*
X202418657Y-89170114D01*
X202451875Y-89192309D01*
X202452905Y-89192997D01*
X202452909Y-89193000D01*
X202533382Y-89246771D01*
X202533395Y-89246778D01*
X202606090Y-89276889D01*
X202606094Y-89276890D01*
X202610270Y-89278620D01*
X202660871Y-89299580D01*
X202687791Y-89304934D01*
X202782628Y-89323798D01*
X202796206Y-89326500D01*
X202796207Y-89326500D01*
X203164453Y-89326500D01*
X203231492Y-89346185D01*
X203264769Y-89377614D01*
X203299842Y-89425887D01*
X203357892Y-89505788D01*
X203508213Y-89656109D01*
X203680182Y-89781050D01*
X203688946Y-89785516D01*
X203739742Y-89833491D01*
X203756536Y-89901312D01*
X203733998Y-89967447D01*
X203688946Y-90006484D01*
X203680182Y-90010949D01*
X203508213Y-90135890D01*
X203357890Y-90286213D01*
X203232951Y-90458179D01*
X203136444Y-90647585D01*
X203070753Y-90849760D01*
X203043073Y-91024528D01*
X203037500Y-91059713D01*
X203037500Y-91272287D01*
X203070754Y-91482243D01*
X203113047Y-91612408D01*
X203136444Y-91684414D01*
X203232951Y-91873820D01*
X203357890Y-92045786D01*
X203508211Y-92196107D01*
X203543971Y-92222087D01*
X203585584Y-92252320D01*
X203628251Y-92307649D01*
X203636700Y-92352639D01*
X203636700Y-93473406D01*
X203636700Y-93611394D01*
X203636700Y-93611396D01*
X203636699Y-93611396D01*
X203663618Y-93746722D01*
X203663621Y-93746732D01*
X203716422Y-93874207D01*
X203793087Y-93988945D01*
X203793088Y-93988946D01*
X204285381Y-94481238D01*
X204318866Y-94542561D01*
X204321700Y-94568919D01*
X204321700Y-95351130D01*
X204302015Y-95418169D01*
X204249211Y-95463924D01*
X204180053Y-95473868D01*
X204140517Y-95459613D01*
X204139951Y-95460725D01*
X203953223Y-95365581D01*
X203758534Y-95302322D01*
X203583995Y-95274678D01*
X203556352Y-95270300D01*
X203351648Y-95270300D01*
X203327329Y-95274151D01*
X203149465Y-95302322D01*
X202954776Y-95365581D01*
X202772386Y-95458515D01*
X202606786Y-95578828D01*
X202462028Y-95723586D01*
X202341715Y-95889186D01*
X202248781Y-96071576D01*
X202185522Y-96266265D01*
X202153500Y-96468446D01*
X202153500Y-96673151D01*
X202185522Y-96875334D01*
X202248781Y-97070023D01*
X202301894Y-97174261D01*
X202317616Y-97205118D01*
X202341715Y-97252413D01*
X202462028Y-97418013D01*
X202606786Y-97562771D01*
X202761749Y-97675356D01*
X202772390Y-97683087D01*
X202859793Y-97727621D01*
X202954776Y-97776018D01*
X202954778Y-97776018D01*
X202954781Y-97776020D01*
X203059137Y-97809927D01*
X203149465Y-97839277D01*
X203250557Y-97855288D01*
X203351648Y-97871300D01*
X203351649Y-97871300D01*
X203556351Y-97871300D01*
X203556352Y-97871300D01*
X203758534Y-97839277D01*
X203953219Y-97776020D01*
X204135610Y-97683087D01*
X204135610Y-97683086D01*
X204139951Y-97680875D01*
X204140829Y-97682599D01*
X204200357Y-97666497D01*
X204266959Y-97687614D01*
X204311572Y-97741386D01*
X204321700Y-97790469D01*
X204321700Y-99401130D01*
X204302015Y-99468169D01*
X204249211Y-99513924D01*
X204180053Y-99523868D01*
X204140517Y-99509613D01*
X204139951Y-99510725D01*
X203953223Y-99415581D01*
X203758534Y-99352322D01*
X203583995Y-99324678D01*
X203556352Y-99320300D01*
X203351648Y-99320300D01*
X203327329Y-99324151D01*
X203149465Y-99352322D01*
X202954776Y-99415581D01*
X202772386Y-99508515D01*
X202606786Y-99628828D01*
X202462028Y-99773586D01*
X202341715Y-99939186D01*
X202248781Y-100121576D01*
X202185522Y-100316265D01*
X202153500Y-100518448D01*
X202153500Y-100723151D01*
X202185522Y-100925334D01*
X202248781Y-101120023D01*
X202302885Y-101226206D01*
X202341351Y-101301700D01*
X202341715Y-101302413D01*
X202462028Y-101468013D01*
X202606786Y-101612771D01*
X202761749Y-101725356D01*
X202772390Y-101733087D01*
X202886808Y-101791386D01*
X202954776Y-101826018D01*
X202954778Y-101826018D01*
X202954781Y-101826020D01*
X203059137Y-101859927D01*
X203149465Y-101889277D01*
X203250557Y-101905288D01*
X203351648Y-101921300D01*
X203351649Y-101921300D01*
X203556351Y-101921300D01*
X203556352Y-101921300D01*
X203758534Y-101889277D01*
X203953219Y-101826020D01*
X204135610Y-101733087D01*
X204135610Y-101733086D01*
X204139951Y-101730875D01*
X204140829Y-101732599D01*
X204200357Y-101716497D01*
X204266959Y-101737614D01*
X204311572Y-101791386D01*
X204321700Y-101840469D01*
X204321700Y-120572500D01*
X204302015Y-120639539D01*
X204249211Y-120685294D01*
X204197702Y-120696500D01*
X204124730Y-120696500D01*
X204124723Y-120696501D01*
X204065116Y-120702908D01*
X203930271Y-120753202D01*
X203930264Y-120753206D01*
X203815055Y-120839452D01*
X203815052Y-120839455D01*
X203728806Y-120954664D01*
X203728803Y-120954669D01*
X203679789Y-121086083D01*
X203637917Y-121142016D01*
X203572453Y-121166433D01*
X203504180Y-121151581D01*
X203475926Y-121130430D01*
X203362386Y-121016890D01*
X203190420Y-120891951D01*
X203001014Y-120795444D01*
X203001013Y-120795443D01*
X203001012Y-120795443D01*
X202798843Y-120729754D01*
X202798841Y-120729753D01*
X202798840Y-120729753D01*
X202637557Y-120704208D01*
X202588887Y-120696500D01*
X202376313Y-120696500D01*
X202327642Y-120704208D01*
X202166360Y-120729753D01*
X201964185Y-120795444D01*
X201774779Y-120891951D01*
X201602813Y-121016890D01*
X201452490Y-121167213D01*
X201327549Y-121339182D01*
X201323084Y-121347946D01*
X201275109Y-121398742D01*
X201207288Y-121415536D01*
X201141153Y-121392998D01*
X201102116Y-121347946D01*
X201097650Y-121339182D01*
X200972709Y-121167213D01*
X200879419Y-121073923D01*
X200845934Y-121012600D01*
X200843100Y-120986242D01*
X200843100Y-119773909D01*
X200843099Y-119773903D01*
X200840375Y-119760204D01*
X200840375Y-119760203D01*
X200808496Y-119599941D01*
X200808495Y-119599934D01*
X200755236Y-119471357D01*
X200740613Y-119436053D01*
X200664145Y-119321611D01*
X200642064Y-119288564D01*
X200642062Y-119288561D01*
X199348238Y-117994737D01*
X199322801Y-117977741D01*
X199258701Y-117934911D01*
X199200747Y-117896187D01*
X199118806Y-117862246D01*
X199113774Y-117860161D01*
X199113767Y-117860158D01*
X199036866Y-117828305D01*
X199036858Y-117828303D01*
X198862896Y-117793700D01*
X198862892Y-117793700D01*
X198862891Y-117793700D01*
X195363161Y-117793700D01*
X195296122Y-117774015D01*
X195275480Y-117757381D01*
X188027019Y-110508919D01*
X187993534Y-110447596D01*
X187990700Y-110421238D01*
X187990700Y-96468446D01*
X191993500Y-96468446D01*
X191993500Y-96673151D01*
X192025522Y-96875334D01*
X192088781Y-97070023D01*
X192141894Y-97174261D01*
X192157616Y-97205118D01*
X192181715Y-97252413D01*
X192302028Y-97418013D01*
X192446779Y-97562764D01*
X192450038Y-97565548D01*
X192488227Y-97624058D01*
X192493500Y-97659833D01*
X192493500Y-99531766D01*
X192473815Y-99598805D01*
X192450046Y-99626044D01*
X192446784Y-99628830D01*
X192302028Y-99773586D01*
X192181715Y-99939186D01*
X192088781Y-100121576D01*
X192025522Y-100316265D01*
X191993500Y-100518448D01*
X191993500Y-100723151D01*
X192025522Y-100925334D01*
X192088781Y-101120023D01*
X192142885Y-101226206D01*
X192181351Y-101301700D01*
X192181715Y-101302413D01*
X192302028Y-101468013D01*
X192446786Y-101612771D01*
X192601749Y-101725356D01*
X192612390Y-101733087D01*
X192726808Y-101791386D01*
X192794776Y-101826018D01*
X192794778Y-101826018D01*
X192794781Y-101826020D01*
X192899137Y-101859927D01*
X192989465Y-101889277D01*
X193090557Y-101905288D01*
X193191648Y-101921300D01*
X193191649Y-101921300D01*
X193396351Y-101921300D01*
X193396352Y-101921300D01*
X193598534Y-101889277D01*
X193793219Y-101826020D01*
X193975610Y-101733087D01*
X194068590Y-101665532D01*
X194141213Y-101612771D01*
X194141215Y-101612768D01*
X194141219Y-101612766D01*
X194285966Y-101468019D01*
X194285968Y-101468015D01*
X194285971Y-101468013D01*
X194361397Y-101364196D01*
X194406287Y-101302410D01*
X194499220Y-101120019D01*
X194562477Y-100925334D01*
X194594500Y-100723152D01*
X194594500Y-100518448D01*
X194562477Y-100316266D01*
X194499220Y-100121581D01*
X194499218Y-100121578D01*
X194499218Y-100121576D01*
X194465503Y-100055407D01*
X194406287Y-99939190D01*
X194398556Y-99928549D01*
X194285971Y-99773586D01*
X194141215Y-99628830D01*
X194137954Y-99626044D01*
X194099770Y-99567531D01*
X194094500Y-99531766D01*
X194094500Y-97659833D01*
X194114185Y-97592794D01*
X194137962Y-97565548D01*
X194141212Y-97562771D01*
X194141219Y-97562766D01*
X194285966Y-97418019D01*
X194285968Y-97418015D01*
X194285971Y-97418013D01*
X194358844Y-97317710D01*
X194406287Y-97252410D01*
X194499220Y-97070019D01*
X194562477Y-96875334D01*
X194594500Y-96673152D01*
X194594500Y-96468448D01*
X194589661Y-96437899D01*
X194562477Y-96266265D01*
X194516334Y-96124253D01*
X194499220Y-96071581D01*
X194499218Y-96071578D01*
X194499218Y-96071576D01*
X194435887Y-95947284D01*
X194406287Y-95889190D01*
X194398556Y-95878549D01*
X194285971Y-95723586D01*
X194141213Y-95578828D01*
X193975613Y-95458515D01*
X193975612Y-95458514D01*
X193975610Y-95458513D01*
X193896431Y-95418169D01*
X193793223Y-95365581D01*
X193598534Y-95302322D01*
X193423995Y-95274678D01*
X193396352Y-95270300D01*
X193191648Y-95270300D01*
X193167329Y-95274151D01*
X192989465Y-95302322D01*
X192794776Y-95365581D01*
X192612386Y-95458515D01*
X192446786Y-95578828D01*
X192302028Y-95723586D01*
X192181715Y-95889186D01*
X192088781Y-96071576D01*
X192025522Y-96266265D01*
X191993500Y-96468446D01*
X187990700Y-96468446D01*
X187990700Y-95750561D01*
X188010385Y-95683522D01*
X188027019Y-95662880D01*
X189154080Y-94535819D01*
X189215403Y-94502334D01*
X189241761Y-94499500D01*
X195033693Y-94499500D01*
X195033694Y-94499499D01*
X195207666Y-94464895D01*
X195289606Y-94430953D01*
X195371547Y-94397013D01*
X195469944Y-94331266D01*
X195519036Y-94298464D01*
X196635064Y-93182436D01*
X196680140Y-93114975D01*
X196733613Y-93034947D01*
X196780552Y-92921625D01*
X196801495Y-92871066D01*
X196836100Y-92697092D01*
X196836100Y-92519708D01*
X196836100Y-89140361D01*
X196855785Y-89073322D01*
X196872419Y-89052680D01*
X197546880Y-88378219D01*
X197608203Y-88344734D01*
X197634561Y-88341900D01*
X197994842Y-88341900D01*
X198061881Y-88361585D01*
X198082523Y-88378219D01*
X198175813Y-88471509D01*
X198347779Y-88596448D01*
X198347781Y-88596449D01*
X198347784Y-88596451D01*
X198537188Y-88692957D01*
X198739357Y-88758646D01*
X198949313Y-88791900D01*
X198949314Y-88791900D01*
X199411886Y-88791900D01*
X199411887Y-88791900D01*
X199621843Y-88758646D01*
X199824012Y-88692957D01*
X200013416Y-88596451D01*
X200064151Y-88559590D01*
X200185386Y-88471509D01*
X200185388Y-88471506D01*
X200185392Y-88471504D01*
X200335704Y-88321192D01*
X200335706Y-88321188D01*
X200335709Y-88321186D01*
X200447283Y-88167615D01*
X200460651Y-88149216D01*
X200557157Y-87959812D01*
X200622846Y-87757643D01*
X200627472Y-87728439D01*
X200634179Y-87686087D01*
X200637189Y-87667083D01*
X200667118Y-87603949D01*
X200726429Y-87567017D01*
X200796292Y-87568015D01*
G37*
%TD.AperFunction*%
%TA.AperFunction,Conductor*%
G36*
X202944277Y-68179385D02*
G01*
X202964919Y-68196019D01*
X205488981Y-70720081D01*
X205522466Y-70781404D01*
X205525300Y-70807762D01*
X205525300Y-82474042D01*
X205505615Y-82541081D01*
X205452811Y-82586836D01*
X205383653Y-82596780D01*
X205320097Y-82567755D01*
X205313619Y-82561723D01*
X205267786Y-82515890D01*
X205095820Y-82390951D01*
X204906414Y-82294444D01*
X204906413Y-82294443D01*
X204906412Y-82294443D01*
X204704243Y-82228754D01*
X204704241Y-82228753D01*
X204704240Y-82228753D01*
X204542957Y-82203208D01*
X204494287Y-82195500D01*
X204281713Y-82195500D01*
X204233042Y-82203208D01*
X204071760Y-82228753D01*
X203869585Y-82294444D01*
X203680179Y-82390951D01*
X203508213Y-82515890D01*
X203357890Y-82666213D01*
X203232951Y-82838179D01*
X203136444Y-83027585D01*
X203070753Y-83229760D01*
X203042469Y-83408340D01*
X203037500Y-83439713D01*
X203037500Y-83652287D01*
X203046069Y-83706386D01*
X203067562Y-83842094D01*
X203070754Y-83862243D01*
X203131130Y-84048061D01*
X203136444Y-84064414D01*
X203232951Y-84253820D01*
X203357890Y-84425786D01*
X203508213Y-84576109D01*
X203680182Y-84701050D01*
X203688946Y-84705516D01*
X203739742Y-84753491D01*
X203756536Y-84821312D01*
X203733998Y-84887447D01*
X203688946Y-84926484D01*
X203680182Y-84930949D01*
X203508213Y-85055890D01*
X203357890Y-85206213D01*
X203230085Y-85382125D01*
X203228957Y-85381306D01*
X203225919Y-85384054D01*
X203221605Y-85393503D01*
X203200454Y-85407095D01*
X203181812Y-85423963D01*
X203170003Y-85426664D01*
X203162827Y-85431277D01*
X203127892Y-85436300D01*
X203064319Y-85436300D01*
X202997280Y-85416615D01*
X202976638Y-85399981D01*
X202565219Y-84988562D01*
X202531734Y-84927239D01*
X202528900Y-84900881D01*
X202528900Y-77502604D01*
X202501981Y-77367276D01*
X202501978Y-77367266D01*
X202498343Y-77358492D01*
X202498340Y-77358485D01*
X202449178Y-77239796D01*
X202449177Y-77239795D01*
X202449175Y-77239789D01*
X202372514Y-77125057D01*
X202372512Y-77125054D01*
X201029145Y-75781687D01*
X200914407Y-75705022D01*
X200786932Y-75652221D01*
X200786922Y-75652218D01*
X200651596Y-75625300D01*
X200651594Y-75625300D01*
X200651593Y-75625300D01*
X186506425Y-75625300D01*
X186439386Y-75605615D01*
X186394237Y-75553510D01*
X186394142Y-75553558D01*
X186393961Y-75553192D01*
X186393631Y-75552811D01*
X186392555Y-75550341D01*
X186392346Y-75549918D01*
X186392344Y-75549912D01*
X186277611Y-75351188D01*
X186277608Y-75351185D01*
X186277607Y-75351182D01*
X186137918Y-75169138D01*
X186137911Y-75169130D01*
X185975670Y-75006889D01*
X185975661Y-75006881D01*
X185793617Y-74867192D01*
X185792631Y-74866623D01*
X185594888Y-74752456D01*
X185594887Y-74752455D01*
X185591242Y-74750658D01*
X185591829Y-74749466D01*
X185541828Y-74709155D01*
X185519778Y-74642856D01*
X185519700Y-74638457D01*
X185519700Y-71513141D01*
X185539385Y-71446102D01*
X185591324Y-71401096D01*
X185591247Y-71400939D01*
X185591847Y-71400642D01*
X185592189Y-71400347D01*
X185594394Y-71399386D01*
X185594874Y-71399149D01*
X185594888Y-71399144D01*
X185793612Y-71284411D01*
X185975661Y-71144719D01*
X185975665Y-71144714D01*
X185975670Y-71144711D01*
X186137911Y-70982470D01*
X186137914Y-70982465D01*
X186137919Y-70982461D01*
X186277611Y-70800412D01*
X186392344Y-70601688D01*
X186480158Y-70389687D01*
X186539548Y-70168038D01*
X186569500Y-69940534D01*
X186569500Y-69711066D01*
X186539548Y-69483562D01*
X186480158Y-69261913D01*
X186430190Y-69141280D01*
X186392349Y-69049923D01*
X186392346Y-69049917D01*
X186392344Y-69049912D01*
X186277611Y-68851188D01*
X186277608Y-68851185D01*
X186277607Y-68851182D01*
X186137918Y-68669138D01*
X186137911Y-68669130D01*
X185975670Y-68506889D01*
X185975661Y-68506881D01*
X185813012Y-68382075D01*
X185771810Y-68325647D01*
X185767655Y-68255901D01*
X185801868Y-68194981D01*
X185863585Y-68162229D01*
X185888499Y-68159700D01*
X202877238Y-68159700D01*
X202944277Y-68179385D01*
G37*
%TD.AperFunction*%
%TD*%
M02*
