%TF.GenerationSoftware,KiCad,Pcbnew,9.0.4*%
%TF.CreationDate,2025-12-09T23:50:13+01:00*%
%TF.ProjectId,Front Pannel,46726f6e-7420-4506-916e-6e656c2e6b69,rev?*%
%TF.SameCoordinates,Original*%
%TF.FileFunction,Copper,L1,Top*%
%TF.FilePolarity,Positive*%
%FSLAX46Y46*%
G04 Gerber Fmt 4.6, Leading zero omitted, Abs format (unit mm)*
G04 Created by KiCad (PCBNEW 9.0.4) date 2025-12-09 23:50:13*
%MOMM*%
%LPD*%
G01*
G04 APERTURE LIST*
G04 Aperture macros list*
%AMRoundRect*
0 Rectangle with rounded corners*
0 $1 Rounding radius*
0 $2 $3 $4 $5 $6 $7 $8 $9 X,Y pos of 4 corners*
0 Add a 4 corners polygon primitive as box body*
4,1,4,$2,$3,$4,$5,$6,$7,$8,$9,$2,$3,0*
0 Add four circle primitives for the rounded corners*
1,1,$1+$1,$2,$3*
1,1,$1+$1,$4,$5*
1,1,$1+$1,$6,$7*
1,1,$1+$1,$8,$9*
0 Add four rect primitives between the rounded corners*
20,1,$1+$1,$2,$3,$4,$5,0*
20,1,$1+$1,$4,$5,$6,$7,0*
20,1,$1+$1,$6,$7,$8,$9,0*
20,1,$1+$1,$8,$9,$2,$3,0*%
G04 Aperture macros list end*
%TA.AperFunction,ComponentPad*%
%ADD10C,1.600000*%
%TD*%
%TA.AperFunction,ComponentPad*%
%ADD11O,1.600000X1.600000*%
%TD*%
%TA.AperFunction,ComponentPad*%
%ADD12R,1.800000X1.800000*%
%TD*%
%TA.AperFunction,ComponentPad*%
%ADD13C,1.800000*%
%TD*%
%TA.AperFunction,ComponentPad*%
%ADD14C,2.500000*%
%TD*%
%TA.AperFunction,ComponentPad*%
%ADD15R,1.700000X1.700000*%
%TD*%
%TA.AperFunction,ComponentPad*%
%ADD16O,1.700000X1.700000*%
%TD*%
%TA.AperFunction,ComponentPad*%
%ADD17R,2.000000X3.000000*%
%TD*%
%TA.AperFunction,ComponentPad*%
%ADD18O,2.000000X3.000000*%
%TD*%
%TA.AperFunction,ComponentPad*%
%ADD19R,3.500000X4.500000*%
%TD*%
%TA.AperFunction,ComponentPad*%
%ADD20C,3.400000*%
%TD*%
%TA.AperFunction,ComponentPad*%
%ADD21R,3.000000X1.700000*%
%TD*%
%TA.AperFunction,ComponentPad*%
%ADD22O,3.000000X1.700000*%
%TD*%
%TA.AperFunction,ComponentPad*%
%ADD23RoundRect,0.250000X0.750000X-0.600000X0.750000X0.600000X-0.750000X0.600000X-0.750000X-0.600000X0*%
%TD*%
%TA.AperFunction,ComponentPad*%
%ADD24O,2.000000X1.700000*%
%TD*%
%TA.AperFunction,ComponentPad*%
%ADD25RoundRect,0.250000X0.725000X-0.600000X0.725000X0.600000X-0.725000X0.600000X-0.725000X-0.600000X0*%
%TD*%
%TA.AperFunction,ComponentPad*%
%ADD26O,1.950000X1.700000*%
%TD*%
%TA.AperFunction,ViaPad*%
%ADD27C,0.600000*%
%TD*%
%TA.AperFunction,Conductor*%
%ADD28C,0.400000*%
%TD*%
%TA.AperFunction,Conductor*%
%ADD29C,2.000000*%
%TD*%
G04 APERTURE END LIST*
D10*
%TO.P,R3,1*%
%TO.N,+3.3V*%
X193294000Y-100620800D03*
D11*
%TO.P,R3,2*%
%TO.N,CLK*%
X203454000Y-100620800D03*
%TD*%
D12*
%TO.P,D1,1,K*%
%TO.N,Net-(D1-K)*%
X182442000Y-84759800D03*
D13*
%TO.P,D1,2,A*%
%TO.N,Net-(D1-A)*%
X182442000Y-87299800D03*
%TD*%
D14*
%TO.P,SW7,1,1*%
%TO.N,GND*%
X180319000Y-76325800D03*
X180319000Y-69825800D03*
%TO.P,SW7,2,2*%
%TO.N,SW_STEP*%
X184819000Y-76325800D03*
X184819000Y-69825800D03*
%TD*%
%TO.P,SW4,1,1*%
%TO.N,GND*%
X138482400Y-122399000D03*
X131982400Y-122399000D03*
%TO.P,SW4,2,2*%
%TO.N,SW_AGC*%
X138482400Y-117899000D03*
X131982400Y-117899000D03*
%TD*%
D10*
%TO.P,R2,1*%
%TO.N,+3.3V*%
X193294000Y-96570800D03*
D11*
%TO.P,R2,2*%
%TO.N,DT*%
X203454000Y-96570800D03*
%TD*%
D14*
%TO.P,SW3,1,1*%
%TO.N,GND*%
X124258400Y-122399000D03*
X117758400Y-122399000D03*
%TO.P,SW3,2,2*%
%TO.N,SW_MODE*%
X124258400Y-117899000D03*
X117758400Y-117899000D03*
%TD*%
D10*
%TO.P,R1,1*%
%TO.N,Net-(J1-Pin_2)*%
X187801400Y-80949800D03*
D11*
%TO.P,R1,2*%
%TO.N,Net-(D1-A)*%
X187801400Y-91109800D03*
%TD*%
D15*
%TO.P,J3,1,Pin_1*%
%TO.N,GND*%
X204388000Y-81006000D03*
D16*
%TO.P,J3,2,Pin_2*%
%TO.N,+3.3V*%
X204388000Y-83546000D03*
%TO.P,J3,3,Pin_3*%
%TO.N,SW_STEP*%
X204388000Y-86086000D03*
%TO.P,J3,4,Pin_4*%
%TO.N,DT*%
X204388000Y-88626000D03*
%TO.P,J3,5,Pin_5*%
%TO.N,CLK*%
X204388000Y-91166000D03*
%TD*%
D10*
%TO.P,R4,1*%
%TO.N,+3.3V*%
X82245200Y-84988400D03*
D11*
%TO.P,R4,2*%
%TO.N,SW_RTTY_CW*%
X72085200Y-84988400D03*
%TD*%
D17*
%TO.P,SW1,A,A*%
%TO.N,CLK-2*%
X74390400Y-108432600D03*
D18*
%TO.P,SW1,B,B*%
%TO.N,DT-2*%
X79390400Y-108432600D03*
%TO.P,SW1,C,C*%
%TO.N,GND*%
X76890400Y-108432600D03*
D19*
X71290400Y-100932600D03*
X82490400Y-100932600D03*
D18*
%TO.P,SW1,S1,S1*%
%TO.N,unconnected-(SW1-PadS1)*%
X74390400Y-93932600D03*
%TO.P,SW1,S2,S2*%
%TO.N,unconnected-(SW1-PadS2)*%
X79390400Y-93932600D03*
%TD*%
D14*
%TO.P,SW2,1,1*%
%TO.N,GND*%
X110034400Y-122363000D03*
X103534400Y-122363000D03*
%TO.P,SW2,2,2*%
%TO.N,SW_BAND*%
X110034400Y-117863000D03*
X103534400Y-117863000D03*
%TD*%
%TO.P,SW5,1,1*%
%TO.N,GND*%
X152706400Y-122363000D03*
X146206400Y-122363000D03*
%TO.P,SW5,2,2*%
%TO.N,SW_ATT*%
X152706400Y-117863000D03*
X146206400Y-117863000D03*
%TD*%
D20*
%TO.P,U1,*%
%TO.N,*%
X93462200Y-64482200D03*
X93462200Y-107882200D03*
X169062200Y-64482200D03*
X169062200Y-107782200D03*
D21*
%TO.P,U1,1,VCC*%
%TO.N,+3.3V*%
X174162200Y-102652200D03*
D22*
%TO.P,U1,2,GND*%
%TO.N,GND*%
X174162200Y-100112200D03*
%TO.P,U1,3,~{CS}*%
%TO.N,CS*%
X174162200Y-97572200D03*
%TO.P,U1,4,RESET*%
%TO.N,RST*%
X174162200Y-95032200D03*
%TO.P,U1,5,D/~{C}*%
%TO.N,D{slash}C*%
X174162200Y-92492200D03*
%TO.P,U1,6,MOSI*%
%TO.N,MOSI*%
X174162200Y-89952200D03*
%TO.P,U1,7,SCK*%
%TO.N,SCK*%
X174162200Y-87412200D03*
%TO.P,U1,8,LED*%
%TO.N,+3.3V*%
X174162200Y-84872200D03*
%TO.P,U1,9,MISO*%
%TO.N,unconnected-(U1-MISO-Pad9)*%
X174162200Y-82332200D03*
%TO.P,U1,10,T_CLK*%
%TO.N,unconnected-(U1-T_CLK-Pad10)*%
X174162200Y-79792200D03*
%TO.P,U1,11,T_CS*%
%TO.N,unconnected-(U1-T_CS-Pad11)*%
X174162200Y-77252200D03*
%TO.P,U1,12,T_DIN*%
%TO.N,unconnected-(U1-T_DIN-Pad12)*%
X174162200Y-74712200D03*
%TO.P,U1,13,T_OUT*%
%TO.N,unconnected-(U1-T_OUT-Pad13)*%
X174162200Y-72172200D03*
%TO.P,U1,14,T_IRQ*%
%TO.N,unconnected-(U1-T_IRQ-Pad14)*%
X174162200Y-69632200D03*
D21*
%TO.P,U1,15,SD_CS*%
%TO.N,unconnected-(U1-SD_CS-Pad15)*%
X93012200Y-89932200D03*
D22*
%TO.P,U1,16,SD_MOSI*%
%TO.N,unconnected-(U1-SD_MOSI-Pad16)*%
X93012200Y-87392200D03*
%TO.P,U1,17,SD_MISO*%
%TO.N,unconnected-(U1-SD_MISO-Pad17)*%
X93012200Y-84852200D03*
%TO.P,U1,18,SD_SCK*%
%TO.N,unconnected-(U1-SD_SCK-Pad18)*%
X93012200Y-82312200D03*
%TD*%
D14*
%TO.P,SW6,1,1*%
%TO.N,GND*%
X180319000Y-102386200D03*
X180319000Y-95886200D03*
%TO.P,SW6,2,2*%
%TO.N,SW_SCAN*%
X184819000Y-102386200D03*
X184819000Y-95886200D03*
%TD*%
%TO.P,SW8,1,1*%
%TO.N,GND*%
X73640400Y-73574800D03*
X80140400Y-73574800D03*
%TO.P,SW8,2,2*%
%TO.N,SW_RTTY_CW*%
X73640400Y-78074800D03*
X80140400Y-78074800D03*
%TD*%
D23*
%TO.P,J1,1,Pin_1*%
%TO.N,Net-(D1-K)*%
X193395600Y-87325200D03*
D24*
%TO.P,J1,2,Pin_2*%
%TO.N,Net-(J1-Pin_2)*%
X193395600Y-84825200D03*
%TD*%
D15*
%TO.P,J4,1,Pin_1*%
%TO.N,CLK*%
X205022600Y-122047000D03*
D16*
%TO.P,J4,2,Pin_2*%
%TO.N,DT*%
X202482600Y-122047000D03*
%TO.P,J4,3,Pin_3*%
%TO.N,+9V*%
X199942600Y-122047000D03*
%TO.P,J4,4,Pin_4*%
%TO.N,SW_RTTY_CW*%
X197402600Y-122047000D03*
%TO.P,J4,5,Pin_5*%
%TO.N,SW_STEP*%
X194862600Y-122047000D03*
%TO.P,J4,6,Pin_6*%
%TO.N,SW_SCAN*%
X192322600Y-122047000D03*
%TO.P,J4,7,Pin_7*%
%TO.N,+3.3V*%
X189782600Y-122047000D03*
%TO.P,J4,8,Pin_8*%
%TO.N,GND*%
X187242600Y-122047000D03*
%TO.P,J4,9,Pin_9*%
%TO.N,CS*%
X184702600Y-122047000D03*
%TO.P,J4,10,Pin_10*%
%TO.N,RST*%
X182162600Y-122047000D03*
%TO.P,J4,11,Pin_11*%
%TO.N,D{slash}C*%
X179622600Y-122047000D03*
%TO.P,J4,12,Pin_12*%
%TO.N,MOSI*%
X177082600Y-122047000D03*
%TO.P,J4,13,Pin_13*%
%TO.N,SCK*%
X174542600Y-122047000D03*
%TO.P,J4,14,Pin_14*%
%TO.N,SW_BAND*%
X172002600Y-122047000D03*
%TO.P,J4,15,Pin_15*%
%TO.N,SW_MODE*%
X169462600Y-122047000D03*
%TO.P,J4,16,Pin_16*%
%TO.N,SW_AGC*%
X166922600Y-122047000D03*
%TO.P,J4,17,Pin_17*%
%TO.N,SW_ATT*%
X164382600Y-122047000D03*
%TO.P,J4,18,Pin_18*%
%TO.N,GND*%
X161842600Y-122047000D03*
%TO.P,J4,19,Pin_19*%
%TO.N,CLK-2*%
X159302600Y-122047000D03*
%TO.P,J4,20,Pin_20*%
%TO.N,DT-2*%
X156762600Y-122047000D03*
%TD*%
D25*
%TO.P,J2,1,Pin_1*%
%TO.N,GND*%
X199180600Y-89941400D03*
D26*
%TO.P,J2,2,Pin_2*%
%TO.N,+9V*%
X199180600Y-87441400D03*
%TO.P,J2,3,Pin_3*%
%TO.N,DT*%
X199180600Y-84941400D03*
%TO.P,J2,4,Pin_4*%
%TO.N,CLK*%
X199180600Y-82441400D03*
%TD*%
D27*
%TO.N,GND*%
X180319000Y-93599000D03*
%TD*%
D28*
%TO.N,GND*%
X177438200Y-102031800D02*
X177792600Y-102386200D01*
X177387400Y-100736400D02*
X177387400Y-102031800D01*
X177792600Y-102386200D02*
X180319000Y-102386200D01*
X195935600Y-82067400D02*
X195935600Y-88950800D01*
X199180600Y-92665400D02*
X199180600Y-89941400D01*
X204337200Y-81056800D02*
X204270800Y-80990400D01*
X197012600Y-80990400D02*
X195935600Y-82067400D01*
X177387400Y-102031800D02*
X177438200Y-102031800D01*
X180319000Y-95886200D02*
X180319000Y-102386200D01*
X176763200Y-100112200D02*
X177387400Y-100736400D01*
D29*
X71290400Y-100932600D02*
X77165200Y-100932600D01*
D28*
X196926200Y-89941400D02*
X199180600Y-89941400D01*
X174162200Y-100112200D02*
X176763200Y-100112200D01*
X198247000Y-93599000D02*
X199180600Y-92665400D01*
D29*
X77165200Y-100932600D02*
X82490400Y-100932600D01*
D28*
X204270800Y-80990400D02*
X197012600Y-80990400D01*
X195935600Y-88950800D02*
X196926200Y-89941400D01*
D29*
X76890400Y-101207400D02*
X76890400Y-108432600D01*
D28*
X180319000Y-93599000D02*
X198247000Y-93599000D01*
D29*
X77165200Y-100932600D02*
X76890400Y-101207400D01*
D28*
%TO.N,SW_STEP*%
X195675400Y-124612400D02*
X194862600Y-123799600D01*
X204337200Y-86136800D02*
X205923200Y-86136800D01*
X207162400Y-87376000D02*
X207162400Y-123647200D01*
X207162400Y-123647200D02*
X206197200Y-124612400D01*
X194862600Y-123799600D02*
X194862600Y-122047000D01*
X205923200Y-86136800D02*
X207162400Y-87376000D01*
X206197200Y-124612400D02*
X195675400Y-124612400D01*
%TO.N,SW_SCAN*%
X184819000Y-102386200D02*
X184819000Y-95886200D01*
%TO.N,+3.3V*%
X191516000Y-105359200D02*
X175615600Y-105359200D01*
X175615600Y-105359200D02*
X174162200Y-103905800D01*
X193294000Y-103581200D02*
X191516000Y-105359200D01*
X174162200Y-103905800D02*
X174162200Y-102652200D01*
X193294000Y-100620800D02*
X193294000Y-103581200D01*
%TO.N,CLK*%
X204317200Y-91236800D02*
X204337200Y-91216800D01*
X201828400Y-83108800D02*
X201828400Y-90271600D01*
X202793600Y-91236800D02*
X204317200Y-91236800D01*
X201828400Y-90271600D02*
X202793600Y-91236800D01*
X199180600Y-82441400D02*
X201161000Y-82441400D01*
X201161000Y-82441400D02*
X201828400Y-83108800D01*
%TO.N,DT*%
X205821600Y-88626000D02*
X204388000Y-88626000D01*
X206248000Y-89052400D02*
X205821600Y-88626000D01*
X206248000Y-95707200D02*
X206248000Y-89052400D01*
X203454000Y-96570800D02*
X205384400Y-96570800D01*
X205384400Y-96570800D02*
X206248000Y-95707200D01*
%TD*%
M02*
