%TF.GenerationSoftware,KiCad,Pcbnew,9.0.4*%
%TF.CreationDate,2025-12-09T23:50:13+01:00*%
%TF.ProjectId,Front Pannel,46726f6e-7420-4506-916e-6e656c2e6b69,rev?*%
%TF.SameCoordinates,Original*%
%TF.FileFunction,Legend,Top*%
%TF.FilePolarity,Positive*%
%FSLAX46Y46*%
G04 Gerber Fmt 4.6, Leading zero omitted, Abs format (unit mm)*
G04 Created by KiCad (PCBNEW 9.0.4) date 2025-12-09 23:50:13*
%MOMM*%
%LPD*%
G01*
G04 APERTURE LIST*
%ADD10C,0.150000*%
%ADD11C,0.120000*%
G04 APERTURE END LIST*
D10*
X190841333Y-100988019D02*
X190508000Y-100511828D01*
X190269905Y-100988019D02*
X190269905Y-99988019D01*
X190269905Y-99988019D02*
X190650857Y-99988019D01*
X190650857Y-99988019D02*
X190746095Y-100035638D01*
X190746095Y-100035638D02*
X190793714Y-100083257D01*
X190793714Y-100083257D02*
X190841333Y-100178495D01*
X190841333Y-100178495D02*
X190841333Y-100321352D01*
X190841333Y-100321352D02*
X190793714Y-100416590D01*
X190793714Y-100416590D02*
X190746095Y-100464209D01*
X190746095Y-100464209D02*
X190650857Y-100511828D01*
X190650857Y-100511828D02*
X190269905Y-100511828D01*
X191174667Y-99988019D02*
X191793714Y-99988019D01*
X191793714Y-99988019D02*
X191460381Y-100368971D01*
X191460381Y-100368971D02*
X191603238Y-100368971D01*
X191603238Y-100368971D02*
X191698476Y-100416590D01*
X191698476Y-100416590D02*
X191746095Y-100464209D01*
X191746095Y-100464209D02*
X191793714Y-100559447D01*
X191793714Y-100559447D02*
X191793714Y-100797542D01*
X191793714Y-100797542D02*
X191746095Y-100892780D01*
X191746095Y-100892780D02*
X191698476Y-100940400D01*
X191698476Y-100940400D02*
X191603238Y-100988019D01*
X191603238Y-100988019D02*
X191317524Y-100988019D01*
X191317524Y-100988019D02*
X191222286Y-100940400D01*
X191222286Y-100940400D02*
X191174667Y-100892780D01*
X181703905Y-83524619D02*
X181703905Y-82524619D01*
X181703905Y-82524619D02*
X181942000Y-82524619D01*
X181942000Y-82524619D02*
X182084857Y-82572238D01*
X182084857Y-82572238D02*
X182180095Y-82667476D01*
X182180095Y-82667476D02*
X182227714Y-82762714D01*
X182227714Y-82762714D02*
X182275333Y-82953190D01*
X182275333Y-82953190D02*
X182275333Y-83096047D01*
X182275333Y-83096047D02*
X182227714Y-83286523D01*
X182227714Y-83286523D02*
X182180095Y-83381761D01*
X182180095Y-83381761D02*
X182084857Y-83477000D01*
X182084857Y-83477000D02*
X181942000Y-83524619D01*
X181942000Y-83524619D02*
X181703905Y-83524619D01*
X183227714Y-83524619D02*
X182656286Y-83524619D01*
X182942000Y-83524619D02*
X182942000Y-82524619D01*
X182942000Y-82524619D02*
X182846762Y-82667476D01*
X182846762Y-82667476D02*
X182751524Y-82762714D01*
X182751524Y-82762714D02*
X182656286Y-82810333D01*
X179601247Y-67337400D02*
X179744104Y-67385019D01*
X179744104Y-67385019D02*
X179982199Y-67385019D01*
X179982199Y-67385019D02*
X180077437Y-67337400D01*
X180077437Y-67337400D02*
X180125056Y-67289780D01*
X180125056Y-67289780D02*
X180172675Y-67194542D01*
X180172675Y-67194542D02*
X180172675Y-67099304D01*
X180172675Y-67099304D02*
X180125056Y-67004066D01*
X180125056Y-67004066D02*
X180077437Y-66956447D01*
X180077437Y-66956447D02*
X179982199Y-66908828D01*
X179982199Y-66908828D02*
X179791723Y-66861209D01*
X179791723Y-66861209D02*
X179696485Y-66813590D01*
X179696485Y-66813590D02*
X179648866Y-66765971D01*
X179648866Y-66765971D02*
X179601247Y-66670733D01*
X179601247Y-66670733D02*
X179601247Y-66575495D01*
X179601247Y-66575495D02*
X179648866Y-66480257D01*
X179648866Y-66480257D02*
X179696485Y-66432638D01*
X179696485Y-66432638D02*
X179791723Y-66385019D01*
X179791723Y-66385019D02*
X180029818Y-66385019D01*
X180029818Y-66385019D02*
X180172675Y-66432638D01*
X180506009Y-66385019D02*
X180744104Y-67385019D01*
X180744104Y-67385019D02*
X180934580Y-66670733D01*
X180934580Y-66670733D02*
X181125056Y-67385019D01*
X181125056Y-67385019D02*
X181363152Y-66385019D01*
X181506009Y-67480257D02*
X182267913Y-67480257D01*
X182458390Y-67337400D02*
X182601247Y-67385019D01*
X182601247Y-67385019D02*
X182839342Y-67385019D01*
X182839342Y-67385019D02*
X182934580Y-67337400D01*
X182934580Y-67337400D02*
X182982199Y-67289780D01*
X182982199Y-67289780D02*
X183029818Y-67194542D01*
X183029818Y-67194542D02*
X183029818Y-67099304D01*
X183029818Y-67099304D02*
X182982199Y-67004066D01*
X182982199Y-67004066D02*
X182934580Y-66956447D01*
X182934580Y-66956447D02*
X182839342Y-66908828D01*
X182839342Y-66908828D02*
X182648866Y-66861209D01*
X182648866Y-66861209D02*
X182553628Y-66813590D01*
X182553628Y-66813590D02*
X182506009Y-66765971D01*
X182506009Y-66765971D02*
X182458390Y-66670733D01*
X182458390Y-66670733D02*
X182458390Y-66575495D01*
X182458390Y-66575495D02*
X182506009Y-66480257D01*
X182506009Y-66480257D02*
X182553628Y-66432638D01*
X182553628Y-66432638D02*
X182648866Y-66385019D01*
X182648866Y-66385019D02*
X182886961Y-66385019D01*
X182886961Y-66385019D02*
X183029818Y-66432638D01*
X183315533Y-66718352D02*
X183696485Y-66718352D01*
X183458390Y-66385019D02*
X183458390Y-67242161D01*
X183458390Y-67242161D02*
X183506009Y-67337400D01*
X183506009Y-67337400D02*
X183601247Y-67385019D01*
X183601247Y-67385019D02*
X183696485Y-67385019D01*
X184410771Y-67337400D02*
X184315533Y-67385019D01*
X184315533Y-67385019D02*
X184125057Y-67385019D01*
X184125057Y-67385019D02*
X184029819Y-67337400D01*
X184029819Y-67337400D02*
X183982200Y-67242161D01*
X183982200Y-67242161D02*
X183982200Y-66861209D01*
X183982200Y-66861209D02*
X184029819Y-66765971D01*
X184029819Y-66765971D02*
X184125057Y-66718352D01*
X184125057Y-66718352D02*
X184315533Y-66718352D01*
X184315533Y-66718352D02*
X184410771Y-66765971D01*
X184410771Y-66765971D02*
X184458390Y-66861209D01*
X184458390Y-66861209D02*
X184458390Y-66956447D01*
X184458390Y-66956447D02*
X183982200Y-67051685D01*
X184886962Y-66718352D02*
X184886962Y-67718352D01*
X184886962Y-66765971D02*
X184982200Y-66718352D01*
X184982200Y-66718352D02*
X185172676Y-66718352D01*
X185172676Y-66718352D02*
X185267914Y-66765971D01*
X185267914Y-66765971D02*
X185315533Y-66813590D01*
X185315533Y-66813590D02*
X185363152Y-66908828D01*
X185363152Y-66908828D02*
X185363152Y-67194542D01*
X185363152Y-67194542D02*
X185315533Y-67289780D01*
X185315533Y-67289780D02*
X185267914Y-67337400D01*
X185267914Y-67337400D02*
X185172676Y-67385019D01*
X185172676Y-67385019D02*
X184982200Y-67385019D01*
X184982200Y-67385019D02*
X184886962Y-67337400D01*
X132652133Y-115640000D02*
X132794990Y-115687619D01*
X132794990Y-115687619D02*
X133033085Y-115687619D01*
X133033085Y-115687619D02*
X133128323Y-115640000D01*
X133128323Y-115640000D02*
X133175942Y-115592380D01*
X133175942Y-115592380D02*
X133223561Y-115497142D01*
X133223561Y-115497142D02*
X133223561Y-115401904D01*
X133223561Y-115401904D02*
X133175942Y-115306666D01*
X133175942Y-115306666D02*
X133128323Y-115259047D01*
X133128323Y-115259047D02*
X133033085Y-115211428D01*
X133033085Y-115211428D02*
X132842609Y-115163809D01*
X132842609Y-115163809D02*
X132747371Y-115116190D01*
X132747371Y-115116190D02*
X132699752Y-115068571D01*
X132699752Y-115068571D02*
X132652133Y-114973333D01*
X132652133Y-114973333D02*
X132652133Y-114878095D01*
X132652133Y-114878095D02*
X132699752Y-114782857D01*
X132699752Y-114782857D02*
X132747371Y-114735238D01*
X132747371Y-114735238D02*
X132842609Y-114687619D01*
X132842609Y-114687619D02*
X133080704Y-114687619D01*
X133080704Y-114687619D02*
X133223561Y-114735238D01*
X133556895Y-114687619D02*
X133794990Y-115687619D01*
X133794990Y-115687619D02*
X133985466Y-114973333D01*
X133985466Y-114973333D02*
X134175942Y-115687619D01*
X134175942Y-115687619D02*
X134414038Y-114687619D01*
X134556895Y-115782857D02*
X135318799Y-115782857D01*
X135509276Y-115401904D02*
X135985466Y-115401904D01*
X135414038Y-115687619D02*
X135747371Y-114687619D01*
X135747371Y-114687619D02*
X136080704Y-115687619D01*
X136937847Y-114735238D02*
X136842609Y-114687619D01*
X136842609Y-114687619D02*
X136699752Y-114687619D01*
X136699752Y-114687619D02*
X136556895Y-114735238D01*
X136556895Y-114735238D02*
X136461657Y-114830476D01*
X136461657Y-114830476D02*
X136414038Y-114925714D01*
X136414038Y-114925714D02*
X136366419Y-115116190D01*
X136366419Y-115116190D02*
X136366419Y-115259047D01*
X136366419Y-115259047D02*
X136414038Y-115449523D01*
X136414038Y-115449523D02*
X136461657Y-115544761D01*
X136461657Y-115544761D02*
X136556895Y-115640000D01*
X136556895Y-115640000D02*
X136699752Y-115687619D01*
X136699752Y-115687619D02*
X136794990Y-115687619D01*
X136794990Y-115687619D02*
X136937847Y-115640000D01*
X136937847Y-115640000D02*
X136985466Y-115592380D01*
X136985466Y-115592380D02*
X136985466Y-115259047D01*
X136985466Y-115259047D02*
X136794990Y-115259047D01*
X137985466Y-115592380D02*
X137937847Y-115640000D01*
X137937847Y-115640000D02*
X137794990Y-115687619D01*
X137794990Y-115687619D02*
X137699752Y-115687619D01*
X137699752Y-115687619D02*
X137556895Y-115640000D01*
X137556895Y-115640000D02*
X137461657Y-115544761D01*
X137461657Y-115544761D02*
X137414038Y-115449523D01*
X137414038Y-115449523D02*
X137366419Y-115259047D01*
X137366419Y-115259047D02*
X137366419Y-115116190D01*
X137366419Y-115116190D02*
X137414038Y-114925714D01*
X137414038Y-114925714D02*
X137461657Y-114830476D01*
X137461657Y-114830476D02*
X137556895Y-114735238D01*
X137556895Y-114735238D02*
X137699752Y-114687619D01*
X137699752Y-114687619D02*
X137794990Y-114687619D01*
X137794990Y-114687619D02*
X137937847Y-114735238D01*
X137937847Y-114735238D02*
X137985466Y-114782857D01*
X190790533Y-97228819D02*
X190457200Y-96752628D01*
X190219105Y-97228819D02*
X190219105Y-96228819D01*
X190219105Y-96228819D02*
X190600057Y-96228819D01*
X190600057Y-96228819D02*
X190695295Y-96276438D01*
X190695295Y-96276438D02*
X190742914Y-96324057D01*
X190742914Y-96324057D02*
X190790533Y-96419295D01*
X190790533Y-96419295D02*
X190790533Y-96562152D01*
X190790533Y-96562152D02*
X190742914Y-96657390D01*
X190742914Y-96657390D02*
X190695295Y-96705009D01*
X190695295Y-96705009D02*
X190600057Y-96752628D01*
X190600057Y-96752628D02*
X190219105Y-96752628D01*
X191171486Y-96324057D02*
X191219105Y-96276438D01*
X191219105Y-96276438D02*
X191314343Y-96228819D01*
X191314343Y-96228819D02*
X191552438Y-96228819D01*
X191552438Y-96228819D02*
X191647676Y-96276438D01*
X191647676Y-96276438D02*
X191695295Y-96324057D01*
X191695295Y-96324057D02*
X191742914Y-96419295D01*
X191742914Y-96419295D02*
X191742914Y-96514533D01*
X191742914Y-96514533D02*
X191695295Y-96657390D01*
X191695295Y-96657390D02*
X191123867Y-97228819D01*
X191123867Y-97228819D02*
X191742914Y-97228819D01*
X117951943Y-115640000D02*
X118094800Y-115687619D01*
X118094800Y-115687619D02*
X118332895Y-115687619D01*
X118332895Y-115687619D02*
X118428133Y-115640000D01*
X118428133Y-115640000D02*
X118475752Y-115592380D01*
X118475752Y-115592380D02*
X118523371Y-115497142D01*
X118523371Y-115497142D02*
X118523371Y-115401904D01*
X118523371Y-115401904D02*
X118475752Y-115306666D01*
X118475752Y-115306666D02*
X118428133Y-115259047D01*
X118428133Y-115259047D02*
X118332895Y-115211428D01*
X118332895Y-115211428D02*
X118142419Y-115163809D01*
X118142419Y-115163809D02*
X118047181Y-115116190D01*
X118047181Y-115116190D02*
X117999562Y-115068571D01*
X117999562Y-115068571D02*
X117951943Y-114973333D01*
X117951943Y-114973333D02*
X117951943Y-114878095D01*
X117951943Y-114878095D02*
X117999562Y-114782857D01*
X117999562Y-114782857D02*
X118047181Y-114735238D01*
X118047181Y-114735238D02*
X118142419Y-114687619D01*
X118142419Y-114687619D02*
X118380514Y-114687619D01*
X118380514Y-114687619D02*
X118523371Y-114735238D01*
X118856705Y-114687619D02*
X119094800Y-115687619D01*
X119094800Y-115687619D02*
X119285276Y-114973333D01*
X119285276Y-114973333D02*
X119475752Y-115687619D01*
X119475752Y-115687619D02*
X119713848Y-114687619D01*
X119856705Y-115782857D02*
X120618609Y-115782857D01*
X120856705Y-115687619D02*
X120856705Y-114687619D01*
X120856705Y-114687619D02*
X121190038Y-115401904D01*
X121190038Y-115401904D02*
X121523371Y-114687619D01*
X121523371Y-114687619D02*
X121523371Y-115687619D01*
X122142419Y-115687619D02*
X122047181Y-115640000D01*
X122047181Y-115640000D02*
X121999562Y-115592380D01*
X121999562Y-115592380D02*
X121951943Y-115497142D01*
X121951943Y-115497142D02*
X121951943Y-115211428D01*
X121951943Y-115211428D02*
X121999562Y-115116190D01*
X121999562Y-115116190D02*
X122047181Y-115068571D01*
X122047181Y-115068571D02*
X122142419Y-115020952D01*
X122142419Y-115020952D02*
X122285276Y-115020952D01*
X122285276Y-115020952D02*
X122380514Y-115068571D01*
X122380514Y-115068571D02*
X122428133Y-115116190D01*
X122428133Y-115116190D02*
X122475752Y-115211428D01*
X122475752Y-115211428D02*
X122475752Y-115497142D01*
X122475752Y-115497142D02*
X122428133Y-115592380D01*
X122428133Y-115592380D02*
X122380514Y-115640000D01*
X122380514Y-115640000D02*
X122285276Y-115687619D01*
X122285276Y-115687619D02*
X122142419Y-115687619D01*
X123332895Y-115687619D02*
X123332895Y-114687619D01*
X123332895Y-115640000D02*
X123237657Y-115687619D01*
X123237657Y-115687619D02*
X123047181Y-115687619D01*
X123047181Y-115687619D02*
X122951943Y-115640000D01*
X122951943Y-115640000D02*
X122904324Y-115592380D01*
X122904324Y-115592380D02*
X122856705Y-115497142D01*
X122856705Y-115497142D02*
X122856705Y-115211428D01*
X122856705Y-115211428D02*
X122904324Y-115116190D01*
X122904324Y-115116190D02*
X122951943Y-115068571D01*
X122951943Y-115068571D02*
X123047181Y-115020952D01*
X123047181Y-115020952D02*
X123237657Y-115020952D01*
X123237657Y-115020952D02*
X123332895Y-115068571D01*
X124190038Y-115640000D02*
X124094800Y-115687619D01*
X124094800Y-115687619D02*
X123904324Y-115687619D01*
X123904324Y-115687619D02*
X123809086Y-115640000D01*
X123809086Y-115640000D02*
X123761467Y-115544761D01*
X123761467Y-115544761D02*
X123761467Y-115163809D01*
X123761467Y-115163809D02*
X123809086Y-115068571D01*
X123809086Y-115068571D02*
X123904324Y-115020952D01*
X123904324Y-115020952D02*
X124094800Y-115020952D01*
X124094800Y-115020952D02*
X124190038Y-115068571D01*
X124190038Y-115068571D02*
X124237657Y-115163809D01*
X124237657Y-115163809D02*
X124237657Y-115259047D01*
X124237657Y-115259047D02*
X123761467Y-115354285D01*
X190626219Y-86196466D02*
X190150028Y-86529799D01*
X190626219Y-86767894D02*
X189626219Y-86767894D01*
X189626219Y-86767894D02*
X189626219Y-86386942D01*
X189626219Y-86386942D02*
X189673838Y-86291704D01*
X189673838Y-86291704D02*
X189721457Y-86244085D01*
X189721457Y-86244085D02*
X189816695Y-86196466D01*
X189816695Y-86196466D02*
X189959552Y-86196466D01*
X189959552Y-86196466D02*
X190054790Y-86244085D01*
X190054790Y-86244085D02*
X190102409Y-86291704D01*
X190102409Y-86291704D02*
X190150028Y-86386942D01*
X190150028Y-86386942D02*
X190150028Y-86767894D01*
X190626219Y-85244085D02*
X190626219Y-85815513D01*
X190626219Y-85529799D02*
X189626219Y-85529799D01*
X189626219Y-85529799D02*
X189769076Y-85625037D01*
X189769076Y-85625037D02*
X189864314Y-85720275D01*
X189864314Y-85720275D02*
X189911933Y-85815513D01*
X202613419Y-93731410D02*
X201613419Y-93731410D01*
X201613419Y-93731410D02*
X202327704Y-93398077D01*
X202327704Y-93398077D02*
X201613419Y-93064744D01*
X201613419Y-93064744D02*
X202613419Y-93064744D01*
X202565800Y-92207601D02*
X202613419Y-92302839D01*
X202613419Y-92302839D02*
X202613419Y-92493315D01*
X202613419Y-92493315D02*
X202565800Y-92588553D01*
X202565800Y-92588553D02*
X202470561Y-92636172D01*
X202470561Y-92636172D02*
X202089609Y-92636172D01*
X202089609Y-92636172D02*
X201994371Y-92588553D01*
X201994371Y-92588553D02*
X201946752Y-92493315D01*
X201946752Y-92493315D02*
X201946752Y-92302839D01*
X201946752Y-92302839D02*
X201994371Y-92207601D01*
X201994371Y-92207601D02*
X202089609Y-92159982D01*
X202089609Y-92159982D02*
X202184847Y-92159982D01*
X202184847Y-92159982D02*
X202280085Y-92636172D01*
X202565800Y-91302839D02*
X202613419Y-91398077D01*
X202613419Y-91398077D02*
X202613419Y-91588553D01*
X202613419Y-91588553D02*
X202565800Y-91683791D01*
X202565800Y-91683791D02*
X202518180Y-91731410D01*
X202518180Y-91731410D02*
X202422942Y-91779029D01*
X202422942Y-91779029D02*
X202137228Y-91779029D01*
X202137228Y-91779029D02*
X202041990Y-91731410D01*
X202041990Y-91731410D02*
X201994371Y-91683791D01*
X201994371Y-91683791D02*
X201946752Y-91588553D01*
X201946752Y-91588553D02*
X201946752Y-91398077D01*
X201946752Y-91398077D02*
X201994371Y-91302839D01*
X202565800Y-90445696D02*
X202613419Y-90540934D01*
X202613419Y-90540934D02*
X202613419Y-90731410D01*
X202613419Y-90731410D02*
X202565800Y-90826648D01*
X202565800Y-90826648D02*
X202518180Y-90874267D01*
X202518180Y-90874267D02*
X202422942Y-90921886D01*
X202422942Y-90921886D02*
X202137228Y-90921886D01*
X202137228Y-90921886D02*
X202041990Y-90874267D01*
X202041990Y-90874267D02*
X201994371Y-90826648D01*
X201994371Y-90826648D02*
X201946752Y-90731410D01*
X201946752Y-90731410D02*
X201946752Y-90540934D01*
X201946752Y-90540934D02*
X201994371Y-90445696D01*
X202708657Y-90255220D02*
X202708657Y-89493315D01*
X202613419Y-89255219D02*
X201946752Y-89255219D01*
X202137228Y-89255219D02*
X202041990Y-89207600D01*
X202041990Y-89207600D02*
X201994371Y-89159981D01*
X201994371Y-89159981D02*
X201946752Y-89064743D01*
X201946752Y-89064743D02*
X201946752Y-88969505D01*
X202613419Y-88493314D02*
X202565800Y-88588552D01*
X202565800Y-88588552D02*
X202518180Y-88636171D01*
X202518180Y-88636171D02*
X202422942Y-88683790D01*
X202422942Y-88683790D02*
X202137228Y-88683790D01*
X202137228Y-88683790D02*
X202041990Y-88636171D01*
X202041990Y-88636171D02*
X201994371Y-88588552D01*
X201994371Y-88588552D02*
X201946752Y-88493314D01*
X201946752Y-88493314D02*
X201946752Y-88350457D01*
X201946752Y-88350457D02*
X201994371Y-88255219D01*
X201994371Y-88255219D02*
X202041990Y-88207600D01*
X202041990Y-88207600D02*
X202137228Y-88159981D01*
X202137228Y-88159981D02*
X202422942Y-88159981D01*
X202422942Y-88159981D02*
X202518180Y-88207600D01*
X202518180Y-88207600D02*
X202565800Y-88255219D01*
X202565800Y-88255219D02*
X202613419Y-88350457D01*
X202613419Y-88350457D02*
X202613419Y-88493314D01*
X201946752Y-87874266D02*
X201946752Y-87493314D01*
X201613419Y-87731409D02*
X202470561Y-87731409D01*
X202470561Y-87731409D02*
X202565800Y-87683790D01*
X202565800Y-87683790D02*
X202613419Y-87588552D01*
X202613419Y-87588552D02*
X202613419Y-87493314D01*
X202613419Y-86731409D02*
X202089609Y-86731409D01*
X202089609Y-86731409D02*
X201994371Y-86779028D01*
X201994371Y-86779028D02*
X201946752Y-86874266D01*
X201946752Y-86874266D02*
X201946752Y-87064742D01*
X201946752Y-87064742D02*
X201994371Y-87159980D01*
X202565800Y-86731409D02*
X202613419Y-86826647D01*
X202613419Y-86826647D02*
X202613419Y-87064742D01*
X202613419Y-87064742D02*
X202565800Y-87159980D01*
X202565800Y-87159980D02*
X202470561Y-87207599D01*
X202470561Y-87207599D02*
X202375323Y-87207599D01*
X202375323Y-87207599D02*
X202280085Y-87159980D01*
X202280085Y-87159980D02*
X202232466Y-87064742D01*
X202232466Y-87064742D02*
X202232466Y-86826647D01*
X202232466Y-86826647D02*
X202184847Y-86731409D01*
X202613419Y-86255218D02*
X201946752Y-86255218D01*
X202137228Y-86255218D02*
X202041990Y-86207599D01*
X202041990Y-86207599D02*
X201994371Y-86159980D01*
X201994371Y-86159980D02*
X201946752Y-86064742D01*
X201946752Y-86064742D02*
X201946752Y-85969504D01*
X201946752Y-85731408D02*
X202613419Y-85493313D01*
X201946752Y-85255218D02*
X202613419Y-85493313D01*
X202613419Y-85493313D02*
X202851514Y-85588551D01*
X202851514Y-85588551D02*
X202899133Y-85636170D01*
X202899133Y-85636170D02*
X202946752Y-85731408D01*
X202565800Y-83731408D02*
X202613419Y-83826646D01*
X202613419Y-83826646D02*
X202613419Y-84017122D01*
X202613419Y-84017122D02*
X202565800Y-84112360D01*
X202565800Y-84112360D02*
X202470561Y-84159979D01*
X202470561Y-84159979D02*
X202089609Y-84159979D01*
X202089609Y-84159979D02*
X201994371Y-84112360D01*
X201994371Y-84112360D02*
X201946752Y-84017122D01*
X201946752Y-84017122D02*
X201946752Y-83826646D01*
X201946752Y-83826646D02*
X201994371Y-83731408D01*
X201994371Y-83731408D02*
X202089609Y-83683789D01*
X202089609Y-83683789D02*
X202184847Y-83683789D01*
X202184847Y-83683789D02*
X202280085Y-84159979D01*
X201946752Y-83255217D02*
X202613419Y-83255217D01*
X202041990Y-83255217D02*
X201994371Y-83207598D01*
X201994371Y-83207598D02*
X201946752Y-83112360D01*
X201946752Y-83112360D02*
X201946752Y-82969503D01*
X201946752Y-82969503D02*
X201994371Y-82874265D01*
X201994371Y-82874265D02*
X202089609Y-82826646D01*
X202089609Y-82826646D02*
X202613419Y-82826646D01*
X202565800Y-81921884D02*
X202613419Y-82017122D01*
X202613419Y-82017122D02*
X202613419Y-82207598D01*
X202613419Y-82207598D02*
X202565800Y-82302836D01*
X202565800Y-82302836D02*
X202518180Y-82350455D01*
X202518180Y-82350455D02*
X202422942Y-82398074D01*
X202422942Y-82398074D02*
X202137228Y-82398074D01*
X202137228Y-82398074D02*
X202041990Y-82350455D01*
X202041990Y-82350455D02*
X201994371Y-82302836D01*
X201994371Y-82302836D02*
X201946752Y-82207598D01*
X201946752Y-82207598D02*
X201946752Y-82017122D01*
X201946752Y-82017122D02*
X201994371Y-81921884D01*
X202613419Y-81350455D02*
X202565800Y-81445693D01*
X202565800Y-81445693D02*
X202518180Y-81493312D01*
X202518180Y-81493312D02*
X202422942Y-81540931D01*
X202422942Y-81540931D02*
X202137228Y-81540931D01*
X202137228Y-81540931D02*
X202041990Y-81493312D01*
X202041990Y-81493312D02*
X201994371Y-81445693D01*
X201994371Y-81445693D02*
X201946752Y-81350455D01*
X201946752Y-81350455D02*
X201946752Y-81207598D01*
X201946752Y-81207598D02*
X201994371Y-81112360D01*
X201994371Y-81112360D02*
X202041990Y-81064741D01*
X202041990Y-81064741D02*
X202137228Y-81017122D01*
X202137228Y-81017122D02*
X202422942Y-81017122D01*
X202422942Y-81017122D02*
X202518180Y-81064741D01*
X202518180Y-81064741D02*
X202565800Y-81112360D01*
X202565800Y-81112360D02*
X202613419Y-81207598D01*
X202613419Y-81207598D02*
X202613419Y-81350455D01*
X202613419Y-80159979D02*
X201613419Y-80159979D01*
X202565800Y-80159979D02*
X202613419Y-80255217D01*
X202613419Y-80255217D02*
X202613419Y-80445693D01*
X202613419Y-80445693D02*
X202565800Y-80540931D01*
X202565800Y-80540931D02*
X202518180Y-80588550D01*
X202518180Y-80588550D02*
X202422942Y-80636169D01*
X202422942Y-80636169D02*
X202137228Y-80636169D01*
X202137228Y-80636169D02*
X202041990Y-80588550D01*
X202041990Y-80588550D02*
X201994371Y-80540931D01*
X201994371Y-80540931D02*
X201946752Y-80445693D01*
X201946752Y-80445693D02*
X201946752Y-80255217D01*
X201946752Y-80255217D02*
X201994371Y-80159979D01*
X202565800Y-79302836D02*
X202613419Y-79398074D01*
X202613419Y-79398074D02*
X202613419Y-79588550D01*
X202613419Y-79588550D02*
X202565800Y-79683788D01*
X202565800Y-79683788D02*
X202470561Y-79731407D01*
X202470561Y-79731407D02*
X202089609Y-79731407D01*
X202089609Y-79731407D02*
X201994371Y-79683788D01*
X201994371Y-79683788D02*
X201946752Y-79588550D01*
X201946752Y-79588550D02*
X201946752Y-79398074D01*
X201946752Y-79398074D02*
X201994371Y-79302836D01*
X201994371Y-79302836D02*
X202089609Y-79255217D01*
X202089609Y-79255217D02*
X202184847Y-79255217D01*
X202184847Y-79255217D02*
X202280085Y-79731407D01*
X202613419Y-78826645D02*
X201946752Y-78826645D01*
X202137228Y-78826645D02*
X202041990Y-78779026D01*
X202041990Y-78779026D02*
X201994371Y-78731407D01*
X201994371Y-78731407D02*
X201946752Y-78636169D01*
X201946752Y-78636169D02*
X201946752Y-78540931D01*
X76998533Y-87813219D02*
X76665200Y-87337028D01*
X76427105Y-87813219D02*
X76427105Y-86813219D01*
X76427105Y-86813219D02*
X76808057Y-86813219D01*
X76808057Y-86813219D02*
X76903295Y-86860838D01*
X76903295Y-86860838D02*
X76950914Y-86908457D01*
X76950914Y-86908457D02*
X76998533Y-87003695D01*
X76998533Y-87003695D02*
X76998533Y-87146552D01*
X76998533Y-87146552D02*
X76950914Y-87241790D01*
X76950914Y-87241790D02*
X76903295Y-87289409D01*
X76903295Y-87289409D02*
X76808057Y-87337028D01*
X76808057Y-87337028D02*
X76427105Y-87337028D01*
X77855676Y-87146552D02*
X77855676Y-87813219D01*
X77617581Y-86765600D02*
X77379486Y-87479885D01*
X77379486Y-87479885D02*
X77998533Y-87479885D01*
X70372417Y-91583019D02*
X70039084Y-91106828D01*
X69800989Y-91583019D02*
X69800989Y-90583019D01*
X69800989Y-90583019D02*
X70181941Y-90583019D01*
X70181941Y-90583019D02*
X70277179Y-90630638D01*
X70277179Y-90630638D02*
X70324798Y-90678257D01*
X70324798Y-90678257D02*
X70372417Y-90773495D01*
X70372417Y-90773495D02*
X70372417Y-90916352D01*
X70372417Y-90916352D02*
X70324798Y-91011590D01*
X70324798Y-91011590D02*
X70277179Y-91059209D01*
X70277179Y-91059209D02*
X70181941Y-91106828D01*
X70181941Y-91106828D02*
X69800989Y-91106828D01*
X70943846Y-91583019D02*
X70848608Y-91535400D01*
X70848608Y-91535400D02*
X70800989Y-91487780D01*
X70800989Y-91487780D02*
X70753370Y-91392542D01*
X70753370Y-91392542D02*
X70753370Y-91106828D01*
X70753370Y-91106828D02*
X70800989Y-91011590D01*
X70800989Y-91011590D02*
X70848608Y-90963971D01*
X70848608Y-90963971D02*
X70943846Y-90916352D01*
X70943846Y-90916352D02*
X71086703Y-90916352D01*
X71086703Y-90916352D02*
X71181941Y-90963971D01*
X71181941Y-90963971D02*
X71229560Y-91011590D01*
X71229560Y-91011590D02*
X71277179Y-91106828D01*
X71277179Y-91106828D02*
X71277179Y-91392542D01*
X71277179Y-91392542D02*
X71229560Y-91487780D01*
X71229560Y-91487780D02*
X71181941Y-91535400D01*
X71181941Y-91535400D02*
X71086703Y-91583019D01*
X71086703Y-91583019D02*
X70943846Y-91583019D01*
X71562894Y-90916352D02*
X71943846Y-90916352D01*
X71705751Y-90583019D02*
X71705751Y-91440161D01*
X71705751Y-91440161D02*
X71753370Y-91535400D01*
X71753370Y-91535400D02*
X71848608Y-91583019D01*
X71848608Y-91583019D02*
X71943846Y-91583019D01*
X72705751Y-91583019D02*
X72705751Y-91059209D01*
X72705751Y-91059209D02*
X72658132Y-90963971D01*
X72658132Y-90963971D02*
X72562894Y-90916352D01*
X72562894Y-90916352D02*
X72372418Y-90916352D01*
X72372418Y-90916352D02*
X72277180Y-90963971D01*
X72705751Y-91535400D02*
X72610513Y-91583019D01*
X72610513Y-91583019D02*
X72372418Y-91583019D01*
X72372418Y-91583019D02*
X72277180Y-91535400D01*
X72277180Y-91535400D02*
X72229561Y-91440161D01*
X72229561Y-91440161D02*
X72229561Y-91344923D01*
X72229561Y-91344923D02*
X72277180Y-91249685D01*
X72277180Y-91249685D02*
X72372418Y-91202066D01*
X72372418Y-91202066D02*
X72610513Y-91202066D01*
X72610513Y-91202066D02*
X72705751Y-91154447D01*
X73181942Y-91583019D02*
X73181942Y-90916352D01*
X73181942Y-91106828D02*
X73229561Y-91011590D01*
X73229561Y-91011590D02*
X73277180Y-90963971D01*
X73277180Y-90963971D02*
X73372418Y-90916352D01*
X73372418Y-90916352D02*
X73467656Y-90916352D01*
X73705752Y-90916352D02*
X73943847Y-91583019D01*
X74181942Y-90916352D02*
X73943847Y-91583019D01*
X73943847Y-91583019D02*
X73848609Y-91821114D01*
X73848609Y-91821114D02*
X73800990Y-91868733D01*
X73800990Y-91868733D02*
X73705752Y-91916352D01*
X74562895Y-91059209D02*
X74896228Y-91059209D01*
X75039085Y-91583019D02*
X74562895Y-91583019D01*
X74562895Y-91583019D02*
X74562895Y-90583019D01*
X74562895Y-90583019D02*
X75039085Y-90583019D01*
X75467657Y-90916352D02*
X75467657Y-91583019D01*
X75467657Y-91011590D02*
X75515276Y-90963971D01*
X75515276Y-90963971D02*
X75610514Y-90916352D01*
X75610514Y-90916352D02*
X75753371Y-90916352D01*
X75753371Y-90916352D02*
X75848609Y-90963971D01*
X75848609Y-90963971D02*
X75896228Y-91059209D01*
X75896228Y-91059209D02*
X75896228Y-91583019D01*
X76800990Y-91535400D02*
X76705752Y-91583019D01*
X76705752Y-91583019D02*
X76515276Y-91583019D01*
X76515276Y-91583019D02*
X76420038Y-91535400D01*
X76420038Y-91535400D02*
X76372419Y-91487780D01*
X76372419Y-91487780D02*
X76324800Y-91392542D01*
X76324800Y-91392542D02*
X76324800Y-91106828D01*
X76324800Y-91106828D02*
X76372419Y-91011590D01*
X76372419Y-91011590D02*
X76420038Y-90963971D01*
X76420038Y-90963971D02*
X76515276Y-90916352D01*
X76515276Y-90916352D02*
X76705752Y-90916352D01*
X76705752Y-90916352D02*
X76800990Y-90963971D01*
X77372419Y-91583019D02*
X77277181Y-91535400D01*
X77277181Y-91535400D02*
X77229562Y-91487780D01*
X77229562Y-91487780D02*
X77181943Y-91392542D01*
X77181943Y-91392542D02*
X77181943Y-91106828D01*
X77181943Y-91106828D02*
X77229562Y-91011590D01*
X77229562Y-91011590D02*
X77277181Y-90963971D01*
X77277181Y-90963971D02*
X77372419Y-90916352D01*
X77372419Y-90916352D02*
X77515276Y-90916352D01*
X77515276Y-90916352D02*
X77610514Y-90963971D01*
X77610514Y-90963971D02*
X77658133Y-91011590D01*
X77658133Y-91011590D02*
X77705752Y-91106828D01*
X77705752Y-91106828D02*
X77705752Y-91392542D01*
X77705752Y-91392542D02*
X77658133Y-91487780D01*
X77658133Y-91487780D02*
X77610514Y-91535400D01*
X77610514Y-91535400D02*
X77515276Y-91583019D01*
X77515276Y-91583019D02*
X77372419Y-91583019D01*
X78562895Y-91583019D02*
X78562895Y-90583019D01*
X78562895Y-91535400D02*
X78467657Y-91583019D01*
X78467657Y-91583019D02*
X78277181Y-91583019D01*
X78277181Y-91583019D02*
X78181943Y-91535400D01*
X78181943Y-91535400D02*
X78134324Y-91487780D01*
X78134324Y-91487780D02*
X78086705Y-91392542D01*
X78086705Y-91392542D02*
X78086705Y-91106828D01*
X78086705Y-91106828D02*
X78134324Y-91011590D01*
X78134324Y-91011590D02*
X78181943Y-90963971D01*
X78181943Y-90963971D02*
X78277181Y-90916352D01*
X78277181Y-90916352D02*
X78467657Y-90916352D01*
X78467657Y-90916352D02*
X78562895Y-90963971D01*
X79420038Y-91535400D02*
X79324800Y-91583019D01*
X79324800Y-91583019D02*
X79134324Y-91583019D01*
X79134324Y-91583019D02*
X79039086Y-91535400D01*
X79039086Y-91535400D02*
X78991467Y-91440161D01*
X78991467Y-91440161D02*
X78991467Y-91059209D01*
X78991467Y-91059209D02*
X79039086Y-90963971D01*
X79039086Y-90963971D02*
X79134324Y-90916352D01*
X79134324Y-90916352D02*
X79324800Y-90916352D01*
X79324800Y-90916352D02*
X79420038Y-90963971D01*
X79420038Y-90963971D02*
X79467657Y-91059209D01*
X79467657Y-91059209D02*
X79467657Y-91154447D01*
X79467657Y-91154447D02*
X78991467Y-91249685D01*
X79896229Y-91583019D02*
X79896229Y-90916352D01*
X79896229Y-91106828D02*
X79943848Y-91011590D01*
X79943848Y-91011590D02*
X79991467Y-90963971D01*
X79991467Y-90963971D02*
X80086705Y-90916352D01*
X80086705Y-90916352D02*
X80181943Y-90916352D01*
X80277182Y-91678257D02*
X81039086Y-91678257D01*
X81848610Y-91487780D02*
X81800991Y-91535400D01*
X81800991Y-91535400D02*
X81658134Y-91583019D01*
X81658134Y-91583019D02*
X81562896Y-91583019D01*
X81562896Y-91583019D02*
X81420039Y-91535400D01*
X81420039Y-91535400D02*
X81324801Y-91440161D01*
X81324801Y-91440161D02*
X81277182Y-91344923D01*
X81277182Y-91344923D02*
X81229563Y-91154447D01*
X81229563Y-91154447D02*
X81229563Y-91011590D01*
X81229563Y-91011590D02*
X81277182Y-90821114D01*
X81277182Y-90821114D02*
X81324801Y-90725876D01*
X81324801Y-90725876D02*
X81420039Y-90630638D01*
X81420039Y-90630638D02*
X81562896Y-90583019D01*
X81562896Y-90583019D02*
X81658134Y-90583019D01*
X81658134Y-90583019D02*
X81800991Y-90630638D01*
X81800991Y-90630638D02*
X81848610Y-90678257D01*
X82420039Y-91583019D02*
X82324801Y-91535400D01*
X82324801Y-91535400D02*
X82277182Y-91440161D01*
X82277182Y-91440161D02*
X82277182Y-90583019D01*
X83229563Y-91583019D02*
X83229563Y-91059209D01*
X83229563Y-91059209D02*
X83181944Y-90963971D01*
X83181944Y-90963971D02*
X83086706Y-90916352D01*
X83086706Y-90916352D02*
X82896230Y-90916352D01*
X82896230Y-90916352D02*
X82800992Y-90963971D01*
X83229563Y-91535400D02*
X83134325Y-91583019D01*
X83134325Y-91583019D02*
X82896230Y-91583019D01*
X82896230Y-91583019D02*
X82800992Y-91535400D01*
X82800992Y-91535400D02*
X82753373Y-91440161D01*
X82753373Y-91440161D02*
X82753373Y-91344923D01*
X82753373Y-91344923D02*
X82800992Y-91249685D01*
X82800992Y-91249685D02*
X82896230Y-91202066D01*
X82896230Y-91202066D02*
X83134325Y-91202066D01*
X83134325Y-91202066D02*
X83229563Y-91154447D01*
X83705754Y-91583019D02*
X83705754Y-90916352D01*
X83705754Y-91106828D02*
X83753373Y-91011590D01*
X83753373Y-91011590D02*
X83800992Y-90963971D01*
X83800992Y-90963971D02*
X83896230Y-90916352D01*
X83896230Y-90916352D02*
X83991468Y-90916352D01*
X84324802Y-91583019D02*
X84324802Y-90916352D01*
X84324802Y-90583019D02*
X84277183Y-90630638D01*
X84277183Y-90630638D02*
X84324802Y-90678257D01*
X84324802Y-90678257D02*
X84372421Y-90630638D01*
X84372421Y-90630638D02*
X84324802Y-90583019D01*
X84324802Y-90583019D02*
X84324802Y-90678257D01*
X84658135Y-90916352D02*
X85039087Y-90916352D01*
X84800992Y-91583019D02*
X84800992Y-90725876D01*
X84800992Y-90725876D02*
X84848611Y-90630638D01*
X84848611Y-90630638D02*
X84943849Y-90583019D01*
X84943849Y-90583019D02*
X85039087Y-90583019D01*
X85372421Y-91583019D02*
X85372421Y-90916352D01*
X85372421Y-90583019D02*
X85324802Y-90630638D01*
X85324802Y-90630638D02*
X85372421Y-90678257D01*
X85372421Y-90678257D02*
X85420040Y-90630638D01*
X85420040Y-90630638D02*
X85372421Y-90583019D01*
X85372421Y-90583019D02*
X85372421Y-90678257D01*
X86229563Y-91535400D02*
X86134325Y-91583019D01*
X86134325Y-91583019D02*
X85943849Y-91583019D01*
X85943849Y-91583019D02*
X85848611Y-91535400D01*
X85848611Y-91535400D02*
X85800992Y-91440161D01*
X85800992Y-91440161D02*
X85800992Y-91059209D01*
X85800992Y-91059209D02*
X85848611Y-90963971D01*
X85848611Y-90963971D02*
X85943849Y-90916352D01*
X85943849Y-90916352D02*
X86134325Y-90916352D01*
X86134325Y-90916352D02*
X86229563Y-90963971D01*
X86229563Y-90963971D02*
X86277182Y-91059209D01*
X86277182Y-91059209D02*
X86277182Y-91154447D01*
X86277182Y-91154447D02*
X85800992Y-91249685D01*
X86705754Y-91583019D02*
X86705754Y-90916352D01*
X86705754Y-91106828D02*
X86753373Y-91011590D01*
X86753373Y-91011590D02*
X86800992Y-90963971D01*
X86800992Y-90963971D02*
X86896230Y-90916352D01*
X86896230Y-90916352D02*
X86991468Y-90916352D01*
X103775562Y-115604000D02*
X103918419Y-115651619D01*
X103918419Y-115651619D02*
X104156514Y-115651619D01*
X104156514Y-115651619D02*
X104251752Y-115604000D01*
X104251752Y-115604000D02*
X104299371Y-115556380D01*
X104299371Y-115556380D02*
X104346990Y-115461142D01*
X104346990Y-115461142D02*
X104346990Y-115365904D01*
X104346990Y-115365904D02*
X104299371Y-115270666D01*
X104299371Y-115270666D02*
X104251752Y-115223047D01*
X104251752Y-115223047D02*
X104156514Y-115175428D01*
X104156514Y-115175428D02*
X103966038Y-115127809D01*
X103966038Y-115127809D02*
X103870800Y-115080190D01*
X103870800Y-115080190D02*
X103823181Y-115032571D01*
X103823181Y-115032571D02*
X103775562Y-114937333D01*
X103775562Y-114937333D02*
X103775562Y-114842095D01*
X103775562Y-114842095D02*
X103823181Y-114746857D01*
X103823181Y-114746857D02*
X103870800Y-114699238D01*
X103870800Y-114699238D02*
X103966038Y-114651619D01*
X103966038Y-114651619D02*
X104204133Y-114651619D01*
X104204133Y-114651619D02*
X104346990Y-114699238D01*
X104680324Y-114651619D02*
X104918419Y-115651619D01*
X104918419Y-115651619D02*
X105108895Y-114937333D01*
X105108895Y-114937333D02*
X105299371Y-115651619D01*
X105299371Y-115651619D02*
X105537467Y-114651619D01*
X105680324Y-115746857D02*
X106442228Y-115746857D01*
X107013657Y-115127809D02*
X107156514Y-115175428D01*
X107156514Y-115175428D02*
X107204133Y-115223047D01*
X107204133Y-115223047D02*
X107251752Y-115318285D01*
X107251752Y-115318285D02*
X107251752Y-115461142D01*
X107251752Y-115461142D02*
X107204133Y-115556380D01*
X107204133Y-115556380D02*
X107156514Y-115604000D01*
X107156514Y-115604000D02*
X107061276Y-115651619D01*
X107061276Y-115651619D02*
X106680324Y-115651619D01*
X106680324Y-115651619D02*
X106680324Y-114651619D01*
X106680324Y-114651619D02*
X107013657Y-114651619D01*
X107013657Y-114651619D02*
X107108895Y-114699238D01*
X107108895Y-114699238D02*
X107156514Y-114746857D01*
X107156514Y-114746857D02*
X107204133Y-114842095D01*
X107204133Y-114842095D02*
X107204133Y-114937333D01*
X107204133Y-114937333D02*
X107156514Y-115032571D01*
X107156514Y-115032571D02*
X107108895Y-115080190D01*
X107108895Y-115080190D02*
X107013657Y-115127809D01*
X107013657Y-115127809D02*
X106680324Y-115127809D01*
X108108895Y-115651619D02*
X108108895Y-115127809D01*
X108108895Y-115127809D02*
X108061276Y-115032571D01*
X108061276Y-115032571D02*
X107966038Y-114984952D01*
X107966038Y-114984952D02*
X107775562Y-114984952D01*
X107775562Y-114984952D02*
X107680324Y-115032571D01*
X108108895Y-115604000D02*
X108013657Y-115651619D01*
X108013657Y-115651619D02*
X107775562Y-115651619D01*
X107775562Y-115651619D02*
X107680324Y-115604000D01*
X107680324Y-115604000D02*
X107632705Y-115508761D01*
X107632705Y-115508761D02*
X107632705Y-115413523D01*
X107632705Y-115413523D02*
X107680324Y-115318285D01*
X107680324Y-115318285D02*
X107775562Y-115270666D01*
X107775562Y-115270666D02*
X108013657Y-115270666D01*
X108013657Y-115270666D02*
X108108895Y-115223047D01*
X108585086Y-114984952D02*
X108585086Y-115651619D01*
X108585086Y-115080190D02*
X108632705Y-115032571D01*
X108632705Y-115032571D02*
X108727943Y-114984952D01*
X108727943Y-114984952D02*
X108870800Y-114984952D01*
X108870800Y-114984952D02*
X108966038Y-115032571D01*
X108966038Y-115032571D02*
X109013657Y-115127809D01*
X109013657Y-115127809D02*
X109013657Y-115651619D01*
X109918419Y-115651619D02*
X109918419Y-114651619D01*
X109918419Y-115604000D02*
X109823181Y-115651619D01*
X109823181Y-115651619D02*
X109632705Y-115651619D01*
X109632705Y-115651619D02*
X109537467Y-115604000D01*
X109537467Y-115604000D02*
X109489848Y-115556380D01*
X109489848Y-115556380D02*
X109442229Y-115461142D01*
X109442229Y-115461142D02*
X109442229Y-115175428D01*
X109442229Y-115175428D02*
X109489848Y-115080190D01*
X109489848Y-115080190D02*
X109537467Y-115032571D01*
X109537467Y-115032571D02*
X109632705Y-114984952D01*
X109632705Y-114984952D02*
X109823181Y-114984952D01*
X109823181Y-114984952D02*
X109918419Y-115032571D01*
X147114228Y-115604000D02*
X147257085Y-115651619D01*
X147257085Y-115651619D02*
X147495180Y-115651619D01*
X147495180Y-115651619D02*
X147590418Y-115604000D01*
X147590418Y-115604000D02*
X147638037Y-115556380D01*
X147638037Y-115556380D02*
X147685656Y-115461142D01*
X147685656Y-115461142D02*
X147685656Y-115365904D01*
X147685656Y-115365904D02*
X147638037Y-115270666D01*
X147638037Y-115270666D02*
X147590418Y-115223047D01*
X147590418Y-115223047D02*
X147495180Y-115175428D01*
X147495180Y-115175428D02*
X147304704Y-115127809D01*
X147304704Y-115127809D02*
X147209466Y-115080190D01*
X147209466Y-115080190D02*
X147161847Y-115032571D01*
X147161847Y-115032571D02*
X147114228Y-114937333D01*
X147114228Y-114937333D02*
X147114228Y-114842095D01*
X147114228Y-114842095D02*
X147161847Y-114746857D01*
X147161847Y-114746857D02*
X147209466Y-114699238D01*
X147209466Y-114699238D02*
X147304704Y-114651619D01*
X147304704Y-114651619D02*
X147542799Y-114651619D01*
X147542799Y-114651619D02*
X147685656Y-114699238D01*
X148018990Y-114651619D02*
X148257085Y-115651619D01*
X148257085Y-115651619D02*
X148447561Y-114937333D01*
X148447561Y-114937333D02*
X148638037Y-115651619D01*
X148638037Y-115651619D02*
X148876133Y-114651619D01*
X149018990Y-115746857D02*
X149780894Y-115746857D01*
X149971371Y-115365904D02*
X150447561Y-115365904D01*
X149876133Y-115651619D02*
X150209466Y-114651619D01*
X150209466Y-114651619D02*
X150542799Y-115651619D01*
X150733276Y-114651619D02*
X151304704Y-114651619D01*
X151018990Y-115651619D02*
X151018990Y-114651619D01*
X151495181Y-114651619D02*
X152066609Y-114651619D01*
X151780895Y-115651619D02*
X151780895Y-114651619D01*
X126721295Y-80557019D02*
X126721295Y-81366542D01*
X126721295Y-81366542D02*
X126768914Y-81461780D01*
X126768914Y-81461780D02*
X126816533Y-81509400D01*
X126816533Y-81509400D02*
X126911771Y-81557019D01*
X126911771Y-81557019D02*
X127102247Y-81557019D01*
X127102247Y-81557019D02*
X127197485Y-81509400D01*
X127197485Y-81509400D02*
X127245104Y-81461780D01*
X127245104Y-81461780D02*
X127292723Y-81366542D01*
X127292723Y-81366542D02*
X127292723Y-80557019D01*
X128292723Y-81557019D02*
X127721295Y-81557019D01*
X128007009Y-81557019D02*
X128007009Y-80557019D01*
X128007009Y-80557019D02*
X127911771Y-80699876D01*
X127911771Y-80699876D02*
X127816533Y-80795114D01*
X127816533Y-80795114D02*
X127721295Y-80842733D01*
X114415055Y-85353638D02*
X115557912Y-85353638D01*
X114986483Y-87353638D02*
X114986483Y-85353638D01*
X116891246Y-86306019D02*
X116224579Y-86306019D01*
X116224579Y-87353638D02*
X116224579Y-85353638D01*
X116224579Y-85353638D02*
X117176960Y-85353638D01*
X117653151Y-85353638D02*
X118796008Y-85353638D01*
X118224579Y-87353638D02*
X118224579Y-85353638D01*
X120796009Y-85353638D02*
X122034104Y-85353638D01*
X122034104Y-85353638D02*
X121367437Y-86115542D01*
X121367437Y-86115542D02*
X121653152Y-86115542D01*
X121653152Y-86115542D02*
X121843628Y-86210780D01*
X121843628Y-86210780D02*
X121938866Y-86306019D01*
X121938866Y-86306019D02*
X122034104Y-86496495D01*
X122034104Y-86496495D02*
X122034104Y-86972685D01*
X122034104Y-86972685D02*
X121938866Y-87163161D01*
X121938866Y-87163161D02*
X121843628Y-87258400D01*
X121843628Y-87258400D02*
X121653152Y-87353638D01*
X121653152Y-87353638D02*
X121081723Y-87353638D01*
X121081723Y-87353638D02*
X120891247Y-87258400D01*
X120891247Y-87258400D02*
X120796009Y-87163161D01*
X122796009Y-85544114D02*
X122891247Y-85448876D01*
X122891247Y-85448876D02*
X123081723Y-85353638D01*
X123081723Y-85353638D02*
X123557914Y-85353638D01*
X123557914Y-85353638D02*
X123748390Y-85448876D01*
X123748390Y-85448876D02*
X123843628Y-85544114D01*
X123843628Y-85544114D02*
X123938866Y-85734590D01*
X123938866Y-85734590D02*
X123938866Y-85925066D01*
X123938866Y-85925066D02*
X123843628Y-86210780D01*
X123843628Y-86210780D02*
X122700771Y-87353638D01*
X122700771Y-87353638D02*
X123938866Y-87353638D01*
X125176961Y-85353638D02*
X125367438Y-85353638D01*
X125367438Y-85353638D02*
X125557914Y-85448876D01*
X125557914Y-85448876D02*
X125653152Y-85544114D01*
X125653152Y-85544114D02*
X125748390Y-85734590D01*
X125748390Y-85734590D02*
X125843628Y-86115542D01*
X125843628Y-86115542D02*
X125843628Y-86591733D01*
X125843628Y-86591733D02*
X125748390Y-86972685D01*
X125748390Y-86972685D02*
X125653152Y-87163161D01*
X125653152Y-87163161D02*
X125557914Y-87258400D01*
X125557914Y-87258400D02*
X125367438Y-87353638D01*
X125367438Y-87353638D02*
X125176961Y-87353638D01*
X125176961Y-87353638D02*
X124986485Y-87258400D01*
X124986485Y-87258400D02*
X124891247Y-87163161D01*
X124891247Y-87163161D02*
X124796009Y-86972685D01*
X124796009Y-86972685D02*
X124700771Y-86591733D01*
X124700771Y-86591733D02*
X124700771Y-86115542D01*
X124700771Y-86115542D02*
X124796009Y-85734590D01*
X124796009Y-85734590D02*
X124891247Y-85544114D01*
X124891247Y-85544114D02*
X124986485Y-85448876D01*
X124986485Y-85448876D02*
X125176961Y-85353638D01*
X126510295Y-87353638D02*
X127557914Y-86020304D01*
X126510295Y-86020304D02*
X127557914Y-87353638D01*
X128224581Y-85544114D02*
X128319819Y-85448876D01*
X128319819Y-85448876D02*
X128510295Y-85353638D01*
X128510295Y-85353638D02*
X128986486Y-85353638D01*
X128986486Y-85353638D02*
X129176962Y-85448876D01*
X129176962Y-85448876D02*
X129272200Y-85544114D01*
X129272200Y-85544114D02*
X129367438Y-85734590D01*
X129367438Y-85734590D02*
X129367438Y-85925066D01*
X129367438Y-85925066D02*
X129272200Y-86210780D01*
X129272200Y-86210780D02*
X128129343Y-87353638D01*
X128129343Y-87353638D02*
X129367438Y-87353638D01*
X131081724Y-86020304D02*
X131081724Y-87353638D01*
X130605533Y-85258400D02*
X130129343Y-86686971D01*
X130129343Y-86686971D02*
X131367438Y-86686971D01*
X132510295Y-85353638D02*
X132700772Y-85353638D01*
X132700772Y-85353638D02*
X132891248Y-85448876D01*
X132891248Y-85448876D02*
X132986486Y-85544114D01*
X132986486Y-85544114D02*
X133081724Y-85734590D01*
X133081724Y-85734590D02*
X133176962Y-86115542D01*
X133176962Y-86115542D02*
X133176962Y-86591733D01*
X133176962Y-86591733D02*
X133081724Y-86972685D01*
X133081724Y-86972685D02*
X132986486Y-87163161D01*
X132986486Y-87163161D02*
X132891248Y-87258400D01*
X132891248Y-87258400D02*
X132700772Y-87353638D01*
X132700772Y-87353638D02*
X132510295Y-87353638D01*
X132510295Y-87353638D02*
X132319819Y-87258400D01*
X132319819Y-87258400D02*
X132224581Y-87163161D01*
X132224581Y-87163161D02*
X132129343Y-86972685D01*
X132129343Y-86972685D02*
X132034105Y-86591733D01*
X132034105Y-86591733D02*
X132034105Y-86115542D01*
X132034105Y-86115542D02*
X132129343Y-85734590D01*
X132129343Y-85734590D02*
X132224581Y-85544114D01*
X132224581Y-85544114D02*
X132319819Y-85448876D01*
X132319819Y-85448876D02*
X132510295Y-85353638D01*
X134129343Y-87258400D02*
X134129343Y-87353638D01*
X134129343Y-87353638D02*
X134034105Y-87544114D01*
X134034105Y-87544114D02*
X133938867Y-87639352D01*
X136415058Y-85544114D02*
X136510296Y-85448876D01*
X136510296Y-85448876D02*
X136700772Y-85353638D01*
X136700772Y-85353638D02*
X137176963Y-85353638D01*
X137176963Y-85353638D02*
X137367439Y-85448876D01*
X137367439Y-85448876D02*
X137462677Y-85544114D01*
X137462677Y-85544114D02*
X137557915Y-85734590D01*
X137557915Y-85734590D02*
X137557915Y-85925066D01*
X137557915Y-85925066D02*
X137462677Y-86210780D01*
X137462677Y-86210780D02*
X136319820Y-87353638D01*
X136319820Y-87353638D02*
X137557915Y-87353638D01*
X138415058Y-87163161D02*
X138510296Y-87258400D01*
X138510296Y-87258400D02*
X138415058Y-87353638D01*
X138415058Y-87353638D02*
X138319820Y-87258400D01*
X138319820Y-87258400D02*
X138415058Y-87163161D01*
X138415058Y-87163161D02*
X138415058Y-87353638D01*
X139653153Y-86210780D02*
X139462677Y-86115542D01*
X139462677Y-86115542D02*
X139367439Y-86020304D01*
X139367439Y-86020304D02*
X139272201Y-85829828D01*
X139272201Y-85829828D02*
X139272201Y-85734590D01*
X139272201Y-85734590D02*
X139367439Y-85544114D01*
X139367439Y-85544114D02*
X139462677Y-85448876D01*
X139462677Y-85448876D02*
X139653153Y-85353638D01*
X139653153Y-85353638D02*
X140034106Y-85353638D01*
X140034106Y-85353638D02*
X140224582Y-85448876D01*
X140224582Y-85448876D02*
X140319820Y-85544114D01*
X140319820Y-85544114D02*
X140415058Y-85734590D01*
X140415058Y-85734590D02*
X140415058Y-85829828D01*
X140415058Y-85829828D02*
X140319820Y-86020304D01*
X140319820Y-86020304D02*
X140224582Y-86115542D01*
X140224582Y-86115542D02*
X140034106Y-86210780D01*
X140034106Y-86210780D02*
X139653153Y-86210780D01*
X139653153Y-86210780D02*
X139462677Y-86306019D01*
X139462677Y-86306019D02*
X139367439Y-86401257D01*
X139367439Y-86401257D02*
X139272201Y-86591733D01*
X139272201Y-86591733D02*
X139272201Y-86972685D01*
X139272201Y-86972685D02*
X139367439Y-87163161D01*
X139367439Y-87163161D02*
X139462677Y-87258400D01*
X139462677Y-87258400D02*
X139653153Y-87353638D01*
X139653153Y-87353638D02*
X140034106Y-87353638D01*
X140034106Y-87353638D02*
X140224582Y-87258400D01*
X140224582Y-87258400D02*
X140319820Y-87163161D01*
X140319820Y-87163161D02*
X140415058Y-86972685D01*
X140415058Y-86972685D02*
X140415058Y-86591733D01*
X140415058Y-86591733D02*
X140319820Y-86401257D01*
X140319820Y-86401257D02*
X140224582Y-86306019D01*
X140224582Y-86306019D02*
X140034106Y-86210780D01*
X141176963Y-85353638D02*
X141176963Y-85734590D01*
X141938868Y-85353638D02*
X141938868Y-85734590D01*
X179622981Y-93401600D02*
X179765838Y-93449219D01*
X179765838Y-93449219D02*
X180003933Y-93449219D01*
X180003933Y-93449219D02*
X180099171Y-93401600D01*
X180099171Y-93401600D02*
X180146790Y-93353980D01*
X180146790Y-93353980D02*
X180194409Y-93258742D01*
X180194409Y-93258742D02*
X180194409Y-93163504D01*
X180194409Y-93163504D02*
X180146790Y-93068266D01*
X180146790Y-93068266D02*
X180099171Y-93020647D01*
X180099171Y-93020647D02*
X180003933Y-92973028D01*
X180003933Y-92973028D02*
X179813457Y-92925409D01*
X179813457Y-92925409D02*
X179718219Y-92877790D01*
X179718219Y-92877790D02*
X179670600Y-92830171D01*
X179670600Y-92830171D02*
X179622981Y-92734933D01*
X179622981Y-92734933D02*
X179622981Y-92639695D01*
X179622981Y-92639695D02*
X179670600Y-92544457D01*
X179670600Y-92544457D02*
X179718219Y-92496838D01*
X179718219Y-92496838D02*
X179813457Y-92449219D01*
X179813457Y-92449219D02*
X180051552Y-92449219D01*
X180051552Y-92449219D02*
X180194409Y-92496838D01*
X180527743Y-92449219D02*
X180765838Y-93449219D01*
X180765838Y-93449219D02*
X180956314Y-92734933D01*
X180956314Y-92734933D02*
X181146790Y-93449219D01*
X181146790Y-93449219D02*
X181384886Y-92449219D01*
X181527743Y-93544457D02*
X182289647Y-93544457D01*
X182480124Y-93401600D02*
X182622981Y-93449219D01*
X182622981Y-93449219D02*
X182861076Y-93449219D01*
X182861076Y-93449219D02*
X182956314Y-93401600D01*
X182956314Y-93401600D02*
X183003933Y-93353980D01*
X183003933Y-93353980D02*
X183051552Y-93258742D01*
X183051552Y-93258742D02*
X183051552Y-93163504D01*
X183051552Y-93163504D02*
X183003933Y-93068266D01*
X183003933Y-93068266D02*
X182956314Y-93020647D01*
X182956314Y-93020647D02*
X182861076Y-92973028D01*
X182861076Y-92973028D02*
X182670600Y-92925409D01*
X182670600Y-92925409D02*
X182575362Y-92877790D01*
X182575362Y-92877790D02*
X182527743Y-92830171D01*
X182527743Y-92830171D02*
X182480124Y-92734933D01*
X182480124Y-92734933D02*
X182480124Y-92639695D01*
X182480124Y-92639695D02*
X182527743Y-92544457D01*
X182527743Y-92544457D02*
X182575362Y-92496838D01*
X182575362Y-92496838D02*
X182670600Y-92449219D01*
X182670600Y-92449219D02*
X182908695Y-92449219D01*
X182908695Y-92449219D02*
X183051552Y-92496838D01*
X183908695Y-93401600D02*
X183813457Y-93449219D01*
X183813457Y-93449219D02*
X183622981Y-93449219D01*
X183622981Y-93449219D02*
X183527743Y-93401600D01*
X183527743Y-93401600D02*
X183480124Y-93353980D01*
X183480124Y-93353980D02*
X183432505Y-93258742D01*
X183432505Y-93258742D02*
X183432505Y-92973028D01*
X183432505Y-92973028D02*
X183480124Y-92877790D01*
X183480124Y-92877790D02*
X183527743Y-92830171D01*
X183527743Y-92830171D02*
X183622981Y-92782552D01*
X183622981Y-92782552D02*
X183813457Y-92782552D01*
X183813457Y-92782552D02*
X183908695Y-92830171D01*
X184765838Y-93449219D02*
X184765838Y-92925409D01*
X184765838Y-92925409D02*
X184718219Y-92830171D01*
X184718219Y-92830171D02*
X184622981Y-92782552D01*
X184622981Y-92782552D02*
X184432505Y-92782552D01*
X184432505Y-92782552D02*
X184337267Y-92830171D01*
X184765838Y-93401600D02*
X184670600Y-93449219D01*
X184670600Y-93449219D02*
X184432505Y-93449219D01*
X184432505Y-93449219D02*
X184337267Y-93401600D01*
X184337267Y-93401600D02*
X184289648Y-93306361D01*
X184289648Y-93306361D02*
X184289648Y-93211123D01*
X184289648Y-93211123D02*
X184337267Y-93115885D01*
X184337267Y-93115885D02*
X184432505Y-93068266D01*
X184432505Y-93068266D02*
X184670600Y-93068266D01*
X184670600Y-93068266D02*
X184765838Y-93020647D01*
X185242029Y-92782552D02*
X185242029Y-93449219D01*
X185242029Y-92877790D02*
X185289648Y-92830171D01*
X185289648Y-92830171D02*
X185384886Y-92782552D01*
X185384886Y-92782552D02*
X185527743Y-92782552D01*
X185527743Y-92782552D02*
X185622981Y-92830171D01*
X185622981Y-92830171D02*
X185670600Y-92925409D01*
X185670600Y-92925409D02*
X185670600Y-93449219D01*
X72509447Y-71306800D02*
X72652304Y-71354419D01*
X72652304Y-71354419D02*
X72890399Y-71354419D01*
X72890399Y-71354419D02*
X72985637Y-71306800D01*
X72985637Y-71306800D02*
X73033256Y-71259180D01*
X73033256Y-71259180D02*
X73080875Y-71163942D01*
X73080875Y-71163942D02*
X73080875Y-71068704D01*
X73080875Y-71068704D02*
X73033256Y-70973466D01*
X73033256Y-70973466D02*
X72985637Y-70925847D01*
X72985637Y-70925847D02*
X72890399Y-70878228D01*
X72890399Y-70878228D02*
X72699923Y-70830609D01*
X72699923Y-70830609D02*
X72604685Y-70782990D01*
X72604685Y-70782990D02*
X72557066Y-70735371D01*
X72557066Y-70735371D02*
X72509447Y-70640133D01*
X72509447Y-70640133D02*
X72509447Y-70544895D01*
X72509447Y-70544895D02*
X72557066Y-70449657D01*
X72557066Y-70449657D02*
X72604685Y-70402038D01*
X72604685Y-70402038D02*
X72699923Y-70354419D01*
X72699923Y-70354419D02*
X72938018Y-70354419D01*
X72938018Y-70354419D02*
X73080875Y-70402038D01*
X73414209Y-70354419D02*
X73652304Y-71354419D01*
X73652304Y-71354419D02*
X73842780Y-70640133D01*
X73842780Y-70640133D02*
X74033256Y-71354419D01*
X74033256Y-71354419D02*
X74271352Y-70354419D01*
X74414209Y-71449657D02*
X75176113Y-71449657D01*
X75985637Y-71354419D02*
X75652304Y-70878228D01*
X75414209Y-71354419D02*
X75414209Y-70354419D01*
X75414209Y-70354419D02*
X75795161Y-70354419D01*
X75795161Y-70354419D02*
X75890399Y-70402038D01*
X75890399Y-70402038D02*
X75938018Y-70449657D01*
X75938018Y-70449657D02*
X75985637Y-70544895D01*
X75985637Y-70544895D02*
X75985637Y-70687752D01*
X75985637Y-70687752D02*
X75938018Y-70782990D01*
X75938018Y-70782990D02*
X75890399Y-70830609D01*
X75890399Y-70830609D02*
X75795161Y-70878228D01*
X75795161Y-70878228D02*
X75414209Y-70878228D01*
X76271352Y-70354419D02*
X76842780Y-70354419D01*
X76557066Y-71354419D02*
X76557066Y-70354419D01*
X77033257Y-70354419D02*
X77604685Y-70354419D01*
X77318971Y-71354419D02*
X77318971Y-70354419D01*
X78128495Y-70878228D02*
X78128495Y-71354419D01*
X77795162Y-70354419D02*
X78128495Y-70878228D01*
X78128495Y-70878228D02*
X78461828Y-70354419D01*
X78557067Y-71449657D02*
X79318971Y-71449657D01*
X80128495Y-71259180D02*
X80080876Y-71306800D01*
X80080876Y-71306800D02*
X79938019Y-71354419D01*
X79938019Y-71354419D02*
X79842781Y-71354419D01*
X79842781Y-71354419D02*
X79699924Y-71306800D01*
X79699924Y-71306800D02*
X79604686Y-71211561D01*
X79604686Y-71211561D02*
X79557067Y-71116323D01*
X79557067Y-71116323D02*
X79509448Y-70925847D01*
X79509448Y-70925847D02*
X79509448Y-70782990D01*
X79509448Y-70782990D02*
X79557067Y-70592514D01*
X79557067Y-70592514D02*
X79604686Y-70497276D01*
X79604686Y-70497276D02*
X79699924Y-70402038D01*
X79699924Y-70402038D02*
X79842781Y-70354419D01*
X79842781Y-70354419D02*
X79938019Y-70354419D01*
X79938019Y-70354419D02*
X80080876Y-70402038D01*
X80080876Y-70402038D02*
X80128495Y-70449657D01*
X80461829Y-70354419D02*
X80699924Y-71354419D01*
X80699924Y-71354419D02*
X80890400Y-70640133D01*
X80890400Y-70640133D02*
X81080876Y-71354419D01*
X81080876Y-71354419D02*
X81318972Y-70354419D01*
D11*
%TO.C,R3*%
X194334000Y-100620800D02*
X195104000Y-100620800D01*
X195104000Y-99250800D02*
X195104000Y-101990800D01*
X195104000Y-101990800D02*
X201644000Y-101990800D01*
X201644000Y-99250800D02*
X195104000Y-99250800D01*
X201644000Y-101990800D02*
X201644000Y-99250800D01*
X202414000Y-100620800D02*
X201644000Y-100620800D01*
%TO.C,D1*%
X181362000Y-84469800D02*
X181206000Y-84469800D01*
X183678000Y-84469800D02*
X183522000Y-84469800D01*
X181361939Y-87701197D02*
G75*
G02*
X181206484Y-84469800I1080061J1671397D01*
G01*
X181361951Y-87070710D02*
G75*
G02*
X181362000Y-84988839I1080049J1040910D01*
G01*
X183522000Y-84988839D02*
G75*
G02*
X183522049Y-87070710I-1080000J-1040961D01*
G01*
X183677516Y-84469800D02*
G75*
G02*
X183522061Y-87701197I-1235516J-1560000D01*
G01*
%TO.C,SW7*%
X179319000Y-70825800D02*
X179319000Y-75325800D01*
X181819000Y-76575800D02*
X183319000Y-76575800D01*
X183319000Y-69575800D02*
X181819000Y-69575800D01*
X185819000Y-75325800D02*
X185819000Y-70825800D01*
%TO.C,SW4*%
X131732400Y-119399000D02*
X131732400Y-120899000D01*
X132982400Y-123399000D02*
X137482400Y-123399000D01*
X137482400Y-116899000D02*
X132982400Y-116899000D01*
X138732400Y-120899000D02*
X138732400Y-119399000D01*
%TO.C,R2*%
X194334000Y-96570800D02*
X195104000Y-96570800D01*
X195104000Y-95200800D02*
X195104000Y-97940800D01*
X195104000Y-97940800D02*
X201644000Y-97940800D01*
X201644000Y-95200800D02*
X195104000Y-95200800D01*
X201644000Y-97940800D02*
X201644000Y-95200800D01*
X202414000Y-96570800D02*
X201644000Y-96570800D01*
%TO.C,SW3*%
X117508400Y-119399000D02*
X117508400Y-120899000D01*
X118758400Y-123399000D02*
X123258400Y-123399000D01*
X123258400Y-116899000D02*
X118758400Y-116899000D01*
X124508400Y-120899000D02*
X124508400Y-119399000D01*
%TO.C,R1*%
X186431400Y-82759800D02*
X186431400Y-89299800D01*
X186431400Y-89299800D02*
X189171400Y-89299800D01*
X187801400Y-81989800D02*
X187801400Y-82759800D01*
X187801400Y-90069800D02*
X187801400Y-89299800D01*
X189171400Y-82759800D02*
X186431400Y-82759800D01*
X189171400Y-89299800D02*
X189171400Y-82759800D01*
%TO.C,J3*%
X203278000Y-79676000D02*
X203278000Y-81006000D01*
X204388000Y-79676000D02*
X203278000Y-79676000D01*
X205848000Y-79676000D02*
X205848000Y-92496000D01*
X205848000Y-80646000D02*
X205498000Y-80646000D01*
X205848000Y-81366000D02*
X205498000Y-81366000D01*
X205848000Y-83186000D02*
X205438000Y-83186000D01*
X205848000Y-83906000D02*
X205438000Y-83906000D01*
X205848000Y-85726000D02*
X205438000Y-85726000D01*
X205848000Y-86446000D02*
X205438000Y-86446000D01*
X205848000Y-88266000D02*
X205438000Y-88266000D01*
X205848000Y-88986000D02*
X205438000Y-88986000D01*
X205848000Y-90806000D02*
X205438000Y-90806000D01*
X205848000Y-91526000D02*
X205438000Y-91526000D01*
X214478000Y-79676000D02*
X205848000Y-79676000D01*
X214478000Y-79676000D02*
X214478000Y-92496000D01*
X214478000Y-79796000D02*
X205848000Y-79796000D01*
X214478000Y-79914095D02*
X205848000Y-79914095D01*
X214478000Y-80032190D02*
X205848000Y-80032190D01*
X214478000Y-80150285D02*
X205848000Y-80150285D01*
X214478000Y-80268380D02*
X205848000Y-80268380D01*
X214478000Y-80386475D02*
X205848000Y-80386475D01*
X214478000Y-80504570D02*
X205848000Y-80504570D01*
X214478000Y-80622665D02*
X205848000Y-80622665D01*
X214478000Y-80740760D02*
X205848000Y-80740760D01*
X214478000Y-80858855D02*
X205848000Y-80858855D01*
X214478000Y-80976950D02*
X205848000Y-80976950D01*
X214478000Y-81095045D02*
X205848000Y-81095045D01*
X214478000Y-81213140D02*
X205848000Y-81213140D01*
X214478000Y-81331235D02*
X205848000Y-81331235D01*
X214478000Y-81449330D02*
X205848000Y-81449330D01*
X214478000Y-81567425D02*
X205848000Y-81567425D01*
X214478000Y-81685520D02*
X205848000Y-81685520D01*
X214478000Y-81803615D02*
X205848000Y-81803615D01*
X214478000Y-81921710D02*
X205848000Y-81921710D01*
X214478000Y-82039805D02*
X205848000Y-82039805D01*
X214478000Y-82157900D02*
X205848000Y-82157900D01*
X214478000Y-82276000D02*
X205848000Y-82276000D01*
X214478000Y-84816000D02*
X205848000Y-84816000D01*
X214478000Y-87356000D02*
X205848000Y-87356000D01*
X214478000Y-89896000D02*
X205848000Y-89896000D01*
X214478000Y-92496000D02*
X205848000Y-92496000D01*
%TO.C,R4*%
X73125200Y-84988400D02*
X73895200Y-84988400D01*
X73895200Y-83618400D02*
X73895200Y-86358400D01*
X73895200Y-86358400D02*
X80435200Y-86358400D01*
X80435200Y-83618400D02*
X73895200Y-83618400D01*
X80435200Y-86358400D02*
X80435200Y-83618400D01*
X81205200Y-84988400D02*
X80435200Y-84988400D01*
%TO.C,SW1*%
X70590400Y-94232600D02*
X73190400Y-94232600D01*
X70590400Y-98582600D02*
X70590400Y-94232600D01*
X70590400Y-103282600D02*
X70590400Y-107632600D01*
X70590400Y-107632600D02*
X73290400Y-107632600D01*
X72790400Y-108132600D02*
X73090400Y-108432600D01*
X72790400Y-108732600D02*
X72790400Y-108132600D01*
X73090400Y-108432600D02*
X72790400Y-108732600D01*
X75590400Y-94232600D02*
X78190400Y-94232600D01*
X76390400Y-100932600D02*
X77390400Y-100932600D01*
X76890400Y-101432600D02*
X76890400Y-100432600D01*
X80590400Y-94232600D02*
X83190400Y-94232600D01*
X83190400Y-94232600D02*
X83190400Y-98582600D01*
X83190400Y-103282600D02*
X83190400Y-107632600D01*
X83190400Y-107632600D02*
X80490400Y-107632600D01*
X79890400Y-100932600D02*
G75*
G02*
X73890400Y-100932600I-3000000J0D01*
G01*
X73890400Y-100932600D02*
G75*
G02*
X79890400Y-100932600I3000000J0D01*
G01*
%TO.C,SW2*%
X103284400Y-119363000D02*
X103284400Y-120863000D01*
X104534400Y-123363000D02*
X109034400Y-123363000D01*
X109034400Y-116863000D02*
X104534400Y-116863000D01*
X110284400Y-120863000D02*
X110284400Y-119363000D01*
%TO.C,SW5*%
X145956400Y-119363000D02*
X145956400Y-120863000D01*
X147206400Y-123363000D02*
X151706400Y-123363000D01*
X151706400Y-116863000D02*
X147206400Y-116863000D01*
X152956400Y-120863000D02*
X152956400Y-119363000D01*
%TO.C,U1*%
X90162200Y-111182200D02*
X176162200Y-111182200D01*
X90172200Y-61182200D02*
X90162200Y-111182200D01*
X90984200Y-91182200D02*
X90984200Y-81073000D01*
X91012200Y-81073000D02*
X95012200Y-81073000D01*
X91012200Y-88662200D02*
X95012200Y-88662200D01*
X95012200Y-81073000D02*
X95012200Y-91182200D01*
X95012200Y-91182200D02*
X91012200Y-91182200D01*
X96562200Y-111182200D02*
X96562200Y-61182200D01*
X165762200Y-111182200D02*
X165762200Y-61182200D01*
X172162200Y-68382200D02*
X176162200Y-68382200D01*
X172162200Y-101382200D02*
X176162200Y-101382200D01*
X172162200Y-103902200D02*
X172162200Y-68382200D01*
X176162200Y-61182200D02*
X90172200Y-61182200D01*
X176162200Y-68382200D02*
X176162200Y-103902200D01*
X176162200Y-103902200D02*
X172162200Y-103902200D01*
X176172200Y-111182200D02*
X176172200Y-61182200D01*
X95258251Y-64482200D02*
G75*
G02*
X91666149Y-64482200I-1796051J0D01*
G01*
X91666149Y-64482200D02*
G75*
G02*
X95258251Y-64482200I1796051J0D01*
G01*
X95258251Y-107882200D02*
G75*
G02*
X91666149Y-107882200I-1796051J0D01*
G01*
X91666149Y-107882200D02*
G75*
G02*
X95258251Y-107882200I1796051J0D01*
G01*
X170858251Y-64482200D02*
G75*
G02*
X167266149Y-64482200I-1796051J0D01*
G01*
X167266149Y-64482200D02*
G75*
G02*
X170858251Y-64482200I1796051J0D01*
G01*
X170858251Y-107782200D02*
G75*
G02*
X167266149Y-107782200I-1796051J0D01*
G01*
X167266149Y-107782200D02*
G75*
G02*
X170858251Y-107782200I1796051J0D01*
G01*
%TO.C,SW6*%
X179319000Y-96886200D02*
X179319000Y-101386200D01*
X181819000Y-102636200D02*
X183319000Y-102636200D01*
X183319000Y-95636200D02*
X181819000Y-95636200D01*
X185819000Y-101386200D02*
X185819000Y-96886200D01*
%TO.C,SW8*%
X73390400Y-75074800D02*
X73390400Y-76574800D01*
X74640400Y-79074800D02*
X79140400Y-79074800D01*
X79140400Y-72574800D02*
X74640400Y-72574800D01*
X80390400Y-76574800D02*
X80390400Y-75074800D01*
%TD*%
M02*
