%TF.GenerationSoftware,KiCad,Pcbnew,9.0.4*%
%TF.CreationDate,2025-12-09T23:50:13+01:00*%
%TF.ProjectId,Front Pannel,46726f6e-7420-4506-916e-6e656c2e6b69,rev?*%
%TF.SameCoordinates,Original*%
%TF.FileFunction,Legend,Bot*%
%TF.FilePolarity,Positive*%
%FSLAX46Y46*%
G04 Gerber Fmt 4.6, Leading zero omitted, Abs format (unit mm)*
G04 Created by KiCad (PCBNEW 9.0.4) date 2025-12-09 23:50:13*
%MOMM*%
%LPD*%
G01*
G04 APERTURE LIST*
%ADD10C,0.250000*%
%ADD11C,0.200000*%
%ADD12C,0.225000*%
%ADD13C,0.150000*%
%ADD14C,0.120000*%
%ADD15C,0.000000*%
G04 APERTURE END LIST*
D10*
G36*
X187980713Y-61403344D02*
G01*
X188013124Y-61468167D01*
X188055585Y-61638008D01*
X188101303Y-62003751D01*
X188101303Y-62464373D01*
X188055585Y-62830116D01*
X188013124Y-62999957D01*
X187980712Y-63064782D01*
X187940589Y-63104906D01*
X187900465Y-63064782D01*
X187868053Y-62999957D01*
X187825592Y-62830116D01*
X187779875Y-62464374D01*
X187779875Y-62003751D01*
X187825592Y-61638009D01*
X187868053Y-61468166D01*
X187900464Y-61403345D01*
X187940589Y-61363220D01*
X187980713Y-61403344D01*
G37*
G36*
X192075952Y-61403345D02*
G01*
X192152542Y-61556526D01*
X192196541Y-61908513D01*
X192196541Y-62559611D01*
X192152542Y-62911598D01*
X192075951Y-63064782D01*
X192031670Y-63109063D01*
X191944746Y-63109063D01*
X191900465Y-63064782D01*
X191823873Y-62911597D01*
X191779875Y-62559612D01*
X191779875Y-61908513D01*
X191823873Y-61556526D01*
X191900464Y-61403344D01*
X191944746Y-61359063D01*
X192031670Y-61359063D01*
X192075952Y-61403345D01*
G37*
G36*
X195647381Y-61403345D02*
G01*
X195723971Y-61556526D01*
X195767970Y-61908513D01*
X195767970Y-62559611D01*
X195723971Y-62911598D01*
X195647380Y-63064782D01*
X195603099Y-63109063D01*
X195516175Y-63109063D01*
X195471894Y-63064782D01*
X195395302Y-62911597D01*
X195351304Y-62559612D01*
X195351304Y-61908513D01*
X195395302Y-61556526D01*
X195471893Y-61403344D01*
X195516175Y-61359063D01*
X195603099Y-61359063D01*
X195647381Y-61403345D01*
G37*
G36*
X197577494Y-63109063D02*
G01*
X197373318Y-63109063D01*
X197329037Y-63064782D01*
X197296625Y-62999957D01*
X197256066Y-62837721D01*
X197256066Y-62582785D01*
X197296625Y-62420547D01*
X197323261Y-62367275D01*
X197407008Y-62311444D01*
X197577494Y-62311444D01*
X197577494Y-63109063D01*
G37*
G36*
X197577494Y-62061444D02*
G01*
X197420938Y-62061444D01*
X197376654Y-62017159D01*
X197344244Y-61952340D01*
X197303685Y-61790102D01*
X197303685Y-61630404D01*
X197344244Y-61468166D01*
X197376655Y-61403345D01*
X197420937Y-61359063D01*
X197577494Y-61359063D01*
X197577494Y-62061444D01*
G37*
G36*
X199790238Y-61403345D02*
G01*
X199866828Y-61556526D01*
X199910827Y-61908513D01*
X199910827Y-62559611D01*
X199866828Y-62911598D01*
X199790237Y-63064782D01*
X199745956Y-63109063D01*
X199659032Y-63109063D01*
X199614751Y-63064782D01*
X199538159Y-62911597D01*
X199494161Y-62559612D01*
X199494161Y-61908513D01*
X199538159Y-61556526D01*
X199614750Y-61403344D01*
X199659032Y-61359063D01*
X199745956Y-61359063D01*
X199790238Y-61403345D01*
G37*
G36*
X205244161Y-62156682D02*
G01*
X205039985Y-62156682D01*
X204995704Y-62112401D01*
X204963292Y-62047576D01*
X204922733Y-61885340D01*
X204922733Y-61630404D01*
X204963292Y-61468166D01*
X204995703Y-61403345D01*
X205039985Y-61359063D01*
X205244161Y-61359063D01*
X205244161Y-62156682D01*
G37*
G36*
X207573526Y-63771761D02*
G01*
X187307653Y-63771761D01*
X187307653Y-63400153D01*
X194151325Y-63400153D01*
X194151325Y-63448925D01*
X194169989Y-63493985D01*
X194204477Y-63528473D01*
X194249537Y-63547137D01*
X194273923Y-63549539D01*
X195035828Y-63549539D01*
X195060214Y-63547137D01*
X195105274Y-63528473D01*
X195139762Y-63493985D01*
X195158426Y-63448925D01*
X195158426Y-63400153D01*
X201817992Y-63400153D01*
X201817992Y-63448925D01*
X201836656Y-63493985D01*
X201871144Y-63528473D01*
X201916204Y-63547137D01*
X201940590Y-63549539D01*
X202702495Y-63549539D01*
X202726881Y-63547137D01*
X202771941Y-63528473D01*
X202806429Y-63493985D01*
X202825093Y-63448925D01*
X202825093Y-63400153D01*
X202806429Y-63355093D01*
X202771941Y-63320605D01*
X202726881Y-63301941D01*
X202702495Y-63299539D01*
X201940590Y-63299539D01*
X201916204Y-63301941D01*
X201871144Y-63320605D01*
X201836656Y-63355093D01*
X201817992Y-63400153D01*
X195158426Y-63400153D01*
X195139762Y-63355093D01*
X195105274Y-63320605D01*
X195060214Y-63301941D01*
X195035828Y-63299539D01*
X194273923Y-63299539D01*
X194249537Y-63301941D01*
X194204477Y-63320605D01*
X194169989Y-63355093D01*
X194151325Y-63400153D01*
X187307653Y-63400153D01*
X187307653Y-61995967D01*
X187529875Y-61995967D01*
X187529875Y-62472158D01*
X187530636Y-62479890D01*
X187530840Y-62487662D01*
X187578459Y-62868615D01*
X187580123Y-62875972D01*
X187581226Y-62883427D01*
X187628845Y-63073903D01*
X187629488Y-63075703D01*
X187629552Y-63076601D01*
X187633435Y-63086751D01*
X187637090Y-63096978D01*
X187637625Y-63097700D01*
X187638309Y-63099487D01*
X187685928Y-63194726D01*
X187692537Y-63205225D01*
X187693799Y-63208271D01*
X187696613Y-63211700D01*
X187698982Y-63215463D01*
X187701477Y-63217627D01*
X187709344Y-63227213D01*
X187804582Y-63322451D01*
X187823518Y-63337991D01*
X187823524Y-63337997D01*
X187851291Y-63349498D01*
X187868583Y-63356661D01*
X187868584Y-63356661D01*
X187892970Y-63359063D01*
X187988208Y-63359063D01*
X188012594Y-63356661D01*
X188012595Y-63356661D01*
X188029887Y-63349498D01*
X188057654Y-63337997D01*
X188057659Y-63337991D01*
X188076596Y-63322451D01*
X188171834Y-63227213D01*
X188179697Y-63217630D01*
X188182196Y-63215464D01*
X188184566Y-63211697D01*
X188187379Y-63208271D01*
X188188639Y-63205226D01*
X188195250Y-63194726D01*
X188231017Y-63123191D01*
X188483236Y-63123191D01*
X188484347Y-63138825D01*
X188483236Y-63154459D01*
X188486060Y-63162933D01*
X188486694Y-63171841D01*
X188495452Y-63194727D01*
X188543070Y-63289964D01*
X188545637Y-63294042D01*
X188546279Y-63295967D01*
X188548358Y-63298364D01*
X188549676Y-63300458D01*
X188550940Y-63303509D01*
X188552712Y-63305281D01*
X188556125Y-63310702D01*
X188567965Y-63320971D01*
X188578235Y-63332812D01*
X188582251Y-63334820D01*
X188585428Y-63337997D01*
X188589577Y-63339715D01*
X188592970Y-63342658D01*
X188607838Y-63347614D01*
X188621858Y-63354624D01*
X188626339Y-63354942D01*
X188630488Y-63356661D01*
X188634980Y-63356661D01*
X188639240Y-63358081D01*
X188654866Y-63356970D01*
X188670508Y-63358082D01*
X188674771Y-63356661D01*
X188679260Y-63356661D01*
X188683411Y-63354941D01*
X188687890Y-63354623D01*
X188701903Y-63347616D01*
X188716778Y-63342658D01*
X188720170Y-63339715D01*
X188724320Y-63337997D01*
X188727497Y-63334819D01*
X188731513Y-63332812D01*
X188741782Y-63320971D01*
X188753623Y-63310702D01*
X188757034Y-63305282D01*
X188758808Y-63303509D01*
X188760071Y-63300457D01*
X188761389Y-63298365D01*
X188763469Y-63295967D01*
X188764110Y-63294041D01*
X188766677Y-63289965D01*
X188806821Y-63209677D01*
X188960848Y-63209677D01*
X188960848Y-63258449D01*
X188979512Y-63303509D01*
X189014000Y-63337997D01*
X189059060Y-63356661D01*
X189083446Y-63359063D01*
X189654874Y-63359063D01*
X189679260Y-63356661D01*
X189724320Y-63337997D01*
X189758808Y-63303509D01*
X189777472Y-63258449D01*
X189777472Y-63209677D01*
X189758808Y-63164617D01*
X189724320Y-63130129D01*
X189679260Y-63111465D01*
X189654874Y-63109063D01*
X189494160Y-63109063D01*
X189494160Y-61821553D01*
X189566486Y-61893879D01*
X189585428Y-61909424D01*
X189630487Y-61928089D01*
X189679261Y-61928089D01*
X189724320Y-61909424D01*
X189758807Y-61874937D01*
X189777472Y-61829878D01*
X189777472Y-61781104D01*
X189758807Y-61736045D01*
X189743262Y-61717103D01*
X189662368Y-61636209D01*
X189580172Y-61471818D01*
X189499621Y-61230164D01*
X189815650Y-61230164D01*
X189817290Y-61254613D01*
X190150623Y-63254612D01*
X190157001Y-63278272D01*
X190159093Y-63281624D01*
X190159985Y-63285477D01*
X190171938Y-63302212D01*
X190182819Y-63319650D01*
X190186034Y-63321946D01*
X190188334Y-63325166D01*
X190205783Y-63336053D01*
X190222507Y-63347999D01*
X190226358Y-63348890D01*
X190229713Y-63350984D01*
X190249996Y-63354364D01*
X190270023Y-63359002D01*
X190273921Y-63358352D01*
X190277821Y-63359002D01*
X190297861Y-63354361D01*
X190318131Y-63350983D01*
X190321481Y-63348892D01*
X190325336Y-63348000D01*
X190342071Y-63336045D01*
X190359510Y-63325166D01*
X190361807Y-63321948D01*
X190365025Y-63319651D01*
X190375908Y-63302208D01*
X190387859Y-63285477D01*
X190388750Y-63281625D01*
X190390843Y-63278272D01*
X190397221Y-63254613D01*
X190622868Y-61900729D01*
X191529875Y-61900729D01*
X191529875Y-62567396D01*
X191530636Y-62575128D01*
X191530840Y-62582900D01*
X191578459Y-62963853D01*
X191581709Y-62978216D01*
X191581933Y-62981364D01*
X191583128Y-62984487D01*
X191583867Y-62987752D01*
X191585427Y-62990496D01*
X191590690Y-63004249D01*
X191685929Y-63194727D01*
X191692536Y-63205223D01*
X191693799Y-63208271D01*
X191696615Y-63211702D01*
X191698983Y-63215464D01*
X191701477Y-63217627D01*
X191709344Y-63227213D01*
X191804582Y-63322451D01*
X191823518Y-63337991D01*
X191823524Y-63337997D01*
X191851291Y-63349498D01*
X191868583Y-63356661D01*
X191868584Y-63356661D01*
X191892970Y-63359063D01*
X192083446Y-63359063D01*
X192107832Y-63356661D01*
X192107833Y-63356661D01*
X192125125Y-63349498D01*
X192152892Y-63337997D01*
X192152897Y-63337991D01*
X192171834Y-63322451D01*
X192267072Y-63227213D01*
X192274938Y-63217627D01*
X192277433Y-63215464D01*
X192279801Y-63211702D01*
X192282617Y-63208271D01*
X192283878Y-63205224D01*
X192290488Y-63194726D01*
X192385726Y-63004249D01*
X192390987Y-62990497D01*
X192392549Y-62987752D01*
X192393288Y-62984486D01*
X192394483Y-62981363D01*
X192394706Y-62978216D01*
X192397957Y-62963852D01*
X192445576Y-62582900D01*
X192445779Y-62575128D01*
X192446541Y-62567396D01*
X192446541Y-61900729D01*
X192445779Y-61892996D01*
X192445576Y-61885225D01*
X192397957Y-61504273D01*
X192394706Y-61489908D01*
X192394483Y-61486761D01*
X192393287Y-61483636D01*
X192392549Y-61480373D01*
X192390988Y-61477628D01*
X192385726Y-61463876D01*
X192290487Y-61273399D01*
X192283879Y-61262902D01*
X192282617Y-61259855D01*
X192279800Y-61256423D01*
X192277433Y-61252662D01*
X192274938Y-61250498D01*
X192267072Y-61240913D01*
X192256323Y-61230164D01*
X192482317Y-61230164D01*
X192483957Y-61254613D01*
X192817290Y-63254612D01*
X192823668Y-63278272D01*
X192825760Y-63281624D01*
X192826652Y-63285477D01*
X192838605Y-63302212D01*
X192849486Y-63319650D01*
X192852701Y-63321946D01*
X192855001Y-63325166D01*
X192872450Y-63336053D01*
X192889174Y-63347999D01*
X192893025Y-63348890D01*
X192896380Y-63350984D01*
X192916663Y-63354364D01*
X192936690Y-63359002D01*
X192940588Y-63358352D01*
X192944488Y-63359002D01*
X192964528Y-63354361D01*
X192984798Y-63350983D01*
X192988148Y-63348892D01*
X192992003Y-63348000D01*
X193008738Y-63336045D01*
X193026177Y-63325166D01*
X193028474Y-63321948D01*
X193031692Y-63319651D01*
X193042575Y-63302208D01*
X193054526Y-63285477D01*
X193055417Y-63281625D01*
X193057510Y-63278272D01*
X193063888Y-63254613D01*
X193397221Y-61254613D01*
X193398861Y-61230164D01*
X193394117Y-61209677D01*
X193437039Y-61209677D01*
X193437039Y-61258449D01*
X193455703Y-61303509D01*
X193490191Y-61337997D01*
X193535251Y-61356661D01*
X193559637Y-61359063D01*
X193910827Y-61359063D01*
X193910827Y-62061444D01*
X193702494Y-62061444D01*
X193678108Y-62063846D01*
X193633048Y-62082510D01*
X193598560Y-62116998D01*
X193579896Y-62162058D01*
X193579896Y-62210830D01*
X193598560Y-62255890D01*
X193633048Y-62290378D01*
X193678108Y-62309042D01*
X193702494Y-62311444D01*
X193910827Y-62311444D01*
X193910827Y-63109063D01*
X193559637Y-63109063D01*
X193535251Y-63111465D01*
X193490191Y-63130129D01*
X193455703Y-63164617D01*
X193437039Y-63209677D01*
X193437039Y-63258449D01*
X193455703Y-63303509D01*
X193490191Y-63337997D01*
X193535251Y-63356661D01*
X193559637Y-63359063D01*
X194035827Y-63359063D01*
X194060213Y-63356661D01*
X194105273Y-63337997D01*
X194139761Y-63303509D01*
X194158425Y-63258449D01*
X194160827Y-63234063D01*
X194160827Y-61900729D01*
X195101304Y-61900729D01*
X195101304Y-62567396D01*
X195102065Y-62575128D01*
X195102269Y-62582900D01*
X195149888Y-62963853D01*
X195153138Y-62978216D01*
X195153362Y-62981364D01*
X195154557Y-62984487D01*
X195155296Y-62987752D01*
X195156856Y-62990496D01*
X195162119Y-63004249D01*
X195257358Y-63194727D01*
X195263965Y-63205223D01*
X195265228Y-63208271D01*
X195268044Y-63211702D01*
X195270412Y-63215464D01*
X195272906Y-63217627D01*
X195280773Y-63227213D01*
X195376011Y-63322451D01*
X195394947Y-63337991D01*
X195394953Y-63337997D01*
X195422720Y-63349498D01*
X195440012Y-63356661D01*
X195440013Y-63356661D01*
X195464399Y-63359063D01*
X195654875Y-63359063D01*
X195679261Y-63356661D01*
X195679262Y-63356661D01*
X195696554Y-63349498D01*
X195724321Y-63337997D01*
X195724326Y-63337991D01*
X195743263Y-63322451D01*
X195838501Y-63227213D01*
X195846367Y-63217627D01*
X195848862Y-63215464D01*
X195851230Y-63211702D01*
X195854046Y-63208271D01*
X195855307Y-63205224D01*
X195861917Y-63194726D01*
X195957155Y-63004249D01*
X195962416Y-62990497D01*
X195963978Y-62987752D01*
X195964717Y-62984486D01*
X195965912Y-62981363D01*
X195966135Y-62978216D01*
X195969386Y-62963852D01*
X196017005Y-62582900D01*
X196017208Y-62575128D01*
X196017970Y-62567396D01*
X196017970Y-61900729D01*
X196017208Y-61892996D01*
X196017005Y-61885225D01*
X195969386Y-61504273D01*
X195966135Y-61489908D01*
X195965912Y-61486761D01*
X195964716Y-61483636D01*
X195963978Y-61480373D01*
X195962417Y-61477628D01*
X195957155Y-61463876D01*
X195861916Y-61273399D01*
X195855308Y-61262902D01*
X195854046Y-61259855D01*
X195851229Y-61256423D01*
X195848862Y-61252662D01*
X195846367Y-61250498D01*
X195838501Y-61240913D01*
X195807265Y-61209677D01*
X196103706Y-61209677D01*
X196103706Y-61258449D01*
X196122370Y-61303509D01*
X196156858Y-61337997D01*
X196201918Y-61356661D01*
X196226304Y-61359063D01*
X196577494Y-61359063D01*
X196577494Y-62061444D01*
X196369161Y-62061444D01*
X196344775Y-62063846D01*
X196299715Y-62082510D01*
X196265227Y-62116998D01*
X196246563Y-62162058D01*
X196246563Y-62210830D01*
X196265227Y-62255890D01*
X196299715Y-62290378D01*
X196344775Y-62309042D01*
X196369161Y-62311444D01*
X196577494Y-62311444D01*
X196577494Y-63234063D01*
X196579896Y-63258449D01*
X196598560Y-63303509D01*
X196633048Y-63337997D01*
X196678108Y-63356661D01*
X196726880Y-63356661D01*
X196771940Y-63337997D01*
X196806428Y-63303509D01*
X196825092Y-63258449D01*
X196827494Y-63234063D01*
X196827494Y-62567396D01*
X197006066Y-62567396D01*
X197006066Y-62853110D01*
X197006485Y-62857364D01*
X197006214Y-62859186D01*
X197007563Y-62868314D01*
X197008468Y-62877496D01*
X197009172Y-62879197D01*
X197009798Y-62883427D01*
X197057417Y-63073903D01*
X197058060Y-63075703D01*
X197058124Y-63076601D01*
X197062007Y-63086751D01*
X197065662Y-63096978D01*
X197066197Y-63097700D01*
X197066881Y-63099487D01*
X197114500Y-63194726D01*
X197121109Y-63205225D01*
X197122371Y-63208271D01*
X197125185Y-63211700D01*
X197127554Y-63215463D01*
X197130049Y-63217627D01*
X197137916Y-63227213D01*
X197233154Y-63322451D01*
X197252090Y-63337991D01*
X197252096Y-63337997D01*
X197279863Y-63349498D01*
X197297155Y-63356661D01*
X197297156Y-63356661D01*
X197321542Y-63359063D01*
X197702494Y-63359063D01*
X197726880Y-63356661D01*
X197771940Y-63337997D01*
X197806428Y-63303509D01*
X197825092Y-63258449D01*
X197827494Y-63234063D01*
X197827494Y-62447772D01*
X198056087Y-62447772D01*
X198056087Y-62496544D01*
X198074751Y-62541604D01*
X198109239Y-62576092D01*
X198154299Y-62594756D01*
X198178685Y-62597158D01*
X198940589Y-62597158D01*
X198964975Y-62594756D01*
X199010035Y-62576092D01*
X199044523Y-62541604D01*
X199063187Y-62496544D01*
X199063187Y-62447772D01*
X199044523Y-62402712D01*
X199010035Y-62368224D01*
X198964975Y-62349560D01*
X198940589Y-62347158D01*
X198178685Y-62347158D01*
X198154299Y-62349560D01*
X198109239Y-62368224D01*
X198074751Y-62402712D01*
X198056087Y-62447772D01*
X197827494Y-62447772D01*
X197827494Y-61900729D01*
X199244161Y-61900729D01*
X199244161Y-62567396D01*
X199244922Y-62575128D01*
X199245126Y-62582900D01*
X199292745Y-62963853D01*
X199295995Y-62978216D01*
X199296219Y-62981364D01*
X199297414Y-62984487D01*
X199298153Y-62987752D01*
X199299713Y-62990496D01*
X199304976Y-63004249D01*
X199400215Y-63194727D01*
X199406822Y-63205223D01*
X199408085Y-63208271D01*
X199410901Y-63211702D01*
X199413269Y-63215464D01*
X199415763Y-63217627D01*
X199423630Y-63227213D01*
X199518868Y-63322451D01*
X199537804Y-63337991D01*
X199537810Y-63337997D01*
X199565577Y-63349498D01*
X199582869Y-63356661D01*
X199582870Y-63356661D01*
X199607256Y-63359063D01*
X199797732Y-63359063D01*
X199822118Y-63356661D01*
X199822119Y-63356661D01*
X199839411Y-63349498D01*
X199867178Y-63337997D01*
X199867183Y-63337991D01*
X199886120Y-63322451D01*
X199981358Y-63227213D01*
X199989224Y-63217627D01*
X199991719Y-63215464D01*
X199994087Y-63211702D01*
X199996903Y-63208271D01*
X199998164Y-63205224D01*
X200004774Y-63194726D01*
X200100012Y-63004249D01*
X200105273Y-62990497D01*
X200106835Y-62987752D01*
X200107574Y-62984486D01*
X200108769Y-62981363D01*
X200108992Y-62978216D01*
X200112243Y-62963852D01*
X200159862Y-62582900D01*
X200160065Y-62575128D01*
X200160827Y-62567396D01*
X200160827Y-61900729D01*
X200160065Y-61892996D01*
X200159862Y-61885225D01*
X200112243Y-61504273D01*
X200108992Y-61489908D01*
X200108769Y-61486761D01*
X200107573Y-61483636D01*
X200106835Y-61480373D01*
X200105274Y-61477628D01*
X200100012Y-61463876D01*
X200004773Y-61273399D01*
X199998165Y-61262902D01*
X199996903Y-61259855D01*
X199994086Y-61256423D01*
X199991719Y-61252662D01*
X199989224Y-61250498D01*
X199981358Y-61240913D01*
X199950122Y-61209677D01*
X200246563Y-61209677D01*
X200246563Y-61258449D01*
X200265227Y-61303509D01*
X200299715Y-61337997D01*
X200344775Y-61356661D01*
X200369161Y-61359063D01*
X200720351Y-61359063D01*
X200720351Y-62061444D01*
X200512018Y-62061444D01*
X200487632Y-62063846D01*
X200442572Y-62082510D01*
X200408084Y-62116998D01*
X200389420Y-62162058D01*
X200389420Y-62210830D01*
X200408084Y-62255890D01*
X200442572Y-62290378D01*
X200487632Y-62309042D01*
X200512018Y-62311444D01*
X200720351Y-62311444D01*
X200720351Y-63234063D01*
X200722753Y-63258449D01*
X200741417Y-63303509D01*
X200775905Y-63337997D01*
X200820965Y-63356661D01*
X200869737Y-63356661D01*
X200914797Y-63337997D01*
X200949285Y-63303509D01*
X200967949Y-63258449D01*
X200970351Y-63234063D01*
X200970351Y-61234063D01*
X200969967Y-61230164D01*
X201053746Y-61230164D01*
X201055386Y-61254613D01*
X201388719Y-63254612D01*
X201395097Y-63278272D01*
X201397189Y-63281624D01*
X201398081Y-63285477D01*
X201410034Y-63302212D01*
X201420915Y-63319650D01*
X201424130Y-63321946D01*
X201426430Y-63325166D01*
X201443879Y-63336053D01*
X201460603Y-63347999D01*
X201464454Y-63348890D01*
X201467809Y-63350984D01*
X201488092Y-63354364D01*
X201508119Y-63359002D01*
X201512017Y-63358352D01*
X201515917Y-63359002D01*
X201535957Y-63354361D01*
X201556227Y-63350983D01*
X201559577Y-63348892D01*
X201563432Y-63348000D01*
X201580167Y-63336045D01*
X201597606Y-63325166D01*
X201599903Y-63321948D01*
X201603121Y-63319651D01*
X201614004Y-63302208D01*
X201625955Y-63285477D01*
X201626846Y-63281625D01*
X201628939Y-63278272D01*
X201635317Y-63254613D01*
X201908583Y-61615015D01*
X202767971Y-61615015D01*
X202767971Y-61805491D01*
X202768982Y-61815756D01*
X202769672Y-61826041D01*
X202817291Y-62111755D01*
X202819806Y-62121084D01*
X202820029Y-62124221D01*
X202822135Y-62129725D01*
X202823669Y-62135414D01*
X202825332Y-62138080D01*
X202828787Y-62147107D01*
X203309764Y-63109063D01*
X202892971Y-63109063D01*
X202868585Y-63111465D01*
X202823525Y-63130129D01*
X202789037Y-63164617D01*
X202770373Y-63209677D01*
X202770373Y-63258449D01*
X202789037Y-63303509D01*
X202823525Y-63337997D01*
X202868585Y-63356661D01*
X202892971Y-63359063D01*
X203512018Y-63359063D01*
X203536404Y-63356661D01*
X203540552Y-63354942D01*
X203545034Y-63354624D01*
X203562957Y-63345662D01*
X203581464Y-63337997D01*
X203584639Y-63334821D01*
X203588657Y-63332813D01*
X203601788Y-63317672D01*
X203615952Y-63303509D01*
X203617670Y-63299361D01*
X203620613Y-63295968D01*
X203626951Y-63276954D01*
X203634616Y-63258449D01*
X203634616Y-63253959D01*
X203636037Y-63249697D01*
X203634616Y-63229705D01*
X203634616Y-63209677D01*
X203632897Y-63205528D01*
X203632579Y-63201047D01*
X203623822Y-63178162D01*
X203223201Y-62376920D01*
X203720352Y-62376920D01*
X203720352Y-62853110D01*
X203720771Y-62857364D01*
X203720500Y-62859186D01*
X203721849Y-62868314D01*
X203722754Y-62877496D01*
X203723458Y-62879197D01*
X203724084Y-62883427D01*
X203771703Y-63073903D01*
X203772346Y-63075703D01*
X203772410Y-63076601D01*
X203776293Y-63086751D01*
X203779948Y-63096978D01*
X203780483Y-63097700D01*
X203781167Y-63099487D01*
X203828786Y-63194726D01*
X203835395Y-63205225D01*
X203836657Y-63208271D01*
X203839471Y-63211700D01*
X203841840Y-63215463D01*
X203844335Y-63217627D01*
X203852202Y-63227213D01*
X203947440Y-63322451D01*
X203966376Y-63337991D01*
X203966382Y-63337997D01*
X203994149Y-63349498D01*
X204011441Y-63356661D01*
X204011442Y-63356661D01*
X204035828Y-63359063D01*
X204321542Y-63359063D01*
X204345928Y-63356661D01*
X204345929Y-63356661D01*
X204363221Y-63349498D01*
X204390988Y-63337997D01*
X204390993Y-63337991D01*
X204409930Y-63322451D01*
X204505168Y-63227213D01*
X204513031Y-63217630D01*
X204515530Y-63215464D01*
X204517900Y-63211697D01*
X204520713Y-63208271D01*
X204521973Y-63205226D01*
X204528584Y-63194726D01*
X204576203Y-63099487D01*
X204584960Y-63076602D01*
X204588417Y-63027952D01*
X204572994Y-62981682D01*
X204541037Y-62944837D01*
X204497414Y-62923025D01*
X204448765Y-62919568D01*
X204402494Y-62934991D01*
X204365649Y-62966948D01*
X204352595Y-62987685D01*
X204314046Y-63064782D01*
X204269766Y-63109063D01*
X204087604Y-63109063D01*
X204043323Y-63064782D01*
X204010911Y-62999957D01*
X203970352Y-62837721D01*
X203970352Y-62392309D01*
X204010911Y-62230072D01*
X204043323Y-62165247D01*
X204087604Y-62120967D01*
X204178685Y-62120967D01*
X204203071Y-62118565D01*
X204204230Y-62118084D01*
X204205483Y-62118060D01*
X204226706Y-62108774D01*
X204248131Y-62099901D01*
X204249017Y-62099014D01*
X204250166Y-62098512D01*
X204266233Y-62081798D01*
X204282619Y-62065413D01*
X204283098Y-62064255D01*
X204283967Y-62063352D01*
X204292413Y-62041765D01*
X204301283Y-62020353D01*
X204301283Y-62019099D01*
X204301740Y-62017932D01*
X204301283Y-61994767D01*
X204301283Y-61971581D01*
X204300802Y-61970421D01*
X204300778Y-61969169D01*
X204293205Y-61945865D01*
X204148458Y-61615015D01*
X204672733Y-61615015D01*
X204672733Y-61900729D01*
X204673152Y-61904983D01*
X204672881Y-61906805D01*
X204674230Y-61915933D01*
X204675135Y-61925115D01*
X204675839Y-61926816D01*
X204676465Y-61931046D01*
X204724084Y-62121522D01*
X204724727Y-62123322D01*
X204724791Y-62124220D01*
X204728674Y-62134370D01*
X204732329Y-62144597D01*
X204732864Y-62145319D01*
X204733548Y-62147106D01*
X204781167Y-62242345D01*
X204787776Y-62252844D01*
X204789038Y-62255890D01*
X204791852Y-62259319D01*
X204794221Y-62263082D01*
X204796716Y-62265246D01*
X204804583Y-62274832D01*
X204899821Y-62370070D01*
X204918757Y-62385610D01*
X204918763Y-62385616D01*
X204946530Y-62397117D01*
X204963822Y-62404280D01*
X204963823Y-62404280D01*
X204988209Y-62406682D01*
X205244161Y-62406682D01*
X205244161Y-63234063D01*
X205246563Y-63258449D01*
X205265227Y-63303509D01*
X205299715Y-63337997D01*
X205344775Y-63356661D01*
X205393547Y-63356661D01*
X205438607Y-63337997D01*
X205473095Y-63303509D01*
X205491759Y-63258449D01*
X205494161Y-63234063D01*
X205494161Y-61329171D01*
X205672733Y-61329171D01*
X205682198Y-61377016D01*
X205709252Y-61417597D01*
X205749776Y-61444736D01*
X205797603Y-61454301D01*
X205845448Y-61444836D01*
X205867071Y-61433307D01*
X205978437Y-61359063D01*
X206126909Y-61359063D01*
X206171190Y-61403344D01*
X206203601Y-61468167D01*
X206244161Y-61630404D01*
X206244161Y-61790102D01*
X206203601Y-61952338D01*
X206171191Y-62017159D01*
X206104639Y-62083712D01*
X205932307Y-62169879D01*
X205921810Y-62176486D01*
X205918763Y-62177749D01*
X205915331Y-62180565D01*
X205911570Y-62182933D01*
X205909406Y-62185427D01*
X205899821Y-62193294D01*
X205804583Y-62288532D01*
X205796716Y-62298117D01*
X205794222Y-62300281D01*
X205791853Y-62304042D01*
X205789038Y-62307474D01*
X205787776Y-62310520D01*
X205781167Y-62321019D01*
X205733549Y-62416256D01*
X205732865Y-62418041D01*
X205732329Y-62418766D01*
X205728673Y-62428995D01*
X205724791Y-62439142D01*
X205724727Y-62440041D01*
X205724084Y-62441841D01*
X205676465Y-62632317D01*
X205675839Y-62636546D01*
X205675135Y-62638248D01*
X205674230Y-62647429D01*
X205672881Y-62656558D01*
X205673152Y-62658379D01*
X205672733Y-62662634D01*
X205672733Y-62853110D01*
X205673152Y-62857364D01*
X205672881Y-62859186D01*
X205674230Y-62868314D01*
X205675135Y-62877496D01*
X205675839Y-62879197D01*
X205676465Y-62883427D01*
X205724084Y-63073903D01*
X205724727Y-63075703D01*
X205724791Y-63076601D01*
X205728674Y-63086751D01*
X205732329Y-63096978D01*
X205732864Y-63097700D01*
X205733548Y-63099487D01*
X205781167Y-63194726D01*
X205787776Y-63205225D01*
X205789038Y-63208271D01*
X205791852Y-63211700D01*
X205794221Y-63215463D01*
X205796716Y-63217627D01*
X205804583Y-63227213D01*
X205899821Y-63322451D01*
X205918757Y-63337991D01*
X205918763Y-63337997D01*
X205946530Y-63349498D01*
X205963822Y-63356661D01*
X205963823Y-63356661D01*
X205988209Y-63359063D01*
X206226174Y-63359063D01*
X206226304Y-63359063D01*
X206250690Y-63356661D01*
X206262003Y-63351975D01*
X206274019Y-63349598D01*
X206295642Y-63338069D01*
X206438499Y-63242831D01*
X206457457Y-63227306D01*
X206484596Y-63186781D01*
X206494161Y-63138955D01*
X206484696Y-63091110D01*
X206457642Y-63050529D01*
X206417118Y-63023390D01*
X206369292Y-63013825D01*
X206321446Y-63023290D01*
X206299824Y-63034819D01*
X206188457Y-63109063D01*
X206039985Y-63109063D01*
X205995704Y-63064782D01*
X205963292Y-62999957D01*
X205922733Y-62837721D01*
X205922733Y-62678023D01*
X205963292Y-62515785D01*
X205995703Y-62450964D01*
X206062253Y-62384414D01*
X206234587Y-62298247D01*
X206245081Y-62291640D01*
X206248132Y-62290377D01*
X206251566Y-62287558D01*
X206255324Y-62285193D01*
X206257485Y-62282701D01*
X206267074Y-62274832D01*
X206362312Y-62179593D01*
X206370180Y-62170004D01*
X206372672Y-62167844D01*
X206375036Y-62164087D01*
X206377857Y-62160651D01*
X206379121Y-62157599D01*
X206385726Y-62147107D01*
X206433345Y-62051869D01*
X206434028Y-62050083D01*
X206434565Y-62049359D01*
X206438220Y-62039129D01*
X206442103Y-62028983D01*
X206442166Y-62028083D01*
X206442810Y-62026284D01*
X206490429Y-61835808D01*
X206491054Y-61831578D01*
X206491759Y-61829877D01*
X206492663Y-61820697D01*
X206494013Y-61811568D01*
X206493741Y-61809745D01*
X206494161Y-61805491D01*
X206494161Y-61615015D01*
X206493741Y-61610760D01*
X206494013Y-61608938D01*
X206492663Y-61599808D01*
X206491759Y-61590629D01*
X206491054Y-61588927D01*
X206490429Y-61584698D01*
X206442810Y-61394222D01*
X206442166Y-61392422D01*
X206442103Y-61391523D01*
X206438220Y-61381376D01*
X206434565Y-61371147D01*
X206434028Y-61370422D01*
X206433345Y-61368637D01*
X206385726Y-61273399D01*
X206379118Y-61262902D01*
X206377856Y-61259855D01*
X206375039Y-61256423D01*
X206372672Y-61252662D01*
X206370177Y-61250498D01*
X206362311Y-61240913D01*
X206331075Y-61209677D01*
X206627516Y-61209677D01*
X206627516Y-61258449D01*
X206646180Y-61303509D01*
X206680668Y-61337997D01*
X206725728Y-61356661D01*
X206750114Y-61359063D01*
X207101304Y-61359063D01*
X207101304Y-62061444D01*
X206892971Y-62061444D01*
X206868585Y-62063846D01*
X206823525Y-62082510D01*
X206789037Y-62116998D01*
X206770373Y-62162058D01*
X206770373Y-62210830D01*
X206789037Y-62255890D01*
X206823525Y-62290378D01*
X206868585Y-62309042D01*
X206892971Y-62311444D01*
X207101304Y-62311444D01*
X207101304Y-63109063D01*
X206750114Y-63109063D01*
X206725728Y-63111465D01*
X206680668Y-63130129D01*
X206646180Y-63164617D01*
X206627516Y-63209677D01*
X206627516Y-63258449D01*
X206646180Y-63303509D01*
X206680668Y-63337997D01*
X206725728Y-63356661D01*
X206750114Y-63359063D01*
X207226304Y-63359063D01*
X207250690Y-63356661D01*
X207295750Y-63337997D01*
X207330238Y-63303509D01*
X207348902Y-63258449D01*
X207351304Y-63234063D01*
X207351304Y-61234063D01*
X207348902Y-61209677D01*
X207330238Y-61164617D01*
X207295750Y-61130129D01*
X207250690Y-61111465D01*
X207226304Y-61109063D01*
X206750114Y-61109063D01*
X206725728Y-61111465D01*
X206680668Y-61130129D01*
X206646180Y-61164617D01*
X206627516Y-61209677D01*
X206331075Y-61209677D01*
X206267073Y-61145675D01*
X206248136Y-61130134D01*
X206248131Y-61130129D01*
X206216269Y-61116931D01*
X206203072Y-61111465D01*
X206203071Y-61111465D01*
X206178685Y-61109063D01*
X205940590Y-61109063D01*
X205916204Y-61111465D01*
X205904890Y-61116151D01*
X205892875Y-61118528D01*
X205871253Y-61130057D01*
X205871146Y-61130127D01*
X205871144Y-61130129D01*
X205871142Y-61130130D01*
X205728395Y-61225295D01*
X205709437Y-61240820D01*
X205682298Y-61281344D01*
X205672733Y-61329171D01*
X205494161Y-61329171D01*
X205494161Y-61234063D01*
X205491759Y-61209677D01*
X205473095Y-61164617D01*
X205438607Y-61130129D01*
X205393547Y-61111465D01*
X205369161Y-61109063D01*
X204988209Y-61109063D01*
X204963823Y-61111465D01*
X204963822Y-61111465D01*
X204950624Y-61116931D01*
X204918763Y-61130129D01*
X204918757Y-61130134D01*
X204899821Y-61145675D01*
X204804583Y-61240913D01*
X204796716Y-61250498D01*
X204794222Y-61252662D01*
X204791853Y-61256423D01*
X204789038Y-61259855D01*
X204787776Y-61262901D01*
X204781167Y-61273400D01*
X204733549Y-61368637D01*
X204732865Y-61370422D01*
X204732329Y-61371147D01*
X204728673Y-61381376D01*
X204724791Y-61391523D01*
X204724727Y-61392422D01*
X204724084Y-61394222D01*
X204676465Y-61584698D01*
X204675839Y-61588927D01*
X204675135Y-61590629D01*
X204674230Y-61599810D01*
X204672881Y-61608939D01*
X204673152Y-61610760D01*
X204672733Y-61615015D01*
X204148458Y-61615015D01*
X204036479Y-61359063D01*
X204464399Y-61359063D01*
X204488785Y-61356661D01*
X204533845Y-61337997D01*
X204568333Y-61303509D01*
X204586997Y-61258449D01*
X204586997Y-61209677D01*
X204568333Y-61164617D01*
X204533845Y-61130129D01*
X204488785Y-61111465D01*
X204464399Y-61109063D01*
X203845352Y-61109063D01*
X203820966Y-61111465D01*
X203819806Y-61111945D01*
X203818554Y-61111970D01*
X203797330Y-61121255D01*
X203775906Y-61130129D01*
X203775019Y-61131015D01*
X203773871Y-61131518D01*
X203757803Y-61148231D01*
X203741418Y-61164617D01*
X203740938Y-61165774D01*
X203740070Y-61166678D01*
X203731623Y-61188264D01*
X203722754Y-61209677D01*
X203722754Y-61210930D01*
X203722297Y-61212098D01*
X203722754Y-61235262D01*
X203722754Y-61258449D01*
X203723234Y-61259608D01*
X203723259Y-61260861D01*
X203730832Y-61284165D01*
X203992111Y-61881375D01*
X203966382Y-61892033D01*
X203966376Y-61892038D01*
X203947440Y-61907579D01*
X203852202Y-62002817D01*
X203844335Y-62012402D01*
X203841840Y-62014567D01*
X203839471Y-62018329D01*
X203836657Y-62021759D01*
X203835395Y-62024804D01*
X203828786Y-62035304D01*
X203781167Y-62130543D01*
X203780483Y-62132329D01*
X203779948Y-62133052D01*
X203776293Y-62143278D01*
X203772410Y-62153429D01*
X203772346Y-62154326D01*
X203771703Y-62156127D01*
X203724084Y-62346603D01*
X203723458Y-62350832D01*
X203722754Y-62352534D01*
X203721849Y-62361715D01*
X203720500Y-62370844D01*
X203720771Y-62372665D01*
X203720352Y-62376920D01*
X203223201Y-62376920D01*
X203060799Y-62052115D01*
X203017971Y-61795147D01*
X203017971Y-61630404D01*
X203058530Y-61468166D01*
X203090941Y-61403345D01*
X203135223Y-61359063D01*
X203269766Y-61359063D01*
X203314047Y-61403344D01*
X203352595Y-61480440D01*
X203365650Y-61501178D01*
X203402495Y-61533134D01*
X203448765Y-61548557D01*
X203497415Y-61545099D01*
X203541038Y-61523288D01*
X203572994Y-61486443D01*
X203588417Y-61440172D01*
X203584960Y-61391523D01*
X203576202Y-61368637D01*
X203528583Y-61273399D01*
X203521975Y-61262902D01*
X203520713Y-61259855D01*
X203517896Y-61256423D01*
X203515529Y-61252662D01*
X203513034Y-61250498D01*
X203505168Y-61240913D01*
X203409930Y-61145675D01*
X203390993Y-61130134D01*
X203390988Y-61130129D01*
X203359126Y-61116931D01*
X203345929Y-61111465D01*
X203345928Y-61111465D01*
X203321542Y-61109063D01*
X203083447Y-61109063D01*
X203059061Y-61111465D01*
X203059060Y-61111465D01*
X203045862Y-61116931D01*
X203014001Y-61130129D01*
X203013995Y-61130134D01*
X202995059Y-61145675D01*
X202899821Y-61240913D01*
X202891954Y-61250498D01*
X202889460Y-61252662D01*
X202887091Y-61256423D01*
X202884276Y-61259855D01*
X202883014Y-61262901D01*
X202876405Y-61273400D01*
X202828787Y-61368637D01*
X202828103Y-61370422D01*
X202827567Y-61371147D01*
X202823911Y-61381376D01*
X202820029Y-61391523D01*
X202819965Y-61392422D01*
X202819322Y-61394222D01*
X202771703Y-61584698D01*
X202771077Y-61588927D01*
X202770373Y-61590629D01*
X202769468Y-61599810D01*
X202768119Y-61608939D01*
X202768390Y-61610760D01*
X202767971Y-61615015D01*
X201908583Y-61615015D01*
X201968650Y-61254613D01*
X201970290Y-61230164D01*
X201959288Y-61182649D01*
X201930939Y-61142960D01*
X201889560Y-61117143D01*
X201841452Y-61109124D01*
X201793936Y-61120127D01*
X201754248Y-61148476D01*
X201728430Y-61189854D01*
X201722052Y-61213514D01*
X201512018Y-62473718D01*
X201301984Y-61213513D01*
X201295606Y-61189854D01*
X201269788Y-61148475D01*
X201230099Y-61120126D01*
X201182584Y-61109124D01*
X201134476Y-61117142D01*
X201093097Y-61142960D01*
X201064748Y-61182649D01*
X201053746Y-61230164D01*
X200969967Y-61230164D01*
X200967949Y-61209677D01*
X200949285Y-61164617D01*
X200914797Y-61130129D01*
X200869737Y-61111465D01*
X200845351Y-61109063D01*
X200369161Y-61109063D01*
X200344775Y-61111465D01*
X200299715Y-61130129D01*
X200265227Y-61164617D01*
X200246563Y-61209677D01*
X199950122Y-61209677D01*
X199886120Y-61145675D01*
X199867183Y-61130134D01*
X199867178Y-61130129D01*
X199835316Y-61116931D01*
X199822119Y-61111465D01*
X199822118Y-61111465D01*
X199797732Y-61109063D01*
X199607256Y-61109063D01*
X199582870Y-61111465D01*
X199582869Y-61111465D01*
X199569671Y-61116931D01*
X199537810Y-61130129D01*
X199537804Y-61130134D01*
X199518868Y-61145675D01*
X199423630Y-61240913D01*
X199415763Y-61250498D01*
X199413269Y-61252662D01*
X199410901Y-61256423D01*
X199408085Y-61259855D01*
X199406822Y-61262902D01*
X199400215Y-61273399D01*
X199304977Y-61463875D01*
X199299714Y-61477627D01*
X199298153Y-61480373D01*
X199297414Y-61483637D01*
X199296219Y-61486761D01*
X199295995Y-61489908D01*
X199292745Y-61504272D01*
X199245126Y-61885225D01*
X199244922Y-61892996D01*
X199244161Y-61900729D01*
X197827494Y-61900729D01*
X197827494Y-61234063D01*
X197825092Y-61209677D01*
X197806428Y-61164617D01*
X197771940Y-61130129D01*
X197726880Y-61111465D01*
X197702494Y-61109063D01*
X197369161Y-61109063D01*
X197344775Y-61111465D01*
X197344774Y-61111465D01*
X197331576Y-61116931D01*
X197299715Y-61130129D01*
X197299709Y-61130134D01*
X197280773Y-61145675D01*
X197185535Y-61240913D01*
X197177668Y-61250498D01*
X197175174Y-61252662D01*
X197172805Y-61256423D01*
X197169990Y-61259855D01*
X197168728Y-61262901D01*
X197162119Y-61273400D01*
X197114501Y-61368637D01*
X197113817Y-61370422D01*
X197113281Y-61371147D01*
X197109625Y-61381376D01*
X197105743Y-61391523D01*
X197105679Y-61392422D01*
X197105036Y-61394222D01*
X197057417Y-61584698D01*
X197056791Y-61588927D01*
X197056087Y-61590629D01*
X197055182Y-61599810D01*
X197053833Y-61608939D01*
X197054104Y-61610760D01*
X197053685Y-61615015D01*
X197053685Y-61805491D01*
X197054104Y-61809745D01*
X197053833Y-61811567D01*
X197055182Y-61820695D01*
X197056087Y-61829877D01*
X197056791Y-61831578D01*
X197057417Y-61835808D01*
X197105036Y-62026284D01*
X197105679Y-62028083D01*
X197105743Y-62028983D01*
X197109625Y-62039129D01*
X197113281Y-62049359D01*
X197113817Y-62050083D01*
X197114501Y-62051869D01*
X197162119Y-62147106D01*
X197168725Y-62157600D01*
X197169989Y-62160651D01*
X197172809Y-62164087D01*
X197174151Y-62166219D01*
X197156966Y-62177676D01*
X197138008Y-62193201D01*
X197133572Y-62199823D01*
X197127555Y-62205043D01*
X197114500Y-62225781D01*
X197066882Y-62321018D01*
X197066198Y-62322803D01*
X197065662Y-62323528D01*
X197062006Y-62333757D01*
X197058124Y-62343904D01*
X197058060Y-62344803D01*
X197057417Y-62346603D01*
X197009798Y-62537079D01*
X197009172Y-62541308D01*
X197008468Y-62543010D01*
X197007563Y-62552191D01*
X197006214Y-62561320D01*
X197006485Y-62563141D01*
X197006066Y-62567396D01*
X196827494Y-62567396D01*
X196827494Y-61234063D01*
X196825092Y-61209677D01*
X196806428Y-61164617D01*
X196771940Y-61130129D01*
X196726880Y-61111465D01*
X196702494Y-61109063D01*
X196226304Y-61109063D01*
X196201918Y-61111465D01*
X196156858Y-61130129D01*
X196122370Y-61164617D01*
X196103706Y-61209677D01*
X195807265Y-61209677D01*
X195743263Y-61145675D01*
X195724326Y-61130134D01*
X195724321Y-61130129D01*
X195692459Y-61116931D01*
X195679262Y-61111465D01*
X195679261Y-61111465D01*
X195654875Y-61109063D01*
X195464399Y-61109063D01*
X195440013Y-61111465D01*
X195440012Y-61111465D01*
X195426814Y-61116931D01*
X195394953Y-61130129D01*
X195394947Y-61130134D01*
X195376011Y-61145675D01*
X195280773Y-61240913D01*
X195272906Y-61250498D01*
X195270412Y-61252662D01*
X195268044Y-61256423D01*
X195265228Y-61259855D01*
X195263965Y-61262902D01*
X195257358Y-61273399D01*
X195162120Y-61463875D01*
X195156857Y-61477627D01*
X195155296Y-61480373D01*
X195154557Y-61483637D01*
X195153362Y-61486761D01*
X195153138Y-61489908D01*
X195149888Y-61504272D01*
X195102269Y-61885225D01*
X195102065Y-61892996D01*
X195101304Y-61900729D01*
X194160827Y-61900729D01*
X194160827Y-61234063D01*
X194158425Y-61209677D01*
X194139761Y-61164617D01*
X194105273Y-61130129D01*
X194060213Y-61111465D01*
X194035827Y-61109063D01*
X193559637Y-61109063D01*
X193535251Y-61111465D01*
X193490191Y-61130129D01*
X193455703Y-61164617D01*
X193437039Y-61209677D01*
X193394117Y-61209677D01*
X193387859Y-61182649D01*
X193359510Y-61142960D01*
X193318131Y-61117143D01*
X193270023Y-61109124D01*
X193222507Y-61120127D01*
X193182819Y-61148476D01*
X193157001Y-61189854D01*
X193150623Y-61213514D01*
X192940589Y-62473718D01*
X192730555Y-61213513D01*
X192724177Y-61189854D01*
X192698359Y-61148475D01*
X192658670Y-61120126D01*
X192611155Y-61109124D01*
X192563047Y-61117142D01*
X192521668Y-61142960D01*
X192493319Y-61182649D01*
X192482317Y-61230164D01*
X192256323Y-61230164D01*
X192171834Y-61145675D01*
X192152897Y-61130134D01*
X192152892Y-61130129D01*
X192121030Y-61116931D01*
X192107833Y-61111465D01*
X192107832Y-61111465D01*
X192083446Y-61109063D01*
X191892970Y-61109063D01*
X191868584Y-61111465D01*
X191868583Y-61111465D01*
X191855385Y-61116931D01*
X191823524Y-61130129D01*
X191823518Y-61130134D01*
X191804582Y-61145675D01*
X191709344Y-61240913D01*
X191701477Y-61250498D01*
X191698983Y-61252662D01*
X191696615Y-61256423D01*
X191693799Y-61259855D01*
X191692536Y-61262902D01*
X191685929Y-61273399D01*
X191590691Y-61463875D01*
X191585428Y-61477627D01*
X191583867Y-61480373D01*
X191583128Y-61483637D01*
X191581933Y-61486761D01*
X191581709Y-61489908D01*
X191578459Y-61504272D01*
X191530840Y-61885225D01*
X191530636Y-61892996D01*
X191529875Y-61900729D01*
X190622868Y-61900729D01*
X190730554Y-61254613D01*
X190732194Y-61230164D01*
X190721192Y-61182649D01*
X190692843Y-61142960D01*
X190651464Y-61117143D01*
X190603356Y-61109124D01*
X190555840Y-61120127D01*
X190516152Y-61148476D01*
X190490334Y-61189854D01*
X190483956Y-61213514D01*
X190273922Y-62473718D01*
X190063888Y-61213513D01*
X190057510Y-61189854D01*
X190031692Y-61148475D01*
X189992003Y-61120126D01*
X189944488Y-61109124D01*
X189896380Y-61117142D01*
X189855001Y-61142960D01*
X189826652Y-61182649D01*
X189815650Y-61230164D01*
X189499621Y-61230164D01*
X189487745Y-61194535D01*
X189477755Y-61172160D01*
X189474813Y-61168768D01*
X189473094Y-61164617D01*
X189458925Y-61150448D01*
X189445800Y-61135314D01*
X189441782Y-61133305D01*
X189438606Y-61130129D01*
X189420093Y-61122461D01*
X189402175Y-61113502D01*
X189397695Y-61113183D01*
X189393546Y-61111465D01*
X189373509Y-61111465D01*
X189353526Y-61110045D01*
X189349266Y-61111465D01*
X189344774Y-61111465D01*
X189326258Y-61119134D01*
X189307257Y-61125468D01*
X189303865Y-61128409D01*
X189299714Y-61130129D01*
X189285545Y-61144297D01*
X189270411Y-61157423D01*
X189268402Y-61161440D01*
X189265226Y-61164617D01*
X189257558Y-61183129D01*
X189248599Y-61201048D01*
X189248280Y-61205527D01*
X189246562Y-61209677D01*
X189244160Y-61234063D01*
X189244160Y-63109063D01*
X189083446Y-63109063D01*
X189059060Y-63111465D01*
X189014000Y-63130129D01*
X188979512Y-63164617D01*
X188960848Y-63209677D01*
X188806821Y-63209677D01*
X188814296Y-63194727D01*
X188823054Y-63171841D01*
X188823687Y-63162930D01*
X188826511Y-63154459D01*
X188825400Y-63138825D01*
X188826511Y-63123192D01*
X188823687Y-63114720D01*
X188823054Y-63105809D01*
X188814297Y-63082924D01*
X188766678Y-62987685D01*
X188764110Y-62983605D01*
X188763469Y-62981682D01*
X188761391Y-62979286D01*
X188760070Y-62977188D01*
X188758808Y-62974140D01*
X188757036Y-62972368D01*
X188753624Y-62966947D01*
X188741776Y-62956671D01*
X188731512Y-62944837D01*
X188727497Y-62942829D01*
X188724320Y-62939652D01*
X188720172Y-62937933D01*
X188716779Y-62934991D01*
X188701903Y-62930032D01*
X188687889Y-62923025D01*
X188683409Y-62922706D01*
X188679260Y-62920988D01*
X188674771Y-62920988D01*
X188670508Y-62919567D01*
X188654869Y-62920678D01*
X188639240Y-62919568D01*
X188634980Y-62920988D01*
X188630488Y-62920988D01*
X188626338Y-62922706D01*
X188621859Y-62923025D01*
X188607839Y-62930034D01*
X188592969Y-62934991D01*
X188589575Y-62937933D01*
X188585428Y-62939652D01*
X188582252Y-62942827D01*
X188578235Y-62944836D01*
X188567962Y-62956679D01*
X188556124Y-62966948D01*
X188552712Y-62972367D01*
X188550940Y-62974140D01*
X188549676Y-62977189D01*
X188548359Y-62979281D01*
X188546279Y-62981681D01*
X188545636Y-62983607D01*
X188543070Y-62987685D01*
X188495451Y-63082924D01*
X188486694Y-63105810D01*
X188486060Y-63114716D01*
X188483236Y-63123191D01*
X188231017Y-63123191D01*
X188242869Y-63099487D01*
X188243552Y-63097700D01*
X188244088Y-63096978D01*
X188247739Y-63086759D01*
X188251626Y-63076602D01*
X188251689Y-63075702D01*
X188252333Y-63073903D01*
X188299952Y-62883427D01*
X188301054Y-62875969D01*
X188302719Y-62868614D01*
X188350338Y-62487662D01*
X188350541Y-62479890D01*
X188351303Y-62472158D01*
X188351303Y-61995967D01*
X188350541Y-61988234D01*
X188350338Y-61980463D01*
X188302719Y-61599511D01*
X188301054Y-61592155D01*
X188299952Y-61584698D01*
X188252333Y-61394222D01*
X188251689Y-61392422D01*
X188251626Y-61391523D01*
X188247743Y-61381376D01*
X188244088Y-61371147D01*
X188243551Y-61370422D01*
X188242868Y-61368637D01*
X188195249Y-61273399D01*
X188188641Y-61262902D01*
X188187379Y-61259855D01*
X188184562Y-61256423D01*
X188182195Y-61252662D01*
X188179700Y-61250498D01*
X188171834Y-61240913D01*
X188076596Y-61145675D01*
X188057659Y-61130134D01*
X188057654Y-61130129D01*
X188025792Y-61116931D01*
X188012595Y-61111465D01*
X188012594Y-61111465D01*
X187988208Y-61109063D01*
X187892970Y-61109063D01*
X187868584Y-61111465D01*
X187868583Y-61111465D01*
X187855385Y-61116931D01*
X187823524Y-61130129D01*
X187823518Y-61130134D01*
X187804582Y-61145675D01*
X187709344Y-61240913D01*
X187701477Y-61250498D01*
X187698983Y-61252662D01*
X187696614Y-61256423D01*
X187693799Y-61259855D01*
X187692537Y-61262901D01*
X187685928Y-61273400D01*
X187638310Y-61368637D01*
X187637626Y-61370422D01*
X187637090Y-61371147D01*
X187633434Y-61381376D01*
X187629552Y-61391523D01*
X187629488Y-61392422D01*
X187628845Y-61394222D01*
X187581226Y-61584698D01*
X187580123Y-61592152D01*
X187578459Y-61599510D01*
X187530840Y-61980463D01*
X187530636Y-61988234D01*
X187529875Y-61995967D01*
X187307653Y-61995967D01*
X187307653Y-60886841D01*
X207573526Y-60886841D01*
X207573526Y-63771761D01*
G37*
D11*
X200710479Y-68338819D02*
X201210479Y-68338819D01*
X201210479Y-69386438D02*
X201210479Y-67386438D01*
X201210479Y-67386438D02*
X200496193Y-67386438D01*
X199924765Y-69386438D02*
X199924765Y-68053104D01*
X199924765Y-68434057D02*
X199853336Y-68243580D01*
X199853336Y-68243580D02*
X199781908Y-68148342D01*
X199781908Y-68148342D02*
X199639050Y-68053104D01*
X199639050Y-68053104D02*
X199496193Y-68053104D01*
X198781908Y-69386438D02*
X198924765Y-69291200D01*
X198924765Y-69291200D02*
X198996194Y-69195961D01*
X198996194Y-69195961D02*
X199067622Y-69005485D01*
X199067622Y-69005485D02*
X199067622Y-68434057D01*
X199067622Y-68434057D02*
X198996194Y-68243580D01*
X198996194Y-68243580D02*
X198924765Y-68148342D01*
X198924765Y-68148342D02*
X198781908Y-68053104D01*
X198781908Y-68053104D02*
X198567622Y-68053104D01*
X198567622Y-68053104D02*
X198424765Y-68148342D01*
X198424765Y-68148342D02*
X198353337Y-68243580D01*
X198353337Y-68243580D02*
X198281908Y-68434057D01*
X198281908Y-68434057D02*
X198281908Y-69005485D01*
X198281908Y-69005485D02*
X198353337Y-69195961D01*
X198353337Y-69195961D02*
X198424765Y-69291200D01*
X198424765Y-69291200D02*
X198567622Y-69386438D01*
X198567622Y-69386438D02*
X198781908Y-69386438D01*
X197639051Y-68053104D02*
X197639051Y-69386438D01*
X197639051Y-68243580D02*
X197567622Y-68148342D01*
X197567622Y-68148342D02*
X197424765Y-68053104D01*
X197424765Y-68053104D02*
X197210479Y-68053104D01*
X197210479Y-68053104D02*
X197067622Y-68148342D01*
X197067622Y-68148342D02*
X196996194Y-68338819D01*
X196996194Y-68338819D02*
X196996194Y-69386438D01*
X196496193Y-68053104D02*
X195924765Y-68053104D01*
X196281908Y-67386438D02*
X196281908Y-69100723D01*
X196281908Y-69100723D02*
X196210479Y-69291200D01*
X196210479Y-69291200D02*
X196067622Y-69386438D01*
X196067622Y-69386438D02*
X195924765Y-69386438D01*
X194281908Y-69386438D02*
X194281908Y-67386438D01*
X194281908Y-67386438D02*
X193710479Y-67386438D01*
X193710479Y-67386438D02*
X193567622Y-67481676D01*
X193567622Y-67481676D02*
X193496193Y-67576914D01*
X193496193Y-67576914D02*
X193424765Y-67767390D01*
X193424765Y-67767390D02*
X193424765Y-68053104D01*
X193424765Y-68053104D02*
X193496193Y-68243580D01*
X193496193Y-68243580D02*
X193567622Y-68338819D01*
X193567622Y-68338819D02*
X193710479Y-68434057D01*
X193710479Y-68434057D02*
X194281908Y-68434057D01*
X192139051Y-69386438D02*
X192139051Y-68338819D01*
X192139051Y-68338819D02*
X192210479Y-68148342D01*
X192210479Y-68148342D02*
X192353336Y-68053104D01*
X192353336Y-68053104D02*
X192639051Y-68053104D01*
X192639051Y-68053104D02*
X192781908Y-68148342D01*
X192139051Y-69291200D02*
X192281908Y-69386438D01*
X192281908Y-69386438D02*
X192639051Y-69386438D01*
X192639051Y-69386438D02*
X192781908Y-69291200D01*
X192781908Y-69291200D02*
X192853336Y-69100723D01*
X192853336Y-69100723D02*
X192853336Y-68910247D01*
X192853336Y-68910247D02*
X192781908Y-68719771D01*
X192781908Y-68719771D02*
X192639051Y-68624533D01*
X192639051Y-68624533D02*
X192281908Y-68624533D01*
X192281908Y-68624533D02*
X192139051Y-68529295D01*
X191424765Y-68053104D02*
X191424765Y-69386438D01*
X191424765Y-68243580D02*
X191353336Y-68148342D01*
X191353336Y-68148342D02*
X191210479Y-68053104D01*
X191210479Y-68053104D02*
X190996193Y-68053104D01*
X190996193Y-68053104D02*
X190853336Y-68148342D01*
X190853336Y-68148342D02*
X190781908Y-68338819D01*
X190781908Y-68338819D02*
X190781908Y-69386438D01*
X190067622Y-68053104D02*
X190067622Y-69386438D01*
X190067622Y-68243580D02*
X189996193Y-68148342D01*
X189996193Y-68148342D02*
X189853336Y-68053104D01*
X189853336Y-68053104D02*
X189639050Y-68053104D01*
X189639050Y-68053104D02*
X189496193Y-68148342D01*
X189496193Y-68148342D02*
X189424765Y-68338819D01*
X189424765Y-68338819D02*
X189424765Y-69386438D01*
X188139050Y-69291200D02*
X188281907Y-69386438D01*
X188281907Y-69386438D02*
X188567622Y-69386438D01*
X188567622Y-69386438D02*
X188710479Y-69291200D01*
X188710479Y-69291200D02*
X188781907Y-69100723D01*
X188781907Y-69100723D02*
X188781907Y-68338819D01*
X188781907Y-68338819D02*
X188710479Y-68148342D01*
X188710479Y-68148342D02*
X188567622Y-68053104D01*
X188567622Y-68053104D02*
X188281907Y-68053104D01*
X188281907Y-68053104D02*
X188139050Y-68148342D01*
X188139050Y-68148342D02*
X188067622Y-68338819D01*
X188067622Y-68338819D02*
X188067622Y-68529295D01*
X188067622Y-68529295D02*
X188781907Y-68719771D01*
X187210479Y-69386438D02*
X187353336Y-69291200D01*
X187353336Y-69291200D02*
X187424765Y-69100723D01*
X187424765Y-69100723D02*
X187424765Y-67386438D01*
D12*
X192892057Y-65983042D02*
X193406343Y-65983042D01*
X193149200Y-65983042D02*
X193149200Y-64783042D01*
X193149200Y-64783042D02*
X193234914Y-64954471D01*
X193234914Y-64954471D02*
X193320629Y-65068757D01*
X193320629Y-65068757D02*
X193406343Y-65125900D01*
X192549200Y-64897328D02*
X192506343Y-64840185D01*
X192506343Y-64840185D02*
X192420629Y-64783042D01*
X192420629Y-64783042D02*
X192206343Y-64783042D01*
X192206343Y-64783042D02*
X192120629Y-64840185D01*
X192120629Y-64840185D02*
X192077771Y-64897328D01*
X192077771Y-64897328D02*
X192034914Y-65011614D01*
X192034914Y-65011614D02*
X192034914Y-65125900D01*
X192034914Y-65125900D02*
X192077771Y-65297328D01*
X192077771Y-65297328D02*
X192592057Y-65983042D01*
X192592057Y-65983042D02*
X192034914Y-65983042D01*
X191649200Y-65525900D02*
X190963486Y-65525900D01*
X190577771Y-64897328D02*
X190534914Y-64840185D01*
X190534914Y-64840185D02*
X190449200Y-64783042D01*
X190449200Y-64783042D02*
X190234914Y-64783042D01*
X190234914Y-64783042D02*
X190149200Y-64840185D01*
X190149200Y-64840185D02*
X190106342Y-64897328D01*
X190106342Y-64897328D02*
X190063485Y-65011614D01*
X190063485Y-65011614D02*
X190063485Y-65125900D01*
X190063485Y-65125900D02*
X190106342Y-65297328D01*
X190106342Y-65297328D02*
X190620628Y-65983042D01*
X190620628Y-65983042D02*
X190063485Y-65983042D01*
X189506342Y-64783042D02*
X189420628Y-64783042D01*
X189420628Y-64783042D02*
X189334914Y-64840185D01*
X189334914Y-64840185D02*
X189292057Y-64897328D01*
X189292057Y-64897328D02*
X189249199Y-65011614D01*
X189249199Y-65011614D02*
X189206342Y-65240185D01*
X189206342Y-65240185D02*
X189206342Y-65525900D01*
X189206342Y-65525900D02*
X189249199Y-65754471D01*
X189249199Y-65754471D02*
X189292057Y-65868757D01*
X189292057Y-65868757D02*
X189334914Y-65925900D01*
X189334914Y-65925900D02*
X189420628Y-65983042D01*
X189420628Y-65983042D02*
X189506342Y-65983042D01*
X189506342Y-65983042D02*
X189592057Y-65925900D01*
X189592057Y-65925900D02*
X189634914Y-65868757D01*
X189634914Y-65868757D02*
X189677771Y-65754471D01*
X189677771Y-65754471D02*
X189720628Y-65525900D01*
X189720628Y-65525900D02*
X189720628Y-65240185D01*
X189720628Y-65240185D02*
X189677771Y-65011614D01*
X189677771Y-65011614D02*
X189634914Y-64897328D01*
X189634914Y-64897328D02*
X189592057Y-64840185D01*
X189592057Y-64840185D02*
X189506342Y-64783042D01*
X188863485Y-64897328D02*
X188820628Y-64840185D01*
X188820628Y-64840185D02*
X188734914Y-64783042D01*
X188734914Y-64783042D02*
X188520628Y-64783042D01*
X188520628Y-64783042D02*
X188434914Y-64840185D01*
X188434914Y-64840185D02*
X188392056Y-64897328D01*
X188392056Y-64897328D02*
X188349199Y-65011614D01*
X188349199Y-65011614D02*
X188349199Y-65125900D01*
X188349199Y-65125900D02*
X188392056Y-65297328D01*
X188392056Y-65297328D02*
X188906342Y-65983042D01*
X188906342Y-65983042D02*
X188349199Y-65983042D01*
X187534913Y-64783042D02*
X187963485Y-64783042D01*
X187963485Y-64783042D02*
X188006342Y-65354471D01*
X188006342Y-65354471D02*
X187963485Y-65297328D01*
X187963485Y-65297328D02*
X187877771Y-65240185D01*
X187877771Y-65240185D02*
X187663485Y-65240185D01*
X187663485Y-65240185D02*
X187577771Y-65297328D01*
X187577771Y-65297328D02*
X187534913Y-65354471D01*
X187534913Y-65354471D02*
X187492056Y-65468757D01*
X187492056Y-65468757D02*
X187492056Y-65754471D01*
X187492056Y-65754471D02*
X187534913Y-65868757D01*
X187534913Y-65868757D02*
X187577771Y-65925900D01*
X187577771Y-65925900D02*
X187663485Y-65983042D01*
X187663485Y-65983042D02*
X187877771Y-65983042D01*
X187877771Y-65983042D02*
X187963485Y-65925900D01*
X187963485Y-65925900D02*
X188006342Y-65868757D01*
D13*
X189843419Y-85432342D02*
X189843419Y-84956152D01*
X189843419Y-84956152D02*
X188843419Y-84956152D01*
X189319609Y-85765676D02*
X189319609Y-86099009D01*
X189843419Y-86241866D02*
X189843419Y-85765676D01*
X189843419Y-85765676D02*
X188843419Y-85765676D01*
X188843419Y-85765676D02*
X188843419Y-86241866D01*
X189843419Y-86670438D02*
X188843419Y-86670438D01*
X188843419Y-86670438D02*
X188843419Y-86908533D01*
X188843419Y-86908533D02*
X188891038Y-87051390D01*
X188891038Y-87051390D02*
X188986276Y-87146628D01*
X188986276Y-87146628D02*
X189081514Y-87194247D01*
X189081514Y-87194247D02*
X189271990Y-87241866D01*
X189271990Y-87241866D02*
X189414847Y-87241866D01*
X189414847Y-87241866D02*
X189605323Y-87194247D01*
X189605323Y-87194247D02*
X189700561Y-87146628D01*
X189700561Y-87146628D02*
X189795800Y-87051390D01*
X189795800Y-87051390D02*
X189843419Y-86908533D01*
X189843419Y-86908533D02*
X189843419Y-86670438D01*
X189988010Y-118352219D02*
X189654677Y-119352219D01*
X189654677Y-119352219D02*
X189321344Y-118352219D01*
X188654677Y-118828409D02*
X188988010Y-118828409D01*
X188988010Y-119352219D02*
X188988010Y-118352219D01*
X188988010Y-118352219D02*
X188511820Y-118352219D01*
X187940391Y-118352219D02*
X187749915Y-118352219D01*
X187749915Y-118352219D02*
X187654677Y-118399838D01*
X187654677Y-118399838D02*
X187559439Y-118495076D01*
X187559439Y-118495076D02*
X187511820Y-118685552D01*
X187511820Y-118685552D02*
X187511820Y-119018885D01*
X187511820Y-119018885D02*
X187559439Y-119209361D01*
X187559439Y-119209361D02*
X187654677Y-119304600D01*
X187654677Y-119304600D02*
X187749915Y-119352219D01*
X187749915Y-119352219D02*
X187940391Y-119352219D01*
X187940391Y-119352219D02*
X188035629Y-119304600D01*
X188035629Y-119304600D02*
X188130867Y-119209361D01*
X188130867Y-119209361D02*
X188178486Y-119018885D01*
X188178486Y-119018885D02*
X188178486Y-118685552D01*
X188178486Y-118685552D02*
X188130867Y-118495076D01*
X188130867Y-118495076D02*
X188035629Y-118399838D01*
X188035629Y-118399838D02*
X187940391Y-118352219D01*
X187321344Y-119447457D02*
X186559439Y-119447457D01*
X185988010Y-118828409D02*
X186321343Y-118828409D01*
X186321343Y-119352219D02*
X186321343Y-118352219D01*
X186321343Y-118352219D02*
X185845153Y-118352219D01*
X185464200Y-119352219D02*
X185464200Y-118685552D01*
X185464200Y-118876028D02*
X185416581Y-118780790D01*
X185416581Y-118780790D02*
X185368962Y-118733171D01*
X185368962Y-118733171D02*
X185273724Y-118685552D01*
X185273724Y-118685552D02*
X185178486Y-118685552D01*
X184702295Y-119352219D02*
X184797533Y-119304600D01*
X184797533Y-119304600D02*
X184845152Y-119256980D01*
X184845152Y-119256980D02*
X184892771Y-119161742D01*
X184892771Y-119161742D02*
X184892771Y-118876028D01*
X184892771Y-118876028D02*
X184845152Y-118780790D01*
X184845152Y-118780790D02*
X184797533Y-118733171D01*
X184797533Y-118733171D02*
X184702295Y-118685552D01*
X184702295Y-118685552D02*
X184559438Y-118685552D01*
X184559438Y-118685552D02*
X184464200Y-118733171D01*
X184464200Y-118733171D02*
X184416581Y-118780790D01*
X184416581Y-118780790D02*
X184368962Y-118876028D01*
X184368962Y-118876028D02*
X184368962Y-119161742D01*
X184368962Y-119161742D02*
X184416581Y-119256980D01*
X184416581Y-119256980D02*
X184464200Y-119304600D01*
X184464200Y-119304600D02*
X184559438Y-119352219D01*
X184559438Y-119352219D02*
X184702295Y-119352219D01*
X183940390Y-118685552D02*
X183940390Y-119352219D01*
X183940390Y-118780790D02*
X183892771Y-118733171D01*
X183892771Y-118733171D02*
X183797533Y-118685552D01*
X183797533Y-118685552D02*
X183654676Y-118685552D01*
X183654676Y-118685552D02*
X183559438Y-118733171D01*
X183559438Y-118733171D02*
X183511819Y-118828409D01*
X183511819Y-118828409D02*
X183511819Y-119352219D01*
X183178485Y-118685552D02*
X182797533Y-118685552D01*
X183035628Y-118352219D02*
X183035628Y-119209361D01*
X183035628Y-119209361D02*
X182988009Y-119304600D01*
X182988009Y-119304600D02*
X182892771Y-119352219D01*
X182892771Y-119352219D02*
X182797533Y-119352219D01*
X182702295Y-119447457D02*
X181940390Y-119447457D01*
X181702294Y-119352219D02*
X181702294Y-118352219D01*
X181702294Y-118352219D02*
X181321342Y-118352219D01*
X181321342Y-118352219D02*
X181226104Y-118399838D01*
X181226104Y-118399838D02*
X181178485Y-118447457D01*
X181178485Y-118447457D02*
X181130866Y-118542695D01*
X181130866Y-118542695D02*
X181130866Y-118685552D01*
X181130866Y-118685552D02*
X181178485Y-118780790D01*
X181178485Y-118780790D02*
X181226104Y-118828409D01*
X181226104Y-118828409D02*
X181321342Y-118876028D01*
X181321342Y-118876028D02*
X181702294Y-118876028D01*
X180273723Y-119352219D02*
X180273723Y-118828409D01*
X180273723Y-118828409D02*
X180321342Y-118733171D01*
X180321342Y-118733171D02*
X180416580Y-118685552D01*
X180416580Y-118685552D02*
X180607056Y-118685552D01*
X180607056Y-118685552D02*
X180702294Y-118733171D01*
X180273723Y-119304600D02*
X180368961Y-119352219D01*
X180368961Y-119352219D02*
X180607056Y-119352219D01*
X180607056Y-119352219D02*
X180702294Y-119304600D01*
X180702294Y-119304600D02*
X180749913Y-119209361D01*
X180749913Y-119209361D02*
X180749913Y-119114123D01*
X180749913Y-119114123D02*
X180702294Y-119018885D01*
X180702294Y-119018885D02*
X180607056Y-118971266D01*
X180607056Y-118971266D02*
X180368961Y-118971266D01*
X180368961Y-118971266D02*
X180273723Y-118923647D01*
X179797532Y-118685552D02*
X179797532Y-119352219D01*
X179797532Y-118780790D02*
X179749913Y-118733171D01*
X179749913Y-118733171D02*
X179654675Y-118685552D01*
X179654675Y-118685552D02*
X179511818Y-118685552D01*
X179511818Y-118685552D02*
X179416580Y-118733171D01*
X179416580Y-118733171D02*
X179368961Y-118828409D01*
X179368961Y-118828409D02*
X179368961Y-119352219D01*
X178892770Y-118685552D02*
X178892770Y-119352219D01*
X178892770Y-118780790D02*
X178845151Y-118733171D01*
X178845151Y-118733171D02*
X178749913Y-118685552D01*
X178749913Y-118685552D02*
X178607056Y-118685552D01*
X178607056Y-118685552D02*
X178511818Y-118733171D01*
X178511818Y-118733171D02*
X178464199Y-118828409D01*
X178464199Y-118828409D02*
X178464199Y-119352219D01*
X177607056Y-119304600D02*
X177702294Y-119352219D01*
X177702294Y-119352219D02*
X177892770Y-119352219D01*
X177892770Y-119352219D02*
X177988008Y-119304600D01*
X177988008Y-119304600D02*
X178035627Y-119209361D01*
X178035627Y-119209361D02*
X178035627Y-118828409D01*
X178035627Y-118828409D02*
X177988008Y-118733171D01*
X177988008Y-118733171D02*
X177892770Y-118685552D01*
X177892770Y-118685552D02*
X177702294Y-118685552D01*
X177702294Y-118685552D02*
X177607056Y-118733171D01*
X177607056Y-118733171D02*
X177559437Y-118828409D01*
X177559437Y-118828409D02*
X177559437Y-118923647D01*
X177559437Y-118923647D02*
X178035627Y-119018885D01*
X176988008Y-119352219D02*
X177083246Y-119304600D01*
X177083246Y-119304600D02*
X177130865Y-119209361D01*
X177130865Y-119209361D02*
X177130865Y-118352219D01*
X201537219Y-78179065D02*
X201537219Y-78369541D01*
X201537219Y-78369541D02*
X201584838Y-78464779D01*
X201584838Y-78464779D02*
X201680076Y-78560017D01*
X201680076Y-78560017D02*
X201870552Y-78607636D01*
X201870552Y-78607636D02*
X202203885Y-78607636D01*
X202203885Y-78607636D02*
X202394361Y-78560017D01*
X202394361Y-78560017D02*
X202489600Y-78464779D01*
X202489600Y-78464779D02*
X202537219Y-78369541D01*
X202537219Y-78369541D02*
X202537219Y-78179065D01*
X202537219Y-78179065D02*
X202489600Y-78083827D01*
X202489600Y-78083827D02*
X202394361Y-77988589D01*
X202394361Y-77988589D02*
X202203885Y-77940970D01*
X202203885Y-77940970D02*
X201870552Y-77940970D01*
X201870552Y-77940970D02*
X201680076Y-77988589D01*
X201680076Y-77988589D02*
X201584838Y-78083827D01*
X201584838Y-78083827D02*
X201537219Y-78179065D01*
X201870552Y-79036208D02*
X202870552Y-79036208D01*
X201918171Y-79036208D02*
X201870552Y-79131446D01*
X201870552Y-79131446D02*
X201870552Y-79321922D01*
X201870552Y-79321922D02*
X201918171Y-79417160D01*
X201918171Y-79417160D02*
X201965790Y-79464779D01*
X201965790Y-79464779D02*
X202061028Y-79512398D01*
X202061028Y-79512398D02*
X202346742Y-79512398D01*
X202346742Y-79512398D02*
X202441980Y-79464779D01*
X202441980Y-79464779D02*
X202489600Y-79417160D01*
X202489600Y-79417160D02*
X202537219Y-79321922D01*
X202537219Y-79321922D02*
X202537219Y-79131446D01*
X202537219Y-79131446D02*
X202489600Y-79036208D01*
X201870552Y-79798113D02*
X201870552Y-80179065D01*
X201537219Y-79940970D02*
X202394361Y-79940970D01*
X202394361Y-79940970D02*
X202489600Y-79988589D01*
X202489600Y-79988589D02*
X202537219Y-80083827D01*
X202537219Y-80083827D02*
X202537219Y-80179065D01*
X202537219Y-80512399D02*
X201870552Y-80512399D01*
X201537219Y-80512399D02*
X201584838Y-80464780D01*
X201584838Y-80464780D02*
X201632457Y-80512399D01*
X201632457Y-80512399D02*
X201584838Y-80560018D01*
X201584838Y-80560018D02*
X201537219Y-80512399D01*
X201537219Y-80512399D02*
X201632457Y-80512399D01*
X202489600Y-81417160D02*
X202537219Y-81321922D01*
X202537219Y-81321922D02*
X202537219Y-81131446D01*
X202537219Y-81131446D02*
X202489600Y-81036208D01*
X202489600Y-81036208D02*
X202441980Y-80988589D01*
X202441980Y-80988589D02*
X202346742Y-80940970D01*
X202346742Y-80940970D02*
X202061028Y-80940970D01*
X202061028Y-80940970D02*
X201965790Y-80988589D01*
X201965790Y-80988589D02*
X201918171Y-81036208D01*
X201918171Y-81036208D02*
X201870552Y-81131446D01*
X201870552Y-81131446D02*
X201870552Y-81321922D01*
X201870552Y-81321922D02*
X201918171Y-81417160D01*
X202537219Y-82274303D02*
X202013409Y-82274303D01*
X202013409Y-82274303D02*
X201918171Y-82226684D01*
X201918171Y-82226684D02*
X201870552Y-82131446D01*
X201870552Y-82131446D02*
X201870552Y-81940970D01*
X201870552Y-81940970D02*
X201918171Y-81845732D01*
X202489600Y-82274303D02*
X202537219Y-82179065D01*
X202537219Y-82179065D02*
X202537219Y-81940970D01*
X202537219Y-81940970D02*
X202489600Y-81845732D01*
X202489600Y-81845732D02*
X202394361Y-81798113D01*
X202394361Y-81798113D02*
X202299123Y-81798113D01*
X202299123Y-81798113D02*
X202203885Y-81845732D01*
X202203885Y-81845732D02*
X202156266Y-81940970D01*
X202156266Y-81940970D02*
X202156266Y-82179065D01*
X202156266Y-82179065D02*
X202108647Y-82274303D01*
X202537219Y-82893351D02*
X202489600Y-82798113D01*
X202489600Y-82798113D02*
X202394361Y-82750494D01*
X202394361Y-82750494D02*
X201537219Y-82750494D01*
X202537219Y-84607637D02*
X202061028Y-84274304D01*
X202537219Y-84036209D02*
X201537219Y-84036209D01*
X201537219Y-84036209D02*
X201537219Y-84417161D01*
X201537219Y-84417161D02*
X201584838Y-84512399D01*
X201584838Y-84512399D02*
X201632457Y-84560018D01*
X201632457Y-84560018D02*
X201727695Y-84607637D01*
X201727695Y-84607637D02*
X201870552Y-84607637D01*
X201870552Y-84607637D02*
X201965790Y-84560018D01*
X201965790Y-84560018D02*
X202013409Y-84512399D01*
X202013409Y-84512399D02*
X202061028Y-84417161D01*
X202061028Y-84417161D02*
X202061028Y-84036209D01*
X202537219Y-85179066D02*
X202489600Y-85083828D01*
X202489600Y-85083828D02*
X202441980Y-85036209D01*
X202441980Y-85036209D02*
X202346742Y-84988590D01*
X202346742Y-84988590D02*
X202061028Y-84988590D01*
X202061028Y-84988590D02*
X201965790Y-85036209D01*
X201965790Y-85036209D02*
X201918171Y-85083828D01*
X201918171Y-85083828D02*
X201870552Y-85179066D01*
X201870552Y-85179066D02*
X201870552Y-85321923D01*
X201870552Y-85321923D02*
X201918171Y-85417161D01*
X201918171Y-85417161D02*
X201965790Y-85464780D01*
X201965790Y-85464780D02*
X202061028Y-85512399D01*
X202061028Y-85512399D02*
X202346742Y-85512399D01*
X202346742Y-85512399D02*
X202441980Y-85464780D01*
X202441980Y-85464780D02*
X202489600Y-85417161D01*
X202489600Y-85417161D02*
X202537219Y-85321923D01*
X202537219Y-85321923D02*
X202537219Y-85179066D01*
X201870552Y-85798114D02*
X201870552Y-86179066D01*
X201537219Y-85940971D02*
X202394361Y-85940971D01*
X202394361Y-85940971D02*
X202489600Y-85988590D01*
X202489600Y-85988590D02*
X202537219Y-86083828D01*
X202537219Y-86083828D02*
X202537219Y-86179066D01*
X202537219Y-86940971D02*
X202013409Y-86940971D01*
X202013409Y-86940971D02*
X201918171Y-86893352D01*
X201918171Y-86893352D02*
X201870552Y-86798114D01*
X201870552Y-86798114D02*
X201870552Y-86607638D01*
X201870552Y-86607638D02*
X201918171Y-86512400D01*
X202489600Y-86940971D02*
X202537219Y-86845733D01*
X202537219Y-86845733D02*
X202537219Y-86607638D01*
X202537219Y-86607638D02*
X202489600Y-86512400D01*
X202489600Y-86512400D02*
X202394361Y-86464781D01*
X202394361Y-86464781D02*
X202299123Y-86464781D01*
X202299123Y-86464781D02*
X202203885Y-86512400D01*
X202203885Y-86512400D02*
X202156266Y-86607638D01*
X202156266Y-86607638D02*
X202156266Y-86845733D01*
X202156266Y-86845733D02*
X202108647Y-86940971D01*
X202537219Y-87417162D02*
X201870552Y-87417162D01*
X202061028Y-87417162D02*
X201965790Y-87464781D01*
X201965790Y-87464781D02*
X201918171Y-87512400D01*
X201918171Y-87512400D02*
X201870552Y-87607638D01*
X201870552Y-87607638D02*
X201870552Y-87702876D01*
X201870552Y-87940972D02*
X202537219Y-88179067D01*
X201870552Y-88417162D02*
X202537219Y-88179067D01*
X202537219Y-88179067D02*
X202775314Y-88083829D01*
X202775314Y-88083829D02*
X202822933Y-88036210D01*
X202822933Y-88036210D02*
X202870552Y-87940972D01*
X202013409Y-89560020D02*
X202013409Y-89893353D01*
X202537219Y-90036210D02*
X202537219Y-89560020D01*
X202537219Y-89560020D02*
X201537219Y-89560020D01*
X201537219Y-89560020D02*
X201537219Y-90036210D01*
X201870552Y-90464782D02*
X202537219Y-90464782D01*
X201965790Y-90464782D02*
X201918171Y-90512401D01*
X201918171Y-90512401D02*
X201870552Y-90607639D01*
X201870552Y-90607639D02*
X201870552Y-90750496D01*
X201870552Y-90750496D02*
X201918171Y-90845734D01*
X201918171Y-90845734D02*
X202013409Y-90893353D01*
X202013409Y-90893353D02*
X202537219Y-90893353D01*
X202489600Y-91798115D02*
X202537219Y-91702877D01*
X202537219Y-91702877D02*
X202537219Y-91512401D01*
X202537219Y-91512401D02*
X202489600Y-91417163D01*
X202489600Y-91417163D02*
X202441980Y-91369544D01*
X202441980Y-91369544D02*
X202346742Y-91321925D01*
X202346742Y-91321925D02*
X202061028Y-91321925D01*
X202061028Y-91321925D02*
X201965790Y-91369544D01*
X201965790Y-91369544D02*
X201918171Y-91417163D01*
X201918171Y-91417163D02*
X201870552Y-91512401D01*
X201870552Y-91512401D02*
X201870552Y-91702877D01*
X201870552Y-91702877D02*
X201918171Y-91798115D01*
X202537219Y-92369544D02*
X202489600Y-92274306D01*
X202489600Y-92274306D02*
X202441980Y-92226687D01*
X202441980Y-92226687D02*
X202346742Y-92179068D01*
X202346742Y-92179068D02*
X202061028Y-92179068D01*
X202061028Y-92179068D02*
X201965790Y-92226687D01*
X201965790Y-92226687D02*
X201918171Y-92274306D01*
X201918171Y-92274306D02*
X201870552Y-92369544D01*
X201870552Y-92369544D02*
X201870552Y-92512401D01*
X201870552Y-92512401D02*
X201918171Y-92607639D01*
X201918171Y-92607639D02*
X201965790Y-92655258D01*
X201965790Y-92655258D02*
X202061028Y-92702877D01*
X202061028Y-92702877D02*
X202346742Y-92702877D01*
X202346742Y-92702877D02*
X202441980Y-92655258D01*
X202441980Y-92655258D02*
X202489600Y-92607639D01*
X202489600Y-92607639D02*
X202537219Y-92512401D01*
X202537219Y-92512401D02*
X202537219Y-92369544D01*
X202537219Y-93560020D02*
X201537219Y-93560020D01*
X202489600Y-93560020D02*
X202537219Y-93464782D01*
X202537219Y-93464782D02*
X202537219Y-93274306D01*
X202537219Y-93274306D02*
X202489600Y-93179068D01*
X202489600Y-93179068D02*
X202441980Y-93131449D01*
X202441980Y-93131449D02*
X202346742Y-93083830D01*
X202346742Y-93083830D02*
X202061028Y-93083830D01*
X202061028Y-93083830D02*
X201965790Y-93131449D01*
X201965790Y-93131449D02*
X201918171Y-93179068D01*
X201918171Y-93179068D02*
X201870552Y-93274306D01*
X201870552Y-93274306D02*
X201870552Y-93464782D01*
X201870552Y-93464782D02*
X201918171Y-93560020D01*
X202489600Y-94417163D02*
X202537219Y-94321925D01*
X202537219Y-94321925D02*
X202537219Y-94131449D01*
X202537219Y-94131449D02*
X202489600Y-94036211D01*
X202489600Y-94036211D02*
X202394361Y-93988592D01*
X202394361Y-93988592D02*
X202013409Y-93988592D01*
X202013409Y-93988592D02*
X201918171Y-94036211D01*
X201918171Y-94036211D02*
X201870552Y-94131449D01*
X201870552Y-94131449D02*
X201870552Y-94321925D01*
X201870552Y-94321925D02*
X201918171Y-94417163D01*
X201918171Y-94417163D02*
X202013409Y-94464782D01*
X202013409Y-94464782D02*
X202108647Y-94464782D01*
X202108647Y-94464782D02*
X202203885Y-93988592D01*
X202537219Y-94893354D02*
X201870552Y-94893354D01*
X202061028Y-94893354D02*
X201965790Y-94940973D01*
X201965790Y-94940973D02*
X201918171Y-94988592D01*
X201918171Y-94988592D02*
X201870552Y-95083830D01*
X201870552Y-95083830D02*
X201870552Y-95179068D01*
D14*
%TO.C,J1*%
X190785600Y-90235200D02*
X190785600Y-87735200D01*
X191085600Y-82215200D02*
X195105600Y-82215200D01*
X191085600Y-89935200D02*
X191085600Y-82215200D01*
X192585600Y-82215200D02*
X192585600Y-83215200D01*
X192585600Y-83215200D02*
X191085600Y-83215200D01*
X192585600Y-88935200D02*
X191085600Y-88935200D01*
X192585600Y-89935200D02*
X192585600Y-88935200D01*
X193285600Y-90235200D02*
X190785600Y-90235200D01*
X193395600Y-82715200D02*
X193395600Y-82215200D01*
X193395600Y-89435200D02*
X194605600Y-89435200D01*
X193395600Y-89935200D02*
X193395600Y-89435200D01*
X194605600Y-82715200D02*
X193395600Y-82715200D01*
X194605600Y-89435200D02*
X194605600Y-82715200D01*
X195105600Y-82215200D02*
X195105600Y-89935200D01*
X195105600Y-89935200D02*
X191085600Y-89935200D01*
%TO.C,J4*%
X155432600Y-123377000D02*
X155432600Y-120717000D01*
X203752600Y-120717000D02*
X155432600Y-120717000D01*
X203752600Y-123377000D02*
X155432600Y-123377000D01*
X203752600Y-123377000D02*
X203752600Y-120717000D01*
X205022600Y-123377000D02*
X206352600Y-123377000D01*
X206352600Y-123377000D02*
X206352600Y-122047000D01*
%TO.C,J2*%
X196570600Y-92851400D02*
X196570600Y-90351400D01*
X196870600Y-79831400D02*
X200890600Y-79831400D01*
X196870600Y-92551400D02*
X196870600Y-79831400D01*
X198370600Y-79831400D02*
X198370600Y-80831400D01*
X198370600Y-80831400D02*
X196870600Y-80831400D01*
X198370600Y-91551400D02*
X196870600Y-91551400D01*
X198370600Y-92551400D02*
X198370600Y-91551400D01*
X199070600Y-92851400D02*
X196570600Y-92851400D01*
X199180600Y-80331400D02*
X199180600Y-79831400D01*
X199180600Y-92051400D02*
X200390600Y-92051400D01*
X199180600Y-92551400D02*
X199180600Y-92051400D01*
X200390600Y-80331400D02*
X199180600Y-80331400D01*
X200390600Y-92051400D02*
X200390600Y-80331400D01*
X200890600Y-79831400D02*
X200890600Y-92551400D01*
X200890600Y-92551400D02*
X196870600Y-92551400D01*
D15*
%TO.C,G\u002A\u002A\u002A*%
G36*
X212045789Y-104264747D02*
G01*
X211948814Y-104466631D01*
X211900979Y-104519168D01*
X211630263Y-104653290D01*
X211260294Y-104583176D01*
X211184654Y-104538391D01*
X211220400Y-104443189D01*
X211470059Y-104292541D01*
X211706644Y-104194241D01*
X211950818Y-104168770D01*
X212045789Y-104264747D01*
G37*
G36*
X198305463Y-103153746D02*
G01*
X198420966Y-103356431D01*
X198341165Y-103644780D01*
X198190526Y-103807949D01*
X197956718Y-103906119D01*
X197887518Y-103894421D01*
X197751863Y-103745316D01*
X197724557Y-103500982D01*
X197802437Y-103258872D01*
X197982342Y-103116438D01*
X198040558Y-103104316D01*
X198305463Y-103153746D01*
G37*
G36*
X211321250Y-102780283D02*
G01*
X211416929Y-103043843D01*
X211371969Y-103351646D01*
X211117051Y-103640045D01*
X211078186Y-103670102D01*
X210770515Y-103864526D01*
X210580059Y-103910306D01*
X210538579Y-103812160D01*
X210677839Y-103574805D01*
X210861477Y-103251770D01*
X210938450Y-102936872D01*
X210938496Y-102929155D01*
X211008174Y-102706427D01*
X211160378Y-102662307D01*
X211321250Y-102780283D01*
G37*
G36*
X211822912Y-103672708D02*
G01*
X211755064Y-103929712D01*
X211535728Y-104129878D01*
X211329517Y-104215659D01*
X211127064Y-104265998D01*
X210953488Y-104233367D01*
X210754109Y-104158238D01*
X210619946Y-104080659D01*
X210637983Y-104040699D01*
X210684023Y-104029876D01*
X210916836Y-103918690D01*
X211225033Y-103728235D01*
X211346445Y-103650259D01*
X211607490Y-103516556D01*
X211745550Y-103497707D01*
X211822912Y-103672708D01*
G37*
G36*
X209312634Y-107372037D02*
G01*
X209403992Y-107464560D01*
X209515034Y-107702553D01*
X209489833Y-108050717D01*
X209480275Y-108100399D01*
X209409723Y-108409410D01*
X209351226Y-108583580D01*
X209213630Y-108631426D01*
X209007153Y-108518586D01*
X208790213Y-108298429D01*
X208618909Y-108028208D01*
X208549341Y-107765180D01*
X208611561Y-107594903D01*
X208800827Y-107364039D01*
X208963212Y-107230535D01*
X209111239Y-107214637D01*
X209312634Y-107372037D01*
G37*
G36*
X209546825Y-101898936D02*
G01*
X210044238Y-102016998D01*
X210407055Y-102283614D01*
X210606951Y-102651051D01*
X210615606Y-103071576D01*
X210404694Y-103497455D01*
X210291543Y-103597204D01*
X210068009Y-103642924D01*
X209725526Y-103572518D01*
X209214686Y-103381157D01*
X208845771Y-103234563D01*
X208614729Y-103176943D01*
X208460554Y-103211404D01*
X208304928Y-103333877D01*
X208274235Y-103361603D01*
X208127593Y-103478875D01*
X208101477Y-103421056D01*
X208171137Y-103155068D01*
X208292722Y-102830149D01*
X208608718Y-102345180D01*
X209011970Y-102018654D01*
X209455059Y-101897033D01*
X209546825Y-101898936D01*
G37*
G36*
X197896630Y-104166143D02*
G01*
X198117221Y-104271349D01*
X198418547Y-104458062D01*
X198485356Y-104503742D01*
X198708342Y-104674286D01*
X198743177Y-104766525D01*
X198612745Y-104823518D01*
X198502629Y-104869987D01*
X198414526Y-104998096D01*
X198373978Y-105257713D01*
X198364193Y-105708632D01*
X198373801Y-106065962D01*
X198435753Y-106487527D01*
X198561788Y-106726345D01*
X198596872Y-106762269D01*
X198663801Y-106869149D01*
X198560894Y-106914508D01*
X198247432Y-106923940D01*
X197735480Y-106923940D01*
X197735480Y-105540772D01*
X197741288Y-105093474D01*
X197765405Y-104602477D01*
X197804779Y-104276055D01*
X197855639Y-104157604D01*
X197896630Y-104166143D01*
G37*
G36*
X212431117Y-106762462D02*
G01*
X212418046Y-107184792D01*
X212402945Y-107315052D01*
X212229336Y-107929190D01*
X211877705Y-108400253D01*
X211313109Y-108778643D01*
X211010198Y-108920219D01*
X210565728Y-109042027D01*
X210200364Y-108988996D01*
X209847774Y-108760296D01*
X209646192Y-108564923D01*
X209563660Y-108365006D01*
X209621787Y-108100148D01*
X209634124Y-108067333D01*
X209797636Y-107824411D01*
X210113216Y-107573554D01*
X210624217Y-107279259D01*
X210736833Y-107220668D01*
X211135843Y-107024599D01*
X211427425Y-106899349D01*
X211554962Y-106869825D01*
X211523210Y-106983197D01*
X211367300Y-107191857D01*
X211127064Y-107461315D01*
X211537132Y-107251543D01*
X211565999Y-107236371D01*
X211885091Y-107020111D01*
X212101785Y-106794242D01*
X212239567Y-106611424D01*
X212370232Y-106569620D01*
X212431117Y-106762462D01*
G37*
G36*
X206959730Y-104286372D02*
G01*
X207476955Y-104427389D01*
X207882048Y-104740066D01*
X208151139Y-105170416D01*
X208260356Y-105664450D01*
X208185830Y-106168179D01*
X207903689Y-106627615D01*
X207669510Y-106806641D01*
X207221371Y-106931933D01*
X206750445Y-106867925D01*
X206343131Y-106615300D01*
X206182869Y-106436109D01*
X206041451Y-106158202D01*
X206118222Y-105980533D01*
X206411718Y-105918000D01*
X206416466Y-105918010D01*
X206679697Y-105956668D01*
X206788945Y-106047794D01*
X206853889Y-106155993D01*
X207071866Y-106289502D01*
X207321029Y-106308318D01*
X207561464Y-106152294D01*
X207727960Y-105866080D01*
X207798415Y-105513721D01*
X207750731Y-105159263D01*
X207562807Y-104866750D01*
X207398293Y-104741564D01*
X207243279Y-104747115D01*
X207008568Y-104910133D01*
X206953135Y-104951293D01*
X206613124Y-105119767D01*
X206303123Y-105157918D01*
X206106495Y-105052581D01*
X206089941Y-105004451D01*
X206156252Y-104794107D01*
X206354106Y-104557080D01*
X206614190Y-104363462D01*
X206867188Y-104283346D01*
X206959730Y-104286372D01*
G37*
G36*
X205911010Y-105676351D02*
G01*
X205844704Y-106168111D01*
X205600395Y-106591223D01*
X205326418Y-106803911D01*
X204878339Y-106929093D01*
X204409990Y-106869085D01*
X203978842Y-106645321D01*
X203642368Y-106279234D01*
X203458040Y-105792257D01*
X203440332Y-105534558D01*
X203459026Y-105449746D01*
X204234744Y-105449746D01*
X204270621Y-105844425D01*
X204485119Y-106162007D01*
X204658130Y-106326946D01*
X204788997Y-106515611D01*
X204815100Y-106566899D01*
X204945772Y-106590326D01*
X205113605Y-106431357D01*
X205272168Y-106127304D01*
X205390336Y-105637563D01*
X205370202Y-105181899D01*
X205208182Y-104858170D01*
X205164042Y-104814791D01*
X204984871Y-104686708D01*
X204807255Y-104713071D01*
X204536058Y-104899768D01*
X204373615Y-105073909D01*
X204234744Y-105449746D01*
X203459026Y-105449746D01*
X203554843Y-105015031D01*
X203845352Y-104590617D01*
X204274094Y-104329032D01*
X204343690Y-104307844D01*
X204629073Y-104253778D01*
X204777064Y-104280649D01*
X204873911Y-104356587D01*
X205119576Y-104462445D01*
X205200661Y-104492041D01*
X205573113Y-104768029D01*
X205815188Y-105186228D01*
X205903427Y-105637563D01*
X205911010Y-105676351D01*
G37*
G36*
X211663171Y-104860867D02*
G01*
X211865649Y-105056182D01*
X211880563Y-105309310D01*
X211697001Y-105526990D01*
X211363809Y-105726487D01*
X210990624Y-105851853D01*
X210684453Y-105854331D01*
X210505543Y-105820192D01*
X210486127Y-105898220D01*
X210474490Y-106045341D01*
X210287452Y-106173578D01*
X209995542Y-106245593D01*
X209673650Y-106230736D01*
X209569283Y-106210335D01*
X209360239Y-106216465D01*
X209303797Y-106347746D01*
X209270725Y-106458451D01*
X209106181Y-106729881D01*
X208850007Y-107048280D01*
X208546455Y-107348832D01*
X208328565Y-107462353D01*
X208208746Y-107358171D01*
X208172114Y-107036018D01*
X208222495Y-106667637D01*
X208388166Y-106272289D01*
X208628454Y-105969433D01*
X208900823Y-105810185D01*
X209162732Y-105845659D01*
X209222577Y-105847105D01*
X209258164Y-105696597D01*
X209265118Y-105640475D01*
X209416275Y-105500038D01*
X209693209Y-105429187D01*
X210004308Y-105441355D01*
X210257959Y-105549978D01*
X210276382Y-105565127D01*
X210392835Y-105633680D01*
X210367502Y-105509935D01*
X210358434Y-105452852D01*
X210461558Y-105241026D01*
X210709581Y-105023869D01*
X211030205Y-104854569D01*
X211351128Y-104786317D01*
X211663171Y-104860867D01*
G37*
G36*
X197483995Y-105710041D02*
G01*
X197468833Y-106004419D01*
X197362141Y-106339561D01*
X197106767Y-106653110D01*
X196928295Y-106844530D01*
X196817040Y-107027379D01*
X196757628Y-107266046D01*
X196733862Y-107625746D01*
X196729540Y-108171694D01*
X196728057Y-108366637D01*
X196706820Y-108865187D01*
X196663900Y-109194275D01*
X196603797Y-109313049D01*
X196561404Y-109279334D01*
X196495615Y-109064096D01*
X196463190Y-108715772D01*
X196448325Y-108118495D01*
X196323844Y-108715772D01*
X196297011Y-108833418D01*
X196165229Y-109187155D01*
X196018201Y-109297133D01*
X195872442Y-109161560D01*
X195744465Y-108778643D01*
X195624788Y-108244237D01*
X195611322Y-108778643D01*
X195602537Y-108950658D01*
X195540298Y-109228765D01*
X195409242Y-109313049D01*
X195381887Y-109310422D01*
X195301351Y-109241733D01*
X195252068Y-109048288D01*
X195227379Y-108687928D01*
X195220629Y-108118495D01*
X195220693Y-107958194D01*
X195225316Y-107460298D01*
X195245787Y-107155011D01*
X195293928Y-106995247D01*
X195381557Y-106933919D01*
X195520497Y-106923940D01*
X195645892Y-106933788D01*
X195770506Y-107013485D01*
X195846892Y-107224305D01*
X195908095Y-107626111D01*
X195949170Y-107923175D01*
X195998185Y-108197151D01*
X196031292Y-108286260D01*
X196051298Y-108219709D01*
X196097624Y-107961497D01*
X196150995Y-107584089D01*
X196169463Y-107431302D01*
X196189442Y-107111084D01*
X196147264Y-106961139D01*
X196032614Y-106923940D01*
X195983485Y-106916185D01*
X195741633Y-106789371D01*
X195462441Y-106556385D01*
X195237918Y-106290492D01*
X195123293Y-105993683D01*
X195094886Y-105567591D01*
X195096140Y-105541478D01*
X195835653Y-105541478D01*
X195886553Y-105919022D01*
X196080955Y-106193791D01*
X196226325Y-106319164D01*
X196363876Y-106511248D01*
X196398897Y-106567741D01*
X196553537Y-106574119D01*
X196709045Y-106423620D01*
X196891447Y-106050102D01*
X196973125Y-105601387D01*
X196941360Y-105172426D01*
X196783429Y-104858170D01*
X196724259Y-104799446D01*
X196571489Y-104684382D01*
X196418097Y-104705476D01*
X196159274Y-104863650D01*
X196140918Y-104876257D01*
X195922395Y-105160707D01*
X195835653Y-105541478D01*
X195096140Y-105541478D01*
X195111329Y-105225185D01*
X195204324Y-104898717D01*
X195412319Y-104628920D01*
X195469096Y-104575971D01*
X195745663Y-104384695D01*
X196033872Y-104258030D01*
X196260497Y-104221539D01*
X196352312Y-104300783D01*
X196377020Y-104352979D01*
X196550598Y-104409089D01*
X196599086Y-104416912D01*
X196838414Y-104543782D01*
X197116440Y-104776644D01*
X197291774Y-104973444D01*
X197444646Y-105286117D01*
X197473910Y-105601387D01*
X197483995Y-105710041D01*
G37*
G36*
X191920445Y-105298303D02*
G01*
X191951322Y-105700220D01*
X191926682Y-106099655D01*
X191816415Y-106402164D01*
X191574094Y-106691800D01*
X191402878Y-106874455D01*
X191287780Y-107057952D01*
X191226175Y-107294446D01*
X191201419Y-107650090D01*
X191201181Y-107678396D01*
X191196866Y-108191039D01*
X191196798Y-108259020D01*
X191187635Y-108784815D01*
X191157987Y-109107015D01*
X191100609Y-109268725D01*
X191008252Y-109313049D01*
X190942630Y-109298871D01*
X190847896Y-109144054D01*
X190819639Y-108784931D01*
X190819528Y-108761510D01*
X190783874Y-108454722D01*
X190705730Y-108377451D01*
X190616201Y-108519802D01*
X190546393Y-108871875D01*
X190473081Y-109134119D01*
X190285233Y-109289759D01*
X190162115Y-109284719D01*
X190084918Y-109152139D01*
X190065183Y-108826720D01*
X190067768Y-108722317D01*
X190110252Y-108409291D01*
X190188351Y-108245829D01*
X190240504Y-108168716D01*
X190169956Y-107943030D01*
X190094600Y-107725068D01*
X190096697Y-107678396D01*
X190568153Y-107678396D01*
X190591732Y-107824566D01*
X190693896Y-107929881D01*
X190766981Y-107882723D01*
X190819639Y-107678396D01*
X190796060Y-107532226D01*
X190693896Y-107426911D01*
X190620811Y-107474068D01*
X190568153Y-107678396D01*
X190096697Y-107678396D01*
X190108555Y-107414424D01*
X190221854Y-107157011D01*
X190408621Y-107049683D01*
X190476857Y-107033632D01*
X190439647Y-106922852D01*
X190196398Y-106694772D01*
X190105160Y-106614306D01*
X189893216Y-106363964D01*
X189862777Y-106191801D01*
X189997983Y-106096765D01*
X190239935Y-106047843D01*
X190467396Y-106067626D01*
X190568153Y-106161012D01*
X190627883Y-106252718D01*
X190843269Y-106365599D01*
X191100368Y-106372638D01*
X191346239Y-106171528D01*
X191442859Y-106036283D01*
X191565478Y-105728574D01*
X191524810Y-105502774D01*
X191322609Y-105415030D01*
X191175955Y-105450037D01*
X191071124Y-105603643D01*
X191030892Y-105702156D01*
X190837785Y-105772065D01*
X190442411Y-105792257D01*
X189813698Y-105792257D01*
X189813698Y-105346443D01*
X189841774Y-105152529D01*
X190507198Y-105152529D01*
X190596504Y-105258989D01*
X190876225Y-105268929D01*
X191310756Y-105179575D01*
X191464971Y-105130892D01*
X191535681Y-105045600D01*
X191400745Y-104882416D01*
X191368778Y-104851543D01*
X191155456Y-104737562D01*
X190885109Y-104808012D01*
X190673201Y-104938424D01*
X190516146Y-105117705D01*
X190507198Y-105152529D01*
X189841774Y-105152529D01*
X189852354Y-105079453D01*
X190045226Y-104686591D01*
X190345738Y-104396512D01*
X190692604Y-104283346D01*
X190742191Y-104286116D01*
X191096508Y-104395942D01*
X191484876Y-104620162D01*
X191794143Y-104895859D01*
X191842228Y-104983566D01*
X191857644Y-105045600D01*
X191920445Y-105298303D01*
G37*
G36*
X201130530Y-106162355D02*
G01*
X201130730Y-106357221D01*
X201137148Y-106904944D01*
X201159299Y-107265972D01*
X201206168Y-107490829D01*
X201286739Y-107630043D01*
X201409993Y-107734137D01*
X201422599Y-107742988D01*
X201552468Y-107847120D01*
X201539116Y-107902554D01*
X201346471Y-107923972D01*
X200938459Y-107926057D01*
X200810048Y-107924794D01*
X200466351Y-107907689D01*
X200340841Y-107866269D01*
X200407510Y-107794067D01*
X200556595Y-107620613D01*
X200627559Y-107226351D01*
X200627399Y-107154152D01*
X200603438Y-106903091D01*
X200485572Y-106828508D01*
X200198392Y-106867315D01*
X200188115Y-106869205D01*
X199812367Y-106899550D01*
X199505429Y-106864101D01*
X199209581Y-106655634D01*
X198994953Y-106272592D01*
X198886735Y-105788106D01*
X198891702Y-105599607D01*
X199621619Y-105599607D01*
X199682431Y-105905096D01*
X199850830Y-106214197D01*
X200075701Y-106451871D01*
X200305568Y-106564717D01*
X200488955Y-106499339D01*
X200536550Y-106408640D01*
X200598631Y-106069104D01*
X200602715Y-105584039D01*
X200595232Y-105455605D01*
X200551664Y-105079274D01*
X200471602Y-104882507D01*
X200335283Y-104807953D01*
X200224442Y-104802257D01*
X199930038Y-104930531D01*
X199708848Y-105218776D01*
X199621619Y-105599607D01*
X198891702Y-105599607D01*
X198900326Y-105272302D01*
X199051127Y-104795310D01*
X199242597Y-104532190D01*
X199607645Y-104309916D01*
X200015071Y-104291276D01*
X200397609Y-104491449D01*
X200512806Y-104591764D01*
X200609588Y-104629526D01*
X200627559Y-104491449D01*
X200627919Y-104439738D01*
X200654872Y-104313013D01*
X200775317Y-104306392D01*
X201059473Y-104405977D01*
X201281951Y-104464867D01*
X201382015Y-104406572D01*
X201443847Y-104357704D01*
X201695047Y-104311795D01*
X202073599Y-104300481D01*
X202357934Y-104315538D01*
X202651407Y-104357018D01*
X202765183Y-104411997D01*
X202844322Y-104495092D01*
X203079540Y-104586467D01*
X203174917Y-104616670D01*
X203359634Y-104738267D01*
X203377964Y-104857984D01*
X203205282Y-104912059D01*
X203150104Y-104933737D01*
X203054504Y-105128528D01*
X203004547Y-105466211D01*
X202999011Y-105873900D01*
X203036675Y-106278706D01*
X203116318Y-106607744D01*
X203236718Y-106788126D01*
X203326811Y-106864130D01*
X203235775Y-106906564D01*
X202922361Y-106920117D01*
X202387955Y-106923940D01*
X202387955Y-106240542D01*
X202370402Y-105786365D01*
X202279929Y-105281600D01*
X202116074Y-104999055D01*
X201882869Y-104949046D01*
X201726072Y-104965611D01*
X201563333Y-104900255D01*
X201520797Y-104855325D01*
X201311723Y-104786317D01*
X201266015Y-104797282D01*
X201199118Y-104896706D01*
X201157625Y-105131631D01*
X201136457Y-105540649D01*
X201136043Y-105584039D01*
X201130530Y-106162355D01*
G37*
G36*
X194468315Y-106029878D02*
G01*
X194495274Y-106430366D01*
X194563557Y-106663556D01*
X194686223Y-106788126D01*
X194803656Y-106866282D01*
X194830782Y-106920117D01*
X194825181Y-106923437D01*
X194816253Y-107071822D01*
X194849301Y-107396232D01*
X194918474Y-107835574D01*
X194922507Y-107858178D01*
X194976154Y-108181366D01*
X195003795Y-108347889D01*
X195063257Y-108768135D01*
X195088271Y-109030129D01*
X195057384Y-109206286D01*
X194906272Y-109313049D01*
X194818311Y-109291141D01*
X194717658Y-109124436D01*
X194695750Y-109036474D01*
X194529044Y-108935822D01*
X194441083Y-108957730D01*
X194340431Y-109124436D01*
X194293754Y-109234426D01*
X194088945Y-109313049D01*
X193943344Y-109307203D01*
X193837632Y-109281614D01*
X193841114Y-109256045D01*
X193876309Y-109043629D01*
X193941310Y-108665852D01*
X194026074Y-108181366D01*
X194043494Y-108082504D01*
X194485683Y-108082504D01*
X194505238Y-108401416D01*
X194516994Y-108437092D01*
X194549633Y-108410132D01*
X194562743Y-108181366D01*
X194561527Y-108096052D01*
X194541684Y-107922182D01*
X194505238Y-107961317D01*
X194485683Y-108082504D01*
X194043494Y-108082504D01*
X194110826Y-107700395D01*
X194175654Y-107301344D01*
X194195547Y-107068996D01*
X194168264Y-106958528D01*
X194091563Y-106925117D01*
X193963203Y-106923940D01*
X193851046Y-106939874D01*
X193775358Y-107020631D01*
X193733455Y-107212887D01*
X193715515Y-107563292D01*
X193712805Y-107959489D01*
X193711718Y-108118495D01*
X193711303Y-108291747D01*
X193700457Y-108801805D01*
X193669913Y-109113935D01*
X193613014Y-109270297D01*
X193523104Y-109313049D01*
X193390724Y-109235305D01*
X193334490Y-108935822D01*
X193334482Y-108931326D01*
X193301736Y-108667925D01*
X193224465Y-108558594D01*
X193222518Y-108558652D01*
X193123522Y-108671604D01*
X193038995Y-108935822D01*
X193020870Y-109023006D01*
X192961104Y-109189155D01*
X192836320Y-109275432D01*
X192584363Y-109308007D01*
X192143079Y-109313049D01*
X191952984Y-109311607D01*
X191571518Y-109288855D01*
X191377022Y-109230057D01*
X191322609Y-109124436D01*
X191384136Y-109001407D01*
X191636965Y-108935822D01*
X191694896Y-108934494D01*
X191899387Y-108860755D01*
X191951322Y-108621465D01*
X191897042Y-108380785D01*
X191699837Y-108307109D01*
X191553182Y-108272101D01*
X191448351Y-108118495D01*
X191495028Y-108008504D01*
X191699837Y-107929881D01*
X191882346Y-107872130D01*
X191959334Y-107703067D01*
X191886117Y-107515291D01*
X191668401Y-107404221D01*
X191455509Y-107330239D01*
X191442000Y-107302802D01*
X192417451Y-107302802D01*
X192426436Y-107709602D01*
X192432727Y-107850665D01*
X192461752Y-108462177D01*
X192488184Y-108847800D01*
X192519190Y-109028894D01*
X192561937Y-109026818D01*
X192623593Y-108862931D01*
X192711326Y-108558594D01*
X192782953Y-108290811D01*
X192840848Y-107959489D01*
X192816972Y-107696851D01*
X192711326Y-107396116D01*
X192666126Y-107290374D01*
X192536695Y-107029284D01*
X192454292Y-106924352D01*
X192428640Y-107019077D01*
X192417451Y-107302802D01*
X191442000Y-107302802D01*
X191383373Y-107183727D01*
X191502059Y-107035019D01*
X191794143Y-106947409D01*
X192202807Y-106908007D01*
X192204179Y-106192654D01*
X192961718Y-106192654D01*
X192975889Y-106588993D01*
X193039895Y-107097774D01*
X193145876Y-107426911D01*
X193325579Y-107741267D01*
X193330034Y-107352787D01*
X193330268Y-107338296D01*
X193405239Y-107014102D01*
X193648846Y-106821077D01*
X193786050Y-106746748D01*
X193901719Y-106608167D01*
X193952145Y-106363482D01*
X193963203Y-105940184D01*
X193948231Y-105541133D01*
X193877357Y-105204124D01*
X193733252Y-104994419D01*
X193507584Y-104834451D01*
X193263698Y-104818577D01*
X193092358Y-105038205D01*
X192992164Y-105495506D01*
X192961718Y-106192654D01*
X192204179Y-106192654D01*
X192204661Y-105941469D01*
X192217004Y-105451968D01*
X192283887Y-104921757D01*
X192424429Y-104578257D01*
X192656129Y-104385346D01*
X192996486Y-104306900D01*
X193148185Y-104299132D01*
X193469436Y-104354992D01*
X193712432Y-104558385D01*
X193844154Y-104707909D01*
X193936094Y-104755460D01*
X193959020Y-104620665D01*
X194044040Y-104474047D01*
X194301101Y-104485714D01*
X194717658Y-104667328D01*
X194745104Y-104682524D01*
X194832052Y-104771129D01*
X194686223Y-104854185D01*
X194610950Y-104896522D01*
X194521723Y-105041192D01*
X194477862Y-105323281D01*
X194466173Y-105799462D01*
X194467481Y-105940184D01*
X194468315Y-106029878D01*
G37*
%TD*%
M02*
